<svg width="20" height="20" viewBox="0 0 20 20" fill="none" xmlns="http://www.w3.org/2000/svg">
<path d="M17.6172 10L18.8281 11.5137C18.9453 11.6634 19.0365 11.8262 19.1016 12.002C19.1667 12.1777 19.1992 12.3633 19.1992 12.5586C19.1992 12.7539 19.1699 12.9395 19.1113 13.1152C19.0527 13.291 18.9681 13.4505 18.8574 13.5938C18.7467 13.737 18.6133 13.8607 18.457 13.9648C18.3008 14.069 18.1315 14.1471 17.9492 14.1992L16.084 14.7168C16.097 15.0488 16.1133 15.3841 16.1328 15.7227C16.1523 16.0612 16.1654 16.3997 16.1719 16.7383C16.1719 16.9727 16.1296 17.1908 16.0449 17.3926C15.9603 17.5944 15.8398 17.7702 15.6836 17.9199C15.5273 18.0697 15.3483 18.1901 15.1465 18.2812C14.9447 18.3724 14.7233 18.418 14.4824 18.418C14.2806 18.418 14.082 18.3822 13.8867 18.3105L12.0801 17.627L11.0156 19.2383C10.8594 19.4727 10.6576 19.6582 10.4102 19.7949C10.1628 19.9316 9.89258 20 9.59961 20C9.31315 20 9.04622 19.9316 8.79883 19.7949C8.55143 19.6582 8.34635 19.4727 8.18359 19.2383L7.11914 17.627L5.3125 18.3105C5.11719 18.3822 4.91862 18.418 4.7168 18.418C4.48242 18.418 4.26432 18.3757 4.0625 18.291C3.86068 18.2064 3.68164 18.0859 3.52539 17.9297C3.36914 17.7734 3.2487 17.5944 3.16406 17.3926C3.07943 17.1908 3.03385 16.9727 3.02734 16.7383C3.02734 16.3997 3.03711 16.0612 3.05664 15.7227C3.07617 15.3841 3.0957 15.0488 3.11523 14.7168L1.25 14.1992C1.0612 14.1471 0.891927 14.069 0.742188 13.9648C0.592448 13.8607 0.46224 13.737 0.351562 13.5938C0.240885 13.4505 0.15625 13.291 0.0976562 13.1152C0.0390625 12.9395 0.00651042 12.7539 0 12.5586C0 12.3698 0.0325521 12.1875 0.0976562 12.0117C0.16276 11.8359 0.253906 11.6699 0.371094 11.5137L1.58203 10L0.371094 8.48633C0.123698 8.18034 0 7.83203 0 7.44141C0 7.24609 0.0292969 7.06055 0.0878906 6.88477C0.146484 6.70898 0.23112 6.54948 0.341797 6.40625C0.452474 6.26302 0.582682 6.13932 0.732422 6.03516C0.882161 5.93099 1.05469 5.85286 1.25 5.80078L3.11523 5.2832C3.10221 4.95117 3.08594 4.61589 3.06641 4.27734C3.04688 3.9388 3.03385 3.60026 3.02734 3.26172C3.02734 3.02734 3.06966 2.80924 3.1543 2.60742C3.23893 2.4056 3.35938 2.22982 3.51562 2.08008C3.67188 1.93034 3.85091 1.8099 4.05273 1.71875C4.25456 1.6276 4.47591 1.58203 4.7168 1.58203C4.91862 1.58203 5.11719 1.61784 5.3125 1.68945L7.11914 2.37305L8.18359 0.761719C8.33984 0.527344 8.54167 0.341797 8.78906 0.205078C9.03646 0.0683594 9.30664 0 9.59961 0C9.88607 0 10.153 0.0683594 10.4004 0.205078C10.6478 0.341797 10.8529 0.527344 11.0156 0.761719L12.0801 2.37305L13.8867 1.68945C14.082 1.61784 14.2806 1.58203 14.4824 1.58203C14.7168 1.58203 14.9349 1.62435 15.1367 1.70898C15.3385 1.79362 15.5176 1.91406 15.6738 2.07031C15.8301 2.22656 15.9505 2.4056 16.0352 2.60742C16.1198 2.80924 16.1654 3.02734 16.1719 3.26172C16.1719 3.60026 16.1621 3.9388 16.1426 4.27734C16.123 4.61589 16.1035 4.95117 16.084 5.2832L17.9492 5.80078C18.1315 5.85286 18.3008 5.93099 18.457 6.03516C18.6133 6.13932 18.7435 6.26302 18.8477 6.40625C18.9518 6.54948 19.0365 6.70898 19.1016 6.88477C19.1667 7.06055 19.1992 7.24609 19.1992 7.44141C19.1992 7.83203 19.0755 8.18034 18.8281 8.48633L17.6172 10ZM17.9492 12.5586C17.9492 12.4674 17.9167 12.3796 17.8516 12.2949L16.0156 10L17.8516 7.70508C17.9167 7.62044 17.9492 7.53255 17.9492 7.44141C17.9492 7.22005 17.8385 7.07682 17.6172 7.01172L15.752 6.49414L14.7949 6.23047C14.8145 5.73568 14.8405 5.24089 14.873 4.74609C14.9056 4.2513 14.9219 3.75651 14.9219 3.26172C14.9219 3.15104 14.8763 3.05339 14.7852 2.96875C14.694 2.88411 14.5931 2.83854 14.4824 2.83203C14.4434 2.83203 14.3555 2.85156 14.2188 2.89062C14.082 2.92969 13.9225 2.98503 13.7402 3.05664C13.5579 3.12826 13.3561 3.20638 13.1348 3.29102C12.9134 3.37565 12.7051 3.45703 12.5098 3.53516C12.3145 3.61328 12.1322 3.6849 11.9629 3.75C11.7936 3.8151 11.6667 3.86393 11.582 3.89648L11.0352 3.06641L9.9707 1.44531C9.88607 1.3151 9.76237 1.25 9.59961 1.25C9.43685 1.25 9.31315 1.3151 9.22852 1.44531L8.16406 3.06641L7.61719 3.89648C7.53255 3.86393 7.40885 3.8151 7.24609 3.75C7.08333 3.6849 6.89779 3.61328 6.68945 3.53516C6.48112 3.45703 6.27279 3.37565 6.06445 3.29102C5.85612 3.20638 5.65755 3.13151 5.46875 3.06641C5.27995 3.0013 5.11719 2.94596 4.98047 2.90039C4.84375 2.85482 4.75586 2.83203 4.7168 2.83203C4.60612 2.83203 4.50521 2.87435 4.41406 2.95898C4.32292 3.04362 4.27734 3.14453 4.27734 3.26172C4.27734 3.75651 4.29362 4.2513 4.32617 4.74609C4.35872 5.24089 4.38477 5.73568 4.4043 6.23047L3.44727 6.49414L1.58203 7.01172C1.36068 7.07682 1.25 7.22005 1.25 7.44141C1.25 7.53255 1.28255 7.62044 1.34766 7.70508L3.18359 10L1.34766 12.2949C1.28255 12.3796 1.25 12.4674 1.25 12.5586C1.25 12.7799 1.36068 12.9232 1.58203 12.9883L3.44727 13.5059L4.4043 13.7695C4.38477 14.2643 4.35872 14.7591 4.32617 15.2539C4.29362 15.7487 4.27734 16.2435 4.27734 16.7383C4.27734 16.849 4.32292 16.9466 4.41406 17.0312C4.50521 17.1159 4.60612 17.1615 4.7168 17.168C4.75586 17.168 4.84375 17.1484 4.98047 17.1094C5.11719 17.0703 5.27669 17.015 5.45898 16.9434C5.64128 16.8717 5.8431 16.7936 6.06445 16.709C6.28581 16.6243 6.49414 16.543 6.68945 16.4648C6.88477 16.3867 7.06706 16.3151 7.23633 16.25C7.4056 16.1849 7.53255 16.1361 7.61719 16.1035L8.16406 16.9336L9.22852 18.5547C9.31315 18.6849 9.43685 18.75 9.59961 18.75C9.76237 18.75 9.88607 18.6849 9.9707 18.5547L11.0352 16.9336L11.582 16.1035C11.6667 16.1361 11.7904 16.1849 11.9531 16.25C12.1159 16.3151 12.3014 16.3867 12.5098 16.4648C12.7181 16.543 12.9264 16.6243 13.1348 16.709C13.3431 16.7936 13.5417 16.8685 13.7305 16.9336C13.9193 16.9987 14.082 17.054 14.2188 17.0996C14.3555 17.1452 14.4434 17.168 14.4824 17.168C14.5931 17.168 14.694 17.1257 14.7852 17.041C14.8763 16.9564 14.9219 16.8555 14.9219 16.7383C14.9219 16.2435 14.9056 15.7487 14.873 15.2539C14.8405 14.7591 14.8145 14.2643 14.7949 13.7695L15.752 13.5059L17.6172 12.9883C17.8385 12.9232 17.9492 12.7799 17.9492 12.5586ZM8.34961 11.6113L12.9102 7.06055L13.7891 7.93945L8.34961 13.3887L5.41016 10.4395L6.28906 9.56055L8.34961 11.6113Z" fill="#FFAA29"/>
</svg>
