<svg width="16" height="15" viewBox="0 0 16 15" fill="none" xmlns="http://www.w3.org/2000/svg">
<path d="M14.4315 1.26796C12.7033 -0.422975 9.94057 -0.422607 8.21283 1.26879L0.966554 8.5151C-0.343718 9.85627 -0.318677 12.0057 1.02249 13.3159C2.34158 14.6047 4.44828 14.6047 5.76737 13.3159L12.329 6.7543C13.182 5.90128 13.182 4.51823 12.329 3.66521C11.476 2.81219 10.0929 2.81219 9.2399 3.66521L2.96356 9.94152C2.74464 10.1682 2.75093 10.5294 2.9776 10.7483C3.19872 10.9619 3.54925 10.9619 3.77037 10.7483L10.0467 4.47199C10.4629 4.07328 11.1235 4.08749 11.5222 4.50368C11.9088 4.90731 11.9088 5.54389 11.5222 5.94752L4.96059 12.5091C4.07417 13.3829 2.64719 13.3727 1.77337 12.4863C0.908382 11.6088 0.908382 10.1993 1.77337 9.32189L9.01965 2.07558C10.3104 0.78436 12.4035 0.783992 13.6947 2.07471C14.9859 3.36542 14.9863 5.45851 13.6955 6.74972L6.44922 13.996C6.20988 14.201 6.182 14.5612 6.38697 14.8005C6.59194 15.0399 6.95214 15.0678 7.19148 14.8628C7.21382 14.8437 7.23461 14.8229 7.25373 14.8005L14.5 7.55423C16.217 5.79941 16.1864 2.98493 14.4315 1.26796Z" fill="#A6AAB5"/>
</svg>
