<svg width="22" height="22" viewBox="0 0 22 22" fill="none" xmlns="http://www.w3.org/2000/svg">
<path d="M8.6421 4.74611V0.93229C8.64196 0.513273 8.29009 0.173695 7.85614 0.173828C7.63359 0.173873 7.42153 0.265091 7.27255 0.424722L0.201102 8.01143C-0.0574962 8.28953 -0.0678548 8.70801 0.176747 8.99771L7.24824 17.3431C7.523 17.6673 8.01801 17.7152 8.3539 17.4499C8.53585 17.3062 8.6416 17.0913 8.6421 16.8643V13.0839C14.8493 13.2789 18.7229 15.8409 20.4688 20.8982C20.5759 21.2076 20.8758 21.4162 21.2137 21.4164C21.256 21.4165 21.2984 21.4132 21.3402 21.4065C21.7203 21.3466 21.9994 21.0296 21.9994 20.6577C21.9994 11.7236 16.4294 5.16033 8.6421 4.74611ZM7.85637 11.5536C7.42241 11.5536 7.07063 11.8933 7.07063 12.3123V14.7401L1.81967 8.54247L7.07067 2.90935V5.48426C7.07067 5.90328 7.42245 6.24295 7.85641 6.24295C14.0322 6.24295 18.6538 10.3694 20.0163 16.6655C17.487 13.2698 13.4146 11.5536 7.85637 11.5536Z" fill="#FFAA29"/>
</svg>
