<svg width="29" height="29" viewBox="0 0 29 29" fill="none" xmlns="http://www.w3.org/2000/svg">
<path d="M27.4389 25.6042H1.55951C1.31697 25.6042 1.12012 25.8011 1.12012 26.0436V27.0824H27.8783V26.0436C27.8783 25.8007 27.6815 25.6042 27.4389 25.6042Z" fill="#FFCC66"/>
<path d="M28.1208 27.0823H0.878359C0.635813 27.0823 0.438965 27.2791 0.438965 27.5217V28.3701C0.438965 28.4752 0.524207 28.5604 0.629222 28.5604H28.3695C28.4749 28.5604 28.5602 28.4752 28.5602 28.3697V27.5212C28.5602 27.2791 28.3633 27.0823 28.1208 27.0823Z" fill="#E0AE55"/>
<path d="M27.0304 24.5019L26.3871 23.8345H23.2995L22.6562 24.5019C22.5771 24.5836 22.5332 24.6931 22.5332 24.8069V25.6039H27.1534V24.8069C27.1534 24.6931 27.1095 24.5841 27.0304 24.5019Z" fill="#E0AE55"/>
<path d="M23.2998 13.3718H26.3874V23.8347H23.2998V13.3718Z" fill="#FFCC66"/>
<path d="M23.7456 13.3718H24.1441V23.8342H23.7456V13.3718Z" fill="#E0AE55"/>
<path d="M24.644 13.3718H25.0426V23.8342H24.644V13.3718Z" fill="#E0AE55"/>
<path d="M25.543 13.3718H25.9415V23.8342H25.543V13.3718Z" fill="#E0AE55"/>
<path d="M26.5552 12.6233H23.1323C22.5672 12.6233 22.1094 13.0811 22.1094 13.6462C22.1094 14.2113 22.5672 14.6691 23.1323 14.6691C23.6125 14.6691 24.0155 14.3382 24.1253 13.8918H25.5621C25.6724 14.3378 26.0749 14.6691 26.5552 14.6691C27.1202 14.6691 27.5781 14.2113 27.5781 13.6462C27.5781 13.0811 27.1202 12.6233 26.5552 12.6233Z" fill="#E0AE55"/>
<path d="M20.1344 24.5019L19.4911 23.8345H16.4035L15.7602 24.5019C15.6811 24.5836 15.6372 24.6931 15.6372 24.8069V25.6039H20.2574V24.8069C20.2574 24.6931 20.2135 24.5841 20.1344 24.5019Z" fill="#E0AE55"/>
<path d="M16.4038 13.3718H19.4914V23.8347H16.4038V13.3718Z" fill="#FFCC66"/>
<path d="M19.6592 12.6233H16.2363C15.6712 12.6233 15.2134 13.0811 15.2134 13.6462C15.2134 14.2113 15.6712 14.6691 16.2363 14.6691C16.7165 14.6691 17.1195 14.3382 17.2293 13.8918H18.6661C18.7764 14.3378 19.1789 14.6691 19.6592 14.6691C20.2242 14.6691 20.6821 14.2113 20.6821 13.6462C20.6825 13.0811 20.2242 12.6233 19.6592 12.6233Z" fill="#E0AE55"/>
<path d="M13.2384 24.5019L12.5951 23.8345H9.50751L8.86424 24.5019C8.78515 24.5836 8.74121 24.6931 8.74121 24.8069V25.6039H13.3614V24.8069C13.3614 24.6931 13.3175 24.5841 13.2384 24.5019Z" fill="#E0AE55"/>
<path d="M9.50732 13.3718H12.595V23.8347H9.50732V13.3718Z" fill="#FFCC66"/>
<path d="M12.7627 12.6233H9.3398C8.77474 12.6233 8.31689 13.0811 8.31689 13.6462C8.31689 14.2113 8.77474 14.6691 9.3398 14.6691C9.82006 14.6691 10.223 14.3382 10.3328 13.8918H11.7697C11.8799 14.3378 12.2824 14.6691 12.7627 14.6691C13.3277 14.6691 13.7856 14.2113 13.7856 13.6462C13.7856 13.0811 13.3277 12.6233 12.7627 12.6233Z" fill="#E0AE55"/>
<path d="M6.3429 24.5019L5.69963 23.8345H2.61201L1.96873 24.5019C1.88964 24.5836 1.8457 24.6931 1.8457 24.8069V25.6039H6.46593V24.8069C6.46593 24.6931 6.42155 24.5841 6.3429 24.5019Z" fill="#E0AE55"/>
<path d="M2.61182 13.3718H5.69944V23.8347H2.61182V13.3718Z" fill="#FFCC66"/>
<path d="M5.86669 12.6233H2.44381C1.87875 12.6233 1.4209 13.0811 1.4209 13.6462C1.4209 14.2113 1.87875 14.6691 2.44381 14.6691C2.92407 14.6691 3.32699 14.3382 3.43684 13.8918H4.87366C4.98394 14.3378 5.38643 14.6691 5.86669 14.6691C6.43175 14.6691 6.8896 14.2113 6.8896 13.6462C6.89003 13.0811 6.43175 12.6233 5.86669 12.6233Z" fill="#E0AE55"/>
<path d="M16.8496 13.3718H17.2481V23.8342H16.8496V13.3718Z" fill="#E0AE55"/>
<path d="M17.7485 13.3718H18.1471V23.8342H17.7485V13.3718Z" fill="#E0AE55"/>
<path d="M18.647 13.3718H19.0455V23.8342H18.647V13.3718Z" fill="#E0AE55"/>
<path d="M9.95312 13.3718H10.3517V23.8342H9.95312V13.3718Z" fill="#E0AE55"/>
<path d="M10.8521 13.3718H11.2506V23.8342H10.8521V13.3718Z" fill="#E0AE55"/>
<path d="M11.7515 13.3718H12.15V23.8342H11.7515V13.3718Z" fill="#E0AE55"/>
<path d="M3.05713 13.3718H3.45566V23.8342H3.05713V13.3718Z" fill="#E0AE55"/>
<path d="M3.95605 13.3718H4.35459V23.8342H3.95605V13.3718Z" fill="#E0AE55"/>
<path d="M4.85449 13.3718H5.25302V23.8342H4.85449V13.3718Z" fill="#E0AE55"/>
<path d="M28.2604 11.3811L14.8809 0.556198C14.6506 0.400213 14.3488 0.400213 14.1185 0.556198L0.738543 11.3811C0.184028 11.7568 0.450301 12.6233 1.11994 12.6233H27.8795C28.5491 12.6233 28.8149 11.7568 28.2604 11.3811Z" fill="#FFCC66"/>
<path d="M3.23877 11.2032L14.4996 1.98779L25.7603 11.2032H3.23877Z" fill="#E0AE55"/>
<path d="M14.5025 10.2549C16.199 10.2549 17.5743 8.87964 17.5743 7.18313C17.5743 5.48662 16.199 4.11133 14.5025 4.11133C12.806 4.11133 11.4307 5.48662 11.4307 7.18313C11.4307 8.87964 12.806 10.2549 14.5025 10.2549Z" fill="white"/>
<path d="M14.5169 9.53818C14.4518 9.53818 14.3947 9.51577 14.3525 9.47315C14.3103 9.43053 14.2879 9.37384 14.2879 9.30925V9.0443C13.9448 9.0175 13.6196 8.93797 13.3199 8.8079C13.2624 8.78418 13.2127 8.74551 13.1736 8.6941C13.1314 8.63962 13.1104 8.57591 13.1104 8.50648C13.1104 8.42036 13.1411 8.34259 13.2 8.28107C13.2602 8.21824 13.3402 8.18528 13.4311 8.18528C13.4803 8.18528 13.5282 8.19539 13.573 8.21516C13.7866 8.31007 14.0265 8.36807 14.2879 8.38785V7.495C14.0862 7.43963 13.9136 7.3812 13.773 7.32144C13.6003 7.24762 13.4526 7.13997 13.334 7.00156C13.2079 6.8548 13.1442 6.66367 13.1442 6.43342C13.1442 6.23658 13.1943 6.05335 13.2927 5.88902C13.3916 5.72424 13.5388 5.58935 13.729 5.48873C13.8876 5.4048 14.0753 5.3512 14.2875 5.32835V5.06164C14.2875 4.99881 14.3086 4.94256 14.349 4.89906C14.3916 4.85249 14.4496 4.82788 14.5164 4.82788C14.581 4.82788 14.639 4.85117 14.6829 4.89511C14.7264 4.93817 14.7497 4.99617 14.7497 5.0612V5.32C15.0292 5.3389 15.2933 5.39338 15.5363 5.48214C15.6751 5.53179 15.7524 5.64164 15.7524 5.79103C15.7524 5.87188 15.7234 5.94746 15.6685 6.00985C15.6101 6.07664 15.5297 6.11179 15.4361 6.11179C15.4005 6.11179 15.3601 6.10256 15.313 6.08367C15.1324 6.01952 14.9426 5.97997 14.7497 5.96635V6.90182C14.9519 6.95235 15.1245 7.00727 15.2638 7.06527C15.4374 7.13777 15.5855 7.24674 15.7045 7.3891C15.8298 7.53894 15.8935 7.73798 15.8935 7.98053C15.8935 8.17957 15.8394 8.3606 15.7313 8.51834C15.6254 8.67345 15.4756 8.79912 15.2849 8.89227C15.1289 8.96916 14.9492 9.01881 14.7493 9.04078V9.30837C14.7493 9.3756 14.7247 9.4336 14.6781 9.47622C14.6359 9.51709 14.5797 9.53818 14.5169 9.53818ZM14.7502 8.37598C15.1619 8.31315 15.2129 8.10751 15.2129 7.95197C15.2129 7.86848 15.1759 7.80916 15.0938 7.75951C15.0121 7.7103 14.8974 7.66285 14.7506 7.61715V8.37598H14.7502ZM14.2879 5.99008C14.1609 6.01512 14.0542 6.05906 13.9707 6.12058C13.8718 6.19352 13.8252 6.28227 13.8252 6.39959C13.8252 6.50724 13.8648 6.58282 13.95 6.63818C14.0318 6.69091 14.1447 6.74012 14.2879 6.7845V5.99008Z" fill="#ED7161"/>
</svg>
