<svg width="45" height="52" viewBox="0 0 45 52" fill="none" xmlns="http://www.w3.org/2000/svg">
<path d="M0.0517578 15.7117H44.9489V49.6947H0.0517578V15.7117Z" fill="#F5F5F7"/>
<path d="M22.5 15.7117H44.9479V49.6942H22.5V15.7117Z" fill="#E0E3EE"/>
<path d="M0.0517578 44.4929H44.9489V51.3115H0.0517578V44.4929Z" fill="#E0E3EE"/>
<path d="M22.5 44.4934H44.9479V51.3112H22.5V44.4934Z" fill="#C3CADD"/>
<path d="M0.0834961 6.36792H44.9173V17.4988H0.0834961V6.36792Z" fill="#FED940"/>
<path d="M22.5 6.36816H44.9169V17.4985H22.5V6.36816Z" fill="#FDBF2D"/>
<path d="M30.4526 9.37886V3.35672C30.4526 1.88737 31.6438 0.696045 33.1133 0.696045C34.5828 0.696045 35.774 1.88724 35.774 3.35672V9.37899C35.774 10.8485 34.5828 12.0397 33.1133 12.0397C31.6438 12.0395 30.4526 10.8483 30.4526 9.37886Z" fill="#EF7A06"/>
<path d="M9.22705 9.37886V3.35672C9.22705 1.88737 10.4182 0.696045 11.8877 0.696045C13.3572 0.696045 14.5484 1.88724 14.5484 3.35672V9.37899C14.5484 10.8485 13.3572 12.0397 11.8877 12.0397C10.4182 12.0395 9.22705 10.8483 9.22705 9.37886Z" fill="#FD9827"/>
</svg>
