<svg width="16" height="16" viewBox="0 0 16 16" fill="none" xmlns="http://www.w3.org/2000/svg">
<path d="M2.35283 13.6473C3.08592 14.3804 3.93988 14.956 4.89104 15.3583C5.87642 15.7751 6.92243 15.9864 8.00006 15.9864C9.07767 15.9864 10.1237 15.7751 11.1091 15.3583C12.0602 14.956 12.9142 14.3803 13.6473 13.6473C14.3804 12.9142 14.9561 12.0602 15.3584 11.1091C15.7751 10.1237 15.9865 9.07764 15.9865 8.00006C15.9865 6.9224 15.7751 5.87639 15.3584 4.89104C14.9561 3.93988 14.3804 3.08592 13.6473 2.35283C12.9142 1.61974 12.0603 1.04406 11.1091 0.641768C10.1237 0.22497 9.07767 0.0136719 8.00006 0.0136719C6.92243 0.0136719 5.87642 0.224997 4.89104 0.641768C3.93988 1.04406 3.08592 1.61977 2.35283 2.35283C1.61974 3.0859 1.04406 3.93988 0.641741 4.89102C0.224997 5.87639 0.0136719 6.9224 0.0136719 8.00006C0.0136719 9.07767 0.224997 10.1237 0.641768 11.1091C1.04406 12.0602 1.61977 12.9142 2.35283 13.6473ZM8.00006 1.17956C11.7669 1.17956 14.8205 4.2332 14.8205 8.00006C14.8205 11.7669 11.7669 14.8205 8.00006 14.8205C4.2332 14.8205 1.17956 11.7669 1.17956 8.00006C1.17956 4.2332 4.2332 1.17956 8.00006 1.17956Z" fill="#2ED47A"/>
<path d="M8 16.0009C6.92046 16.0009 5.87268 15.7892 4.88567 15.3718C3.93287 14.9688 3.07745 14.3921 2.34316 13.6578C1.60882 12.9234 1.03216 12.068 0.629185 11.1152C0.211679 10.1282 0 9.08038 0 8.00098C0 6.92155 0.211679 5.87371 0.629158 4.88662C1.03213 3.93388 1.60882 3.07845 2.34313 2.34411C3.07745 1.60977 3.9329 1.03311 4.88565 0.630134C5.87274 0.212655 6.92054 0.000976562 7.99997 0.000976562C9.07949 0.000976562 10.1273 0.212655 11.1143 0.630161C12.067 1.03313 12.9225 1.60982 13.6568 2.34414C14.3912 3.07854 14.9679 3.93396 15.3708 4.88665C15.7883 5.87374 16 6.92155 16 8.00098C16 9.08038 15.7883 10.1282 15.3708 11.1153C14.9679 12.068 14.3912 12.9234 13.6568 13.6578C12.9225 14.3921 12.0671 14.9688 11.1143 15.3718C10.1273 15.7892 9.07948 16.0009 8 16.0009ZM8 0.0281916C6.92422 0.0281916 5.88 0.239135 4.89629 0.655199C3.94678 1.05681 3.09424 1.63151 2.3624 2.36335C1.63054 3.09522 1.05584 3.94773 0.654223 4.89721C0.238159 5.88095 0.0272151 6.92519 0.0272151 8.00098C0.0272151 9.0767 0.238159 10.121 0.654223 11.1047C1.05584 12.0542 1.63054 12.9067 2.3624 13.6386C3.09422 14.3704 3.94673 14.9451 4.89629 15.3467C5.87989 15.7628 6.92413 15.9737 8 15.9737C9.07586 15.9737 10.1201 15.7628 11.1037 15.3467C12.0532 14.9451 12.9058 14.3704 13.6376 13.6386C14.3695 12.9066 14.9442 12.0541 15.3457 11.1047C15.7618 10.121 15.9728 9.07673 15.9728 8.00098C15.9728 6.92519 15.7618 5.88095 15.3457 4.89726C14.9442 3.94781 14.3695 3.0953 13.6376 2.36338C12.9057 1.63154 12.0532 1.05684 11.1037 0.655226C10.1201 0.239135 9.07581 0.0281916 8 0.0281916ZM8 14.835C6.17455 14.835 4.45834 14.1242 3.16756 12.8334C1.87678 11.5426 1.16589 9.82642 1.16589 8.00098C1.16589 6.17553 1.87675 4.45932 3.16756 3.16854C4.45834 1.87775 6.17455 1.16687 8 1.16687C9.82545 1.16687 11.5416 1.87775 12.8324 3.16854C14.1232 4.45935 14.8341 6.17553 14.8341 8.00098C14.8341 9.82642 14.1232 11.5426 12.8324 12.8334C11.5416 14.1242 9.82542 14.835 8 14.835ZM8 1.19408C6.18182 1.19408 4.47247 1.90214 3.1868 3.18778C1.90116 4.47344 1.19311 6.18279 1.19311 8.00098C1.19311 9.81916 1.90116 11.5285 3.1868 12.8141C4.47244 14.0998 6.18182 14.8078 8 14.8078C9.81818 14.8078 11.5275 14.0998 12.8132 12.8141C14.0988 11.5285 14.8069 9.81913 14.8069 8.00098C14.8069 6.18279 14.0988 4.47342 12.8132 3.18778C11.5275 1.90211 9.81818 1.19408 8 1.19408Z" fill="#2ED47A"/>
<path d="M6.23179 10.9076C6.34112 11.017 6.48938 11.0783 6.64399 11.0783C6.79863 11.0783 6.94687 11.0169 7.05619 10.9076L12.0471 5.91678C12.2747 5.68912 12.2747 5.32003 12.0471 5.09238C11.8194 4.86473 11.4503 4.8647 11.2226 5.09238L6.64399 9.67103L4.77688 7.80389C4.54922 7.57621 4.18013 7.57621 3.95248 7.80389C3.72482 8.03155 3.72482 8.40064 3.95248 8.62829L6.23179 10.9076Z" fill="#2ED47A"/>
<path d="M6.64414 11.0919C6.48479 11.0919 6.33498 11.0298 6.2223 10.9172L3.94299 8.63785C3.71041 8.40524 3.71041 8.02679 3.94299 7.79419C4.05566 7.68149 4.20548 7.61944 4.36482 7.61944C4.52417 7.61944 4.67396 7.68149 4.78666 7.79419L6.64417 9.65169L11.2132 5.08268C11.3258 4.96998 11.4757 4.90796 11.635 4.90796C11.7943 4.90796 11.9441 4.97001 12.0568 5.08268C12.1695 5.19535 12.2316 5.34517 12.2316 5.50451C12.2316 5.66385 12.1695 5.81365 12.0568 5.92634L7.06597 10.9172C6.95333 11.0298 6.80351 11.0919 6.64414 11.0919ZM4.36482 7.64668C4.21275 7.64668 4.06978 7.7059 3.96226 7.81345C3.74029 8.03545 3.74029 8.39662 3.96226 8.61861L6.24157 10.8979C6.3491 11.0054 6.49206 11.0647 6.64414 11.0647C6.79624 11.0647 6.9392 11.0054 7.04673 10.8979L12.0376 5.9071C12.1451 5.79958 12.2043 5.65659 12.2043 5.50454C12.2043 5.35249 12.1451 5.20947 12.0376 5.10195C11.93 4.99439 11.787 4.9352 11.635 4.9352C11.4829 4.9352 11.3399 4.99442 11.2324 5.10195L6.64414 9.6902L4.76739 7.81345C4.65986 7.7059 4.5169 7.64668 4.36482 7.64668Z" fill="#2ED47A"/>
</svg>
