<svg width="26" height="26" viewBox="0 0 26 26" fill="none" xmlns="http://www.w3.org/2000/svg">
<path d="M12.9935 0C5.811 0 0 5.81752 0 13C0 20.1824 5.811 25.9999 12.9935 25.9999C20.176 25.9999 26 20.1824 26 13C26 5.81752 20.176 0 12.9935 0ZM13 23.4C7.25399 23.4 2.59996 18.746 2.59996 13C2.59996 7.25393 7.25399 2.60002 13 2.60002C18.7459 2.60002 23.4 7.25399 23.4 13C23.4 18.7459 18.746 23.4 13 23.4Z" fill="#A6AAB5"/>
<path d="M13.6497 13.325V6.5H11.6997V14.3L18.5182 18.395L19.4997 16.796L13.6497 13.325Z" fill="#A6AAB5"/>
</svg>
