<svg width="12" height="12" viewBox="0 0 12 12" fill="none" xmlns="http://www.w3.org/2000/svg">
<path d="M5.997 0C2.682 0 0 2.68501 0 5.99999C0 9.31497 2.682 12 5.997 12C9.31201 12 12 9.31497 12 5.99999C12 2.68501 9.31198 0 5.997 0ZM5.99999 10.8C3.348 10.8 1.19998 8.652 1.19998 5.99999C1.19998 3.34797 3.348 1.20001 5.99999 1.20001C8.65197 1.20001 10.8 3.348 10.8 5.99999C10.8 8.65197 8.652 10.8 5.99999 10.8Z" fill="white"/>
<path d="M6.2999 6.15V3H5.3999V6.6L8.54689 8.49L8.9999 7.752L6.2999 6.15Z" fill="white"/>
</svg>
