<svg width="20" height="22" viewBox="0 0 20 22" fill="none" xmlns="http://www.w3.org/2000/svg">
<path d="M20 11.8296C20 9.40633 18.2306 7.38878 15.9161 7.00019V1.40127C15.9161 0.952042 15.5519 0.587891 15.1027 0.587891H0.813382C0.364192 0.587891 0 0.952042 0 1.40127V17.5062C0 17.9555 0.364192 18.3196 0.813382 18.3196H12.1353V20.5971C12.1353 21.2335 12.836 21.6241 13.3775 21.2882L15.1026 20.2178L16.8277 21.2882C17.3637 21.6209 18.07 21.2394 18.07 20.5971V15.7228C19.2422 14.8272 20 13.4154 20 11.8296ZM1.62676 16.6929V2.21465H14.2893V7.00019C13.1743 7.18739 12.1859 7.75248 11.4608 8.55903H4.3775C3.92827 8.55903 3.56412 8.92318 3.56412 9.37241C3.56412 9.82164 3.92827 10.1858 4.3775 10.1858H10.4894C10.3057 10.6999 10.2053 11.2532 10.2053 11.8296C10.2053 12.1988 10.2466 12.5584 10.3244 12.9044H4.3775C3.92827 12.9044 3.56412 13.2686 3.56412 13.7178C3.56412 14.1671 3.92827 14.5312 4.3775 14.5312H11.02C11.3231 14.9878 11.7007 15.3907 12.1353 15.7228V16.6929H1.62676ZM16.4432 19.1351L15.5315 18.5694C15.2688 18.4064 14.9365 18.4064 14.6738 18.5694L13.7621 19.1351V16.5405C14.6349 16.7892 15.5701 16.7893 16.4432 16.5405V19.1351ZM15.1027 15.1002C13.2992 15.1002 11.8321 13.633 11.8321 11.8296C11.8321 10.0262 13.2992 8.55903 15.1027 8.55903C16.9061 8.55903 18.3732 10.0262 18.3732 11.8296C18.3732 13.633 16.9061 15.1002 15.1027 15.1002ZM5.51265 5.027C5.51265 4.57777 5.8768 4.21362 6.32604 4.21362H9.58997C10.0392 4.21362 10.4034 4.57777 10.4034 5.027C10.4034 5.47623 10.0392 5.84038 9.58997 5.84038H6.32604C5.87685 5.84038 5.51265 5.47623 5.51265 5.027Z" fill="#C4C4C4"/>
</svg>
