<svg width="16" height="16" viewBox="0 0 16 16" fill="none" xmlns="http://www.w3.org/2000/svg">
<path d="M8 0C3.58875 0 0 3.58875 0 8C0 12.4113 3.58875 16 8 16C12.4113 16 16 12.4113 16 8C16 3.58875 12.4113 0 8 0ZM8 14.8572C4.21899 14.8572 1.14282 11.781 1.14282 8C1.14282 4.21899 4.21899 1.14282 8 1.14282C11.781 1.14282 14.8572 4.21899 14.8572 8C14.8572 11.781 11.781 14.8572 8 14.8572Z" fill="#FF0000"/>
<path d="M10.857 4.57137C10.7108 4.57137 10.5645 4.62715 10.453 4.73885L4.73874 10.4531C4.51547 10.6763 4.51547 11.0379 4.73874 11.2611C4.96188 11.4842 5.32358 11.4843 5.54672 11.2611L11.261 5.54683C11.4842 5.32356 11.4842 4.96199 11.261 4.73885C11.1494 4.62715 11.0033 4.57137 10.857 4.57137Z" fill="#FF0000"/>
<path d="M5.14267 4.57132C4.99643 4.57132 4.85031 4.62711 4.73874 4.7388C4.51547 4.96194 4.51547 5.32364 4.73874 5.54678L10.453 11.261C10.6762 11.4843 11.0378 11.4843 11.261 11.261C11.4841 11.0379 11.4842 10.6762 11.261 10.453L5.54672 4.7388C5.43515 4.62711 5.28891 4.57132 5.14267 4.57132Z" fill="#FF0000"/>
</svg>
