<svg width="25" height="14" viewBox="0 0 25 14" fill="none" xmlns="http://www.w3.org/2000/svg">
<path d="M16.9425 7.56811L18.7919 6.13888L18.4946 2.82565C18.5607 2.82565 18.6267 2.85814 18.6928 2.85814C19.2212 2.85814 19.6835 2.43586 19.6835 1.88366C19.6835 1.33145 19.2542 0.90918 18.6928 0.90918C18.1644 0.90918 17.702 1.33145 17.702 1.88366C17.702 2.24097 17.9002 2.53331 18.1644 2.69572L16.0508 6.13888L16.9425 7.56811Z" fill="#FFAA29"/>
<path d="M10.2714 11.3037H3.73242V13.9998H21.2687V11.3037H14.6968H10.2714Z" fill="#FFAA29"/>
<path d="M24.6698 2.14362C24.5376 2.04617 24.4056 1.94872 24.2404 1.91624C24.1744 1.88376 24.0753 1.88376 24.0092 1.88376C23.4808 1.88376 23.0185 2.30603 23.0185 2.85824C23.0185 3.1181 23.1176 3.34548 23.3157 3.50789L18.8243 6.98353L16.7107 8.60766L15.6539 6.82111L12.7147 1.88376C12.9458 1.81879 13.177 1.68886 13.3091 1.49397C13.4082 1.33155 13.4742 1.13666 13.4742 0.941763C13.4742 0.422042 13.0449 -0.0327148 12.4835 -0.0327148C11.9551 -0.0327148 11.4927 0.389559 11.4927 0.941763C11.4927 1.13666 11.5588 1.33155 11.6579 1.49397C11.79 1.68886 11.9881 1.81879 12.2523 1.88376L9.31308 6.82111L8.25628 8.60766L6.14267 6.98353L1.68428 3.50789C1.84941 3.34548 1.94848 3.1181 1.98151 2.85824C1.98151 2.33852 1.55218 1.88376 0.990753 1.88376C0.891678 1.88376 0.825628 1.88376 0.759577 1.91624C0.561427 1.94872 0.429326 2.04617 0.330251 2.14362C0.1321 2.30603 0 2.56589 0 2.85824C0 3.34548 0.363276 3.73527 0.858653 3.80023C0.891678 3.80023 0.924703 3.80023 0.990753 3.80023C1.1889 3.80023 1.38705 3.73527 1.55218 3.63782L3.66579 10.1993H5.91149H7.03435H17.9987H19.1215H21.3672L23.4478 3.63782C23.6129 3.73527 23.8111 3.80023 24.0092 3.80023C24.0423 3.80023 24.1083 3.80023 24.1413 3.80023C24.6367 3.73527 25 3.34548 25 2.85824C25 2.56589 24.8679 2.30603 24.6698 2.14362Z" fill="#FFAA29"/>
<path d="M6.27493 2.85814C6.34098 2.85814 6.40703 2.85814 6.47308 2.82565L6.20888 6.17136L8.05829 7.6006L8.91694 6.17136L6.77031 2.69572C7.06754 2.53331 7.26569 2.24097 7.26569 1.88366C7.26569 1.36394 6.83636 0.90918 6.27493 0.90918C5.74653 0.90918 5.28418 1.33145 5.28418 1.88366C5.28418 2.43586 5.74653 2.85814 6.27493 2.85814Z" fill="#FFAA29"/>
</svg>
