<svg width="40" height="55" viewBox="0 0 40 55" fill="none" xmlns="http://www.w3.org/2000/svg">
<path opacity="0.08" d="M6.33652 17.925C7.63652 12.325 10.1115 8.1 13.7615 5.25C17.4115 2.4 22.0865 0.974999 27.7865 0.974999C30.0365 0.974999 31.9615 1.15 33.5615 1.5C35.1615 1.85 36.7615 2.325 38.3615 2.925L36.0365 11.625C34.8365 11.225 33.6115 10.9 32.3615 10.65C31.1115 10.35 29.5615 10.2 27.7115 10.2C24.7115 10.2 22.3615 10.85 20.6615 12.15C19.0115 13.45 17.8115 15.375 17.0615 17.925H33.7115L32.2865 25.35H16.0865C16.0365 25.9 16.0115 26.375 16.0115 26.775C16.0115 27.125 16.0115 27.5 16.0115 27.9C16.0115 28.3 16.0115 28.65 16.0115 28.95C16.0115 29.25 16.0365 29.675 16.0865 30.225H31.3865L29.9615 37.65H17.0615C17.9115 40.65 19.1865 42.75 20.8865 43.95C22.5865 45.1 24.7115 45.675 27.2615 45.675C28.9115 45.675 30.5865 45.525 32.2865 45.225C33.9865 44.925 35.6865 44.425 37.3865 43.725L39.5615 52.35C38.2115 53.05 36.4615 53.65 34.3115 54.15C32.2115 54.7 29.7365 54.975 26.8865 54.975C20.6365 54.975 15.8615 53.475 12.5615 50.475C9.26152 47.425 7.08652 43.15 6.03652 37.65H0.636524V30.225H5.36152C5.31152 29.675 5.28652 29.25 5.28652 28.95C5.28652 28.65 5.28652 28.3 5.28652 27.9C5.28652 27.5 5.28652 27.075 5.28652 26.625C5.28652 26.175 5.31152 25.75 5.36152 25.35H0.636524V17.925H6.33652Z" fill="#C4C4C4"/>
</svg>
