<svg width="22" height="24" viewBox="0 0 22 24" fill="none" xmlns="http://www.w3.org/2000/svg">
<path d="M20.3287 9.71912C20.1797 4.7021 16.0525 0.666504 11 0.666504C5.94751 0.666504 1.82027 4.7021 1.67124 9.71912L1 10.3904V14.9426L1.66667 15.6093V18.7109C1.66667 20.5245 3.14204 21.9998 4.95556 21.9998H5.78133C6.05653 22.7758 6.79756 23.3332 7.66667 23.3332H9C9.86969 23.3332 10.6111 22.775 10.8859 21.9982C10.924 21.9989 10.9621 21.9998 11 21.9998C14.2195 21.9998 16.9132 19.7058 17.5326 16.6665H19.2761L21 14.9426V10.3904L20.3287 9.71912ZM11 1.99984C14.9569 1.99984 18.2516 4.88779 18.8883 8.6665H17.5326C16.9132 5.62721 14.2195 3.33317 11 3.33317C7.78053 3.33317 5.08676 5.62721 4.46738 8.6665H3.11173C3.7484 4.88779 7.04307 1.99984 11 1.99984ZM16.1646 8.6665C14.0095 8.66006 12.4873 8.7913 11.2323 6.95673L10.6228 6.06593L10.0991 7.00966C9.336 8.38472 8.30831 8.6665 7 8.6665H5.83542C6.42898 6.36881 8.51942 4.6665 11 4.6665C13.4806 4.6665 15.571 6.36881 16.1646 8.6665ZM4.33333 15.3332H3.27613L2.33333 14.3904V10.9426L3.27613 9.99984H4.33333V15.3332ZM3 18.7109V16.6665H4.46609C4.71707 17.9098 5.31756 19.0511 6.20716 19.9678C6.02067 20.167 5.8744 20.4041 5.78133 20.6665H4.95556C3.87724 20.6665 3 19.7893 3 18.7109ZM9 21.9998H7.66667C7.29902 21.9998 7 21.7008 7 21.3332C7 20.9656 7.29902 20.6665 7.66667 20.6665H9C9.3676 20.6665 9.66667 20.9656 9.66667 21.3332C9.66667 21.7008 9.3676 21.9998 9 21.9998ZM16.3333 15.3332C16.3333 18.274 13.9408 20.6665 11 20.6665C10.9618 20.6665 10.9232 20.6657 10.8848 20.6649C10.6091 19.8897 9.86849 19.3332 9 19.3332C7.63111 19.3362 7.65293 19.3263 7.48231 19.342C6.32489 18.3275 5.66667 16.8825 5.66667 15.3332V9.99984H7C8.17987 9.99984 9.61676 9.8053 10.729 8.45161C12.1966 9.98952 13.99 9.99984 15.5999 9.99984H16.3333V15.3332ZM19.6667 14.3904L18.7239 15.3332H17.6667V9.99984H18.7239L19.6667 10.9426V14.3904Z" fill="#C4C4C4" stroke="#C4C4C4" stroke-width="0.3"/>
</svg>
