<svg width="18" height="23" viewBox="0 0 18 23" fill="none" xmlns="http://www.w3.org/2000/svg">
<path d="M18 4.15475H16.6154V20.0778C16.6154 20.3663 16.5613 20.6367 16.4531 20.8891C16.345 21.1415 16.1971 21.3615 16.0096 21.549C15.8221 21.7365 15.6022 21.8843 15.3498 21.9925C15.0974 22.1007 14.8269 22.1547 14.5385 22.1547H3.46154C3.17308 22.1547 2.90264 22.1007 2.65024 21.9925C2.39784 21.8843 2.17788 21.7365 1.99038 21.549C1.80288 21.3615 1.65505 21.1415 1.54688 20.8891C1.4387 20.6367 1.38462 20.3663 1.38462 20.0778V4.15475H0V2.77013H5.53846V1.38552C5.53846 1.19081 5.57452 1.01052 5.64663 0.844652C5.71875 0.678786 5.81611 0.534555 5.9387 0.411959C6.0613 0.289363 6.20913 0.188401 6.38221 0.109075C6.55529 0.0297476 6.73558 -0.0063101 6.92308 0.000901442H11.0769C11.2716 0.000901442 11.4519 0.0369591 11.6178 0.109075C11.7837 0.18119 11.9279 0.278546 12.0505 0.401142C12.1731 0.523738 12.274 0.671575 12.3534 0.844652C12.4327 1.01773 12.4688 1.19802 12.4615 1.38552V2.77013H18V4.15475ZM6.92308 2.77013H11.0769V1.38552H6.92308V2.77013ZM15.2308 4.15475H2.76923V20.0778C2.76923 20.2653 2.83774 20.4276 2.97476 20.5646C3.11178 20.7016 3.27404 20.7701 3.46154 20.7701H14.5385C14.726 20.7701 14.8882 20.7016 15.0252 20.5646C15.1623 20.4276 15.2308 20.2653 15.2308 20.0778V4.15475ZM6.92308 18.0009H5.53846V6.92398H6.92308V18.0009ZM9.69231 18.0009H8.30769V6.92398H9.69231V18.0009ZM12.4615 18.0009H11.0769V6.92398H12.4615V18.0009Z" fill="#FFAA29"/>
</svg>
