<svg width="20" height="20" viewBox="0 0 20 20" fill="none" xmlns="http://www.w3.org/2000/svg">
<path d="M10 0C4.48609 0 0 4.48609 0 10C0 15.5139 4.48609 20 10 20C15.5139 20 20 15.5139 20 10C20 4.48609 15.5139 0 10 0ZM10 19.1304C4.96522 19.1304 0.869565 15.0348 0.869565 10C0.869565 4.96522 4.96522 0.869565 10 0.869565C15.0348 0.869565 19.1304 4.96522 19.1304 10C19.1304 15.0348 15.0348 19.1304 10 19.1304Z" fill="#F19305"/>
<path d="M14.3485 9.56474H12.1746V4.34735C12.1746 3.86778 11.7846 3.47778 11.305 3.47778H8.69678C8.69678 3.47778 8.69635 3.47778 8.69592 3.47778C8.46374 3.47778 8.24592 3.56822 8.08157 3.73213C7.91722 3.89648 7.82679 4.11474 7.82679 4.34735V9.56474H5.65287C5.48983 9.56474 5.3407 9.65561 5.26635 9.80039C5.19201 9.94517 5.20461 10.1195 5.29896 10.2521L9.64678 16.3395C9.72852 16.4539 9.86026 16.5217 10.0007 16.5217C10.1411 16.5217 10.2729 16.4539 10.3546 16.3395L14.7024 10.2521C14.7968 10.1195 14.8098 9.94517 14.735 9.80039C14.6603 9.65561 14.5116 9.56474 14.3485 9.56474ZM10.0007 15.3387L6.49766 10.4343H8.26157C8.50157 10.4343 8.69635 10.2395 8.69635 9.99952V4.34735L11.305 4.34691V9.99952C11.305 10.2395 11.4998 10.4343 11.7398 10.4343H13.5037L10.0007 15.3387Z" fill="#F19305"/>
</svg>
