<svg width="17" height="17" viewBox="0 0 17 17" fill="none" xmlns="http://www.w3.org/2000/svg">
<path d="M11.2205 8.21525L9.03125 10.4051V4.78125C9.03125 4.488 8.79325 4.25 8.5 4.25C8.20675 4.25 7.96875 4.488 7.96875 4.78125V10.4051L5.77947 8.21578C5.57175 8.00806 5.23547 8.00806 5.02828 8.21578C4.82056 8.4235 4.82056 8.75978 5.02828 8.96694L8.03356 11.9722C8.16106 12.0997 8.33531 12.139 8.50056 12.1098C8.66525 12.139 8.84003 12.0992 8.96753 11.9722L11.9728 8.96694C12.1805 8.75922 12.1805 8.42297 11.9728 8.21578C11.7645 8.00806 11.4283 8.00806 11.2205 8.21525ZM8.5 0C3.80589 0 0 3.80533 0 8.5C0 13.1947 3.80589 17 8.5 17C13.1941 17 17 13.1941 17 8.5C17 3.80589 13.1947 0 8.5 0ZM8.5 15.9375C4.39236 15.9375 1.0625 12.6076 1.0625 8.5C1.0625 4.39236 4.39236 1.0625 8.5 1.0625C12.6076 1.0625 15.9375 4.39236 15.9375 8.5C15.9375 12.6076 12.6076 15.9375 8.5 15.9375Z" fill="#F19305"/>
</svg>
