<svg width="28" height="28" viewBox="0 0 28 28" fill="none" xmlns="http://www.w3.org/2000/svg">
<g clip-path="url(#clip0)">
<path d="M25.8429 17.5896C25.4577 17.5896 25.1456 17.9018 25.1456 18.287V24.4787C25.1442 25.6336 24.2085 26.5696 23.0535 26.5707H3.48673C2.33175 26.5696 1.39605 25.6336 1.39469 24.4787V6.30655C1.39605 5.15184 2.33175 4.21588 3.48673 4.21451H9.67839C10.0636 4.21451 10.3757 3.90234 10.3757 3.51717C10.3757 3.13227 10.0636 2.81982 9.67839 2.81982H3.48673C1.56194 2.822 0.0021792 4.38177 0 6.30655V24.4789C0.0021792 26.4037 1.56194 27.9635 3.48673 27.9657H23.0535C24.9783 27.9635 26.5381 26.4037 26.5402 24.4789V18.287C26.5402 17.9018 26.2281 17.5896 25.8429 17.5896Z" fill="#F2994A"/>
<path d="M26.2644 1.0251C25.0389 -0.200425 23.052 -0.200425 21.8264 1.0251L9.38537 13.4662C9.30011 13.5514 9.23855 13.6571 9.20641 13.7732L7.57037 19.6796C7.50309 19.9218 7.57146 20.1811 7.74906 20.359C7.92694 20.5366 8.18627 20.605 8.42843 20.538L14.3349 18.9017C14.4509 18.8695 14.5566 18.8079 14.6419 18.7227L27.0827 6.28134C28.3063 5.055 28.3063 3.06974 27.0827 1.84339L26.2644 1.0251ZM10.9048 13.9194L21.0869 3.73712L24.3707 7.02091L14.1883 17.2032L10.9048 13.9194ZM10.2489 15.2357L12.8724 17.8594L9.24345 18.8649L10.2489 15.2357ZM26.0966 5.29525L25.357 6.03482L22.073 2.75076L22.8128 2.01119C23.4935 1.33046 24.5973 1.33046 25.278 2.01119L26.0966 2.82948C26.7762 3.51103 26.7762 4.61398 26.0966 5.29525Z" fill="#F2994A"/>
</g>
<defs>
<clipPath id="clip0">
<rect width="28" height="28" fill="white"/>
</clipPath>
</defs>
</svg>
