<svg width="19" height="20" viewBox="0 0 19 20" fill="none" xmlns="http://www.w3.org/2000/svg">
<path d="M16.25 8.4C16.5125 8.4 16.7563 8.44688 16.9813 8.54063C17.2063 8.63438 17.4063 8.7625 17.5813 8.925C17.7563 9.0875 17.8875 9.28438 17.975 9.51563C18.0625 9.74688 18.1125 9.99375 18.125 10.2563C18.125 10.5 18.0781 10.7375 17.9844 10.9688C17.8906 11.2 17.7563 11.4031 17.5813 11.5781L10.8594 18.3L7.325 19.1813L8.20625 15.6469L14.9281 8.93438C15.1094 8.75313 15.3125 8.61875 15.5375 8.53125C15.7625 8.44375 16 8.4 16.25 8.4ZM16.925 10.2563C16.925 10.0563 16.8625 9.89688 16.7375 9.77813C16.6125 9.65938 16.45 9.6 16.25 9.6C16.1625 9.6 16.0781 9.6125 15.9969 9.6375C15.9156 9.6625 15.8438 9.70938 15.7813 9.77813L9.29375 16.2656L8.975 17.5313L10.2406 17.2125L16.7281 10.7344C16.8594 10.6031 16.925 10.4438 16.925 10.2563ZM1.325 1.2V18H6.06875L5.77813 19.2H0.125V0H10.5781L15.725 5.14688V6.94688C15.4938 6.97813 15.2875 7.025 15.1063 7.0875C14.925 7.15 14.7313 7.24688 14.525 7.37813V6H9.725V1.2H1.325ZM10.925 2.05313V4.8H13.6719L10.925 2.05313ZM12.125 8.4V9.6H3.725V8.4H12.125ZM3.725 14.4V13.2H8.53438L7.33438 14.4H3.725ZM10.9344 10.8L9.73438 12H3.725V10.8H10.9344Z" fill="#FFAA29"/>
</svg>
