<svg width="44" height="44" viewBox="0 0 44 44" fill="none" xmlns="http://www.w3.org/2000/svg">
<path d="M15.4013 14.8523C16.9192 14.8523 18.1497 16.0828 18.1497 17.6007C18.1497 19.1187 16.9192 20.3492 15.4013 20.3492C13.8834 20.3492 12.6528 19.1187 12.6528 17.6007C12.6528 16.0828 13.8834 14.8523 15.4013 14.8523Z" fill="#F39300"/>
<path d="M28.6011 14.8523C30.1191 14.8523 31.3496 16.0828 31.3496 17.6007C31.3496 19.1187 30.1191 20.3492 28.6011 20.3492C27.0831 20.3492 25.8527 19.1187 25.8527 17.6007C25.8527 16.0828 27.0831 14.8523 28.6011 14.8523Z" fill="#F39300"/>
<path d="M13.75 28.5996C12.8387 28.5996 12.1 29.3384 12.1 30.2496C12.1 31.1608 12.8387 31.8996 13.75 31.8996H30.25C31.1612 31.8996 31.9 31.1608 31.9 30.2496C31.9 29.3384 31.1612 28.5996 30.25 28.5996H13.75Z" fill="#F39300"/>
<path d="M0 22C0 9.84973 9.84973 0 22 0C34.1502 0 44 9.84973 44 22C44 34.1502 34.1502 44 22 44C9.84973 44 0 34.1502 0 22ZM22 3.3C11.6723 3.3 3.3 11.6723 3.3 22C3.3 32.3277 11.6723 40.7 22 40.7C32.3277 40.7 40.7 32.3277 40.7 22C40.7 11.6723 32.3277 3.3 22 3.3Z" fill="#F39300"/>
</svg>
