<svg width="44" height="44" viewBox="0 0 44 44" fill="none" xmlns="http://www.w3.org/2000/svg">
<path d="M22 0C34.1503 0 44 9.84974 44 22C44 34.1503 34.1503 44 22 44C9.84974 44 0 34.1503 0 22C0 9.84974 9.84974 0 22 0ZM22 3.3C11.6723 3.3 3.3 11.6723 3.3 22C3.3 32.3277 11.6723 40.7 22 40.7C32.3277 40.7 40.7 32.3277 40.7 22C40.7 11.6723 32.3277 3.3 22 3.3ZM22 25.2854C25.5887 25.2854 28.9528 26.7262 31.4183 29.2354C32.057 29.8854 32.0478 30.9301 31.3978 31.5687C30.7478 32.2074 29.7031 32.1983 29.0645 31.5483C27.2132 29.6642 24.6943 28.5854 22 28.5854C19.2997 28.5854 16.7758 29.669 14.9236 31.5604C14.2861 32.2115 13.2414 32.2224 12.5903 31.5849C11.9392 30.9473 11.9283 29.9026 12.5659 29.2515C15.0325 26.7326 18.4033 25.2854 22 25.2854ZM11.3616 10.5091C11.8791 9.86219 12.7843 9.70803 13.4792 10.113L13.6807 10.2514L19.1807 14.6514C19.8923 15.2207 20.0077 16.259 19.4384 16.9706C19.1126 17.3778 18.6332 17.5898 18.1493 17.5899C18.1494 19.1087 16.9189 20.3392 15.401 20.3392C13.8831 20.3392 12.6525 19.1087 12.6525 17.5908C12.6525 16.4332 13.3682 15.4428 14.3812 15.0378L11.6193 12.8283C10.9077 12.259 10.7923 11.2207 11.3616 10.5091ZM24.8215 14.6516L30.319 10.2516C31.0304 9.6822 32.0688 9.79734 32.6382 10.5088C33.1559 11.1556 33.1078 12.0725 32.5602 12.6617L32.381 12.828L29.6191 15.0371C30.633 15.4417 31.3494 16.4326 31.3494 17.5908C31.3494 19.1087 30.1189 20.3392 28.601 20.3392C27.1779 20.3392 26.0075 19.2577 25.8667 17.8718L25.8526 17.5863C25.3697 17.5899 24.8902 17.378 24.5643 16.9709C24.0467 16.3241 24.0948 15.4071 24.6423 14.818L24.8215 14.6516L30.319 10.2516L24.8215 14.6516Z" fill="#E30B13"/>
</svg>
