<svg width="44" height="44" viewBox="0 0 44 44" fill="none" xmlns="http://www.w3.org/2000/svg">
<path d="M10.4482 21.9998C9.98457 21.9998 9.54231 22.1949 9.22969 22.5372C8.91707 22.8798 8.76293 23.3378 8.80504 23.7996C9.42153 30.5613 14.4148 36.2998 21.9998 36.2998C29.585 36.2998 34.5781 30.5613 35.1948 23.7996C35.2368 23.3378 35.0828 22.8798 34.7702 22.5372C34.4576 22.1949 34.0153 21.9998 33.5516 21.9998H10.4482ZM21.9998 32.9998C17.0341 32.9998 13.4826 29.7449 12.391 25.2998H31.6088C30.5171 29.7449 26.9655 32.9998 21.9998 32.9998Z" fill="#008F37"/>
<path d="M29.1502 14.85C28.2515 14.85 27.5875 15.4819 27.4823 16.1917C27.349 17.0931 26.5099 17.7158 25.6086 17.5823C24.707 17.4488 24.0844 16.6099 24.218 15.7084C24.5731 13.3089 26.6888 11.55 29.1502 11.55C31.6115 11.55 33.7273 13.3089 34.0823 15.7084C34.2159 16.6099 33.5933 17.4488 32.6917 17.5823C31.7904 17.7158 30.9513 17.0931 30.818 16.1917C30.7128 15.4819 30.0489 14.85 29.1502 14.85Z" fill="#008F37"/>
<path d="M13.1824 16.1917C13.2874 15.4819 13.9514 14.85 14.8501 14.85C15.7489 14.85 16.4129 15.4819 16.5179 16.1917C16.6514 17.0931 17.4903 17.7158 18.3917 17.5823C19.2933 17.4488 19.9159 16.6099 19.7823 15.7084C19.4272 13.3089 17.3115 11.55 14.8501 11.55C12.3887 11.55 10.2731 13.3089 9.91791 15.7084C9.78448 16.6099 10.4071 17.4488 11.3085 17.5823C12.21 17.7158 13.0489 17.0931 13.1824 16.1917Z" fill="#008F37"/>
<path d="M22 0C9.84973 0 0 9.84973 0 22C0 34.1502 9.84973 44 22 44C34.1502 44 44 34.1502 44 22C44 9.84973 34.1502 0 22 0ZM3.3 22C3.3 11.6723 11.6723 3.3 22 3.3C32.3277 3.3 40.7 11.6723 40.7 22C40.7 32.3277 32.3277 40.7 22 40.7C11.6723 40.7 3.3 32.3277 3.3 22Z" fill="#008F37"/>
</svg>
