<svg width="45" height="44" viewBox="0 0 45 44" fill="none" xmlns="http://www.w3.org/2000/svg">
<path d="M22.2999 0C34.4502 0 44.2999 9.84974 44.2999 22C44.2999 34.1503 34.4502 44 22.2999 44C10.1497 44 0.299927 34.1503 0.299927 22C0.299927 9.84974 10.1497 0 22.2999 0ZM22.2999 3.29949C11.9719 3.29949 3.59942 11.672 3.59942 22C3.59942 32.328 11.9719 40.7005 22.2999 40.7005C32.6279 40.7005 41.0004 32.328 41.0004 22C41.0004 11.672 32.6279 3.29949 22.2999 3.29949ZM22.2999 25.2939C25.8881 25.2939 29.2517 26.7345 31.7168 29.2433C32.3554 29.8932 32.3462 30.9377 31.6963 31.5763C31.0464 32.2149 30.0019 32.2057 29.3633 31.5558C27.5123 29.6721 24.9938 28.5934 22.2999 28.5934C19.6001 28.5934 17.0765 29.6769 15.2247 31.5679C14.5872 32.2189 13.5427 32.2299 12.8917 31.5924C12.2407 30.9549 12.2298 29.9104 12.8672 29.2594C15.3335 26.7409 18.7038 25.2939 22.2999 25.2939ZM15.7019 14.8525C17.2196 14.8525 18.4499 16.0828 18.4499 17.6005C18.4499 19.1182 17.2196 20.3485 15.7019 20.3485C14.1843 20.3485 12.9539 19.1182 12.9539 17.6005C12.9539 16.0828 14.1843 14.8525 15.7019 14.8525ZM28.8999 14.8525C30.4176 14.8525 31.6479 16.0828 31.6479 17.6005C31.6479 19.1182 30.4176 20.3485 28.8999 20.3485C27.3822 20.3485 26.1519 19.1182 26.1519 17.6005C26.1519 16.0828 27.3822 14.8525 28.8999 14.8525Z" fill="#EA4E1B"/>
</svg>
