<svg width="44" height="44" viewBox="0 0 44 44" fill="none" xmlns="http://www.w3.org/2000/svg">
<path d="M22 0C34.1503 0 44 9.84974 44 22C44 34.1503 34.1503 44 22 44C9.84974 44 0 34.1503 0 22C0 9.84974 9.84974 0 22 0ZM22 3.29949C11.672 3.29949 3.29949 11.672 3.29949 22C3.29949 32.328 11.672 40.7005 22 40.7005C32.328 40.7005 40.7005 32.328 40.7005 22C40.7005 11.672 32.328 3.29949 22 3.29949ZM14.217 28.1223C16.0848 30.493 18.9246 31.9019 22 31.9019C25.0712 31.9019 27.9076 30.4968 29.7757 28.1315C30.3404 27.4165 31.3778 27.2947 32.0928 27.8594C32.8078 28.4241 32.9297 29.4616 32.365 30.1766C29.8777 33.3258 26.0916 35.2014 22 35.2014C17.9028 35.2014 14.1123 33.3208 11.6253 30.1643C11.0615 29.4487 11.1845 28.4114 11.9002 27.8475C12.6159 27.2836 13.6532 27.4067 14.217 28.1223ZM15.402 14.8525C16.9197 14.8525 18.15 16.0828 18.15 17.6005C18.15 19.1182 16.9197 20.3485 15.402 20.3485C13.8843 20.3485 12.654 19.1182 12.654 17.6005C12.654 16.0828 13.8843 14.8525 15.402 14.8525ZM28.6 14.8525C30.1176 14.8525 31.348 16.0828 31.348 17.6005C31.348 19.1182 30.1176 20.3485 28.6 20.3485C27.0823 20.3485 25.852 19.1182 25.852 17.6005C25.852 16.0828 27.0823 14.8525 28.6 14.8525Z" fill="#95C020"/>
</svg>
