<svg width="17" height="21" viewBox="0 0 17 21" fill="none" xmlns="http://www.w3.org/2000/svg">
<rect x="4.03027" y="11" width="6" height="2" rx="1" fill="#373737"/>
<path d="M10.7879 1H3.22656C1.99884 1 1 1.99884 1 3.22656V17.7734C1 19.0012 1.99884 20 3.22656 20H13.8357C15.0635 20 16.0623 19.0012 16.0623 17.7734V6.3013L10.7879 1ZM11.2009 3.51973L13.5347 5.86545H11.9431C11.5338 5.86545 11.2009 5.5325 11.2009 5.12326V3.51973ZM14.5779 17.7734C14.5779 18.1827 14.2449 18.5156 13.8357 18.5156H3.22656C2.81732 18.5156 2.48438 18.1827 2.48438 17.7734V3.22656C2.48438 2.81732 2.81732 2.48438 3.22656 2.48438H9.71659V5.12326C9.71659 6.35099 10.7154 7.34982 11.9431 7.34982H14.5779V17.7734Z" fill="#373737" stroke="#373737" stroke-width="0.7"/>
</svg>
