<svg width="15" height="17" viewBox="0 0 15 17" fill="none" xmlns="http://www.w3.org/2000/svg">
<path d="M14.4608 4.1302L10.1686 0.145928C10.0684 0.0528926 9.93163 0 9.78912 0H2.27758C1.39004 0 0.667969 0.670272 0.667969 1.49414V15.5059C0.667969 16.3297 1.39004 17 2.27758 17H13.0084C13.8959 17 14.618 16.3297 14.618 15.5059V4.48242C14.618 4.34662 14.5566 4.21909 14.4608 4.1302ZM10.3257 1.70043L12.7861 3.98438H10.8622C10.5664 3.98438 10.3257 3.76095 10.3257 3.48633V1.70043ZM13.0084 16.0039H2.27758C1.98174 16.0039 1.74105 15.7805 1.74105 15.5059V1.49414C1.74105 1.21952 1.98174 0.996094 2.27758 0.996094H9.25258V3.48633C9.25258 4.3102 9.97466 4.98047 10.8622 4.98047H13.5449V15.5059C13.5449 15.7805 13.3042 16.0039 13.0084 16.0039Z" fill="#A6AAB5"/>
<path d="M10.1309 9.03906H4.1543C3.87924 9.03906 3.65625 9.26205 3.65625 9.53711C3.65625 9.81216 3.87924 10.0352 4.1543 10.0352H10.1309C10.4059 10.0352 10.6289 9.81216 10.6289 9.53711C10.6289 9.26205 10.4059 9.03906 10.1309 9.03906Z" fill="#A6AAB5"/>
<path d="M8.13867 12H4.1543C3.87924 12 3.65625 12.223 3.65625 12.498C3.65625 12.7731 3.87924 12.9961 4.1543 12.9961H8.13867C8.41373 12.9961 8.63672 12.7731 8.63672 12.498C8.63672 12.223 8.41373 12 8.13867 12Z" fill="#A6AAB5"/>
</svg>
