<svg width="18" height="18" viewBox="0 0 18 18" fill="none" xmlns="http://www.w3.org/2000/svg">
<g clip-path="url(#clip0)">
<path d="M14.625 6.18726V3.93726C14.6259 3.78774 14.5672 3.64403 14.4619 3.53789L11.0869 0.16289C10.9807 0.0575968 10.837 -0.00107892 10.6875 -0.000235165H1.6875C0.755508 -0.000235165 0 0.755308 0 1.68726V16.3123C0 17.2443 0.755508 17.9998 1.6875 17.9998H5.625V16.8748H1.6875C1.37682 16.8748 1.125 16.6229 1.125 16.3123V1.68726C1.125 1.37659 1.37682 1.12476 1.6875 1.12476H10.125V3.37476C10.125 3.99608 10.6287 4.49976 11.25 4.49976H13.5V6.18726H14.625Z" fill="#A6AAB5"/>
<path d="M16.875 9H14.625C14.3143 9 14.0625 9.25182 14.0625 9.5625V14.625H15.1875V12.9375H16.875C17.4963 12.9375 18 12.4338 18 11.8125V10.125C18 9.50368 17.4963 9 16.875 9ZM16.875 11.8125H15.1875V10.125H16.875V11.8125Z" fill="#A6AAB5"/>
<path d="M13.5 9H12.375V14.625H13.5V9Z" fill="#A6AAB5"/>
<path d="M11.5492 9.0855C11.4595 9.02943 11.3558 8.99979 11.25 9H7.875V10.125H10.2375L7.9875 13.7644C7.82251 14.0276 7.90214 14.3747 8.16536 14.5397C8.24723 14.5911 8.34096 14.6204 8.4375 14.625H11.8125V13.5H9.45L11.7281 9.86063C11.8928 9.5972 11.8127 9.25017 11.5492 9.0855Z" fill="#A6AAB5"/>
</g>
<defs>
<clipPath id="clip0">
<rect width="18" height="18" fill="white"/>
</clipPath>
</defs>
</svg>
