<svg width="13" height="13" viewBox="0 0 13 13" fill="none" xmlns="http://www.w3.org/2000/svg">
<path d="M12.5355 0H0.464287C0.207864 0 0 0.207864 0 0.464287V2.78567C2.72038e-05 2.91722 0.0558765 3.04261 0.153674 3.13064L4.64278 7.17078V12.5355C4.64268 12.7919 4.85043 12.9999 5.10685 13C5.17897 13 5.25011 12.9833 5.31461 12.951L8.10027 11.5582C8.25768 11.4796 8.3571 11.3186 8.35702 11.1427V7.17078L12.8461 3.13156C12.9442 3.04334 13.0001 2.91758 12.9998 2.78567V0.464287C12.9998 0.207864 12.7919 0 12.5355 0ZM12.0712 2.57905L7.58212 6.61827C7.48408 6.70649 7.42823 6.83225 7.42845 6.96416V10.8557L5.57133 11.7843V6.96416C5.5713 6.83261 5.51545 6.70722 5.41766 6.61922L0.928546 2.57905V0.928546H12.0712V2.57905Z" fill="#94969D"/>
</svg>
