<svg width="421" height="475" viewBox="0 0 421 475" fill="none" xmlns="http://www.w3.org/2000/svg">
<path d="M210.33 419.564C326.375 419.564 420.449 325.641 420.449 209.782C420.449 93.9226 326.375 0 210.33 0C94.2846 0 0.211304 93.9226 0.211304 209.782C0.211304 325.641 94.2846 419.564 210.33 419.564Z" fill="#AEDBFD"/>
<path opacity="0.1" d="M50.9074 96.6959C69.2039 96.6959 84.0362 81.8874 84.0362 63.6202C84.0362 45.3529 69.2039 30.5444 50.9074 30.5444C32.6108 30.5444 17.7786 45.3529 17.7786 63.6202C17.7786 81.8874 32.6108 96.6959 50.9074 96.6959Z" fill="#343434"/>
<path d="M48.4929 91.8747C65.456 91.8747 79.2073 78.1455 79.2073 61.2096C79.2073 44.2737 65.456 30.5444 48.4929 30.5444C31.5299 30.5444 17.7786 44.2737 17.7786 61.2096C17.7786 78.1455 31.5299 91.8747 48.4929 91.8747Z" fill="#0D97FF"/>
<path opacity="0.1" d="M328.215 475H165.961C150.99 475 138.85 462.879 138.85 447.931V93.5745C138.85 78.6273 150.99 66.5063 165.961 66.5063H328.222C343.193 66.5063 355.334 78.6273 355.334 93.5745V447.931C355.326 462.879 343.186 475 328.215 475Z" fill="#343434"/>
<path d="M319.041 475H165.341C150.71 475 138.85 463.158 138.85 448.551V92.9548C138.85 78.3477 150.71 66.5063 165.341 66.5063H319.041C333.672 66.5063 345.532 78.3477 345.532 92.9548V448.551C345.532 463.158 333.672 475 319.041 475Z" fill="#0D97FF"/>
<path d="M319.208 77.0254H297.606L294.503 86.6224C293.277 90.4234 289.765 93.0003 285.806 93.0003H198.568C194.609 93.0003 191.097 90.4234 189.871 86.6224L186.768 77.0254H165.166C154.888 77.0254 146.532 85.4738 146.532 95.8643V451.128C146.532 461.518 154.888 469.967 165.166 469.967H319.2C329.478 469.967 337.834 461.511 337.834 451.128V95.8643C337.842 85.4738 329.486 77.0254 319.208 77.0254Z" fill="#E9F7FF"/>
<path d="M273.098 81.1665H202.806C201.709 81.1665 200.823 80.2823 200.823 79.1866V79.1639C200.823 78.0682 201.709 77.1841 202.806 77.1841H273.098C274.196 77.1841 275.081 78.0682 275.081 79.1639V79.1866C275.089 80.2823 274.196 81.1665 273.098 81.1665Z" fill="#E9F7FF"/>
<path d="M281.583 81.8465C280.122 81.8465 278.934 80.6601 278.934 79.2016V79.1336C278.934 77.6752 280.122 76.4888 281.583 76.4888C283.044 76.4888 284.232 77.6752 284.232 79.1336V79.2016C284.232 80.6676 283.044 81.8465 281.583 81.8465Z" fill="#E9F7FF"/>
<path d="M242.187 270.757C283.784 270.757 317.505 237.09 317.505 195.56C317.505 154.03 283.784 120.363 242.187 120.363C200.59 120.363 166.87 154.03 166.87 195.56C166.87 237.09 200.59 270.757 242.187 270.757Z" fill="#0D97FF"/>
<path d="M242.187 264.787C280.481 264.787 311.525 233.793 311.525 195.56C311.525 157.327 280.481 126.333 242.187 126.333C203.893 126.333 172.849 157.327 172.849 195.56C172.849 233.793 203.893 264.787 242.187 264.787Z" fill="white"/>
<path d="M263.039 226.634H221.343C219.178 226.634 217.422 224.881 217.422 222.719V190.286C217.422 188.125 219.178 186.372 221.343 186.372H263.039C265.204 186.372 266.96 188.125 266.96 190.286V222.719C266.96 224.881 265.204 226.634 263.039 226.634Z" fill="#F26A1D"/>
<path d="M256.258 198.266H228.117V178.527C228.117 170.767 234.414 164.479 242.187 164.479C249.96 164.479 256.258 170.767 256.258 178.527V198.266Z" stroke="#F26A1D" stroke-width="8.1551" stroke-miterlimit="10"/>
<path d="M242.187 208.286C245.444 208.286 248.083 205.65 248.083 202.399C248.083 199.148 245.444 196.512 242.187 196.512C238.931 196.512 236.291 199.148 236.291 202.399C236.291 205.65 238.931 208.286 242.187 208.286Z" fill="#D6560D"/>
<path d="M242.187 216.492C240.787 216.492 239.652 215.358 239.652 213.96V205.61C239.652 204.212 240.787 203.079 242.187 203.079C243.588 203.079 244.723 204.212 244.723 205.61V213.96C244.723 215.358 243.588 216.492 242.187 216.492Z" fill="#D6560D"/>
<path d="M311.525 316.536H172.849V359.745H311.525V316.536Z" fill="#0D97FF"/>
<path d="M307.007 322.46H177.368V353.82H307.007V322.46Z" fill="white"/>
<path d="M194.193 330.515H199.037L198.757 335.208L203.139 333.492L204.638 338.087L200.067 339.266L203.079 342.901L199.143 345.765L196.608 341.775L194.072 345.765L190.151 342.901L193.149 339.266L188.577 338.102L190.076 333.485L194.481 335.2L194.193 330.515Z" fill="#343434"/>
<path d="M216.983 330.515H221.827L221.547 335.208L225.929 333.492L227.428 338.087L222.856 339.266L225.869 342.901L221.933 345.765L219.397 341.775L216.862 345.765L212.941 342.901L215.938 339.266L211.367 338.102L212.865 333.485L217.27 335.2L216.983 330.515Z" fill="#343434"/>
<path d="M239.765 330.515H244.609L244.329 335.208L248.711 333.492L250.21 338.087L245.639 339.266L248.651 342.901L244.715 345.765L242.18 341.775L239.644 345.765L235.723 342.901L238.721 339.266L234.149 338.102L235.648 333.485L240.053 335.2L239.765 330.515Z" fill="#343434"/>
<path d="M262.555 330.515H267.399L267.119 335.208L271.501 333.492L273 338.087L268.428 339.266L271.441 342.901L267.505 345.765L264.969 341.775L262.434 345.765L258.513 342.901L261.51 339.266L256.939 338.102L258.437 333.485L262.843 335.2L262.555 330.515Z" fill="#343434"/>
<path d="M285.337 330.515H290.181L289.901 335.208L294.283 333.492L295.782 338.087L291.21 339.266L294.223 342.901L290.287 345.765L287.751 341.775L285.216 345.765L281.295 342.901L284.293 339.266L279.721 338.102L281.22 333.485L285.625 335.2L285.337 330.515Z" fill="#343434"/>
<path d="M311.525 333.803C319.296 333.803 325.596 327.513 325.596 319.755C325.596 311.997 319.296 305.707 311.525 305.707C303.754 305.707 297.455 311.997 297.455 319.755C297.455 327.513 303.754 333.803 311.525 333.803Z" fill="#F26A1D"/>
<path d="M313.501 324.773C313.501 325.309 313.304 325.77 312.91 326.14C312.509 326.518 312.047 326.715 311.518 326.715C310.988 326.715 310.526 326.526 310.125 326.14C309.746 325.74 309.55 325.279 309.55 324.742C309.55 324.198 309.739 323.737 310.125 323.352C310.511 322.967 310.973 322.77 311.518 322.77C312.07 322.77 312.539 322.967 312.925 323.352C313.311 323.737 313.501 324.206 313.501 324.773ZM313.289 321.878H309.86V312.803H313.289V321.878Z" fill="white"/>
<path d="M294.374 387.946H190.007V415.188H294.374V387.946Z" fill="#F26A1D"/>
<path d="M221.229 406.219H218.118V394.717H223.613V397.423H221.229V399.1H223.454V401.7H221.229V406.219Z" fill="white"/>
<path d="M233.097 402.312C233.097 403.551 232.756 404.541 232.068 405.274C231.379 406.007 230.463 406.377 229.305 406.377C228.17 406.377 227.269 405.999 226.595 405.251C225.929 404.496 225.596 403.483 225.596 402.213C225.596 400.944 225.937 399.924 226.618 399.153C227.292 398.375 228.192 397.989 229.312 397.989C230.493 397.989 231.417 398.375 232.09 399.145C232.764 399.916 233.097 400.974 233.097 402.312ZM230.198 402.213C230.198 401.919 230.175 401.647 230.137 401.405C230.1 401.163 230.039 400.959 229.963 400.785C229.888 400.611 229.797 400.483 229.699 400.385C229.593 400.294 229.479 400.241 229.35 400.241C229.093 400.241 228.896 400.423 228.737 400.778C228.586 401.088 228.503 401.556 228.503 402.183C228.503 402.795 228.578 403.271 228.737 403.589C228.889 403.944 229.101 404.125 229.358 404.125C229.6 404.125 229.804 403.952 229.963 403.596C230.115 403.219 230.198 402.75 230.198 402.213Z" fill="white"/>
<path d="M238.388 406.218H235.398V398.171H238.388L238.229 399.742C238.683 398.564 239.432 397.974 240.477 397.974V401.329C240.151 401.148 239.871 401.065 239.644 401.065C239.243 401.065 238.932 401.208 238.713 401.503C238.493 401.798 238.388 402.213 238.388 402.773V406.218Z" fill="white"/>
<path d="M249.756 398.163V406.445C249.756 407.072 249.673 407.624 249.499 408.085C249.325 408.516 249.044 408.878 248.651 409.181C247.992 409.695 247.152 409.952 246.13 409.952C245.033 409.952 244.185 409.717 243.602 409.241C243.012 408.773 242.649 408.032 242.513 407.035H245.57C245.593 407.473 245.797 407.692 246.199 407.692C246.456 407.692 246.63 407.601 246.736 407.428C246.842 407.254 246.895 406.959 246.895 406.551V405.274C246.365 405.969 245.737 406.317 245.018 406.317C244.238 406.317 243.602 405.939 243.126 405.176C242.649 404.412 242.407 403.415 242.407 402.183C242.407 400.952 242.649 399.946 243.126 399.161C243.61 398.382 244.231 397.989 244.995 397.989C245.351 397.989 245.654 398.08 245.919 398.254C246.191 398.435 246.486 398.76 246.804 399.213L246.744 398.156H249.756V398.163ZM246.857 402.168C246.857 401.004 246.645 400.423 246.214 400.423C245.729 400.423 245.487 400.989 245.487 402.123C245.487 403.287 245.722 403.876 246.191 403.876C246.63 403.868 246.857 403.302 246.857 402.168Z" fill="white"/>
<path d="M259.55 402.312C259.55 403.551 259.209 404.541 258.521 405.274C257.832 406.007 256.916 406.377 255.758 406.377C254.623 406.377 253.722 405.999 253.048 405.251C252.382 404.496 252.049 403.483 252.049 402.213C252.049 400.944 252.39 399.924 253.071 399.153C253.745 398.375 254.645 397.989 255.766 397.989C256.946 397.989 257.87 398.375 258.543 399.145C259.209 399.916 259.55 400.974 259.55 402.312ZM256.644 402.213C256.644 401.919 256.621 401.647 256.583 401.405C256.545 401.163 256.485 400.959 256.409 400.785C256.333 400.611 256.242 400.483 256.144 400.385C256.038 400.294 255.925 400.241 255.796 400.241C255.539 400.241 255.342 400.423 255.183 400.778C255.031 401.088 254.948 401.556 254.948 402.183C254.948 402.795 255.024 403.271 255.183 403.589C255.334 403.944 255.546 404.125 255.803 404.125C256.046 404.125 256.25 403.952 256.409 403.596C256.568 403.219 256.644 402.75 256.644 402.213Z" fill="white"/>
<path d="M265.264 406.219H262.267V400.574H261.419V398.171H262.267V395.806H265.264V398.171H266.256V400.574H265.264V406.219Z" fill="white"/>
<path d="M37.4045 51.5366C32.0534 51.5366 27.7164 55.8666 27.7164 61.2092C27.7164 66.5518 32.0534 70.8818 37.4045 70.8818C42.7557 70.8818 47.0927 66.5518 47.0927 61.2092C47.0851 55.8666 42.7481 51.5366 37.4045 51.5366ZM31.9323 64.0732C30.3504 64.0732 29.0637 62.7886 29.0637 61.2092C29.0637 59.6299 30.3504 58.3452 31.9323 58.3452C33.5142 58.3452 34.8009 59.6299 34.8009 61.2092C34.8009 62.7961 33.5142 64.0732 31.9323 64.0732Z" fill="white"/>
<path d="M37.2001 57.9146V64.504H53.246L55.4561 62.2974L57.6662 64.504H57.8176L60.0807 62.2445L62.0561 64.2168C62.2151 64.3755 62.4724 64.3831 62.6389 64.232L69.2692 58.2168V57.9146H37.2001Z" fill="white"/>
<path d="M83.6048 444.13L80.547 468.675C87.8736 474.796 98.7273 472.649 108.219 467.193C98.0764 465.304 95.4955 460.77 96.7897 444.13H83.6048Z" fill="#FFA6BA"/>
<path d="M80.7437 466.408C79.1089 469.249 79.8052 471.214 79.3662 475H119.579C119.579 475 119.307 469.445 113.403 467.609C107.5 465.773 106.758 467.058 95.5484 470.443C86.269 473.156 80.7437 466.408 80.7437 466.408Z" fill="#13435E"/>
<path d="M63.0325 444.131L64.7052 470.232C56.8487 476.353 46.2826 472.65 36.1025 467.187C50.4001 468.902 49.3329 456.29 48.9771 444.124L63.0325 444.131Z" fill="#FFA6BA"/>
<path d="M91.6655 111.083C91.6655 111.083 97.0167 112.315 95.0261 124.232C94.5795 131.086 99.5371 158.479 99.5371 158.479C81.5081 170.714 61.8746 174.839 43.8456 162.605C48.0539 144.696 55.0399 130.089 64.6523 118.61L91.6655 111.083Z" fill="#343434"/>
<path d="M12.8588 187.217L25.5896 197.668L63.3505 161.963C55.1686 154.467 42.6876 154.754 35.4669 162.605L12.8588 187.217Z" fill="#F26A1D"/>
<path d="M137.518 178.338L137.154 179.162C133.65 187.119 123.947 190.218 116.469 185.767L84.7249 166.875L84.9898 164.109C90.5226 156.001 102.345 154.429 111.397 160.588L137.518 178.338Z" fill="#D6560D"/>
<path d="M65.9618 157.414C71.3962 161.752 76.8382 161.752 82.2726 157.414V127.414H65.9618V157.414Z" fill="#FFA6BA"/>
<path d="M82.2801 150.983C81.2583 151.271 80.1987 151.429 79.1163 151.429C73.5759 151.429 68.7092 147.454 65.9692 141.477V127.414H82.2801V150.983Z" fill="#FF85A0"/>
<path d="M78.2459 146.056C86.3889 146.056 92.99 137.036 92.99 125.91C92.99 114.783 86.3889 105.764 78.2459 105.764C70.103 105.764 63.5018 114.783 63.5018 125.91C63.5018 137.036 70.103 146.056 78.2459 146.056Z" fill="#FFA6BA"/>
<path d="M76.8684 139.58C76.8684 139.58 82.0834 139.006 83.0522 140.26" stroke="#F26A1D" stroke-width="0.7219" stroke-miterlimit="10" stroke-linecap="round"/>
<path d="M91.6656 111.084C91.6656 111.084 82.2121 123.144 66.5673 120.054C64.4858 121.112 63.5019 127.799 63.5019 127.799L59.5434 144.651C59.5434 144.651 45.7832 126.802 53.2385 114.295C60.6938 99.6655 87.6692 91.5345 91.6656 111.084Z" fill="#343434"/>
<path d="M63.6607 130.376C65.6212 130.376 67.2105 128.79 67.2105 126.832C67.2105 124.875 65.6212 123.288 63.6607 123.288C61.7003 123.288 60.111 124.875 60.111 126.832C60.111 128.79 61.7003 130.376 63.6607 130.376Z" fill="#FFA6BA"/>
<path d="M92.3239 125.086C93.1262 124.897 88.7439 122.094 85.7466 122.744C85.2244 123.174 85.0881 123.862 85.02 124.595C88.1005 123.613 90.2274 124.315 92.3239 125.086Z" fill="#343434"/>
<path d="M88.4108 129.28C88.8915 129.28 89.2813 128.526 89.2813 127.595C89.2813 126.665 88.8915 125.91 88.4108 125.91C87.9301 125.91 87.5404 126.665 87.5404 127.595C87.5404 128.526 87.9301 129.28 88.4108 129.28Z" fill="#343434"/>
<path d="M70.9874 125.086C70.1548 124.55 76.3915 121.988 77.9734 122.744C78.753 123.348 78.473 123.968 78.2838 124.595C75.2108 123.613 73.084 124.316 70.9874 125.086Z" fill="#343434"/>
<path d="M74.6357 129.28C75.1164 129.28 75.5061 128.526 75.5061 127.595C75.5061 126.665 75.1164 125.91 74.6357 125.91C74.155 125.91 73.7653 126.665 73.7653 127.595C73.7653 128.526 74.155 129.28 74.6357 129.28Z" fill="#343434"/>
<path d="M82.2803 129.28C82.2803 129.28 82.1365 134.147 83.181 134.532C84.2255 134.918 82.7571 137.532 80.5697 135.348" stroke="#F26A1D" stroke-width="0.7219" stroke-miterlimit="10" stroke-linecap="round"/>
<path d="M63.2596 127.996C63.941 127.996 64.4933 127.444 64.4933 126.764C64.4933 126.084 63.941 125.532 63.2596 125.532C62.5782 125.532 62.0259 126.084 62.0259 126.764C62.0259 127.444 62.5782 127.996 63.2596 127.996Z" fill="#FF85A0"/>
<path d="M52.0578 156.825H59.7477C62.8358 161.993 68.4973 165.462 74.9611 165.462C81.4325 165.462 87.0864 161.993 90.1745 156.825H94.5493C101.376 156.825 106.909 162.349 106.909 169.165V187.49C106.909 190.089 106.478 192.674 105.63 195.13L94.9882 226.014H55.267L44.6252 195.13C43.7775 192.674 43.3461 190.089 43.3461 187.49V165.5C43.3612 160.709 47.2592 156.825 52.0578 156.825Z" fill="#F26A1D"/>
<path d="M106.924 181.852C103.306 185.948 107.333 196.58 87.0031 191.419C80.1987 189.243 69.4283 196.595 63.3505 193.837C54.8583 192.114 45.1399 176.381 43.3612 177.696C42.5589 178.293 38.9637 178.928 36.0875 187.731L43.3612 180.855V187.49C43.3612 190.089 43.7926 192.674 44.6403 195.129L48.9621 207.681C85.4742 197.941 86.6398 204.492 102.602 203.941L102.958 202.913L105.638 195.129C105.955 194.208 106.213 193.27 106.417 192.318C106.75 190.731 106.917 189.114 106.917 187.49V181.852H106.924Z" fill="#D6560D"/>
<path d="M55.5768 230.549L95.0029 230.549L95.0029 226.015L55.5768 226.015L55.5768 230.549Z" fill="#343434"/>
<path d="M46.8807 254.284L55.5773 230.556H95.0034L100.332 245.087C106.334 261.47 108.922 278.904 107.931 296.322L104.404 358.189C104.358 358.959 104.23 359.707 104.018 360.425C103.428 362.458 103.208 364.604 103.602 366.682C103.73 367.347 103.776 368.042 103.745 368.753L99.6582 450.328C93.5123 453.464 87.5556 453.698 81.8412 450.328L79.0785 380.957C79.0937 379.536 79.1769 378.199 79.3283 376.944C81.0464 362.73 81.2811 348.372 80.4485 334.075L76.7095 280.385H73.8712L68.8379 358.181C68.7925 359.012 68.6411 359.821 68.3989 360.592L64.887 450.237C59.1498 453.72 53.1401 453.479 46.911 450.328L42.9146 385.922C42.7254 382.657 42.4756 376.332 43.2325 370.287C45.0036 356.027 45.3291 341.617 44.4889 327.274L42.1123 286.536C41.4765 275.571 43.0963 264.591 46.8807 254.284Z" fill="#455A64"/>
<path d="M49.053 248.344C52.4287 247.15 65.4849 246.084 59.5434 230.548H55.5773L49.053 248.344Z" fill="#7C3992"/>
<path d="M77.7237 297.644L76.7095 280.392L86.3446 278.148L77.7237 297.644Z" fill="#7C3992"/>
<path d="M52.8449 445.733L49.1135 385.929C48.9243 382.665 48.6745 376.34 49.4314 370.294C51.2025 356.035 51.528 341.624 50.6878 327.282L48.3112 286.543C47.6754 275.579 49.2951 264.599 53.072 254.284L61.7686 230.556" stroke="white" stroke-width="0.6355" stroke-miterlimit="10"/>
<path d="M85.4213 445.733L82.8327 380.964C82.8479 379.543 82.9312 378.206 83.0825 376.951C84.8007 362.737 85.0353 348.38 84.2027 334.082L81.0162 279.387" stroke="white" stroke-width="0.6355" stroke-miterlimit="10"/>
<path d="M91.1055 156.825C87.5027 162.598 81.0843 166.444 73.7653 166.444C66.4462 166.444 60.0278 162.598 56.425 156.825H91.1055Z" fill="#FFA6BA"/>
<path d="M64.569 466.408C66.87 468.841 66.5596 470.972 65.9466 475H25.7333C24.5904 474.327 27.3379 468.395 34.5435 467.058C41.1662 465.833 42.521 467.783 47.7359 469.982C57.0078 472.695 64.569 466.408 64.569 466.408Z" fill="#13435E"/>
<path d="M73.4247 231.818H80.5243C82.5906 231.818 84.2709 230.14 84.2709 228.077C84.2709 226.014 82.5906 224.336 80.5243 224.336H73.4247C71.3584 224.336 69.6781 226.014 69.6781 228.077C69.6781 230.14 71.3508 231.818 73.4247 231.818Z" fill="white"/>
<path d="M51.7323 246.598L45.3821 241.173C45.3821 241.173 44.3679 235.12 50.0294 233.827C55.6833 232.528 51.7323 246.598 51.7323 246.598Z" fill="#FF85A0"/>
<path d="M50.6651 226.845L57.2349 231.976C58.7486 233.155 59.6039 234.999 59.4904 236.911C59.286 240.372 57.9085 245.48 51.7399 246.598C45.8513 236.223 44.0953 233.117 44.0953 233.117L50.6651 226.845Z" fill="#FFA6BA"/>
<path d="M11.2542 198.628L45.2686 236.314C49.5223 235.392 52.9283 233.525 54.5783 229.702L27.883 186.817C25.0825 182.888 19.088 182.344 14.5012 185.601C9.89939 188.865 8.45374 194.699 11.2542 198.628Z" fill="#F26A1D"/>
<path d="M110.043 136.225L103.223 122.54C103.223 122.54 91.3779 116.751 91.4385 117.983C91.499 119.215 98.1899 122.948 98.1899 122.948C98.1899 122.948 92.4754 130.24 94.7688 133.353C97.0621 136.467 105.653 140.751 105.653 140.751L110.043 136.225Z" fill="#FFA6BA"/>
<path d="M138.335 179.291L109.187 134.026C104.972 134.117 101.49 135.341 99.5068 138.915L121.048 188.019C123.364 192.59 129.116 194.344 133.885 191.933C138.66 189.522 140.651 183.862 138.335 179.291Z" fill="#F26A1D"/>
</svg>
