<svg width="91" height="91" viewBox="0 0 91 91" fill="none" xmlns="http://www.w3.org/2000/svg">
<g clip-path="url(#clip0)">
<path d="M87.5641 37.5888L50.446 37.587C48.807 37.587 47.4784 38.9154 47.4784 40.5545V52.412C47.4784 54.0508 48.807 55.3795 50.4458 55.3795H71.3485C69.0596 61.3196 64.7876 66.2942 59.3372 69.455L68.25 84.8839C82.5473 76.6152 91 62.1069 91 45.8659C91 43.5534 90.8296 41.9003 90.4887 40.0389C90.2295 38.6246 89.0018 37.5888 87.5641 37.5888Z" fill="#167EE6"/>
<path d="M45.4999 73.1957C35.2706 73.1957 26.3405 67.6067 21.5444 59.3362L6.11597 68.2289C13.9674 81.8366 28.6756 91.0001 45.4999 91.0001C53.7534 91.0001 61.5412 88.7779 68.2499 84.9052V84.8841L59.3371 69.455C55.2602 71.8195 50.5424 73.1957 45.4999 73.1957Z" fill="#12B347"/>
<path d="M68.25 84.9051V84.884L59.3372 69.4548C55.2603 71.8192 50.5429 73.1956 45.5 73.1956V91C53.7535 91 61.5416 88.7778 68.25 84.9051Z" fill="#0F993E"/>
<path d="M17.8044 45.5C17.8044 40.4578 19.1804 35.7406 21.5444 31.6639L6.11602 22.7711C2.22203 29.4587 0 37.2254 0 45.5C0 53.7746 2.22203 61.5412 6.11602 68.2288L21.5444 59.336C19.1804 55.2593 17.8044 50.5421 17.8044 45.5Z" fill="#FFD500"/>
<path d="M45.5 17.8044C52.1705 17.8044 58.2977 20.1746 63.0836 24.1173C64.2643 25.0899 65.9803 25.0197 67.0618 23.9382L75.4633 15.5367C76.6904 14.3096 76.6029 12.301 75.2921 11.1639C67.2737 4.20751 56.8406 0 45.5 0C28.6756 0 13.9674 9.16345 6.11597 22.7712L21.5444 31.6639C26.3405 23.3934 35.2706 17.8044 45.5 17.8044Z" fill="#FF4B26"/>
<path d="M63.0836 24.1173C64.2643 25.0899 65.9805 25.0197 67.0619 23.9382L75.4634 15.5367C76.6903 14.3096 76.6028 12.301 75.2922 11.1639C67.2737 4.20733 56.8407 0 45.5 0V17.8044C52.1704 17.8044 58.2978 20.1746 63.0836 24.1173Z" fill="#D93F21"/>
</g>
<defs>
<clipPath id="clip0">
<rect width="91" height="91" fill="white"/>
</clipPath>
</defs>
</svg>
