<svg width="33" height="34" viewBox="0 0 33 34" fill="none" xmlns="http://www.w3.org/2000/svg">
<path d="M32.2427 24.6712L31.2208 23.2968C31.2304 23.206 32.2753 20.4109 31.0589 17.9842C30.8651 17.5977 30.7131 17.1905 30.6401 16.7644C30.1331 13.8045 31.6329 9.79857 31.6616 9.70792C32.1844 8.0555 32.392 7.39604 31.1288 6.78842C29.7539 6.12706 28.5324 6.89101 27.8192 8.18718C27.7223 8.36311 26.287 11.0259 25.958 14.4862C23.8326 11.6275 18.778 4.82932 17.098 2.56968C16.4707 1.72597 15.2974 1.46601 14.4007 2.01496C13.3723 2.64453 13.1255 4.00291 13.8286 4.94861C13.8235 4.94173 12.7652 3.5182 12.7954 3.55897C12.1371 2.6735 10.8853 2.4397 9.98312 3.07504C9.05007 3.73214 8.84701 5.02458 9.52371 5.93475C10.73 7.55708 10.4526 7.18419 10.584 7.36091C9.88841 6.4253 8.53816 6.2636 7.63886 7.03848C6.83133 7.73426 6.72843 8.95119 7.36442 9.80663L9.32314 12.4411C8.62002 11.4954 7.24821 11.3403 6.34911 12.1439C5.56524 12.8446 5.47623 14.043 6.10351 14.8867C6.42567 15.32 15.2483 27.1862 15.7386 27.8456C16.7476 29.2027 18.1263 30.1227 19.6316 30.5699C21.048 30.9908 21.626 32.1086 21.7914 32.2837L21.8595 32.3752C22.4263 33.1375 23.5035 33.2959 24.2658 32.7292L31.8911 27.0596C32.6479 26.497 32.8052 25.4277 32.2427 24.6712Z" fill="#F4D44E"/>
<path d="M25.3419 5.49742C24.5091 3.74301 23.3322 2.15987 21.8912 0.856226C21.6898 0.674138 21.6743 0.363187 21.8564 0.16183C22.0385 -0.0395281 22.3495 -0.0551281 22.5508 0.12709C24.0865 1.51621 25.3415 3.20376 26.2302 5.07569C26.3466 5.32097 26.2422 5.61429 25.9969 5.7307C25.7527 5.84671 25.4589 5.74387 25.3419 5.49742Z" fill="#EAE9E8"/>
<path d="M22.5858 6.26591C22.0053 5.16145 21.2531 4.14949 20.3613 3.27412C20.1676 3.0839 20.1647 2.77262 20.3549 2.57887C20.5451 2.38505 20.8564 2.3823 21.0502 2.57238C22.0132 3.51775 22.8273 4.61198 23.4562 5.80839C23.5825 6.04869 23.49 6.346 23.2497 6.47231C23.0088 6.59895 22.7119 6.5058 22.5858 6.26591Z" fill="#EAE9E8"/>
<path d="M3.97285 21.6243C2.43698 20.2348 1.18229 18.5479 0.293485 16.6758C0.177009 16.4305 0.28149 16.1372 0.526698 16.0207C0.771972 15.9043 1.06523 16.0088 1.1817 16.254C2.01473 18.0086 3.19121 19.5913 4.63251 20.8952C4.83387 21.0772 4.8494 21.3882 4.66725 21.5896C4.48568 21.7903 4.17473 21.807 3.97285 21.6243Z" fill="#EAE9E8"/>
<path d="M5.47354 19.1787C4.51014 18.233 3.69646 17.1389 3.06754 15.9427C2.94123 15.7023 3.03359 15.4051 3.27395 15.2787C3.5143 15.1525 3.81155 15.2447 3.93786 15.485C4.51867 16.5899 5.27061 17.6016 6.1623 18.477C6.35605 18.6671 6.35894 18.9784 6.16879 19.1722C5.97884 19.3658 5.66749 19.3692 5.47354 19.1787Z" fill="#EAE9E8"/>
<path d="M9.6112 6.05223C10.3556 7.05338 16.2532 14.9855 16.0538 14.7173C16.3788 15.1545 17.0064 15.2243 17.4196 14.8692C17.7953 14.5464 17.8574 13.988 17.5618 13.5904L12.308 6.52436C12.3057 6.52134 12.3036 6.51853 12.3017 6.51597L12.2945 6.50627C12.2917 6.50247 12.2892 6.49906 12.287 6.49604L12.2815 6.48877C12.2815 6.48877 12.2815 6.48864 12.2814 6.48864L11.2644 5.12082C10.7221 4.39142 10.7453 3.41682 11.2559 2.72013C9.64391 2.61538 8.41361 4.44098 9.6112 6.05223Z" fill="#E8C842"/>
<path d="M13.1418 17.5767C13.4905 18.0458 14.1709 18.1042 14.5946 17.7015C14.9243 17.3882 14.9681 16.8781 14.6968 16.5131C14.0092 15.5884 9.62932 9.69761 9.10521 8.99266C8.55921 8.25835 8.5583 7.25798 9.07965 6.54917C7.36136 6.44816 6.3237 8.40655 7.36463 9.80655C9.97665 13.3198 10.4235 13.9209 13.1418 17.5767Z" fill="#E8C842"/>
<path d="M23.6003 31.561L23.5321 31.4695C23.3667 31.2945 22.7888 30.1765 21.3724 29.7558C19.8671 29.3086 18.4884 28.3885 17.4794 27.0314C16.9891 26.372 8.16643 14.5059 7.84427 14.0725C7.29919 13.3394 7.29525 12.3387 7.81785 11.6292C6.10467 11.5292 5.05764 13.4796 6.10376 14.8865C6.42592 15.3198 15.2486 27.186 15.7388 27.8454C16.7479 29.2025 18.1266 30.1225 19.6319 30.5697C21.0483 30.9905 21.6262 32.1084 21.7916 32.2834L21.8597 32.375C22.4265 33.1372 23.5038 33.2957 24.266 32.729L24.9063 32.2529C24.4071 32.2311 23.9216 31.9933 23.6003 31.561Z" fill="#E8C842"/>
<path d="M15.5693 4.1348C15.5693 4.1348 15.5683 4.13349 15.5693 4.1348C15.0261 3.40429 15.0503 2.42778 15.5632 1.73096C15.2086 1.70749 14.8471 1.77756 14.5167 1.95034L14.5166 1.95008C14.3451 2.03975 14.1898 2.15236 14.0568 2.27873C14.0566 2.27893 14.0564 2.27912 14.0561 2.27938C13.3525 2.94841 13.2215 4.03681 13.7643 4.85692L13.8287 4.94875L19.6471 12.7744C19.9869 13.2314 20.65 13.2877 21.062 12.8945C21.4421 12.5318 21.4894 11.9415 21.1719 11.5229L15.5693 4.1348ZM15.0112 3.38423L14.9805 3.343C14.9907 3.3567 15.001 3.3704 15.0112 3.38423Z" fill="#E8C842"/>
<path d="M27.8191 8.18736C27.7587 8.29715 27.1772 9.37663 26.6685 11.0132L26.6679 11.0127C26.3616 11.9982 26.0816 13.1859 25.958 14.4864C26.4973 15.2032 27.6376 14.8545 27.6838 13.9587L27.6985 13.6725C28.0274 10.2121 29.4627 7.5494 29.5596 7.37341C29.7304 7.06305 29.9306 6.78369 30.1549 6.54661C29.1881 6.53238 28.3584 7.20751 27.8191 8.18736Z" fill="#E8C842"/>
<path d="M25.096 5.49738C25.2133 5.74429 25.5075 5.84634 25.751 5.73065C25.9963 5.61424 26.1007 5.32093 25.9843 5.07565C25.0963 3.20516 23.8418 1.51722 22.3049 0.126982C22.1036 -0.0550392 21.7927 -0.0395703 21.6104 0.161787C21.4283 0.363145 21.4439 0.674031 21.6452 0.856249C23.0857 2.15924 24.2625 3.74179 25.096 5.49738Z" fill="black"/>
<path d="M20.109 2.57881C19.9189 2.77257 19.9217 3.08385 20.1155 3.27406C21.0064 4.14851 21.7585 5.15989 22.34 6.26592C22.428 6.43326 22.5988 6.52889 22.7757 6.52889C23.1404 6.52889 23.384 6.1383 23.2105 5.80834C22.5825 4.61376 21.769 3.51914 20.8044 2.57239C20.6106 2.3823 20.2993 2.38506 20.109 2.57881Z" fill="black"/>
<path d="M0.935876 16.254C0.819466 16.0088 0.526213 15.9043 0.280873 16.0208C0.0356651 16.1372 -0.0688155 16.4305 0.0475945 16.6758C0.935614 18.5463 2.19004 20.234 3.72696 21.6243C3.82109 21.7094 3.93894 21.7513 4.05659 21.7513C4.5027 21.7513 4.72143 21.198 4.38649 20.8951C3.66928 20.2463 3.01205 19.5225 2.43321 18.744C1.85424 17.9653 1.35052 17.1274 0.935876 16.254Z" fill="black"/>
<path d="M3.69192 15.4855C3.56568 15.2453 3.26856 15.1529 3.02794 15.2792C2.78765 15.4055 2.69523 15.7028 2.8216 15.9432C3.42666 17.0941 4.22881 18.1988 5.2276 19.1792C5.42123 19.3692 5.73251 19.3666 5.92285 19.1727C6.113 18.9789 6.11012 18.6676 5.91636 18.4774C5.02539 17.6027 4.27338 16.5915 3.69192 15.4855Z" fill="black"/>
</svg>
