<svg width="17" height="17" viewBox="0 0 17 17" fill="none" xmlns="http://www.w3.org/2000/svg">
<path d="M8.49996 15.5832C12.412 15.5832 15.5833 12.4119 15.5833 8.49984C15.5833 4.58782 12.412 1.4165 8.49996 1.4165C4.58794 1.4165 1.41663 4.58782 1.41663 8.49984C1.41663 12.4119 4.58794 15.5832 8.49996 15.5832Z" stroke="#777" stroke-width="1.5" stroke-linecap="round" stroke-linejoin="round"/>
<path d="M8.49996 11.3332C10.0648 11.3332 11.3333 10.0646 11.3333 8.49984C11.3333 6.93503 10.0648 5.6665 8.49996 5.6665C6.93515 5.6665 5.66663 6.93503 5.66663 8.49984C5.66663 10.0646 6.93515 11.3332 8.49996 11.3332Z" stroke="#777" stroke-width="1.5" stroke-linecap="round" stroke-linejoin="round"/>
<path d="M14.9954 5.6665H8.5" stroke="#777" stroke-width="1.5" stroke-linecap="round" stroke-linejoin="round"/>
<path d="M2.79785 4.29248L6.0491 9.91665" stroke="#777" stroke-width="1.5" stroke-linecap="round" stroke-linejoin="round"/>
<path d="M7.70667 15.5407L10.9508 9.9165" stroke="#777" stroke-width="1.5" stroke-linecap="round" stroke-linejoin="round"/>
</svg>
