<svg width="33" height="31" viewBox="0 0 33 31" fill="none" xmlns="http://www.w3.org/2000/svg">
<path d="M32.9982 12.8871C32.9977 12.8758 32.9974 12.8642 32.9962 12.8529C32.9962 12.8524 32.9962 12.8519 32.9962 12.8511C32.7263 10.4089 30.9389 8.41366 28.704 7.56646C29.5927 6.85723 30.164 5.76581 30.164 4.54296C30.164 2.41072 28.4293 0.675781 26.2968 0.675781C24.1643 0.675781 22.4296 2.41072 22.4296 4.54296C22.4296 5.7648 22.9999 6.85521 23.8874 7.56445C22.8823 7.94109 21.9734 8.54307 21.2753 9.30971C20.6003 8.54182 19.7599 7.95242 18.8258 7.5798C19.7241 6.87107 20.3027 5.77361 20.3027 4.54296C20.3027 2.41072 18.568 0.675781 16.4355 0.675781C14.303 0.675781 12.5683 2.41072 12.5683 4.54296C12.5683 5.77361 13.1469 6.87107 14.0455 7.5798C13.1111 7.95242 12.2707 8.54182 11.596 9.30971C10.8976 8.54307 9.98896 7.94109 8.98364 7.56445C9.87113 6.85521 10.4414 5.7648 10.4414 4.54296C10.4414 2.41072 8.70669 0.675781 6.57421 0.675781C4.44172 0.675781 2.70703 2.41072 2.70703 4.54296C2.70703 5.77134 3.28333 6.86679 4.17887 7.57578C2.03581 8.41568 0.461242 10.315 0.106499 12.5674C0.039276 12.6691 0 12.7909 0 12.9218V16.08C0 16.3827 0.210479 16.6445 0.506057 16.7095L3.31052 17.3263C3.64713 18.7128 4.19398 20.0197 4.94047 21.2214L3.64185 23.3854C3.48978 23.6392 3.52981 23.9637 3.73878 24.1729L6.4735 26.9076C6.68272 27.1169 7.0075 27.1566 7.26103 27.0046L9.45948 25.6856C10.6619 26.4154 11.9555 26.9462 13.3153 27.2679C13.5004 28.0086 13.8861 29.552 13.9377 29.7579C13.9402 29.7695 13.943 29.7811 13.9463 29.7927C14.0203 30.0666 14.2708 30.2683 14.5684 30.2683C14.6036 30.2683 14.6386 30.2652 14.6724 30.2597H18.4336C18.7294 30.2597 18.9872 30.0585 19.0587 29.7715L19.6846 27.2679C21.0444 26.9462 22.338 26.4154 23.5405 25.6856L25.7389 27.0046C25.9924 27.1569 26.3172 27.1169 26.5264 26.9076L29.2612 24.1729C29.4701 23.9637 29.5102 23.6392 29.3581 23.3856L28.0595 21.2214C28.8062 20.0187 29.3531 18.712 29.6894 17.3263L32.4939 16.7095C32.7895 16.6445 32.9999 16.3827 32.9999 16.08V12.9218C32.9999 12.9213 32.9999 12.9206 32.9999 12.9198C32.9997 12.909 32.9987 12.8982 32.9982 12.8871V12.8871ZM23.7187 4.54296C23.7187 3.12147 24.8753 1.96484 26.2968 1.96484C27.7183 1.96484 28.8749 3.12147 28.8749 4.54296C28.8749 5.96445 27.7183 7.12108 26.2968 7.12108C24.8753 7.12108 23.7187 5.96445 23.7187 4.54296ZM26.2968 8.41014C28.7445 8.41014 30.9646 10.0892 31.5754 12.2773H22.7512C22.6165 11.6174 22.3768 10.9787 22.0444 10.3911C23.0185 9.17728 24.6429 8.41014 26.2968 8.41014V8.41014ZM23.5253 14.2109C23.5253 18.1204 20.3447 21.3007 16.4355 21.3007C12.5263 21.3007 9.34568 18.1204 9.34568 14.2109C9.34568 13.9941 9.35601 13.7791 9.37514 13.5664H23.4959C23.515 13.7791 23.5253 13.9941 23.5253 14.2109V14.2109ZM13.8574 4.54296C13.8574 3.12147 15.014 1.96484 16.4355 1.96484C17.857 1.96484 19.0136 3.12147 19.0136 4.54296C19.0136 5.96445 17.857 7.12108 16.4355 7.12108C15.014 7.12108 13.8574 5.96445 13.8574 4.54296ZM16.4355 8.41014C18.783 8.41014 20.838 9.99427 21.4284 12.2773H11.4427C12.0328 9.99453 14.0873 8.41014 16.4355 8.41014V8.41014ZM3.99609 4.54296C3.99609 3.12147 5.15272 1.96484 6.57421 1.96484C7.9957 1.96484 9.15233 3.12147 9.15233 4.54296C9.15233 5.96445 7.9957 7.12108 6.57421 7.12108C5.15272 7.12108 3.99609 5.96445 3.99609 4.54296ZM6.57421 8.41014C8.22808 8.41014 9.8525 9.17728 10.8266 10.3911C10.4943 10.9787 10.2546 11.6174 10.1199 12.2773H1.48343C2.07231 10.0592 4.17937 8.41014 6.57421 8.41014ZM31.7109 15.5619L29.0132 16.1551C28.7657 16.2095 28.5731 16.4038 28.5207 16.6516C28.202 18.1642 27.6111 19.5779 26.7641 20.8533C26.6264 21.0606 26.6203 21.3282 26.7482 21.5414L27.9937 23.6173L25.9705 25.6402L23.8647 24.3766C23.6537 24.2502 23.3891 24.2547 23.1824 24.3884C21.9045 25.2168 20.5061 25.7903 19.0267 26.0929C18.7838 26.1428 18.5909 26.3276 18.5307 26.568L17.9303 28.9706H15.0694C14.9176 28.3626 14.6648 27.3518 14.5407 26.855C14.4941 26.7528 14.4936 26.1994 13.973 26.0929C12.4936 25.7903 11.0955 25.2168 9.81725 24.3884C9.6108 24.2547 9.34594 24.2502 9.13521 24.3766L7.02915 25.6402L5.00619 23.6173L6.25144 21.5414C6.37934 21.3282 6.37329 21.0603 6.23558 20.8531C5.38913 19.5791 4.79797 18.1657 4.47898 16.6516C4.42686 16.4038 4.23426 16.2095 3.98677 16.1551L1.28906 15.5619V13.5659H8.0813C8.06518 13.7791 8.05662 13.9941 8.05662 14.2104C8.05662 18.8304 11.8153 22.5898 16.4355 22.5898C21.0557 22.5898 24.8144 18.8311 24.8144 14.2109C24.8144 13.9949 24.8058 13.7796 24.7897 13.5664H31.7109V15.5619Z" fill="#FFAA29" stroke="#FFAA29" stroke-width="0.8"/>
</svg>
