<svg width="20" height="20" viewBox="0 0 20 20" fill="none" xmlns="http://www.w3.org/2000/svg">
<path d="M13.0903 9.54883H16.0703M17.7732 9.54883H16.0703H17.7732ZM9.59098 9.54883C9.59391 9.98553 9.51042 10.4185 9.34533 10.8228C9.18024 11.2271 8.9368 11.5947 8.62904 11.9046C8.32127 12.2144 7.95526 12.4603 7.55208 12.6281C7.14889 12.7959 6.71649 12.8823 6.27978 12.8823C5.84307 12.8823 5.41068 12.7959 5.00749 12.6281C4.60431 12.4603 4.23829 12.2144 3.93053 11.9046C3.62277 11.5947 3.37933 11.2271 3.21424 10.8228C3.04915 10.4185 2.96566 9.98553 2.96859 9.54883C2.98367 8.68072 3.33912 7.85327 3.95837 7.24469C4.57762 6.63611 5.41112 6.2951 6.27936 6.2951C7.1476 6.2951 7.9811 6.63611 8.60035 7.24469C9.2196 7.85327 9.57504 8.68072 9.59013 9.54883L9.59098 9.54883ZM9.59098 9.54883H13.0903H9.59098ZM13.0903 9.54883V12.1031H16.0703V9.54883H13.0903Z" stroke="white" stroke-width="1.5" stroke-linecap="round" stroke-linejoin="round"/>
</svg>
