<svg width="34" height="36" viewBox="0 0 34 36" fill="none" xmlns="http://www.w3.org/2000/svg">
<path fill-rule="evenodd" clip-rule="evenodd" d="M8.51955 9.05407C8.51955 4.37078 12.3161 0.574219 16.9994 0.574219C21.6827 0.574219 25.4793 4.37078 25.4793 9.05407V13.4318H24.2793V9.05407C24.2793 5.03352 21.02 1.77422 16.9994 1.77422C12.9789 1.77422 9.71955 5.03352 9.71955 9.05407V13.4318H8.51955V9.05407ZM6.01339 13.7087H6.03965H27.9591H27.9853C28.8031 13.7087 29.4536 13.7087 29.9783 13.7515C30.5157 13.7954 30.9739 13.8873 31.3934 14.101C32.0708 14.4462 32.6215 14.9969 32.9667 15.6743C33.1804 16.0939 33.2723 16.5521 33.3162 17.0894C33.3591 17.6142 33.3591 18.2646 33.359 19.0824V19.0824V19.0825V19.1087V30.5216V30.5478V30.5478V30.5479C33.3591 31.3657 33.3591 32.0161 33.3162 32.5409C33.2723 33.0782 33.1804 33.5364 32.9667 33.956C32.6215 34.6334 32.0708 35.1841 31.3934 35.5292C30.9739 35.743 30.5157 35.8348 29.9783 35.8787C29.4535 35.9216 28.8031 35.9216 27.9852 35.9216H27.959H6.03965H6.01346C5.1956 35.9216 4.54516 35.9216 4.02039 35.8787C3.48303 35.8348 3.02483 35.743 2.60528 35.5292C1.9279 35.1841 1.37717 34.6334 1.03203 33.956C0.818255 33.5364 0.726418 33.0782 0.682514 32.5409C0.63964 32.0161 0.639644 31.3657 0.639649 30.5479V30.5216V19.1087V19.0824C0.639644 18.2646 0.63964 17.6142 0.682514 17.0894C0.726418 16.5521 0.818255 16.0939 1.03203 15.6743C1.37717 14.9969 1.9279 14.4462 2.60528 14.101C3.02483 13.8873 3.48303 13.7954 4.0204 13.7515C4.54515 13.7087 5.19557 13.7087 6.01339 13.7087ZM4.11811 14.9476C3.65496 14.9854 3.37226 15.057 3.15007 15.1703C2.69848 15.4004 2.33133 15.7675 2.10123 16.2191C1.98802 16.4413 1.91637 16.724 1.87853 17.1871C1.84012 17.6573 1.83965 18.2587 1.83965 19.1087V30.5216C1.83965 31.3716 1.84012 31.973 1.87853 32.4431C1.91637 32.9063 1.98802 33.189 2.10123 33.4112C2.33133 33.8628 2.69848 34.2299 3.15007 34.46C3.37226 34.5732 3.65496 34.6449 4.11811 34.6827C4.58827 34.7211 5.18967 34.7216 6.03965 34.7216H27.959C28.809 34.7216 29.4104 34.7211 29.8806 34.6827C30.3437 34.6449 30.6264 34.5732 30.8486 34.46C31.3002 34.2299 31.6674 33.8628 31.8975 33.4112C32.0107 33.189 32.0823 32.9063 32.1202 32.4431C32.1586 31.973 32.159 31.3716 32.159 30.5216V19.1087C32.159 18.2587 32.1586 17.6573 32.1202 17.1871C32.0823 16.724 32.0107 16.4413 31.8975 16.2191C31.6674 15.7675 31.3002 15.4004 30.8486 15.1703C30.6264 15.057 30.3437 14.9854 29.8806 14.9476C29.4104 14.9091 28.809 14.9087 27.9591 14.9087H6.03965C5.18967 14.9087 4.58827 14.9091 4.11811 14.9476ZM18.7507 26.1022C19.7975 25.4967 20.5017 24.3649 20.5017 23.0686C20.5017 21.1344 18.9338 19.5664 16.9996 19.5664C15.0654 19.5664 13.4974 21.1344 13.4974 23.0686C13.4974 24.3649 14.2017 25.4967 15.2485 26.1022V29.1974C15.2485 30.1645 16.0325 30.9484 16.9996 30.9484C17.9667 30.9484 18.7507 30.1645 18.7507 29.1974V26.1022Z" fill="#605859"/>
</svg>
