<svg width="87" height="83" viewBox="0 0 87 83" fill="none" xmlns="http://www.w3.org/2000/svg">
<path d="M44.8283 82.7105C62.3909 82.7105 76.6281 68.4732 76.6281 50.9107C76.6281 33.3481 62.3909 19.1108 44.8283 19.1108C27.2657 19.1108 13.0285 33.3481 13.0285 50.9107C13.0285 68.4732 27.2657 82.7105 44.8283 82.7105Z" fill="#FE4400"/>
<path d="M44.8284 76.0969C58.7382 76.0969 70.0143 64.8208 70.0143 50.911C70.0143 37.0012 58.7382 25.7251 44.8284 25.7251C30.9186 25.7251 19.6424 37.0012 19.6424 50.911C19.6424 64.8208 30.9186 76.0969 44.8284 76.0969Z" fill="white"/>
<path d="M44.8284 70.0061C55.3742 70.0061 63.9232 61.457 63.9232 50.9112C63.9232 40.3655 55.3742 31.8164 44.8284 31.8164C34.2826 31.8164 25.7336 40.3655 25.7336 50.9112C25.7336 61.457 34.2826 70.0061 44.8284 70.0061Z" fill="#FE4400"/>
<path d="M44.8283 64.3467C52.1888 64.3467 58.1557 58.3798 58.1557 51.0193C58.1557 43.6588 52.1888 37.6919 44.8283 37.6919C37.4678 37.6919 31.5009 43.6588 31.5009 51.0193C31.5009 58.3798 37.4678 64.3467 44.8283 64.3467Z" fill="white"/>
<path d="M44.8284 56.9936C48.362 56.9936 51.2265 54.129 51.2265 50.5954C51.2265 47.0618 48.362 44.1973 44.8284 44.1973C41.2948 44.1973 38.4302 47.0618 38.4302 50.5954C38.4302 54.129 41.2948 56.9936 44.8284 56.9936Z" fill="#FE4400"/>
<path opacity="0.11" d="M58.0395 52.7783C57.4503 57.3674 54.5127 61.2262 50.4796 63.1182L40.928 55.7077C42.0068 56.5375 43.3595 57.0271 44.8283 57.0271C48.3635 57.0271 51.2265 54.1641 51.2265 50.629C51.2265 48.5875 50.2638 46.7619 48.7784 45.5918L48.7867 45.5835L58.0395 52.7783Z" fill="black"/>
<path opacity="0.11" d="M70.0475 50.9447C70.0475 64.4298 59.4503 75.4336 46.1312 76.0975L33.3267 66.1642C36.5299 68.5956 40.5298 70.0396 44.8616 70.0396C55.409 70.0396 63.9564 61.4921 63.9564 50.9447C63.9564 45.1192 61.3507 39.9077 57.2429 36.4058L69.5496 45.9573C69.8732 47.5672 70.0475 49.2352 70.0475 50.9447Z" fill="black"/>
<path d="M80.3294 9.17822L80.3377 15.4602L86.5532 15.427L77.0017 24.9786L72.1553 24.8624L46.0068 51.0109C45.6748 51.3429 45.1354 51.3429 44.8035 51.0109L44.7371 50.9445C44.4052 50.6126 44.4052 50.0732 44.7371 49.7413L70.9023 23.5761L70.7446 18.7713L80.3294 9.17822Z" fill="#171F2B"/>
<path d="M80.3376 15.4599L86.5532 15.4185L77.0016 24.9783L72.1553 24.8621L46.0067 51.0107C45.6748 51.3426 45.1354 51.3426 44.8035 51.0107L44.7703 50.9775L80.3459 15.4019L80.3376 15.4599Z" fill="#050C14"/>
<path d="M27.0116 24.1229V14.978L44.1811 20.5048L61.7242 14.978V24.0565C52.5377 24.239 44.372 29.6248 44.372 29.6248C34.8536 23.6333 27.0116 24.1229 27.0116 24.1229Z" fill="#050C14"/>
<path d="M25.3933 30.2225V42.0063H22.0241V30.2225C22.0241 29.6831 22.3146 29.2184 22.7461 28.9694C22.3146 28.6624 22.0241 28.1644 22.0241 27.5919C22.0241 26.928 22.4141 26.3554 22.9784 26.0815L22.9701 26.0649V13.6255L24.439 14.0902V25.9985L24.3975 26.0566C24.9784 26.3222 25.385 26.9031 25.385 27.5919C25.385 28.1644 25.1028 28.6624 24.663 28.9694C25.1028 29.2184 25.3933 29.6831 25.3933 30.2225Z" fill="#01050A"/>
<path d="M15.2609 11.1449L44.2143 0L73.6657 11.1449L44.2143 20.6964L15.2609 11.1449Z" fill="#252E3A"/>
<path d="M6.64479 82.392H33.1408C35.3077 82.392 37.0644 80.612 37.0644 78.4162C37.0644 76.2205 35.3077 74.4404 33.1408 74.4404H6.64479V82.392Z" fill="#F0F5FA"/>
<path d="M9.41431 74.4404H6.64471V82.3919H9.41431V74.4404Z" fill="#E4ECF2"/>
<path d="M5.26004 82.919H33.1407C35.5905 82.919 37.5837 80.8995 37.5837 78.417C37.5837 75.9346 35.5906 73.915 33.1407 73.915H5.25997C4.97318 73.915 4.74067 74.1506 4.74067 74.4412C4.74067 74.7318 4.97318 74.9674 5.25997 74.9674H33.1407C35.0178 74.9674 36.5451 76.5149 36.5451 78.417C36.5451 80.3191 35.0179 81.8666 33.1407 81.8666H5.25997C4.97318 81.8666 4.74067 82.1022 4.74067 82.3928C4.74067 82.6834 4.97317 82.919 5.26004 82.919Z" fill="#7A7F85"/>
<path d="M6.6447 77.6178H28.0336C28.3204 77.6178 28.5529 77.3822 28.5529 77.0916C28.5529 76.801 28.3204 76.5654 28.0336 76.5654H6.6447V77.6178Z" fill="#C5D7E6"/>
<path d="M6.64481 80.2687H22.3547C22.6415 80.2687 22.874 80.0331 22.874 79.7425C22.874 79.4519 22.6415 79.2163 22.3547 79.2163H6.64481V80.2687Z" fill="#C5D7E6"/>
<path d="M36.5163 66.3557H10.7345C9.33212 66.3557 8.19519 65.2114 8.19519 63.7997C8.19519 62.3881 9.33205 61.2437 10.7345 61.2437H36.5164V66.3557H36.5163Z" fill="#F0F5FA"/>
<path d="M33.7466 61.2437H36.5162V66.3557H33.7466V61.2437Z" fill="#E4ECF2"/>
<path d="M38.105 66.8782H10.7345C9.04804 66.8782 7.6759 65.4971 7.6759 63.7994C7.6759 62.1018 9.04797 60.7207 10.7345 60.7207H38.105C38.3918 60.7207 38.6243 60.9547 38.6243 61.2434C38.6243 61.5321 38.3918 61.7661 38.105 61.7661H10.7345C9.62072 61.7661 8.71451 62.6782 8.71451 63.7994C8.71451 64.9206 9.62065 65.8327 10.7345 65.8327H38.105C38.3918 65.8327 38.6243 66.0668 38.6243 66.3555C38.6243 66.6441 38.3918 66.8782 38.105 66.8782Z" fill="#A6AAB5"/>
<path d="M36.5164 64.4307H29.2243C28.9375 64.4307 28.705 64.1967 28.705 63.908C28.705 63.6193 28.9375 63.3853 29.2243 63.3853H36.5164V64.4307Z" fill="#C5D7E6"/>
<path d="M11.5062 48.0728H32.2C33.7579 48.0728 35.0208 49.4032 35.0208 51.0442C35.0208 52.6854 33.7579 54.0157 32.2 54.0157H11.5062V48.0728Z" fill="#F0F5FA"/>
<path d="M32.2001 48.0728H29.4305C30.9884 48.0728 32.2512 49.4032 32.2512 51.0442C32.2512 52.6854 30.9883 54.0157 29.4305 54.0157H32.2001C33.758 54.0157 35.0208 52.6853 35.0208 51.0442C35.0208 49.4032 33.758 48.0728 32.2001 48.0728Z" fill="#E4ECF2"/>
<path d="M32.4754 54.563H9.95601C9.66844 54.563 9.4353 54.3181 9.4353 54.016C9.4353 53.7138 9.66844 53.4689 9.95601 53.4689H32.4754C33.7479 53.4689 34.7831 52.3813 34.7831 51.0445C34.7831 49.7076 33.7479 48.62 32.4754 48.62H9.95601C9.66844 48.62 9.4353 48.375 9.4353 48.0729C9.4353 47.7708 9.66844 47.5259 9.95601 47.5259H32.4754C34.3221 47.5259 35.8245 49.1043 35.8245 51.0444C35.8245 52.9845 34.3221 54.563 32.4754 54.563Z" fill="#FFAA29"/>
<path d="M31.1724 54.563H0.297991V60.7205H31.1724V54.563Z" fill="#F26A4B"/>
<path d="M8.55573 54.5625H2.39824V60.72H8.55573V54.5625Z" fill="#3F4D62"/>
<path d="M3.0676 54.5625H0.297995V60.72H3.0676V54.5625Z" fill="#E77356"/>
<path d="M20.5508 58.6594H27.6139C28.1875 58.6594 28.6525 58.2037 28.6525 57.6417C28.6525 57.0797 28.1875 56.624 27.6139 56.624H20.5508C19.9772 56.624 19.5122 57.0797 19.5122 57.6417C19.5122 58.2037 19.9772 58.6594 20.5508 58.6594Z" fill="#FFF5F5"/>
<path d="M4.5709 58.0808H7.26265C7.49096 58.0808 7.67606 57.8839 7.67606 57.641C7.67606 57.3981 7.49096 57.2012 7.26265 57.2012H4.5709C4.34259 57.2012 4.15749 57.3981 4.15749 57.641C4.15749 57.8839 4.34254 58.0808 4.5709 58.0808Z" fill="#FFF5F5"/>
<path d="M2.39819 66.8784H32.306V73.9155H2.39819V66.8784Z" fill="#FED940"/>
<path d="M28.054 66.8779H31.0313V73.9151H28.054V66.8779Z" fill="#FED940"/>
<path d="M19.6415 66.8779H28.0888V73.9151H19.6415V66.8779Z" fill="#3B4D65"/>
<path d="M25.7577 71.4998C25.4709 71.4998 25.2384 71.2796 25.2384 71.0079V69.7839C25.2384 69.5122 25.4709 69.292 25.7577 69.292C26.0445 69.292 26.277 69.5122 26.277 69.7839V71.0079C26.277 71.2796 26.0445 71.4998 25.7577 71.4998Z" fill="#677A8F"/>
<path d="M23.8652 71.4998C23.5785 71.4998 23.3459 71.2796 23.3459 71.0079V69.7839C23.3459 69.5122 23.5785 69.292 23.8652 69.292C24.152 69.292 24.3846 69.5122 24.3846 69.7839V71.0079C24.3846 71.2796 24.1521 71.4998 23.8652 71.4998Z" fill="#677A8F"/>
<path d="M21.9727 71.4998C21.6859 71.4998 21.4534 71.2796 21.4534 71.0079V69.7839C21.4534 69.5122 21.6859 69.292 21.9727 69.292C22.2595 69.292 22.492 69.5122 22.492 69.7839V71.0079C22.492 71.2796 22.2595 71.4998 21.9727 71.4998Z" fill="#677A8F"/>
<path d="M11.4916 50.3467H23.3412C23.628 50.3467 23.8605 50.5792 23.8605 50.866C23.8605 51.1528 23.628 51.3853 23.3412 51.3853H11.4916V50.3467Z" fill="#C5D7E6"/>
</svg>
