<?xml version="1.0" encoding="utf-8"?>
<!-- Generator: Adobe Illustrator 23.0.1, SVG Export Plug-In . SVG Version: 6.00 Build 0)  -->
<svg version="1.1" id="Layer_1" xmlns="http://www.w3.org/2000/svg" xmlns:xlink="http://www.w3.org/1999/xlink" x="0px" y="0px"
	 viewBox="0 0 239.6 39.6" style="enable-background:new 0 0 239.6 39.6;" xml:space="preserve">
<style type="text/css">
	.st0{fill:#FFA800;stroke:#FFA800;stroke-miterlimit:10;}
	.st1{fill:#FE4400;}
	.st2{opacity:0.11;enable-background:new    ;}
	.st3{fill:#050C14;}
	.st4{fill:#01050A;}
	.st5{fill:#252E3A;}
	.st6{fill:#A6AAB5;}
</style>
<path class="st0" d="M46.6,23.6c0.6,0,1.1-0.1,1.6-0.2c0.4-0.1,0.7-0.2,1-0.4c0.2-0.2,0.4-0.4,0.5-0.6c0.1-0.2,0.1-0.5,0.1-0.8
	c0-0.6-0.3-1.2-0.9-1.6c-0.6-0.4-1.7-0.9-3.1-1.4c-0.6-0.2-1.3-0.5-1.9-0.8c-0.6-0.3-1.2-0.7-1.7-1.1c-0.5-0.4-0.9-1-1.3-1.6
	c-0.3-0.6-0.5-1.4-0.5-2.3c0-0.9,0.2-1.7,0.5-2.5c0.3-0.7,0.8-1.4,1.5-1.9c0.6-0.5,1.4-0.9,2.3-1.2c0.9-0.3,1.9-0.4,3-0.4
	c1.3,0,2.5,0.1,3.5,0.4c1,0.3,1.8,0.6,2.4,0.9l-1.3,3.5c-0.6-0.3-1.2-0.5-1.8-0.8c-0.7-0.2-1.5-0.3-2.4-0.3c-1.1,0-1.8,0.1-2.3,0.4
	c-0.5,0.3-0.7,0.7-0.7,1.4c0,0.4,0.1,0.7,0.3,0.9c0.2,0.2,0.4,0.5,0.7,0.7c0.3,0.2,0.7,0.4,1.1,0.5c0.4,0.2,0.9,0.3,1.4,0.5
	c1,0.4,1.9,0.8,2.7,1.1c0.8,0.4,1.4,0.8,1.9,1.3c0.5,0.5,0.9,1.1,1.1,1.7c0.2,0.7,0.4,1.5,0.4,2.4c0,1.8-0.6,3.3-1.9,4.3
	c-1.3,1-3.2,1.5-5.9,1.5c-0.9,0-1.7-0.1-2.4-0.2s-1.3-0.2-1.9-0.4c-0.5-0.2-1-0.3-1.4-0.5c-0.4-0.2-0.7-0.3-1-0.5l1.3-3.5
	c0.6,0.3,1.3,0.6,2.2,0.9C44.2,23.5,45.3,23.6,46.6,23.6z"/>
<path class="st0" d="M64.4,27.2c-1.1,0-2.2,0-3.2-0.1c-1.1-0.1-2.2-0.2-3.4-0.5V7.5c0.9-0.2,1.9-0.3,3-0.4c1.1-0.1,2.1-0.1,3-0.1
	c1.3,0,2.4,0.1,3.5,0.3c1.1,0.2,2,0.5,2.7,0.9c0.8,0.4,1.4,1,1.8,1.7c0.4,0.7,0.6,1.6,0.6,2.6c0,1.6-0.8,2.8-2.3,3.7
	c1.3,0.5,2.1,1.1,2.6,1.9c0.5,0.8,0.7,1.7,0.7,2.8c0,2.1-0.8,3.6-2.3,4.7C69.6,26.7,67.4,27.2,64.4,27.2z M62.1,14.9h2.2
	c1.4,0,2.4-0.2,2.9-0.5c0.6-0.4,0.9-0.9,0.9-1.7c0-0.8-0.3-1.4-0.9-1.7s-1.5-0.5-2.7-0.5c-0.4,0-0.8,0-1.2,0c-0.4,0-0.8,0-1.2,0.1
	V14.9z M62.1,18.3v5.1c0.3,0,0.7,0.1,1.1,0.1c0.4,0,0.8,0,1.3,0c1.3,0,2.4-0.2,3.2-0.6c0.8-0.4,1.2-1.1,1.2-2.1c0-0.9-0.3-1.6-1-2
	c-0.7-0.4-1.7-0.6-2.9-0.6H62.1z"/>
<path class="st0" d="M82.4,23.6c0.6,0,1.1-0.1,1.6-0.2c0.4-0.1,0.7-0.2,1-0.4c0.2-0.2,0.4-0.4,0.5-0.6c0.1-0.2,0.1-0.5,0.1-0.8
	c0-0.6-0.3-1.2-0.9-1.6c-0.6-0.4-1.7-0.9-3.1-1.4c-0.6-0.2-1.3-0.5-1.9-0.8c-0.6-0.3-1.2-0.7-1.7-1.1c-0.5-0.4-0.9-1-1.3-1.6
	c-0.3-0.6-0.5-1.4-0.5-2.3c0-0.9,0.2-1.7,0.5-2.5c0.3-0.7,0.8-1.4,1.5-1.9c0.6-0.5,1.4-0.9,2.3-1.2c0.9-0.3,1.9-0.4,3-0.4
	c1.3,0,2.5,0.1,3.5,0.4c1,0.3,1.8,0.6,2.4,0.9L88,11.6c-0.6-0.3-1.2-0.5-1.8-0.8c-0.7-0.2-1.5-0.3-2.4-0.3c-1.1,0-1.8,0.1-2.3,0.4
	c-0.5,0.3-0.7,0.7-0.7,1.4c0,0.4,0.1,0.7,0.3,0.9c0.2,0.2,0.4,0.5,0.7,0.7c0.3,0.2,0.7,0.4,1.1,0.5c0.4,0.2,0.9,0.3,1.4,0.5
	c1,0.4,1.9,0.8,2.7,1.1c0.8,0.4,1.4,0.8,1.9,1.3c0.5,0.5,0.9,1.1,1.1,1.7c0.2,0.7,0.4,1.5,0.4,2.4c0,1.8-0.6,3.3-1.9,4.3
	c-1.3,1-3.2,1.5-5.9,1.5c-0.9,0-1.7-0.1-2.4-0.2s-1.3-0.2-1.9-0.4c-0.5-0.2-1-0.3-1.4-0.5c-0.4-0.2-0.7-0.3-1-0.5l1.3-3.5
	c0.6,0.3,1.3,0.6,2.2,0.9C80.1,23.5,81.2,23.6,82.4,23.6z"/>
<path class="st0" d="M92.9,16.5h8.3v3.9h-8.3V16.5z"/>
<path class="st0" d="M109.6,23.6c0.6,0,1.1-0.1,1.6-0.2c0.4-0.1,0.7-0.2,1-0.4c0.2-0.2,0.4-0.4,0.5-0.6c0.1-0.2,0.1-0.5,0.1-0.8
	c0-0.6-0.3-1.2-0.9-1.6c-0.6-0.4-1.7-0.9-3.1-1.4c-0.6-0.2-1.3-0.5-1.9-0.8c-0.6-0.3-1.2-0.7-1.7-1.1c-0.5-0.4-0.9-1-1.3-1.6
	c-0.3-0.6-0.5-1.4-0.5-2.3c0-0.9,0.2-1.7,0.5-2.5c0.3-0.7,0.8-1.4,1.5-1.9c0.6-0.5,1.4-0.9,2.3-1.2c0.9-0.3,1.9-0.4,3-0.4
	c1.3,0,2.5,0.1,3.5,0.4c1,0.3,1.8,0.6,2.4,0.9l-1.3,3.5c-0.6-0.3-1.2-0.5-1.8-0.8c-0.7-0.2-1.5-0.3-2.4-0.3c-1.1,0-1.8,0.1-2.3,0.4
	c-0.5,0.3-0.7,0.7-0.7,1.4c0,0.4,0.1,0.7,0.3,0.9c0.2,0.2,0.4,0.5,0.7,0.7c0.3,0.2,0.7,0.4,1.1,0.5c0.4,0.2,0.9,0.3,1.4,0.5
	c1,0.4,1.9,0.8,2.7,1.1c0.8,0.4,1.4,0.8,1.9,1.3s0.9,1.1,1.1,1.7s0.4,1.5,0.4,2.4c0,1.8-0.6,3.3-1.9,4.3c-1.3,1-3.2,1.5-5.9,1.5
	c-0.9,0-1.7-0.1-2.4-0.2c-0.7-0.1-1.3-0.2-1.9-0.4c-0.5-0.2-1-0.3-1.4-0.5c-0.4-0.2-0.7-0.3-1-0.5l1.3-3.5c0.6,0.3,1.3,0.6,2.2,0.9
	C107.2,23.5,108.3,23.6,109.6,23.6z"/>
<path class="st0" d="M120.4,8.2l4.3-0.7v4.4h5.1v3.5h-5.1v5.3c0,0.9,0.2,1.6,0.5,2.1c0.3,0.5,0.9,0.8,1.9,0.8c0.5,0,0.9,0,1.4-0.1
	c0.5-0.1,0.9-0.2,1.3-0.4l0.6,3.3c-0.5,0.2-1.1,0.4-1.7,0.5c-0.6,0.2-1.4,0.2-2.3,0.2c-1.2,0-2.1-0.2-2.9-0.5
	c-0.8-0.3-1.4-0.8-1.8-1.3c-0.5-0.6-0.8-1.2-1-2s-0.3-1.7-0.3-2.7V8.2z"/>
<path class="st0" d="M146,26.5c-0.7,0.2-1.7,0.4-2.8,0.6c-1.1,0.2-2.3,0.3-3.6,0.3c-1.3,0-2.3-0.2-3.2-0.5c-0.8-0.3-1.5-0.8-2-1.4
	c-0.5-0.6-0.8-1.4-1.1-2.2c-0.2-0.9-0.3-1.8-0.3-2.8v-8.4h4.3v7.9c0,1.4,0.2,2.4,0.5,3c0.4,0.6,1,0.9,2,0.9c0.3,0,0.6,0,1,0
	c0.3,0,0.6-0.1,0.9-0.1V11.9h4.3V26.5z"/>
<path class="st0" d="M163.3,26.5c-0.4,0.1-0.8,0.2-1.3,0.3c-0.5,0.1-1,0.2-1.6,0.3c-0.5,0.1-1.1,0.1-1.7,0.2c-0.6,0-1.1,0.1-1.6,0.1
	c-1.2,0-2.3-0.2-3.3-0.5c-1-0.4-1.8-0.9-2.5-1.6c-0.7-0.7-1.2-1.5-1.5-2.5c-0.4-1-0.5-2-0.5-3.2c0-1.2,0.2-2.3,0.5-3.3
	c0.3-1,0.7-1.8,1.3-2.5c0.6-0.7,1.3-1.2,2.1-1.6c0.8-0.4,1.8-0.5,2.8-0.5c0.6,0,1.1,0.1,1.6,0.2c0.5,0.1,0.9,0.3,1.4,0.5V5.5
	l4.3-0.7V26.5z M153.7,19.3c0,1.3,0.3,2.4,0.9,3.2c0.6,0.8,1.5,1.2,2.6,1.2c0.4,0,0.7,0,1.1,0c0.3,0,0.6-0.1,0.8-0.1v-7.7
	c-0.3-0.2-0.6-0.3-1-0.4c-0.4-0.1-0.9-0.2-1.3-0.2C154.7,15.2,153.7,16.6,153.7,19.3z"/>
<path class="st0" d="M172,7.6c0,0.8-0.3,1.4-0.8,1.8c-0.5,0.4-1.1,0.7-1.8,0.7c-0.7,0-1.3-0.2-1.8-0.7c-0.5-0.4-0.8-1.1-0.8-1.8
	s0.3-1.4,0.8-1.8c0.5-0.4,1.1-0.7,1.8-0.7c0.7,0,1.3,0.2,1.8,0.7C171.7,6.2,172,6.8,172,7.6z M171.6,27h-4.3v-15h4.3V27z"/>
<path class="st0" d="M174.9,19.6c0-1.3,0.2-2.5,0.6-3.5c0.4-1,0.9-1.8,1.6-2.5c0.7-0.7,1.4-1.2,2.3-1.5s1.8-0.5,2.7-0.5
	c2.1,0,3.8,0.7,5.1,2c1.2,1.3,1.9,3.2,1.9,5.8c0,0.2,0,0.5,0,0.8c0,0.3,0,0.6-0.1,0.8h-9.7c0.1,0.9,0.5,1.6,1.2,2.1
	c0.7,0.5,1.7,0.8,2.9,0.8c0.8,0,1.5-0.1,2.3-0.2c0.8-0.1,1.4-0.3,1.8-0.5l0.6,3.5c-0.2,0.1-0.5,0.2-0.9,0.3
	c-0.4,0.1-0.8,0.2-1.3,0.3c-0.5,0.1-1,0.2-1.5,0.2c-0.5,0.1-1.1,0.1-1.6,0.1c-1.4,0-2.5-0.2-3.5-0.6c-1-0.4-1.8-0.9-2.5-1.6
	c-0.7-0.7-1.1-1.5-1.5-2.5C175,21.7,174.9,20.7,174.9,19.6z M184.9,17.9c0-0.4-0.1-0.7-0.2-1.1c-0.1-0.3-0.3-0.6-0.5-0.9
	c-0.2-0.3-0.5-0.5-0.8-0.7c-0.3-0.2-0.7-0.3-1.2-0.3c-0.5,0-0.9,0.1-1.2,0.2c-0.3,0.2-0.6,0.4-0.9,0.6c-0.2,0.3-0.4,0.6-0.5,0.9
	c-0.1,0.4-0.2,0.7-0.3,1.1H184.9z"/>
<path class="st0" d="M196.6,23.9c0.8,0,1.3-0.1,1.7-0.2c0.3-0.2,0.5-0.4,0.5-0.9c0-0.3-0.2-0.6-0.6-0.9c-0.4-0.3-1.1-0.5-1.9-0.9
	c-0.7-0.2-1.3-0.5-1.8-0.8c-0.5-0.3-1-0.6-1.4-1c-0.4-0.4-0.7-0.8-0.9-1.3c-0.2-0.5-0.3-1.1-0.3-1.9c0-1.4,0.5-2.5,1.6-3.3
	c1-0.8,2.5-1.2,4.3-1.2c0.9,0,1.8,0.1,2.6,0.2c0.8,0.2,1.5,0.3,2,0.5l-0.7,3.3c-0.5-0.2-1-0.3-1.6-0.5c-0.6-0.1-1.2-0.2-2-0.2
	c-1.3,0-2,0.4-2,1.1c0,0.2,0,0.3,0.1,0.5c0.1,0.1,0.2,0.3,0.3,0.4c0.2,0.1,0.4,0.3,0.7,0.4c0.3,0.1,0.7,0.3,1.1,0.5
	c0.9,0.3,1.7,0.7,2.3,1c0.6,0.3,1.1,0.7,1.4,1.1c0.4,0.4,0.6,0.8,0.7,1.3c0.1,0.5,0.2,1,0.2,1.7c0,1.5-0.6,2.6-1.7,3.4
	c-1.1,0.8-2.7,1.1-4.7,1.1c-1.3,0-2.4-0.1-3.3-0.3c-0.9-0.2-1.5-0.4-1.8-0.6l0.7-3.5c0.7,0.3,1.5,0.5,2.2,0.7
	C195.1,23.8,195.8,23.9,196.6,23.9z"/>
<path class="st0" d="M210.3,24.7c0,0.9-0.3,1.5-0.8,2c-0.5,0.4-1.2,0.7-1.8,0.7c-0.7,0-1.3-0.2-1.8-0.7c-0.5-0.4-0.8-1.1-0.8-2
	c0-0.9,0.3-1.5,0.8-2c0.5-0.4,1.2-0.7,1.8-0.7c0.7,0,1.3,0.2,1.8,0.7S210.3,23.9,210.3,24.7z"/>
<path class="st0" d="M225.3,25.1c0,2.5-0.6,4.3-1.9,5.5c-1.2,1.2-3.2,1.8-5.8,1.8c-0.9,0-1.8-0.1-2.7-0.2c-0.9-0.2-1.8-0.4-2.5-0.6
	l0.7-3.6c0.7,0.3,1.4,0.5,2.1,0.6c0.7,0.2,1.6,0.2,2.5,0.2c1.2,0,2.1-0.3,2.6-0.8s0.8-1.2,0.8-2.1v-0.5c-0.5,0.2-0.9,0.4-1.4,0.5
	c-0.5,0.1-1,0.2-1.6,0.2c-2.1,0-3.7-0.6-4.8-1.8c-1.1-1.2-1.7-2.9-1.7-5.2c0-1.1,0.2-2.1,0.5-3c0.3-0.9,0.8-1.7,1.5-2.3
	c0.7-0.6,1.5-1.1,2.4-1.5c1-0.4,2-0.5,3.2-0.5c0.5,0,1,0,1.6,0.1c0.5,0,1.1,0.1,1.6,0.2c0.5,0.1,1,0.2,1.5,0.3
	c0.5,0.1,0.9,0.2,1.3,0.3V25.1z M215.9,19c0,2.4,1,3.6,2.9,3.6c0.4,0,0.8-0.1,1.2-0.2c0.4-0.1,0.7-0.2,1-0.4v-6.8
	c-0.2,0-0.5-0.1-0.7-0.1c-0.3,0-0.6,0-1,0c-1.1,0-2,0.4-2.5,1.1C216.2,16.9,215.9,17.8,215.9,19z"/>
<path class="st0" d="M238.3,15.7c-0.4-0.1-0.8-0.2-1.3-0.3c-0.5-0.1-1.1-0.2-1.7-0.2c-0.3,0-0.6,0-1,0.1c-0.4,0-0.7,0.1-0.8,0.2V27
	h-4.3V12.7c0.8-0.3,1.7-0.5,2.7-0.8c1-0.2,2.2-0.4,3.5-0.4c0.2,0,0.5,0,0.8,0c0.3,0,0.6,0.1,1,0.1c0.3,0,0.6,0.1,1,0.2
	c0.3,0.1,0.6,0.1,0.8,0.2L238.3,15.7z"/>
<path class="st1" d="M20.1,28.7c6.1,0,11-4.9,11-11s-4.9-11-11-11s-11,4.9-11,11S14,28.7,20.1,28.7z"/>
<path class="st2" d="M34.2,17.6c0,7.7-6.1,14.1-13.7,14.4l-7.4-5.7c1.8,1.4,4.1,2.2,6.6,2.2c6.1,0,11-4.9,11-11
	c0-3.3-1.5-6.3-3.9-8.3l7.1,5.5C34.1,15.7,34.2,16.7,34.2,17.6z"/>
<path class="st3" d="M9.2,17.5l-2.1-4.8l10.3-1l8-6.9l2.1,4.8c-4.8,2.2-7.9,6.9-7.9,6.9C13.2,15.5,9.2,17.5,9.2,17.5z"/>
<path class="st4" d="M5.3,22.1l0.5,6.7l-1.9,0.1l-0.5-6.7c0-0.3,0.1-0.6,0.4-0.7c-0.3-0.2-0.4-0.4-0.5-0.8c0-0.4,0.2-0.7,0.5-0.9
	l0,0l-0.5-7.1l0.9,0.2l0.5,6.8l0,0c0.3,0.1,0.6,0.4,0.6,0.8c0,0.3-0.1,0.6-0.4,0.8C5.1,21.5,5.3,21.8,5.3,22.1z"/>
<path class="st5" d="M0,13.4L12.7,0.9L30.7,0L17.4,11.8L0,13.4z"/>
<path class="st6" d="M44.7,33.3H43V38h-1.2v-4.7h-1.7v-0.9h4.6V33.3z M44.3,35.9c0-0.4,0.1-0.8,0.2-1.1c0.2-0.3,0.4-0.6,0.7-0.8
	c0.3-0.2,0.7-0.3,1.1-0.3c0.6,0,1,0.2,1.4,0.5c0.4,0.3,0.6,0.8,0.6,1.4l0,0.3c0,0.6-0.2,1.2-0.5,1.6c-0.4,0.4-0.8,0.6-1.5,0.6
	c-0.6,0-1.1-0.2-1.5-0.6C44.5,37.1,44.3,36.6,44.3,35.9L44.3,35.9z M45.5,35.9c0,0.4,0.1,0.7,0.2,0.9c0.2,0.2,0.4,0.3,0.6,0.3
	c0.3,0,0.5-0.1,0.6-0.3c0.2-0.2,0.2-0.5,0.2-1c0-0.4-0.1-0.7-0.2-0.9c-0.2-0.2-0.4-0.3-0.6-0.3c-0.3,0-0.5,0.1-0.6,0.3
	C45.5,35.2,45.5,35.5,45.5,35.9z M53.2,36.4h-0.8L52.2,38h-0.7l0.3-1.6h-0.9v-0.7h1l0.2-1.1h-0.9V34h1l0.3-1.6h0.7L52.9,34h0.8
	l0.3-1.6h0.7L54.3,34h0.9v0.7h-1L54,35.7h0.9v0.7h-1L53.6,38h-0.7L53.2,36.4z M52.6,35.7h0.8l0.2-1.1h-0.8L52.6,35.7z M58.5,38h-1.1
	v-4.4L56,34.1v-0.9l2.4-0.8h0.1V38z M65.6,33c0.4,0,0.8,0.1,1.2,0.3c0.3,0.2,0.6,0.4,0.8,0.8c0.2,0.3,0.3,0.7,0.3,1.1
	c0,0.4-0.1,0.8-0.3,1.1c-0.2,0.3-0.4,0.6-0.8,0.8c-0.3,0.2-0.7,0.3-1.2,0.3V38h-1.2v-0.6c-0.4,0-0.8-0.1-1.2-0.3
	c-0.3-0.2-0.6-0.4-0.8-0.8c-0.2-0.3-0.3-0.7-0.3-1.1c0-0.4,0.1-0.8,0.3-1.1c0.2-0.3,0.4-0.6,0.8-0.8c0.3-0.2,0.7-0.3,1.2-0.3v-0.7
	h1.2V33z M63.4,35.2c0,0.4,0.1,0.6,0.3,0.8c0.2,0.2,0.5,0.3,0.8,0.3V34c-0.3,0-0.6,0.1-0.8,0.3S63.4,34.8,63.4,35.2z M66.7,35.2
	c0-0.4-0.1-0.6-0.3-0.9C66.2,34.1,66,34,65.6,34v2.3c0.3,0,0.6-0.1,0.8-0.3S66.7,35.6,66.7,35.2z M68.4,35.9c0-0.4,0.1-0.8,0.2-1.1
	c0.2-0.3,0.4-0.6,0.7-0.8c0.3-0.2,0.7-0.3,1.1-0.3c0.6,0,1,0.2,1.4,0.5c0.4,0.3,0.6,0.8,0.6,1.4l0,0.3c0,0.6-0.2,1.2-0.5,1.6
	c-0.4,0.4-0.8,0.6-1.5,0.6c-0.6,0-1.1-0.2-1.5-0.6C68.5,37.1,68.4,36.6,68.4,35.9L68.4,35.9z M69.5,35.9c0,0.4,0.1,0.7,0.2,0.9
	c0.2,0.2,0.4,0.3,0.6,0.3c0.3,0,0.5-0.1,0.6-0.3c0.2-0.2,0.2-0.5,0.2-1c0-0.4-0.1-0.7-0.2-0.9c-0.2-0.2-0.4-0.3-0.6-0.3
	c-0.3,0-0.5,0.1-0.6,0.3C69.6,35.2,69.5,35.5,69.5,35.9z M74.3,33.8l0,2.9c0,0.2,0,0.3,0.1,0.3c0.1,0.1,0.2,0.1,0.3,0.1
	c0.1,0,0.2,0,0.3,0V38c-0.2,0.1-0.4,0.1-0.7,0.1c-0.8,0-1.2-0.4-1.2-1.2v-3.1H74.3z M79.1,34.7h-1.4v2c0,0.2,0,0.3,0.1,0.3
	c0.1,0.1,0.1,0.1,0.3,0.1c0.1,0,0.3,0,0.4-0.1l0.1,0.9c-0.2,0.1-0.5,0.1-0.7,0.1c-0.4,0-0.7-0.1-0.9-0.3c-0.2-0.2-0.3-0.6-0.3-1v-2
	h-1.3v-0.9h3.8V34.7z M80.8,33.8l0,0.5c0.3-0.4,0.7-0.6,1.2-0.6c0.9,0,1.3,0.5,1.4,1.5v4.4h-1.1v-4.4c0-0.4-0.2-0.7-0.6-0.7
	c-0.3,0-0.6,0.1-0.8,0.4v3h-1.1v-4.2H80.8z M87.8,34.7h-1.4v2c0,0.2,0,0.3,0.1,0.3c0.1,0.1,0.1,0.1,0.3,0.1c0.1,0,0.3,0,0.4-0.1
	l0.1,0.9c-0.2,0.1-0.5,0.1-0.7,0.1c-0.4,0-0.7-0.1-0.9-0.3c-0.2-0.2-0.3-0.6-0.3-1v-2H84v-0.9h3.8V34.7z M89.6,33.8l0,2.9
	c0,0.2,0,0.3,0.1,0.3c0.1,0.1,0.2,0.1,0.3,0.1c0.1,0,0.2,0,0.3,0V38c-0.2,0.1-0.4,0.1-0.7,0.1c-0.8,0-1.2-0.4-1.2-1.2v-3.1H89.6z
	 M92.8,36.5h-0.5V38h-1.1v-4.2h1.1v1.6h0.3l1.1-1.6h1.4l-1.5,2l1.6,2.2h-1.4L92.8,36.5z M95.6,35.9c0-0.4,0.1-0.8,0.2-1.1
	c0.2-0.3,0.4-0.6,0.7-0.8c0.3-0.2,0.7-0.3,1.1-0.3c0.6,0,1,0.2,1.4,0.5c0.4,0.3,0.6,0.8,0.6,1.4l0,0.3c0,0.6-0.2,1.2-0.5,1.6
	c-0.4,0.4-0.8,0.6-1.5,0.6c-0.6,0-1.1-0.2-1.5-0.6C95.8,37.1,95.6,36.6,95.6,35.9L95.6,35.9z M96.8,35.9c0,0.4,0.1,0.7,0.2,0.9
	c0.2,0.2,0.4,0.3,0.6,0.3c0.3,0,0.5-0.1,0.6-0.3c0.2-0.2,0.2-0.5,0.2-1c0-0.4-0.1-0.7-0.2-0.9c-0.2-0.2-0.4-0.3-0.6-0.3
	c-0.3,0-0.5,0.1-0.6,0.3C96.8,35.2,96.8,35.5,96.8,35.9z M97.5,31.8h1l-0.6,1.3h-0.7L97.5,31.8z M105.6,33c0.4,0,0.8,0.1,1.2,0.3
	s0.6,0.4,0.8,0.8c0.2,0.3,0.3,0.7,0.3,1.1c0,0.4-0.1,0.8-0.3,1.1c-0.2,0.3-0.4,0.6-0.8,0.8c-0.3,0.2-0.7,0.3-1.2,0.3V38h-1.2v-0.6
	c-0.4,0-0.8-0.1-1.2-0.3c-0.3-0.2-0.6-0.4-0.8-0.8c-0.2-0.3-0.3-0.7-0.3-1.1c0-0.4,0.1-0.8,0.3-1.1c0.2-0.3,0.4-0.6,0.8-0.8
	c0.3-0.2,0.7-0.3,1.2-0.3v-0.7h1.2V33z M103.3,35.2c0,0.4,0.1,0.6,0.3,0.8c0.2,0.2,0.5,0.3,0.8,0.3V34c-0.3,0-0.6,0.1-0.8,0.3
	C103.4,34.6,103.3,34.8,103.3,35.2z M106.7,35.2c0-0.4-0.1-0.6-0.3-0.9c-0.2-0.2-0.4-0.3-0.8-0.3v2.3c0.3,0,0.6-0.1,0.8-0.3
	C106.6,35.8,106.7,35.6,106.7,35.2z M110.4,33.7c0.6,0,1,0.2,1.4,0.6c0.3,0.4,0.5,1,0.5,1.7V36c0,0.6-0.1,1.2-0.4,1.5
	c-0.3,0.4-0.7,0.6-1.2,0.6c-0.4,0-0.8-0.2-1-0.5v2h-1.1v-3.8c0-0.6,0.2-1.1,0.5-1.5C109.4,33.9,109.8,33.7,110.4,33.7z M109.6,36.8
	c0.1,0.2,0.4,0.4,0.7,0.4c0.3,0,0.5-0.1,0.6-0.3c0.1-0.2,0.2-0.5,0.2-1c0-0.4-0.1-0.7-0.2-1c-0.1-0.2-0.3-0.3-0.6-0.3
	c-0.2,0-0.4,0.1-0.5,0.3c-0.1,0.2-0.2,0.5-0.2,0.9V36.8z M112.8,35.9c0-0.4,0.1-0.8,0.2-1.1c0.2-0.3,0.4-0.6,0.7-0.8
	c0.3-0.2,0.7-0.3,1.1-0.3c0.6,0,1,0.2,1.4,0.5c0.4,0.3,0.6,0.8,0.6,1.4l0,0.3c0,0.6-0.2,1.2-0.5,1.6c-0.4,0.4-0.8,0.6-1.5,0.6
	c-0.6,0-1.1-0.2-1.5-0.6C113,37.1,112.8,36.6,112.8,35.9L112.8,35.9z M114,35.9c0,0.4,0.1,0.7,0.2,0.9c0.2,0.2,0.4,0.3,0.6,0.3
	c0.3,0,0.5-0.1,0.6-0.3c0.2-0.2,0.2-0.5,0.2-1c0-0.4-0.1-0.7-0.2-0.9c-0.2-0.2-0.4-0.3-0.6-0.3c-0.3,0-0.5,0.1-0.6,0.3
	C114,35.2,114,35.5,114,35.9z M119,36.6l0.8-2.8h1.2l-1.4,4.2h-1.1l-1.4-4.2h1.2L119,36.6z M125.1,34.7h-1.4v2c0,0.2,0,0.3,0.1,0.3
	s0.1,0.1,0.3,0.1c0.1,0,0.3,0,0.4-0.1l0.1,0.9c-0.2,0.1-0.5,0.1-0.7,0.1c-0.4,0-0.7-0.1-0.9-0.3c-0.2-0.2-0.3-0.6-0.3-1v-2h-1.3
	v-0.9h3.8V34.7z M127,33.8l0,2.9c0,0.2,0,0.3,0.1,0.3c0.1,0.1,0.2,0.1,0.3,0.1c0.1,0,0.2,0,0.3,0V38c-0.2,0.1-0.4,0.1-0.7,0.1
	c-0.8,0-1.2-0.4-1.2-1.2v-3.1H127z M132.4,34.7h-1c0.5,0.4,0.7,0.8,0.7,1.4c0,0.6-0.2,1.1-0.5,1.4c-0.4,0.4-0.8,0.5-1.4,0.5
	c-0.6,0-1.1-0.2-1.5-0.6c-0.4-0.4-0.5-0.9-0.5-1.6v-0.1c0-0.6,0.2-1.1,0.5-1.5c0.4-0.4,0.8-0.6,1.5-0.6h2.2V34.7z M129.3,35.9
	c0,0.4,0.1,0.7,0.2,0.9c0.2,0.2,0.4,0.3,0.6,0.3c0.3,0,0.5-0.1,0.6-0.3c0.1-0.2,0.2-0.5,0.2-1c0-0.4-0.1-0.7-0.2-0.9
	c-0.1-0.2-0.3-0.3-0.6-0.3c-0.3,0-0.5,0.1-0.6,0.3C129.4,35.2,129.3,35.5,129.3,35.9z M136.6,34.7h-1.4v2c0,0.2,0,0.3,0.1,0.3
	s0.1,0.1,0.3,0.1c0.1,0,0.3,0,0.4-0.1l0.1,0.9c-0.2,0.1-0.5,0.1-0.7,0.1c-0.4,0-0.7-0.1-0.9-0.3c-0.2-0.2-0.3-0.6-0.3-1v-2h-1.3
	v-0.9h3.8V34.7z M138.3,33.8l0,0.5c0.3-0.4,0.7-0.6,1.2-0.6c0.9,0,1.3,0.5,1.4,1.5v4.4h-1.1v-4.4c0-0.4-0.2-0.7-0.6-0.7
	c-0.3,0-0.6,0.1-0.8,0.4v3h-1.1v-4.2H138.3z M138.9,31.8h1l-0.6,1.3h-0.7L138.9,31.8z M143.7,33.7c0.6,0,1,0.2,1.4,0.6
	c0.3,0.4,0.5,1,0.5,1.7V36c0,0.6-0.1,1.2-0.4,1.5c-0.3,0.4-0.7,0.6-1.2,0.6c-0.4,0-0.8-0.2-1-0.5v2h-1.1v-3.8c0-0.6,0.2-1.1,0.5-1.5
	C142.6,33.9,143.1,33.7,143.7,33.7z M142.9,36.8c0.1,0.2,0.4,0.4,0.7,0.4c0.3,0,0.5-0.1,0.6-0.3c0.1-0.2,0.2-0.5,0.2-1
	c0-0.4-0.1-0.7-0.2-1c-0.1-0.2-0.3-0.3-0.6-0.3c-0.2,0-0.4,0.1-0.5,0.3c-0.1,0.2-0.2,0.5-0.2,0.9V36.8z M147.5,33.8l0,2.9
	c0,0.2,0,0.3,0.1,0.3c0.1,0.1,0.2,0.1,0.3,0.1c0.1,0,0.2,0,0.3,0V38c-0.2,0.1-0.4,0.1-0.7,0.1c-0.8,0-1.2-0.4-1.2-1.2v-3.1H147.5z
	 M148.8,35.9c0-0.4,0.1-0.8,0.2-1.1c0.2-0.3,0.4-0.6,0.7-0.8c0.3-0.2,0.7-0.3,1.1-0.3c0.6,0,1,0.2,1.4,0.5c0.4,0.3,0.6,0.8,0.6,1.4
	l0,0.3c0,0.6-0.2,1.2-0.5,1.6c-0.4,0.4-0.8,0.6-1.5,0.6c-0.6,0-1.1-0.2-1.5-0.6C148.9,37.1,148.8,36.6,148.8,35.9L148.8,35.9z
	 M149.9,35.9c0,0.4,0.1,0.7,0.2,0.9c0.2,0.2,0.4,0.3,0.6,0.3c0.3,0,0.5-0.1,0.6-0.3c0.2-0.2,0.2-0.5,0.2-1c0-0.4-0.1-0.7-0.2-0.9
	c-0.2-0.2-0.4-0.3-0.6-0.3c-0.3,0-0.5,0.1-0.6,0.3C150,35.2,149.9,35.5,149.9,35.9z"/>
<path class="st1" d="M169.4,10.5c2,0,3.7-1.6,3.7-3.7c0-2-1.6-3.7-3.7-3.7c-2,0-3.7,1.6-3.7,3.7C165.7,8.8,167.3,10.5,169.4,10.5z"
	/>
</svg>
