<?xml version="1.0" encoding="utf-8"?>
<!-- Generator: Adobe Illustrator 23.0.1, SVG Export Plug-In . SVG Version: 6.00 Build 0)  -->
<svg version="1.1" id="Layer_1" xmlns="http://www.w3.org/2000/svg" xmlns:xlink="http://www.w3.org/1999/xlink" x="0px" y="0px"
	 viewBox="0 0 34.2 32.1" style="enable-background:new 0 0 34.2 32.1;" xml:space="preserve">
<style type="text/css">
	.st0{opacity:0.11;enable-background:new    ;}
	.st1{fill:#FE4400;}
	.st2{fill:#050C14;}
	.st3{fill:#01050A;}
	.st4{fill:#252E3A;}
</style>
<path class="st0" d="M34.2,17.6c0,7.7-6.1,14.1-13.7,14.4l-7.4-5.7c1.8,1.4,4.1,2.2,6.6,2.2c6.1,0,11-4.9,11-11
	c0-3.3-1.5-6.3-3.9-8.3l7.1,5.5C34.1,15.7,34.2,16.7,34.2,17.6z"/>
<path class="st1" d="M20.1,28.7c6.1,0,11-4.9,11-11s-4.9-11-11-11s-11,4.9-11,11S14,28.7,20.1,28.7z"/>
<path class="st2" d="M9.2,17.5l-2.1-4.8l10.3-1l8-6.9l2.1,4.8c-4.8,2.2-7.9,6.9-7.9,6.9C13.2,15.5,9.2,17.5,9.2,17.5z"/>
<path class="st3" d="M5.3,22.1l0.5,6.7l-1.9,0.1l-0.5-6.7c0-0.3,0.1-0.6,0.4-0.7c-0.3-0.2-0.4-0.4-0.5-0.8c0-0.4,0.2-0.7,0.5-0.9
	l0,0l-0.5-7.1l0.9,0.2l0.5,6.8l0,0c0.3,0.1,0.6,0.4,0.6,0.8c0,0.3-0.1,0.6-0.4,0.8C5.1,21.5,5.3,21.8,5.3,22.1z"/>
<path class="st4" d="M0,13.4L12.7,0.9L30.7,0L17.4,11.8L0,13.4z"/>
</svg>
