<svg width="551" height="178" viewBox="0 0 551 178" fill="none" xmlns="http://www.w3.org/2000/svg">
<path d="M311.05 110.55C311.1 110.8 311.125 111.025 311.125 111.225C311.125 111.425 311 111.575 310.75 111.675C309.9 112.075 309.075 112.3 308.275 112.35C306.875 112.5 305.475 112.65 304.075 112.8C302.725 112.95 301.35 113.125 299.95 113.325C299 113.425 298.075 113.575 297.175 113.775C296.275 113.975 295.35 114.15 294.4 114.3C293.85 114.4 293.525 114.725 293.425 115.275C293.275 116.425 293.075 117.55 292.825 118.65C292.625 119.75 292.525 120.85 292.525 121.95C292.825 122.2 293.1 122.275 293.35 122.175C293.6 122.075 293.85 122.025 294.1 122.025C294.3 121.975 294.5 121.925 294.7 121.875C294.9 121.825 295.1 121.775 295.3 121.725C296.85 121.375 298.375 121.25 299.875 121.35C301.375 121.45 302.875 121.7 304.375 122.1C304.775 122.1 304.925 122.275 304.825 122.625C304.775 122.725 304.65 122.825 304.45 122.925C303.95 123.025 303.45 123.15 302.95 123.3C302.45 123.45 301.925 123.6 301.375 123.75C302.075 124.15 302.75 124.35 303.4 124.35C304.1 124.3 304.8 124.225 305.5 124.125C306.1 124.075 306.675 124.05 307.225 124.05C307.825 124 308.425 124 309.025 124.05C309.275 124.05 309.525 124.075 309.775 124.125C310.025 124.175 310.275 124.25 310.525 124.35C310.775 124.4 310.925 124.55 310.975 124.8C311.075 125 311.05 125.175 310.9 125.325C309.85 126.475 308.775 127.55 307.675 128.55C306.575 129.55 305.225 130.25 303.625 130.65C303.025 130.8 302.425 130.975 301.825 131.175C301.225 131.375 300.6 131.55 299.95 131.7C299.7 131.8 299.625 131.925 299.725 132.075C299.825 132.275 299.95 132.375 300.1 132.375C300.55 132.425 301 132.375 301.45 132.225C301.9 132.075 302.375 131.925 302.875 131.775C302.875 132.125 302.775 132.35 302.575 132.45C302.425 132.5 302.275 132.575 302.125 132.675C300.825 133.375 299.475 133.9 298.075 134.25C297.075 134.5 296.05 134.775 295 135.075C294 135.375 292.975 135.65 291.925 135.9C291.125 136.1 290.7 136.65 290.65 137.55C290.55 139.3 290.45 141.05 290.35 142.8C290.25 144.5 290.175 146.225 290.125 147.975C290.075 149.425 289.875 150.8 289.525 152.1C289.225 153.45 288.775 154.775 288.175 156.075C287.725 156.925 287.325 157.8 286.975 158.7C286.625 159.6 286.4 160.55 286.3 161.55C286.25 161.9 286.1 162.1 285.85 162.15C285.65 162.25 285.425 162.2 285.175 162C284.925 161.8 284.7 161.6 284.5 161.4C284.3 161.2 284.1 161 283.9 160.8C283.9 160.8 283.95 160.75 284.05 160.65V160.5C284.05 160.55 284 160.675 283.9 160.875C281.95 158.575 280.45 156.125 279.4 153.525C278.4 150.925 277.95 148.1 278.05 145.05C278.1 143.9 278.15 142.725 278.2 141.525C278.25 140.325 278.3 139.125 278.35 137.925C278.4 137.475 278.4 137.025 278.35 136.575C278.35 136.125 278.15 135.7 277.75 135.3C277.4 134.9 277.275 134.45 277.375 133.95C277.525 133.4 277.55 132.875 277.45 132.375C277.25 131.375 277.6 130.575 278.5 129.975C278.85 129.725 279 129.45 278.95 129.15C278.9 128.4 278.975 127.7 279.175 127.05C279.425 126.35 279.575 125.65 279.625 124.95C279.675 124.2 279.75 123.475 279.85 122.775C279.95 122.075 280.05 121.35 280.15 120.6C280.25 119.9 280.35 119.2 280.45 118.5C280.55 117.75 280.65 117.025 280.75 116.325C280.9 115.525 280.925 114.85 280.825 114.3L280.9 114.225V114.375C280.65 114.375 280.4 114.4 280.15 114.45C279.95 114.5 279.8 114.475 279.7 114.375C279.35 114.025 279.025 113.7 278.725 113.4C278.475 113.05 278.325 112.6 278.275 112.05C278.225 111.3 278.325 110.65 278.575 110.1C278.825 109.5 279.325 109.025 280.075 108.675C280.225 108.575 280.35 108.5 280.45 108.45C280.6 108.4 280.775 108.325 280.975 108.225C281.675 107.975 281.925 107.525 281.725 106.875C281.675 106.625 281.625 106.4 281.575 106.2C281.575 106 281.65 105.825 281.8 105.675C282.15 105.275 282.35 104.85 282.4 104.4C282.5 103.95 282.625 103.5 282.775 103.05C283.325 101.6 284.4 100.6 286 100.05C286.4 99.9 286.65 100.025 286.75 100.425C286.85 100.775 286.9 101.125 286.9 101.475C286.95 101.825 287 102.2 287.05 102.6C287.3 102.35 287.425 102.075 287.425 101.775C287.475 101.475 287.525 101.2 287.575 100.95C287.725 100.25 287.925 99.825 288.175 99.675C288.425 99.475 288.925 99.475 289.675 99.675C290.675 99.925 291.525 100.325 292.225 100.875C292.725 101.175 293.35 101.3 294.1 101.25C296 100.9 297.9 100.625 299.8 100.425C301.7 100.175 303.6 99.975 305.5 99.825C307.1 99.725 308.65 99.85 310.15 100.2C311.65 100.55 313.125 101.05 314.575 101.7C314.625 101.75 314.65 101.825 314.65 101.925C314.7 101.975 314.75 102.05 314.8 102.15C314.85 102.35 314.8 102.475 314.65 102.525C314.5 102.525 314.375 102.525 314.275 102.525C314.025 102.525 313.8 102.525 313.6 102.525C313.45 102.525 313.25 102.5 313 102.45C312 102.2 310.975 102.075 309.925 102.075C308.925 102.025 307.925 102.05 306.925 102.15C305.125 102.35 303.3 102.55 301.45 102.75C299.65 102.95 297.875 103.25 296.125 103.65C295.825 103.7 295.525 103.775 295.225 103.875C294.925 103.925 294.65 104 294.4 104.1C294.05 104.2 293.875 104.35 293.875 104.55C293.925 104.8 294.025 104.95 294.175 105C294.375 105.05 294.525 105.075 294.625 105.075C295.475 104.975 296.325 104.875 297.175 104.775C298.025 104.625 298.875 104.5 299.725 104.4C301.125 104.2 302.5 104.075 303.85 104.025C305.25 103.975 306.65 103.925 308.05 103.875C309 103.875 309.925 103.85 310.825 103.8C311.775 103.75 312.725 103.725 313.675 103.725C314.875 103.725 316.125 103.925 317.425 104.325C318.075 104.475 318.675 104.775 319.225 105.225C319.875 105.725 319.9 106.225 319.3 106.725C318.25 107.575 317.125 108.2 315.925 108.6C314.725 108.95 313.475 109.175 312.175 109.275C310.125 109.425 308.1 109.625 306.1 109.875C304.1 110.075 302.1 110.375 300.1 110.775C299.4 110.925 298.675 111.075 297.925 111.225C297.225 111.375 296.525 111.675 295.825 112.125C298.425 111.875 300.975 111.625 303.475 111.375C305.975 111.075 308.5 110.8 311.05 110.55ZM283.15 142.425C282.85 145.525 282.85 148.65 283.15 151.8C283.45 148.7 283.45 145.575 283.15 142.425ZM283.225 154.425V154.2C283.075 154.05 283 154.1 283 154.35C283 154.4 283 154.425 283 154.425C283.05 154.475 283.075 154.525 283.075 154.575L283.225 154.425ZM298.075 132.375L298.225 132.525V132.375H298.075ZM277.375 110.55H277.9C278.05 110.55 278.075 110.525 277.975 110.475C277.925 110.375 277.975 110.375 278.125 110.475C278.175 110.575 278.075 110.625 277.825 110.625C277.725 110.625 277.65 110.625 277.6 110.625C277.55 110.575 277.475 110.55 277.375 110.55Z" fill="#2771F5"/>
<path d="M357.444 139.8C358.744 139.85 359.869 140.25 360.819 141C361.819 141.7 362.519 142.675 362.919 143.925C363.019 144.175 362.994 144.425 362.844 144.675C362.694 144.875 362.469 144.975 362.169 144.975C361.919 145.025 361.644 145.05 361.344 145.05C361.094 145.05 360.844 145.05 360.594 145.05H351.669C349.969 145 348.269 145.075 346.569 145.275C344.919 145.475 343.244 145.725 341.544 146.025C341.294 146.075 341.044 146.15 340.794 146.25C340.594 146.35 340.369 146.525 340.119 146.775C341.169 146.925 342.219 146.975 343.269 146.925C344.319 146.825 345.344 146.775 346.344 146.775C347.444 146.825 348.544 146.85 349.644 146.85C350.744 146.8 351.844 146.8 352.944 146.85C353.994 146.9 355.044 146.85 356.094 146.7C357.194 146.55 358.319 146.7 359.469 147.15C358.669 147.7 357.894 148.125 357.144 148.425C356.394 148.675 355.619 148.85 354.819 148.95C354.169 149.05 353.519 149.125 352.869 149.175C352.269 149.175 351.644 149.175 350.994 149.175C349.394 149.125 347.769 149.15 346.119 149.25C344.519 149.3 342.919 149.4 341.319 149.55C340.769 149.6 340.219 149.65 339.669 149.7C339.119 149.75 338.619 149.925 338.169 150.225C337.519 150.625 336.919 151.075 336.369 151.575C335.869 152.075 335.569 152.775 335.469 153.675C335.369 154.225 335.194 154.775 334.944 155.325C334.694 155.875 334.444 156.425 334.194 156.975C333.744 157.825 333.294 158.65 332.844 159.45C332.394 160.25 332.044 161.1 331.794 162C331.194 162 330.694 161.875 330.294 161.625C329.944 161.425 329.619 161.125 329.319 160.725C327.719 158.875 326.469 156.9 325.569 154.8C324.669 152.75 324.269 150.475 324.369 147.975C324.469 144.825 324.619 141.7 324.819 138.6C325.069 135.45 325.394 132.3 325.794 129.15C326.194 126 326.619 122.9 327.069 119.85C327.519 116.75 327.969 113.625 328.419 110.475C328.519 109.625 328.669 108.7 328.869 107.7C329.069 106.65 329.494 105.4 330.144 103.95C330.394 103.5 330.694 103.15 331.044 102.9C331.444 102.6 331.844 102.325 332.244 102.075C332.944 101.625 333.444 101.425 333.744 101.475C334.094 101.525 334.594 101.9 335.244 102.6C335.494 102.3 335.744 102.025 335.994 101.775C336.294 101.475 336.719 101.4 337.269 101.55C337.769 101.7 338.244 101.7 338.694 101.55C339.144 101.4 339.594 101.275 340.044 101.175C342.294 100.625 344.519 100.325 346.719 100.275C348.919 100.225 351.144 100.475 353.394 101.025C354.594 101.325 355.744 101.725 356.844 102.225C357.994 102.675 359.069 103.3 360.069 104.1C361.369 105.2 362.444 106.425 363.294 107.775C364.144 109.125 364.619 110.7 364.719 112.5C364.719 112.7 364.744 112.875 364.794 113.025C365.244 114.825 365.244 116.55 364.794 118.2C364.344 119.8 363.619 121.35 362.619 122.85C361.569 124.45 360.419 125.95 359.169 127.35C357.919 128.75 356.644 130.1 355.344 131.4L350.169 136.35C350.069 136.45 349.994 136.55 349.944 136.65C349.894 136.75 349.944 136.875 350.094 137.025C350.194 137.125 350.319 137.175 350.469 137.175C351.019 137.175 351.519 137.2 351.969 137.25C352.469 137.25 352.994 137.25 353.544 137.25C353.794 137.3 354.044 137.35 354.294 137.4C354.544 137.45 354.744 137.675 354.894 138.075C354.344 138.175 353.794 138.2 353.244 138.15C352.744 138.1 352.219 138.05 351.669 138C351.269 138 350.894 137.975 350.544 137.925C350.194 137.875 349.819 137.85 349.419 137.85C348.969 137.75 348.594 137.825 348.294 138.075C347.994 138.275 347.719 138.525 347.469 138.825C347.319 138.975 347.294 139.125 347.394 139.275C347.494 139.475 347.619 139.575 347.769 139.575C348.169 139.575 348.544 139.6 348.894 139.65C349.244 139.65 349.619 139.65 350.019 139.65C351.269 139.7 352.494 139.725 353.694 139.725C354.944 139.725 356.194 139.75 357.444 139.8ZM330.219 152.025C330.469 152.125 330.544 152.05 330.444 151.8C330.444 151.75 330.419 151.7 330.369 151.65C330.369 151.65 330.369 151.625 330.369 151.575C330.169 151.575 330.069 151.675 330.069 151.875C330.069 151.975 330.119 152.025 330.219 152.025ZM345.519 105.9C345.369 105.9 345.294 106.025 345.294 106.275C345.294 106.325 345.319 106.375 345.369 106.425C345.469 106.475 345.544 106.525 345.594 106.575C345.844 106.575 346.069 106.6 346.269 106.65C346.519 106.65 346.619 106.65 346.569 106.65C347.269 106.65 347.694 106.625 347.844 106.575C348.044 106.575 348.244 106.6 348.444 106.65C348.644 106.65 348.819 106.525 348.969 106.275C349.069 106.175 348.994 106.05 348.744 105.9C348.494 105.7 348.219 105.55 347.919 105.45C347.519 105.35 347.119 105.375 346.719 105.525C346.319 105.625 345.919 105.75 345.519 105.9ZM338.769 129.675C340.719 127.925 342.619 126.175 344.469 124.425C346.369 122.675 348.169 120.8 349.869 118.8C350.369 118.25 350.819 117.7 351.219 117.15C351.619 116.55 352.019 115.95 352.419 115.35C352.969 114.55 352.869 113.9 352.119 113.4C351.269 112.85 350.369 112.45 349.419 112.2C348.519 111.9 347.569 111.875 346.569 112.125C346.019 112.275 345.469 112.425 344.919 112.575C344.419 112.675 343.894 112.775 343.344 112.875C342.144 113.125 341.269 113.65 340.719 114.45C340.219 115.2 339.844 116.1 339.594 117.15C339.544 117.3 339.519 117.475 339.519 117.675C339.519 117.825 339.494 118 339.444 118.2C339.194 119.8 338.969 121.425 338.769 123.075C338.569 124.725 338.344 126.375 338.094 128.025C338.044 128.325 338.019 128.625 338.019 128.925C338.019 129.225 338.019 129.575 338.019 129.975C338.269 129.875 338.444 129.825 338.544 129.825C338.644 129.775 338.719 129.725 338.769 129.675Z" fill="#2771F5"/>
<path d="M376.929 140.775C376.729 139.425 376.704 138.1 376.854 136.8C377.054 135.5 377.254 134.2 377.454 132.9C377.954 129.05 378.479 125.225 379.029 121.425C379.579 117.625 380.129 113.8 380.679 109.95C380.779 109.35 380.829 108.75 380.829 108.15C380.829 107.5 380.879 106.85 380.979 106.2C381.029 105.85 381.079 105.525 381.129 105.225C381.179 104.925 381.454 104.75 381.954 104.7C382.154 104.65 382.254 104.55 382.254 104.4C382.304 104.2 382.329 104.025 382.329 103.875C382.429 103.425 382.479 103 382.479 102.6C382.529 102.15 382.579 101.725 382.629 101.325C382.929 99.375 384.054 98.275 386.004 98.025C386.154 97.975 386.304 97.95 386.454 97.95C386.654 97.95 386.829 97.95 386.979 97.95C389.029 97.95 389.804 98.925 389.304 100.875C389.204 101.325 389.129 101.775 389.079 102.225C389.029 102.675 388.954 103.125 388.854 103.575C388.854 103.775 388.854 103.95 388.854 104.1C388.904 104.25 389.054 104.4 389.304 104.55C389.404 104 389.479 103.5 389.529 103.05C389.579 102.55 389.654 102.05 389.754 101.55L389.979 99.75C390.029 99.65 390.054 99.55 390.054 99.45C390.104 99.3 390.229 99.225 390.429 99.225C390.779 99.225 391.004 99.275 391.104 99.375C391.354 99.625 391.579 99.9 391.779 100.2C392.029 100.45 392.204 100.725 392.304 101.025C392.604 102.125 392.904 103.225 393.204 104.325C393.504 105.375 393.554 106.5 393.354 107.7C392.954 109.85 392.604 112 392.304 114.15C392.054 116.25 391.779 118.375 391.479 120.525C391.079 123.525 390.654 126.475 390.204 129.375C389.804 132.275 389.379 135.2 388.929 138.15C388.379 141.75 387.254 145.125 385.554 148.275C385.104 149.125 384.654 149.975 384.204 150.825C383.804 151.725 383.279 152.575 382.629 153.375C382.329 153.775 382.129 154.225 382.029 154.725C381.929 155.225 381.829 155.725 381.729 156.225C381.729 156.325 381.704 156.45 381.654 156.6C381.604 156.75 381.504 156.8 381.354 156.75C381.004 156.65 380.779 156.525 380.679 156.375C380.329 156.025 380.054 155.625 379.854 155.175C379.704 154.775 379.554 154.35 379.404 153.9C378.104 150.5 377.604 147 377.904 143.4C377.954 143 377.979 142.6 377.979 142.2C377.979 141.75 377.979 141.325 377.979 140.925C377.979 140.375 377.629 140.325 376.929 140.775ZM384.054 147.75C383.954 147.85 383.804 147.925 383.604 147.975C383.454 147.975 383.404 148.1 383.454 148.35C383.454 148.55 383.454 148.65 383.454 148.65C383.604 148.8 383.704 148.75 383.754 148.5C383.754 148.35 383.754 148.2 383.754 148.05C383.754 147.9 383.879 147.775 384.129 147.675C384.029 147.625 383.929 147.6 383.829 147.6C383.779 147.55 383.829 147.475 383.979 147.375C383.979 147.425 383.979 147.475 383.979 147.525C384.029 147.575 384.054 147.65 384.054 147.75Z" fill="#2771F5"/>
<path d="M416.945 102C417.345 101.5 417.57 101.15 417.62 100.95C418.02 100.15 418.345 99.675 418.595 99.525C418.845 99.375 419.295 99.5249 419.945 99.9749C420.595 100.375 421.22 100.625 421.82 100.725C422.47 100.825 423.145 100.825 423.845 100.725C426.495 100.425 429.095 100.2 431.645 100.05C434.495 99.9 437.195 100.525 439.745 101.925C439.845 101.975 439.945 102.05 440.045 102.15C440.145 102.25 440.27 102.375 440.42 102.525C437.92 102.275 435.495 102.275 433.145 102.525C430.795 102.775 428.47 103.15 426.17 103.65C427.42 103.6 428.645 103.675 429.845 103.875C431.045 104.075 432.295 104.05 433.595 103.8C433.995 103.75 434.37 103.75 434.72 103.8C435.07 103.85 435.445 103.875 435.845 103.875C436.745 103.925 437.645 103.975 438.545 104.025C439.445 104.075 440.345 104.1 441.245 104.1C441.995 104.15 442.695 104.325 443.345 104.625C444.045 104.925 444.62 105.425 445.07 106.125C445.37 106.525 445.47 106.85 445.37 107.1C445.32 107.3 445.095 107.5 444.695 107.7C443.295 108.35 441.87 108.8 440.42 109.05C438.97 109.3 437.495 109.475 435.995 109.575C434.045 109.725 432.07 109.9 430.07 110.1C428.12 110.25 426.145 110.525 424.145 110.925C423.945 110.975 423.645 111.1 423.245 111.3C423.195 111.35 423.095 111.5 422.945 111.75C423.095 111.9 423.22 111.975 423.32 111.975H424.37C426.27 111.725 428.17 111.525 430.07 111.375C431.97 111.175 433.87 110.975 435.77 110.775C436.02 110.775 436.295 110.75 436.595 110.7C436.945 110.65 437.295 110.725 437.645 110.925C436.995 111.425 436.12 111.85 435.02 112.2C434.27 112.4 433.52 112.525 432.77 112.575C432.02 112.625 431.27 112.7 430.52 112.8C429.27 112.9 428.045 113.025 426.845 113.175C425.695 113.325 424.545 113.475 423.395 113.625C422.445 113.725 421.945 114.175 421.895 114.975C421.845 115.175 421.77 115.35 421.67 115.5C421.62 115.65 421.595 115.825 421.595 116.025C421.545 116.675 421.37 117.3 421.07 117.9C420.82 118.5 420.82 119.15 421.07 119.85C421.77 120.05 422.42 120.1 423.02 120C423.62 119.9 424.22 119.8 424.82 119.7C426.82 119.45 428.745 119.475 430.595 119.775C432.445 120.075 434.27 120.625 436.07 121.425C436.97 121.775 437.87 122.125 438.77 122.475C439.67 122.825 440.62 123.35 441.62 124.05C438.62 123.95 435.72 124.075 432.92 124.425C430.12 124.775 427.195 125.15 424.145 125.55C424.895 125.8 425.52 125.925 426.02 125.925C426.52 125.875 426.995 125.8 427.445 125.7C429.645 125.5 431.82 125.325 433.97 125.175C436.12 124.975 438.295 124.925 440.495 125.025C440.645 125.025 440.795 125.025 440.945 125.025C441.145 125.025 441.32 125.05 441.47 125.1C441.77 125.1 441.995 125.175 442.145 125.325C442.245 125.525 442.22 125.675 442.07 125.775C441.92 125.875 441.795 125.975 441.695 126.075C440.695 126.725 439.67 127.375 438.62 128.025C437.62 128.625 436.595 129.2 435.545 129.75C434.845 130.15 434.12 130.475 433.37 130.725C432.62 130.975 431.82 131.15 430.97 131.25C429.02 131.5 427.07 131.725 425.12 131.925C423.22 132.075 421.295 132.25 419.345 132.45C418.695 132.65 418.37 132.975 418.37 133.425C418.12 135.425 417.97 137.425 417.92 139.425C417.92 141.375 418.07 143.35 418.37 145.35C418.42 145.8 418.545 146.1 418.745 146.25C418.995 146.4 419.345 146.45 419.795 146.4C420.095 146.3 420.395 146.25 420.695 146.25C420.995 146.25 421.27 146.2 421.52 146.1C422.97 145.8 424.37 145.625 425.72 145.575C427.12 145.525 428.52 145.45 429.92 145.35C430.32 145.3 430.695 145.3 431.045 145.35C431.395 145.35 431.77 145.375 432.17 145.425C432.87 145.575 433.545 145.6 434.195 145.5C434.845 145.4 435.52 145.225 436.22 144.975C436.67 144.775 437.12 144.6 437.57 144.45C438.07 144.3 438.57 144.15 439.07 144C439.37 143.9 439.62 143.95 439.82 144.15C440.02 144.35 440.07 144.6 439.97 144.9C439.27 146.6 438.42 148.225 437.42 149.775C436.47 151.275 435.22 152.575 433.67 153.675C433.52 153.825 433.345 153.95 433.145 154.05C432.995 154.15 432.845 154.3 432.695 154.5C431.945 155.6 431.02 156.4 429.92 156.9C428.82 157.4 427.695 157.8 426.545 158.1C422.645 159.15 418.745 159.3 414.845 158.55C413.795 158.35 412.845 157.975 411.995 157.425C411.195 156.925 410.445 156.275 409.745 155.475C408.045 153.525 406.87 151.425 406.22 149.175C405.57 146.925 405.22 144.55 405.17 142.05C405.07 138.75 405.195 135.5 405.545 132.3C405.895 129.1 406.395 125.925 407.045 122.775C407.645 119.775 408.32 116.775 409.07 113.775C409.17 113.375 409.195 113.025 409.145 112.725C409.145 112.375 408.97 112.025 408.62 111.675C408.37 111.325 408.145 110.975 407.945 110.625C407.745 110.225 407.67 109.8 407.72 109.35C407.82 108.55 408.02 107.875 408.32 107.325C408.62 106.775 409.195 106.375 410.045 106.125C410.345 106.025 410.545 105.9 410.645 105.75C410.745 105.55 410.645 105.325 410.345 105.075C410.095 104.825 410.12 104.55 410.42 104.25C410.92 103.75 411.445 103.3 411.995 102.9C412.795 102.5 413.195 101.925 413.195 101.175C413.295 100.675 413.57 100.375 414.02 100.275C414.32 100.225 414.595 100.125 414.845 99.9749C415.095 99.775 415.345 99.625 415.595 99.525C416.295 99.175 416.67 99.375 416.72 100.125C416.77 100.375 416.795 100.65 416.795 100.95C416.795 101.2 416.845 101.55 416.945 102ZM428.495 155.85C428.445 155.75 428.495 155.675 428.645 155.625C428.795 155.575 428.82 155.5 428.72 155.4C428.72 155.5 428.695 155.55 428.645 155.55C428.595 155.6 428.57 155.675 428.57 155.775L428.495 155.7V155.85ZM420.62 156.675C420.72 156.725 420.77 156.8 420.77 156.9C420.77 157 420.845 157 420.995 156.9C420.895 156.85 420.82 156.825 420.77 156.825C420.72 156.825 420.67 156.8 420.62 156.75C421.02 156.25 421.495 156.2 422.045 156.6C422.245 156.6 422.395 156.575 422.495 156.525C422.495 156.475 422.52 156.425 422.57 156.375C422.42 156.325 422.295 156.325 422.195 156.375C422.145 156.475 422.07 156.575 421.97 156.675C421.92 156.525 421.87 156.35 421.82 156.15C421.82 156 421.72 155.9 421.52 155.85C421.17 155.8 420.82 155.75 420.47 155.7C420.17 155.65 419.845 155.625 419.495 155.625C419.245 155.625 418.995 155.6 418.745 155.55C418.545 155.5 418.345 155.6 418.145 155.85C418.045 156 418.12 156.15 418.37 156.3C418.67 156.5 419.02 156.625 419.42 156.675C419.62 156.675 419.82 156.65 420.02 156.6C420.22 156.6 420.42 156.625 420.62 156.675ZM412.07 134.4C411.82 135.1 411.62 135.85 411.47 136.65C411.32 137.4 411.42 138.275 411.77 139.275C411.87 138.325 411.92 137.475 411.92 136.725C411.97 135.925 412.02 135.15 412.07 134.4ZM422.345 126C422.345 125.9 422.32 125.85 422.27 125.85C421.92 125.75 421.57 125.675 421.22 125.625C420.87 125.525 420.52 125.425 420.17 125.325C419.92 125.225 419.745 125.325 419.645 125.625C419.645 125.925 419.795 126.1 420.095 126.15C420.495 126.1 420.87 126.075 421.22 126.075C421.57 126.075 421.945 126.05 422.345 126ZM413.72 156.3C413.62 156.2 413.545 156.1 413.495 156C413.495 155.9 413.445 155.8 413.345 155.7C413.295 155.6 413.22 155.525 413.12 155.475C413.02 155.425 412.92 155.45 412.82 155.55C412.72 155.65 412.67 155.75 412.67 155.85C412.67 155.95 412.72 156.05 412.82 156.15C413.02 156.35 413.195 156.5 413.345 156.6L413.495 156.45C413.545 156.4 413.57 156.375 413.57 156.375C413.62 156.375 413.67 156.35 413.72 156.3ZM419.72 148.725C419.82 148.925 420.02 148.975 420.32 148.875H420.545C420.545 148.625 420.395 148.5 420.095 148.5C419.995 148.5 419.92 148.525 419.87 148.575C419.87 148.625 419.82 148.675 419.72 148.725ZM424.37 156.3V156.15L424.145 156.075L424.37 156.3Z" fill="#2771F5"/>
<path d="M469.734 124.8C469.384 125.7 469.134 126.625 468.984 127.575C468.884 128.475 468.759 129.375 468.609 130.275C468.109 133.125 467.634 135.925 467.184 138.675C466.734 141.425 466.284 144.225 465.834 147.075C465.234 151.375 463.409 155.125 460.359 158.325C460.259 158.475 460.134 158.6 459.984 158.7C459.834 158.8 459.709 158.9 459.609 159C459.509 159.15 459.459 159.325 459.459 159.525C459.459 159.775 459.334 159.95 459.084 160.05C458.734 160.15 458.434 160.1 458.184 159.9C457.984 159.7 457.784 159.475 457.584 159.225C456.584 158.025 455.759 156.75 455.109 155.4C454.459 154.1 454.209 152.6 454.359 150.9C454.509 149.6 454.609 148.3 454.659 147C454.759 145.7 454.759 144.375 454.659 143.025C454.659 142.425 454.709 141.825 454.809 141.225C454.909 140.575 455.009 139.925 455.109 139.275C455.809 134.425 456.559 129.65 457.359 124.95C458.159 120.2 459.134 115.45 460.284 110.7C460.534 109.55 460.834 108.425 461.184 107.325C461.584 106.175 461.959 105.025 462.309 103.875C462.659 102.775 463.209 101.95 463.959 101.4C464.759 100.85 465.709 100.5 466.809 100.35C467.659 100.25 468.459 100.25 469.209 100.35C470.009 100.45 470.809 100.6 471.609 100.8C472.109 101 472.484 101.2 472.734 101.4C472.934 101.65 473.109 101.925 473.259 102.225C473.459 102.475 473.809 102.475 474.309 102.225C474.359 102.175 474.459 102.225 474.609 102.375C474.759 102.525 474.884 102.675 474.984 102.825C476.134 104.675 477.059 106.75 477.759 109.05C478.609 111.6 479.409 114.125 480.159 116.625C480.959 119.075 481.834 121.55 482.784 124.05C482.884 124.3 482.984 124.575 483.084 124.875C483.184 125.175 483.309 125.45 483.459 125.7C483.459 125.9 483.559 126 483.759 126C484.059 126.05 484.209 125.9 484.209 125.55C484.459 123.55 484.709 121.575 484.959 119.625C485.259 117.625 485.559 115.65 485.859 113.7C486.109 111.85 486.334 110.025 486.534 108.225C486.784 106.425 487.034 104.625 487.284 102.825C487.384 102.375 487.484 101.925 487.584 101.475C487.734 101.025 487.859 100.575 487.959 100.125C488.009 99.725 488.159 99.325 488.409 98.925C488.509 98.775 488.609 98.625 488.709 98.475C488.809 98.275 488.909 98.175 489.009 98.175C489.359 98.125 489.634 98 489.834 97.8C490.084 97.55 490.309 97.3 490.509 97.05C490.709 96.75 490.934 96.5 491.184 96.3C491.434 96.05 491.759 95.925 492.159 95.925C492.659 95.875 493.159 95.875 493.659 95.925C494.159 95.925 494.659 95.975 495.159 96.075C495.709 96.225 496.059 96.45 496.209 96.75C496.359 97 496.484 97.4 496.584 97.95C496.684 98.6 496.684 99.225 496.584 99.825C496.484 100.425 496.409 101.05 496.359 101.7C496.309 101.8 496.309 101.875 496.359 101.925C496.459 101.975 496.534 102 496.584 102C496.784 102.05 496.884 101.95 496.884 101.7C496.934 101.2 496.959 100.7 496.959 100.2C497.009 99.7 497.059 99.2 497.109 98.7C497.159 98.6 497.234 98.525 497.334 98.475C497.484 98.375 497.609 98.275 497.709 98.175C497.809 98.175 497.934 98.25 498.084 98.4C498.584 99.05 498.909 99.725 499.059 100.425C499.259 101.125 499.359 101.9 499.359 102.75C499.259 104.8 499.059 106.825 498.759 108.825C498.459 110.825 498.184 112.85 497.934 114.9C497.534 117.85 497.134 120.8 496.734 123.75C496.334 126.65 495.934 129.575 495.534 132.525C495.284 134.225 494.984 135.9 494.634 137.55C494.334 139.2 493.934 140.85 493.434 142.5C493.284 143.05 493.134 143.575 492.984 144.075C492.834 144.575 492.659 145.1 492.459 145.65C491.709 147.35 490.559 148.65 489.009 149.55C488.159 150.05 487.334 150.4 486.534 150.6C485.734 150.8 484.884 150.9 483.984 150.9C483.684 150.9 483.384 150.875 483.084 150.825C482.784 150.775 482.509 150.65 482.259 150.45C481.359 149.75 480.459 149.075 479.559 148.425C478.659 147.725 478.009 146.8 477.609 145.65L475.134 138.9C474.384 136.8 473.634 134.7 472.884 132.6C472.184 130.45 471.459 128.3 470.709 126.15C470.609 125.9 470.509 125.65 470.409 125.4C470.359 125.1 470.134 124.9 469.734 124.8ZM460.059 156.15C460.159 155.3 460.334 154.575 460.584 153.975C460.884 153.375 460.884 152.65 460.584 151.8C460.484 152.6 460.334 153.3 460.134 153.9C459.984 154.55 459.959 155.3 460.059 156.15ZM489.159 103.875C489.409 103.075 489.609 102.375 489.759 101.775C489.909 101.175 489.884 100.55 489.684 99.9C489.484 100.45 489.309 101.05 489.159 101.7C489.009 102.3 489.009 103.025 489.159 103.875Z" fill="#2771F5"/>
<path d="M516.568 107.85C516.868 107.15 517.043 106.525 517.093 105.975C517.143 105.375 517.193 104.8 517.243 104.25V102.75C517.243 100.7 518.368 99.75 520.618 99.9C521.468 100 522.268 100 523.018 99.9C523.768 99.75 524.543 99.6 525.343 99.45C527.043 99.15 528.718 98.95 530.368 98.85C532.068 98.6999 533.768 98.75 535.468 99C537.168 99.25 538.693 99.75 540.043 100.5C541.443 101.2 542.643 102.25 543.643 103.65C544.593 104.85 545.493 106.075 546.343 107.325C547.193 108.575 547.893 109.925 548.443 111.375C549.593 114.375 550.143 117.375 550.093 120.375C550.043 123.375 549.543 126.375 548.593 129.375C547.643 132.325 546.393 135.075 544.843 137.625C543.293 140.175 541.543 142.625 539.593 144.975C538.393 146.425 537.118 147.85 535.768 149.25C534.468 150.6 533.118 151.95 531.718 153.3C531.618 153.4 531.518 153.475 531.418 153.525C531.368 153.625 531.293 153.725 531.193 153.825C529.593 155.175 527.893 156.275 526.093 157.125C524.293 157.975 522.318 158.45 520.168 158.55C519.368 158.55 518.868 158.9 518.668 159.6C518.568 159.85 518.443 160.075 518.293 160.275C518.193 160.525 518.093 160.775 517.993 161.025C517.643 161.725 517.343 162.075 517.093 162.075C516.843 162.125 516.443 161.825 515.893 161.175C515.543 160.775 515.218 160.325 514.918 159.825C514.668 159.375 514.268 159.025 513.718 158.775C513.368 158.675 513.293 158.475 513.493 158.175C513.743 157.675 513.818 157.2 513.718 156.75C513.668 156.3 513.593 155.85 513.493 155.4C513.393 154.9 513.343 154.4 513.343 153.9C513.343 153.4 513.318 152.9 513.268 152.4C513.268 151.85 513.268 151.275 513.268 150.675C513.268 150.125 513.193 149.5 513.043 148.8C512.793 149.8 512.693 150.725 512.743 151.575C512.843 152.475 512.818 153.35 512.668 154.2C512.318 154.2 512.118 154.1 512.068 153.9C512.018 153.7 511.943 153.525 511.843 153.375C511.443 152.325 511.193 151.25 511.093 150.15C510.993 149.05 510.993 147.95 511.093 146.85C511.293 143.75 511.493 140.675 511.693 137.625C511.943 134.525 512.218 131.425 512.518 128.325C512.768 125.325 513.093 122.325 513.493 119.325C513.893 116.325 514.243 113.325 514.543 110.325C514.643 109.325 514.793 108.35 514.993 107.4C515.193 106.4 515.343 105.4 515.443 104.4C515.543 104.05 515.718 103.9 515.968 103.95C516.068 104 516.168 104.2 516.268 104.55C516.318 105.05 516.293 105.575 516.193 106.125C516.143 106.625 516.268 107.2 516.568 107.85ZM538.543 101.175C538.593 101.075 538.618 101.025 538.618 101.025C538.668 100.975 538.668 101 538.618 101.1C538.568 101.1 538.543 101.1 538.543 101.1C538.543 101.05 538.518 101.025 538.468 101.025C538.718 101.075 538.918 101.2 539.068 101.4C539.268 101.6 539.518 101.65 539.818 101.55C539.718 101.85 539.818 101.925 540.118 101.775C540.018 101.725 539.943 101.7 539.893 101.7C539.893 101.65 539.843 101.6 539.743 101.55C539.643 101.25 539.468 101.15 539.218 101.25C538.968 101.3 538.743 101.275 538.543 101.175ZM524.068 142.425C524.318 142.275 524.518 142.175 524.668 142.125C524.818 142.075 524.943 142 525.043 141.9C526.293 140.65 527.493 139.4 528.643 138.15C529.843 136.9 530.993 135.6 532.093 134.25C534.643 131 536.418 127.375 537.418 123.375C538.168 120.525 537.993 117.8 536.893 115.2C536.093 113.45 535.118 112.275 533.968 111.675C532.868 111.075 531.393 110.975 529.543 111.375H529.318C528.468 111.575 527.868 111.875 527.518 112.275C527.218 112.625 526.993 113.225 526.843 114.075C526.293 118.525 525.768 122.95 525.268 127.35C524.818 131.75 524.418 136.175 524.068 140.625C524.018 140.875 523.993 141.15 523.993 141.45C524.043 141.7 524.068 142.025 524.068 142.425ZM528.043 101.55C528.993 101.65 529.868 101.7 530.668 101.7C531.518 101.7 532.368 101.7 533.218 101.7C533.418 101.7 533.518 101.6 533.518 101.4C533.568 101.3 533.518 101.175 533.368 101.025C532.468 100.475 531.643 100.25 530.893 100.35C530.193 100.4 529.243 100.8 528.043 101.55ZM531.418 109.05H532.018C532.218 108.95 532.318 108.85 532.318 108.75C532.368 108.65 532.318 108.525 532.168 108.375C531.768 108.075 531.368 108.05 530.968 108.3C530.818 108.3 530.743 108.4 530.743 108.6C530.743 108.75 530.843 108.875 531.043 108.975C531.093 109.025 531.218 109.05 531.418 109.05ZM524.518 101.25C524.418 101.35 524.368 101.4 524.368 101.4C524.418 101.4 524.443 101.425 524.443 101.475C524.443 101.475 524.468 101.475 524.518 101.475C524.768 101.475 524.818 101.4 524.668 101.25H524.518Z" fill="#2771F5"/>
<path d="M318.94 64.2951C318.94 64.1851 318.94 64.0751 318.94 63.9651C318.977 63.8184 318.977 63.6901 318.94 63.5801C318.94 63.3967 318.903 63.2867 318.83 63.2501C318.72 63.1767 318.628 63.1951 318.555 63.3051C318.518 63.3784 318.5 63.4517 318.5 63.5251C318.427 64.0751 318.353 64.6251 318.28 65.1751C318.243 65.7251 318.188 66.2934 318.115 66.8801C318.042 67.2834 317.932 67.6684 317.785 68.0351C317.675 68.4017 317.528 68.7684 317.345 69.1351C317.052 69.6484 316.795 70.1617 316.575 70.6751C316.355 71.1884 316.135 71.7017 315.915 72.2151C315.842 72.2884 315.768 72.3801 315.695 72.4901C315.658 72.6001 315.567 72.6551 315.42 72.6551C315.163 72.6551 314.962 72.5084 314.815 72.2151C314.522 71.7751 314.302 71.2984 314.155 70.7851C314.008 70.2717 313.917 69.7584 313.88 69.2451C313.807 68.8417 313.77 68.4567 313.77 68.0901C313.77 67.7601 313.752 67.3934 313.715 66.9901C313.678 66.7701 313.66 66.5317 313.66 66.2751C313.66 66.0184 313.532 65.7617 313.275 65.5051C313.202 65.8717 313.165 66.2201 313.165 66.5501C313.202 66.8801 313.257 67.2101 313.33 67.5401V68.3101C313.33 68.4934 313.275 68.5851 313.165 68.5851C313.018 68.6584 312.872 68.5851 312.725 68.3651C311.918 66.8984 311.442 65.3767 311.295 63.8001C311.185 62.8467 311.093 61.9117 311.02 60.9951C310.983 60.0784 311.002 59.1434 311.075 58.1901C311.148 56.3934 311.203 54.6151 311.24 52.8551C311.313 51.0951 311.387 49.3167 311.46 47.5201C311.46 47.2267 311.46 46.9517 311.46 46.6951C311.497 46.4384 311.442 46.1634 311.295 45.8701C311.112 45.7967 311.002 45.8151 310.965 45.9251C310.928 46.0351 310.873 46.1451 310.8 46.2551C310.36 47.2817 309.957 48.3267 309.59 49.3901C309.26 50.4534 308.93 51.5167 308.6 52.5801C308.417 53.1667 308.233 53.7351 308.05 54.2851C307.867 54.8351 307.647 55.3851 307.39 55.9351C306.987 56.8884 306.4 57.6767 305.63 58.3001C304.86 58.9234 304.017 59.4367 303.1 59.8401C302.623 60.0601 302.11 60.1517 301.56 60.1151C301.01 60.0417 300.497 59.8951 300.02 59.6751C299.213 59.2717 298.462 58.8134 297.765 58.3001C297.105 57.7867 296.555 57.1267 296.115 56.3201C295.748 55.6967 295.382 55.0734 295.015 54.4501C294.648 53.8267 294.3 53.2034 293.97 52.5801C293.53 51.8101 293.108 51.0401 292.705 50.2701C292.302 49.5001 291.898 48.7301 291.495 47.9601C291.422 47.8501 291.348 47.7217 291.275 47.5751C291.202 47.4284 291.073 47.3551 290.89 47.3551C290.78 47.4651 290.725 47.5017 290.725 47.4651C290.652 48.0151 290.578 48.5651 290.505 49.1151C290.468 49.6651 290.413 50.2151 290.34 50.7651L289.02 69.5751C288.983 69.6484 288.965 69.7034 288.965 69.7401C288.965 69.8134 288.947 69.8867 288.91 69.9601C288.837 70.1067 288.763 70.1801 288.69 70.1801C288.617 70.2167 288.562 70.1984 288.525 70.1251C288.488 70.0884 288.452 70.0517 288.415 70.0151C288.305 69.7217 288.268 69.4101 288.305 69.0801C288.378 68.7501 288.415 68.4384 288.415 68.1451C288.378 68.0351 288.36 67.9067 288.36 67.7601C288.36 67.6134 288.342 67.4117 288.305 67.1551C288.048 67.6684 287.902 68.1084 287.865 68.4751C287.865 68.8784 287.828 69.2817 287.755 69.6851C287.755 69.9051 287.755 70.1251 287.755 70.3451C287.755 70.5651 287.737 70.7851 287.7 71.0051C287.627 71.4084 287.462 71.6651 287.205 71.7751C286.728 71.9951 286.27 72.2334 285.83 72.4901C285.39 72.7467 284.877 72.8201 284.29 72.7101C283.667 72.6367 283.263 72.4901 283.08 72.2701C282.897 72.0867 282.823 71.6651 282.86 71.0051C282.897 70.7484 282.933 70.4917 282.97 70.2351C283.007 70.0151 283.025 69.7767 283.025 69.5201C283.062 69.1534 283.08 68.7867 283.08 68.4201C283.117 68.0534 283.153 67.6867 283.19 67.3201C283.19 67.2467 283.172 67.1551 283.135 67.0451C283.098 66.9351 283.062 66.7884 283.025 66.6051C282.805 67.1184 282.677 67.5951 282.64 68.0351C282.603 68.5117 282.567 68.9701 282.53 69.4101C282.493 69.6667 282.475 69.9051 282.475 70.1251C282.475 70.3817 282.457 70.6384 282.42 70.8951C282.42 71.1884 282.273 71.3717 281.98 71.4451C281.797 71.5551 281.595 71.4634 281.375 71.1701C281.082 70.7667 280.843 70.3634 280.66 69.9601C280.513 69.5934 280.422 69.1534 280.385 68.6401C280.312 67.7234 280.293 66.8251 280.33 65.9451C280.403 65.0284 280.477 64.1117 280.55 63.1951C280.88 58.8317 281.21 54.4867 281.54 50.1601C281.87 45.8334 282.292 41.4884 282.805 37.1251C282.878 36.3917 282.97 35.6584 283.08 34.9251C283.19 34.1917 283.392 33.4584 283.685 32.7251C283.868 32.1751 284.107 31.6617 284.4 31.1851C284.73 30.7084 285.243 30.4151 285.94 30.3051C286.087 30.2684 286.215 30.1951 286.325 30.0851C286.435 29.9384 286.563 29.8284 286.71 29.7551C286.857 29.6817 287.003 29.6084 287.15 29.5351C287.297 29.4617 287.443 29.4434 287.59 29.4801C288.507 29.5167 289.368 29.6451 290.175 29.8651C291.018 30.0851 291.752 30.6167 292.375 31.4601C292.888 32.1934 293.402 32.9451 293.915 33.7151C294.428 34.4484 294.887 35.2184 295.29 36.0251C296.023 37.4551 296.757 38.9034 297.49 40.3701C298.26 41.8001 299.012 43.2301 299.745 44.6601C299.928 44.9534 300.075 45.2651 300.185 45.5951C300.332 45.8884 300.552 46.1634 300.845 46.4201C301.065 46.2001 301.212 45.9801 301.285 45.7601C301.358 45.5401 301.432 45.3017 301.505 45.0451C302.128 43.3217 302.807 41.6534 303.54 40.0401C304.273 38.3901 305.117 36.7951 306.07 35.2551C306.363 34.7417 306.675 34.2467 307.005 33.7701C307.372 33.2934 307.72 32.7984 308.05 32.2851C308.527 31.5884 309.095 31.0384 309.755 30.6351C310.452 30.1951 311.167 29.8101 311.9 29.4801C312.303 29.2601 312.78 29.1867 313.33 29.2601C313.623 29.2967 313.898 29.3334 314.155 29.3701C314.412 29.4067 314.687 29.4617 314.98 29.5351C315.897 29.6451 316.593 30.0301 317.07 30.6901C317.657 31.4234 318.17 32.2117 318.61 33.0551C319.05 33.8617 319.343 34.7417 319.49 35.6951C319.82 37.9317 320.04 40.2234 320.15 42.5701C320.223 44.1101 320.242 45.6684 320.205 47.2451C320.205 48.7851 320.168 50.3434 320.095 51.9201C320.022 53.3867 319.967 54.8534 319.93 56.3201C319.893 57.7501 319.838 59.1984 319.765 60.6651C319.728 61.1784 319.673 61.7101 319.6 62.2601C319.527 62.7734 319.453 63.3051 319.38 63.8551C319.38 64.0751 319.215 64.2217 318.885 64.2951H318.94ZM313.605 59.8401H313.66V52.8001H313.605V59.8401ZM319.16 48.2901C319.233 47.2267 319.307 46.1817 319.38 45.1551C319.453 44.0917 319.435 43.0284 319.325 41.9651C319.178 42.0384 319.087 42.1301 319.05 42.2401C319.05 42.3501 319.05 42.4417 319.05 42.5151C319.05 43.4684 319.05 44.4401 319.05 45.4301C319.087 46.3834 319.123 47.3367 319.16 48.2901ZM318.94 53.5151H318.83V57.9701H318.94V53.5151ZM314.045 45.7601C313.935 46.3101 313.88 46.8601 313.88 47.4101C313.917 47.9234 313.972 48.4551 314.045 49.0051V45.7601ZM313.33 63.6351H313.385V62.2601H313.33V63.6351ZM285.335 34.4851H285.17L285.225 34.6501L285.335 34.4851Z" fill="#F26A1D"/>
<path d="M357.872 33.4401C358.092 33.4034 358.312 33.3851 358.532 33.3851C358.752 33.3851 358.972 33.3851 359.192 33.3851C359.412 33.4217 359.577 33.5501 359.687 33.7701C359.834 33.9901 359.852 34.1917 359.742 34.3751C359.559 34.7417 359.339 35.0717 359.082 35.3651C358.862 35.6217 358.551 35.7684 358.147 35.8051C357.891 35.8417 357.689 35.8967 357.542 35.9701C357.432 36.0434 357.286 36.1717 357.102 36.3551C356.516 36.9417 356.039 37.5834 355.672 38.2801C354.682 39.8201 353.821 41.3417 353.087 42.8451C349.604 49.8851 346.927 57.1817 345.057 64.7351C344.764 65.9084 344.416 67.0267 344.012 68.0901C343.609 69.1901 343.096 70.2717 342.472 71.3351C342.179 71.7384 341.886 72.1601 341.592 72.6001C341.299 73.0401 340.951 73.4434 340.547 73.8101C340.181 74.1034 339.906 74.4517 339.722 74.8551C339.576 75.2584 339.411 75.6617 339.227 76.0651C339.044 76.4684 338.751 76.5417 338.347 76.2851C337.797 75.8817 337.376 75.3501 337.082 74.6901C336.679 73.7001 336.367 72.7101 336.147 71.7201C335.927 70.7667 335.817 69.7584 335.817 68.6951C335.927 65.3951 336.441 62.1867 337.357 59.0701C337.504 58.5567 337.632 58.0434 337.742 57.5301C337.889 56.9801 338.054 56.4301 338.237 55.8801C337.834 55.8067 337.486 55.8434 337.192 55.9901C336.899 56.1001 336.606 56.1917 336.312 56.2651C335.579 56.5584 334.809 56.7784 334.002 56.9251C333.196 57.0351 332.389 57.1084 331.582 57.1451C331.142 57.1817 330.702 57.1451 330.262 57.0351C329.639 56.8884 329.107 56.6501 328.667 56.3201C328.227 55.9901 327.897 55.5134 327.677 54.8901C327.604 54.5967 327.494 54.3767 327.347 54.2301C327.237 54.0467 327.036 53.9184 326.742 53.8451C326.339 53.7351 326.027 53.5334 325.807 53.2401C325.587 52.9467 325.386 52.6167 325.202 52.2501C325.019 51.7367 324.872 51.2234 324.762 50.7101C324.689 50.1967 324.634 49.6651 324.597 49.1151C324.597 48.1251 324.652 47.1351 324.762 46.1451C324.872 45.1551 325.001 44.1651 325.147 43.1751C325.441 41.4151 325.807 39.7101 326.247 38.0601C326.687 36.3734 327.164 34.7051 327.677 33.0551C327.751 32.7617 327.861 32.4867 328.007 32.2301C328.154 31.9367 328.447 31.8817 328.887 32.0651C328.997 32.1017 329.089 32.0467 329.162 31.9001C329.382 31.5701 329.621 31.3317 329.877 31.1851C330.134 31.0017 330.409 30.8917 330.702 30.8551C330.996 30.8184 331.289 30.8184 331.582 30.8551C331.876 30.8917 332.169 30.9101 332.462 30.9101C332.719 30.9101 332.957 30.9651 333.177 31.0751C333.434 31.1484 333.672 31.2217 333.892 31.2951C334.076 31.3317 334.204 31.3134 334.277 31.2401C334.351 31.1667 334.442 31.0934 334.552 31.0201C334.809 30.6901 335.066 30.6901 335.322 31.0201C335.616 31.3134 335.872 31.6251 336.092 31.9551C336.312 32.2851 336.477 32.6517 336.587 33.0551C336.661 33.3117 336.697 33.5684 336.697 33.8251C336.734 34.0817 336.624 34.3384 336.367 34.5951C336.001 34.9251 336.001 35.3101 336.367 35.7501C336.587 35.9701 336.587 36.2451 336.367 36.5751C336.037 36.9784 335.799 37.4184 335.652 37.8951C335.542 38.3717 335.414 38.8484 335.267 39.3251C334.534 41.5984 334.039 43.9084 333.782 46.2551C333.709 46.5484 333.672 46.8601 333.672 47.1901C333.672 47.5201 333.654 47.8317 333.617 48.1251C333.617 48.3084 333.672 48.4184 333.782 48.4551C333.892 48.4917 334.002 48.5101 334.112 48.5101C334.222 48.4734 334.332 48.4367 334.442 48.4001C334.552 48.3634 334.681 48.3084 334.827 48.2351C335.927 47.6851 337.009 47.1534 338.072 46.6401C339.136 46.0901 340.236 45.5584 341.372 45.0451C341.702 44.8617 341.959 44.6601 342.142 44.4401C342.326 44.1834 342.509 43.8901 342.692 43.5601C343.132 42.6067 343.572 41.6351 344.012 40.6451C344.489 39.6184 344.966 38.6284 345.442 37.6751C345.956 36.6851 346.487 35.7134 347.037 34.7601C347.624 33.7701 348.247 32.8167 348.907 31.9001C349.091 31.7167 349.256 31.5334 349.402 31.3501C349.549 31.1301 349.696 30.9101 349.842 30.6901C350.356 29.9201 350.979 29.4067 351.712 29.1501C352.482 28.8567 353.326 28.7651 354.242 28.8751C354.646 28.9484 355.031 28.9667 355.397 28.9301C355.764 28.8934 356.149 28.7467 356.552 28.4901C357.322 28.0867 358.001 28.2151 358.587 28.8751C358.917 29.2784 359.211 29.6817 359.467 30.0851C359.761 30.4884 359.907 30.9467 359.907 31.4601C359.944 31.8267 359.907 32.0834 359.797 32.2301C359.687 32.3401 359.467 32.4317 359.137 32.5051C358.734 32.6151 358.477 32.7067 358.367 32.7801C358.257 32.8534 358.092 33.0734 357.872 33.4401ZM326.302 46.8601H326.192C326.156 47.0434 326.119 47.2451 326.082 47.4651C326.082 47.6851 326.064 47.9051 326.027 48.1251C326.027 48.2351 326.027 48.3634 326.027 48.5101C326.027 48.6201 326.046 48.7301 326.082 48.8401C326.119 48.9867 326.156 49.1334 326.192 49.2801C326.229 49.3901 326.376 49.4084 326.632 49.3351L326.302 46.8601ZM334.882 52.9651C334.809 53.0017 334.736 53.0201 334.662 53.0201C334.626 53.0201 334.571 53.0384 334.497 53.0751C334.277 53.1484 334.186 53.2767 334.222 53.4601C334.222 53.7167 334.332 53.8084 334.552 53.7351C334.736 53.7351 334.882 53.7167 334.992 53.6801C335.102 53.6434 335.231 53.5884 335.377 53.5151C335.524 53.5151 335.597 53.4417 335.597 53.2951C335.524 53.1484 335.451 53.0567 335.377 53.0201C335.157 53.0201 334.992 53.0017 334.882 52.9651ZM332.462 53.5701C332.389 53.5701 332.334 53.5884 332.297 53.6251C332.151 53.7351 332.096 53.8451 332.132 53.9551C332.206 54.0284 332.279 54.1201 332.352 54.2301C332.426 54.4867 332.554 54.5601 332.737 54.4501C332.847 54.3401 332.884 54.2301 332.847 54.1201C332.847 53.9001 332.719 53.7167 332.462 53.5701Z" fill="#F26A1D"/>
<path d="M407.476 31.7901C407.622 32.0834 407.769 32.2667 407.916 32.3401C407.842 32.4867 407.622 32.6517 407.256 32.8351C406.926 33.0184 406.669 33.1467 406.486 33.2201C406.229 33.3301 405.972 33.4584 405.716 33.6051C405.496 33.7517 405.276 33.9167 405.056 34.1001C404.139 34.7967 403.204 35.4201 402.251 35.9701C401.297 36.4834 400.252 36.8684 399.116 37.1251C398.346 37.2717 397.851 37.7301 397.631 38.5001C397.117 40.4801 396.659 42.4601 396.256 44.4401C395.852 46.4201 395.504 48.4184 395.211 50.4351C394.917 52.5251 394.716 54.6151 394.606 56.7051C394.532 58.7584 394.477 60.8301 394.441 62.9201C394.441 63.2134 394.441 63.5251 394.441 63.8551C394.441 64.1484 394.422 64.4601 394.386 64.7901C394.312 66.1834 394.111 67.5217 393.781 68.8051C393.451 70.0884 392.864 71.3167 392.021 72.4901C391.837 72.7101 391.691 72.9301 391.581 73.1501C391.471 73.3701 391.361 73.5901 391.251 73.8101C390.957 74.2501 390.682 74.4884 390.426 74.5251C390.169 74.5984 389.876 74.4334 389.546 74.0301C388.372 72.7101 387.401 71.3167 386.631 69.8501C385.861 68.3834 385.476 66.7151 385.476 64.8451C385.476 61.5817 385.549 58.3551 385.696 55.1651C385.879 51.9384 386.264 48.7117 386.851 45.4851C386.961 45.0451 387.016 44.6234 387.016 44.2201C387.016 44.1467 386.979 44.0001 386.906 43.7801C386.649 43.8167 386.392 43.8534 386.136 43.8901C385.879 43.9267 385.659 44.0734 385.476 44.3301C385.219 44.6601 384.926 44.8434 384.596 44.8801C384.302 44.8801 383.972 44.8434 383.606 44.7701C383.202 44.6601 382.964 44.4584 382.891 44.1651C382.854 43.8717 382.799 43.5784 382.726 43.2851L382.616 43.2301C382.396 43.3034 382.249 43.4134 382.176 43.5601C382.102 43.7067 382.047 43.8717 382.011 44.0551C381.864 44.6417 381.571 44.8067 381.131 44.5501C380.617 44.2201 380.141 43.8717 379.701 43.5051C379.297 43.1017 379.004 42.5884 378.821 41.9651C378.711 41.6351 378.619 41.3234 378.546 41.0301C378.472 40.7001 378.546 40.3701 378.766 40.0401C378.839 39.9301 378.876 39.8201 378.876 39.7101C378.912 39.5634 378.931 39.4351 378.931 39.3251C378.857 38.7017 378.931 38.1517 379.151 37.6751C379.407 37.1984 379.719 36.7401 380.086 36.3001C380.416 35.8967 380.782 35.5301 381.186 35.2001C381.626 34.8701 382.066 34.5584 382.506 34.2651C384.706 32.8351 387.034 31.6434 389.491 30.6901C389.931 30.5067 390.371 30.3601 390.811 30.2501C391.251 30.1034 391.672 29.8834 392.076 29.5901C392.186 29.5167 392.314 29.4617 392.461 29.4251C392.607 29.3884 392.754 29.3517 392.901 29.3151C393.781 29.1317 394.642 28.9667 395.486 28.8201C396.366 28.6734 397.227 28.5267 398.071 28.3801C399.244 28.1967 400.381 28.2334 401.481 28.4901C402.617 28.7101 403.717 29.0767 404.781 29.5901C405.294 29.8834 405.789 30.1951 406.266 30.5251C406.742 30.8551 407.146 31.2767 407.476 31.7901C407.036 31.7167 406.577 31.6251 406.101 31.5151C405.661 31.3684 405.221 31.2767 404.781 31.2401C403.974 31.1667 403.186 31.2034 402.416 31.3501C401.646 31.4967 400.931 31.8267 400.271 32.3401H400.161C400.124 32.3401 400.106 32.3584 400.106 32.3951H400.051C400.014 32.3951 399.977 32.4134 399.941 32.4501C399.941 32.4501 399.922 32.4501 399.886 32.4501C399.959 32.4501 399.996 32.4501 399.996 32.4501C400.032 32.4134 400.069 32.3951 400.106 32.3951H400.216C400.216 32.3951 400.234 32.3767 400.271 32.3401C401.444 32.2667 402.636 32.1751 403.846 32.0651C405.056 31.9551 406.266 31.8634 407.476 31.7901ZM390.206 72.0501C390.132 70.2167 390.132 68.3834 390.206 66.5501C390.316 64.7534 390.206 62.9384 389.876 61.1051C389.729 62.6451 389.637 64.1667 389.601 65.6701C389.601 67.1367 389.656 68.6217 389.766 70.1251C389.766 70.4551 389.784 70.7851 389.821 71.1151C389.894 71.4451 390.022 71.7567 390.206 72.0501Z" fill="#F26A1D"/>
<path d="M431.225 58.5201C432.178 58.5567 433.003 58.8501 433.7 59.4001C434.433 59.9134 434.946 60.6284 435.24 61.5451C435.313 61.7284 435.295 61.9117 435.185 62.0951C435.075 62.2417 434.91 62.3151 434.69 62.3151C434.506 62.3517 434.305 62.3701 434.085 62.3701C433.901 62.3701 433.718 62.3701 433.535 62.3701H426.99C425.743 62.3334 424.496 62.3884 423.25 62.5351C422.04 62.6817 420.811 62.8651 419.565 63.0851C419.381 63.1217 419.198 63.1767 419.015 63.2501C418.868 63.3234 418.703 63.4517 418.52 63.6351C419.29 63.7451 420.06 63.7817 420.83 63.7451C421.6 63.6717 422.351 63.6351 423.085 63.6351C423.891 63.6717 424.698 63.6901 425.505 63.6901C426.311 63.6534 427.118 63.6534 427.925 63.6901C428.695 63.7267 429.465 63.6901 430.235 63.5801C431.041 63.4701 431.866 63.5801 432.71 63.9101C432.123 64.3134 431.555 64.6251 431.005 64.8451C430.455 65.0284 429.886 65.1567 429.3 65.2301C428.823 65.3034 428.346 65.3584 427.87 65.3951C427.43 65.3951 426.971 65.3951 426.495 65.3951C425.321 65.3584 424.13 65.3767 422.92 65.4501C421.746 65.4867 420.573 65.5601 419.4 65.6701C418.996 65.7067 418.593 65.7434 418.19 65.7801C417.786 65.8167 417.42 65.9451 417.09 66.1651C416.613 66.4584 416.173 66.7884 415.77 67.1551C415.403 67.5217 415.183 68.0351 415.11 68.6951C415.036 69.0984 414.908 69.5017 414.725 69.9051C414.541 70.3084 414.358 70.7117 414.175 71.1151C413.845 71.7384 413.515 72.3434 413.185 72.9301C412.855 73.5167 412.598 74.1401 412.415 74.8001C411.975 74.8001 411.608 74.7084 411.315 74.5251C411.058 74.3784 410.82 74.1584 410.6 73.8651C409.426 72.5084 408.51 71.0601 407.85 69.5201C407.19 68.0167 406.896 66.3484 406.97 64.5151C407.043 62.2051 407.153 59.9134 407.3 57.6401C407.483 55.3301 407.721 53.0201 408.015 50.7101C408.308 48.4001 408.62 46.1267 408.95 43.8901C409.28 41.6167 409.61 39.3251 409.94 37.0151C410.013 36.3917 410.123 35.7134 410.27 34.9801C410.416 34.2101 410.728 33.2934 411.205 32.2301C411.388 31.9001 411.608 31.6434 411.865 31.4601C412.158 31.2401 412.451 31.0384 412.745 30.8551C413.258 30.5251 413.625 30.3784 413.845 30.4151C414.101 30.4517 414.468 30.7267 414.945 31.2401C415.128 31.0201 415.311 30.8184 415.495 30.6351C415.715 30.4151 416.026 30.3601 416.43 30.4701C416.796 30.5801 417.145 30.5801 417.475 30.4701C417.805 30.3601 418.135 30.2684 418.465 30.1951C420.115 29.7917 421.746 29.5717 423.36 29.5351C424.973 29.4984 426.605 29.6817 428.255 30.0851C429.135 30.3051 429.978 30.5984 430.785 30.9651C431.628 31.2951 432.416 31.7534 433.15 32.3401C434.103 33.1467 434.891 34.0451 435.515 35.0351C436.138 36.0251 436.486 37.1801 436.56 38.5001C436.56 38.6467 436.578 38.7751 436.615 38.8851C436.945 40.2051 436.945 41.4701 436.615 42.6801C436.285 43.8534 435.753 44.9901 435.02 46.0901C434.25 47.2634 433.406 48.3634 432.49 49.3901C431.573 50.4167 430.638 51.4067 429.685 52.3601L425.89 55.9901C425.816 56.0634 425.761 56.1367 425.725 56.2101C425.688 56.2834 425.725 56.3751 425.835 56.4851C425.908 56.5584 426 56.5951 426.11 56.5951C426.513 56.5951 426.88 56.6134 427.21 56.6501C427.576 56.6501 427.961 56.6501 428.365 56.6501C428.548 56.6867 428.731 56.7234 428.915 56.7601C429.098 56.7967 429.245 56.9617 429.355 57.2551C428.951 57.3284 428.548 57.3467 428.145 57.3101C427.778 57.2734 427.393 57.2367 426.99 57.2001C426.696 57.2001 426.421 57.1817 426.165 57.1451C425.908 57.1084 425.633 57.0901 425.34 57.0901C425.01 57.0167 424.735 57.0717 424.515 57.2551C424.295 57.4017 424.093 57.5851 423.91 57.8051C423.8 57.9151 423.781 58.0251 423.855 58.1351C423.928 58.2817 424.02 58.3551 424.13 58.3551C424.423 58.3551 424.698 58.3734 424.955 58.4101C425.211 58.4101 425.486 58.4101 425.78 58.4101C426.696 58.4467 427.595 58.4651 428.475 58.4651C429.391 58.4651 430.308 58.4834 431.225 58.5201ZM411.26 67.4851C411.443 67.5584 411.498 67.5034 411.425 67.3201C411.425 67.2834 411.406 67.2467 411.37 67.2101C411.37 67.2101 411.37 67.1917 411.37 67.1551C411.223 67.1551 411.15 67.2284 411.15 67.3751C411.15 67.4484 411.186 67.4851 411.26 67.4851ZM422.48 33.6601C422.37 33.6601 422.315 33.7517 422.315 33.9351C422.315 33.9717 422.333 34.0084 422.37 34.0451C422.443 34.0817 422.498 34.1184 422.535 34.1551C422.718 34.1551 422.883 34.1734 423.03 34.2101C423.213 34.2101 423.286 34.2101 423.25 34.2101C423.763 34.2101 424.075 34.1917 424.185 34.1551C424.331 34.1551 424.478 34.1734 424.625 34.2101C424.771 34.2101 424.9 34.1184 425.01 33.9351C425.083 33.8617 425.028 33.7701 424.845 33.6601C424.661 33.5134 424.46 33.4034 424.24 33.3301C423.946 33.2567 423.653 33.2751 423.36 33.3851C423.066 33.4584 422.773 33.5501 422.48 33.6601ZM417.53 51.0951C418.96 49.8117 420.353 48.5284 421.71 47.2451C423.103 45.9617 424.423 44.5867 425.67 43.1201C426.036 42.7167 426.366 42.3134 426.66 41.9101C426.953 41.4701 427.246 41.0301 427.54 40.5901C427.943 40.0034 427.87 39.5267 427.32 39.1601C426.696 38.7567 426.036 38.4634 425.34 38.2801C424.68 38.0601 423.983 38.0417 423.25 38.2251C422.846 38.3351 422.443 38.4451 422.04 38.5551C421.673 38.6284 421.288 38.7017 420.885 38.7751C420.005 38.9584 419.363 39.3434 418.96 39.9301C418.593 40.4801 418.318 41.1401 418.135 41.9101C418.098 42.0201 418.08 42.1484 418.08 42.2951C418.08 42.4051 418.061 42.5334 418.025 42.6801C417.841 43.8534 417.676 45.0451 417.53 46.2551C417.383 47.4651 417.218 48.6751 417.035 49.8851C416.998 50.1051 416.98 50.3251 416.98 50.5451C416.98 50.7651 416.98 51.0217 416.98 51.3151C417.163 51.2417 417.291 51.2051 417.365 51.2051C417.438 51.1684 417.493 51.1317 417.53 51.0951Z" fill="#F26A1D"/>
<path d="M440.014 59.2351C439.867 58.2451 439.849 57.2734 439.959 56.3201C440.106 55.3667 440.252 54.4134 440.399 53.4601C440.766 50.6367 441.151 47.8317 441.554 45.0451C441.957 42.2584 442.361 39.4534 442.764 36.6301C442.837 36.1901 442.874 35.7501 442.874 35.3101C442.874 34.8334 442.911 34.3567 442.984 33.8801C443.021 33.6234 443.057 33.3851 443.094 33.1651C443.131 32.9451 443.332 32.8167 443.699 32.7801C443.846 32.7434 443.919 32.6701 443.919 32.5601C443.956 32.4134 443.974 32.2851 443.974 32.1751C444.047 31.8451 444.084 31.5334 444.084 31.2401C444.121 30.9101 444.157 30.5984 444.194 30.3051C444.414 28.8751 445.239 28.0684 446.669 27.8851C446.779 27.8484 446.889 27.8301 446.999 27.8301C447.146 27.8301 447.274 27.8301 447.384 27.8301C448.887 27.8301 449.456 28.5451 449.089 29.9751C449.016 30.3051 448.961 30.6351 448.924 30.9651C448.887 31.2951 448.832 31.6251 448.759 31.9551C448.759 32.1017 448.759 32.2301 448.759 32.3401C448.796 32.4501 448.906 32.5601 449.089 32.6701C449.162 32.2667 449.217 31.9001 449.254 31.5701C449.291 31.2034 449.346 30.8367 449.419 30.4701L449.584 29.1501C449.621 29.0767 449.639 29.0034 449.639 28.9301C449.676 28.8201 449.767 28.7651 449.914 28.7651C450.171 28.7651 450.336 28.8017 450.409 28.8751C450.592 29.0584 450.757 29.2601 450.904 29.4801C451.087 29.6634 451.216 29.8651 451.289 30.0851C451.509 30.8917 451.729 31.6984 451.949 32.5051C452.169 33.2751 452.206 34.1001 452.059 34.9801C451.766 36.5567 451.509 38.1334 451.289 39.7101C451.106 41.2501 450.904 42.8084 450.684 44.3851C450.391 46.5851 450.079 48.7484 449.749 50.8751C449.456 53.0017 449.144 55.1467 448.814 57.3101C448.411 59.9501 447.586 62.4251 446.339 64.7351C446.009 65.3584 445.679 65.9817 445.349 66.6051C445.056 67.2651 444.671 67.8884 444.194 68.4751C443.974 68.7684 443.827 69.0984 443.754 69.4651C443.681 69.8317 443.607 70.1984 443.534 70.5651C443.534 70.6384 443.516 70.7301 443.479 70.8401C443.442 70.9501 443.369 70.9867 443.259 70.9501C443.002 70.8767 442.837 70.7851 442.764 70.6751C442.507 70.4184 442.306 70.1251 442.159 69.7951C442.049 69.5017 441.939 69.1901 441.829 68.8601C440.876 66.3667 440.509 63.8001 440.729 61.1601C440.766 60.8667 440.784 60.5734 440.784 60.2801C440.784 59.9501 440.784 59.6384 440.784 59.3451C440.784 58.9417 440.527 58.9051 440.014 59.2351ZM445.239 64.3501C445.166 64.4234 445.056 64.4784 444.909 64.5151C444.799 64.5151 444.762 64.6067 444.799 64.7901C444.799 64.9367 444.799 65.0101 444.799 65.0101C444.909 65.1201 444.982 65.0834 445.019 64.9001C445.019 64.7901 445.019 64.6801 445.019 64.5701C445.019 64.4601 445.111 64.3684 445.294 64.2951C445.221 64.2584 445.147 64.2401 445.074 64.2401C445.037 64.2034 445.074 64.1484 445.184 64.0751C445.184 64.1117 445.184 64.1484 445.184 64.1851C445.221 64.2217 445.239 64.2767 445.239 64.3501Z" fill="#F26A1D"/>
<path d="M464.244 65.8901C464.134 65.0467 464.06 64.2401 464.024 63.4701C464.024 62.6634 464.079 61.8567 464.189 61.0501C464.225 60.9767 464.207 60.9217 464.134 60.8851C464.097 60.8484 464.06 60.7934 464.024 60.7201C463.987 60.7567 463.932 60.7934 463.859 60.8301C463.822 60.8301 463.785 60.8667 463.749 60.9401C463.749 61.1967 463.73 61.4534 463.694 61.7101C463.694 61.9301 463.694 62.1684 463.694 62.4251C463.694 63.1217 463.694 63.8184 463.694 64.5151C463.694 65.1751 463.675 65.8534 463.639 66.5501C463.602 67.3934 463.492 68.2184 463.309 69.0251C463.125 69.8317 462.777 70.5834 462.264 71.2801C462.154 71.4267 462.025 71.6467 461.879 71.9401C461.439 72.7834 460.907 72.9484 460.284 72.4351C459.44 71.7384 458.634 71.0051 457.864 70.2351C457.13 69.4651 456.58 68.5484 456.214 67.4851C455.81 66.2017 455.609 64.9734 455.609 63.8001C455.609 62.1501 455.627 60.5001 455.664 58.8501C455.737 57.2001 455.847 55.5501 455.994 53.9001C456.177 51.8834 456.379 49.8851 456.599 47.9051C456.855 45.8884 457.204 43.8901 457.644 41.9101C457.9 40.6267 458.157 39.3801 458.414 38.1701C458.707 36.9234 459 35.6767 459.294 34.4301C459.367 34.0634 459.459 33.7334 459.569 33.4401C459.679 33.1467 459.88 32.8717 460.174 32.6151C460.357 32.4317 460.467 32.2484 460.504 32.0651C460.577 31.8451 460.65 31.6251 460.724 31.4051C460.797 31.0751 460.962 30.8367 461.219 30.6901C461.329 30.6167 461.494 30.5801 461.714 30.5801C461.934 30.6534 462.007 30.8001 461.934 31.0201C461.86 31.2401 461.787 31.4601 461.714 31.6801C461.64 31.8634 461.64 32.0651 461.714 32.2851C461.714 32.3584 461.75 32.3951 461.824 32.3951C461.824 32.3951 461.879 32.3951 461.989 32.3951C462.209 32.2117 462.355 31.9551 462.429 31.6251C462.539 31.0751 462.649 30.6534 462.759 30.3601C462.869 30.0667 463.015 29.8651 463.199 29.7551C463.419 29.6084 463.694 29.5534 464.024 29.5901C464.354 29.5901 464.812 29.6634 465.399 29.8101C465.912 29.9567 466.499 29.9384 467.159 29.7551C468.845 29.2417 470.477 29.0767 472.054 29.2601C473.667 29.4434 475.262 29.8834 476.839 30.5801C478.159 31.1667 479.277 31.9184 480.194 32.8351C481.147 33.7517 481.88 34.9067 482.394 36.3001C482.76 37.1801 483.017 38.0417 483.164 38.8851C483.31 39.7284 483.31 40.6267 483.164 41.5801C483.054 42.5334 482.779 43.4867 482.339 44.4401C481.862 45.3934 481.312 46.2917 480.689 47.1351C480.065 47.9784 479.387 48.7851 478.654 49.5551C477.114 51.0951 475.519 52.5617 473.869 53.9551C472.255 55.3117 470.587 56.6501 468.864 57.9701C468.387 58.3367 467.892 58.6667 467.379 58.9601C466.865 59.2167 466.315 59.4367 465.729 59.6201C465.289 59.7667 464.995 59.9867 464.849 60.2801C464.702 60.5367 464.629 60.8667 464.629 61.2701C464.665 61.7467 464.665 62.2234 464.629 62.7001C464.629 63.1401 464.61 63.5984 464.574 64.0751C464.537 64.3684 464.482 64.6801 464.409 65.0101C464.372 65.3034 464.317 65.5967 464.244 65.8901ZM466.389 41.5801C466.059 41.8001 465.912 42.0934 465.949 42.4601C465.949 42.6434 465.949 42.8267 465.949 43.0101C465.985 43.1567 466.022 43.3217 466.059 43.5051C465.655 43.6884 465.454 43.9451 465.454 44.2751C465.49 44.5684 465.545 44.8801 465.619 45.2101C465.362 45.3201 465.215 45.4851 465.179 45.7051C465.105 46.0717 465.032 46.4201 464.959 46.7501C464.922 47.0434 464.885 47.3734 464.849 47.7401C464.812 47.9601 464.775 48.1984 464.739 48.4551C464.702 48.6751 464.757 48.8951 464.904 49.1151C465.197 48.4917 465.362 47.8501 465.399 47.1901C465.435 46.4934 465.49 45.8151 465.564 45.1551C465.637 44.8617 465.71 44.5867 465.784 44.3301C465.894 44.0367 465.985 43.7434 466.059 43.4501C466.095 43.1567 466.114 42.8451 466.114 42.5151C466.15 42.1851 466.242 41.8734 466.389 41.5801C466.425 41.4701 466.444 41.3051 466.444 41.0851C466.444 40.9751 466.462 40.8651 466.499 40.7551C466.572 40.6451 466.499 40.5534 466.279 40.4801C466.315 40.6634 466.334 40.8467 466.334 41.0301C466.37 41.2134 466.389 41.3967 466.389 41.5801ZM465.784 47.7951C465.82 47.8684 465.839 47.9601 465.839 48.0701C465.875 48.1801 465.93 48.2534 466.004 48.2901C466.187 48.3634 466.352 48.3267 466.499 48.1801C467.745 47.1901 468.937 46.1634 470.074 45.1001C471.247 44.0367 472.329 42.8817 473.319 41.6351C473.575 41.3417 473.832 40.9934 474.089 40.5901C474.382 39.9667 474.309 39.3801 473.869 38.8301C473.429 38.3534 472.824 37.9317 472.054 37.5651C471.614 37.3451 471.174 37.3084 470.734 37.4551C470.33 37.6017 470.037 37.9317 469.854 38.4451C469.78 38.7017 469.652 38.9217 469.469 39.1051C469.322 39.2884 469.194 39.4901 469.084 39.7101C468.937 39.9667 468.68 40.0951 468.314 40.0951C468.057 40.1317 467.855 40.1684 467.709 40.2051C467.599 40.2051 467.507 40.2417 467.434 40.3151C467.36 40.3517 467.287 40.4251 467.214 40.5351C467.177 40.6451 467.14 40.8101 467.104 41.0301C467.03 41.4334 466.939 41.8184 466.829 42.1851C466.755 42.5151 466.682 42.8634 466.609 43.2301C466.462 44.0001 466.315 44.7701 466.169 45.5401C466.059 46.2734 465.93 47.0251 465.784 47.7951ZM458.524 61.4351C458.524 62.0217 458.487 62.6084 458.414 63.1951C458.377 63.7817 458.359 64.3684 458.359 64.9551C458.359 65.5051 458.395 66.0734 458.469 66.6601C458.542 67.2467 458.707 67.8151 458.964 68.3651C459.037 67.1917 459.055 66.0367 459.019 64.9001C459.019 63.7267 458.854 62.5717 458.524 61.4351ZM471.559 33.0551C471.669 33.0184 471.76 33.0184 471.834 33.0551C471.944 33.0551 472.035 33.0367 472.109 33.0001C472.182 32.9634 472.274 32.8901 472.384 32.7801C472.384 32.6334 472.347 32.5234 472.274 32.4501C472.054 32.3034 471.834 32.1934 471.614 32.1201C471.394 32.0467 471.155 32.0834 470.899 32.2301C470.825 32.3034 470.752 32.3584 470.679 32.3951C470.605 32.4317 470.532 32.4867 470.459 32.5601C470.605 32.7801 470.734 32.9084 470.844 32.9451C470.954 32.9817 471.064 33.0001 471.174 33.0001C471.32 33.0001 471.449 33.0184 471.559 33.0551ZM458.854 54.6701C458.89 54.7067 458.927 54.7251 458.964 54.7251V53.4051H458.854V54.6701ZM458.634 56.4301L458.579 56.3201L458.524 56.4301H458.634Z" fill="#F26A1D"/>
<circle cx="86.8909" cy="19.0908" r="19.0908" fill="url(#paint0_linear)"/>
<path d="M136.703 107.962C136.703 107.962 143.734 115.855 142.189 102.915C140.643 89.9761 102.407 35.7274 66.7031 52.0065C61.422 54.4144 58.1255 55.6236 53.9758 59.6818C19.1024 93.7858 47.6123 163.48 67.8003 173.135C87.9883 182.789 89.7772 174.493 87.9883 166.332C84.2864 162.327 75.2611 90.4073 89.7438 84.9217C104.227 79.4361 136.703 107.962 136.703 107.962Z" fill="url(#paint1_linear)"/>
<circle cx="164.054" cy="19.0908" r="19.0908" fill="#F26A1D"/>
<path d="M103.273 118.233C103.273 118.233 96.2416 110.341 97.7871 123.28C99.3325 136.22 137.569 190.468 173.273 174.189C178.554 171.781 181.85 170.572 186 166.514C220.873 132.41 192.364 62.7157 172.176 53.0611C151.988 43.4065 150.199 51.7031 151.987 59.8635C155.689 63.8687 164.715 135.788 150.232 141.274C135.749 146.76 103.273 118.233 103.273 118.233Z" fill="#F26A1D"/>
<path d="M185.25 76.8375L192.333 84.2176C115.471 139.91 79.8212 154.304 30.088 155C9.41678 152.295 -0.944371 149.297 0.0676312 133.866C1.07963 118.435 28.0673 93.1773 36.5 91.5C38.4554 92.2505 21.3181 96.8862 11.5361 121.454C1.75417 146.021 22.4045 145.08 50.3265 144.601C78.2486 144.121 135.649 116.53 185.25 76.8375Z" fill="url(#paint2_linear)"/>
<path d="M220.152 95.5087L225.342 91.6445L222.776 61.3367L237.049 50.7101C239.203 49.1064 239.64 46.0828 238.027 43.9406C236.415 41.7984 233.374 41.3638 231.22 42.9674L216.947 53.594L188.43 42.6076L183.24 46.4718L205.27 62.2888L190.997 72.9153L183.218 70.6517L179.326 73.5499L188.72 80.6509L192.925 91.6161L196.818 88.7179L196.825 80.6579L211.098 70.0312L220.152 95.5087Z" fill="url(#paint3_linear)"/>
<defs>
<linearGradient id="paint0_linear" x1="75.8767" y1="3.42015" x2="92.0132" y2="37.5258" gradientUnits="userSpaceOnUse">
<stop stop-color="#0052EF"/>
<stop offset="1" stop-color="#6DA8FF"/>
</linearGradient>
<linearGradient id="paint1_linear" x1="59.7455" y1="60.4972" x2="120.703" y2="165.62" gradientUnits="userSpaceOnUse">
<stop stop-color="#0052EF"/>
<stop offset="1" stop-color="#6DA8FF"/>
</linearGradient>
<linearGradient id="paint2_linear" x1="50.5561" y1="52.1221" x2="76.8732" y2="169.767" gradientUnits="userSpaceOnUse">
<stop stop-color="#0052EF"/>
<stop offset="1" stop-color="#6DA8FF"/>
</linearGradient>
<linearGradient id="paint3_linear" x1="50.5561" y1="52.1221" x2="76.8732" y2="169.767" gradientUnits="userSpaceOnUse">
<stop stop-color="#0052EF"/>
<stop offset="1" stop-color="#6DA8FF"/>
</linearGradient>
</defs>
</svg>
