<svg width="36" height="27" viewBox="0 0 36 27" fill="none" xmlns="http://www.w3.org/2000/svg">
<path d="M31.4668 1H4.5335C3.41339 1 2.85334 1 2.42552 1.21799C2.04919 1.40973 1.74323 1.71569 1.55148 2.09202C1.3335 2.51984 1.3335 3.0799 1.3335 4.2V4.2634C1.3335 4.89793 1.3335 5.21519 1.42184 5.50247C1.50004 5.75677 1.62819 5.99292 1.79879 6.19708C1.99152 6.42771 2.25752 6.60062 2.78953 6.94642L2.78953 6.94642L16.2562 15.6998C16.8874 16.1101 17.2031 16.3152 17.5431 16.395C17.8437 16.4656 18.1566 16.4656 18.4572 16.395C18.7973 16.3152 19.1129 16.1101 19.7441 15.6998L33.2108 6.94642C33.7428 6.60062 34.0088 6.42771 34.2015 6.19708C34.3721 5.99292 34.5003 5.75677 34.5785 5.50247C34.6668 5.21519 34.6668 4.89793 34.6668 4.2634V4.2C34.6668 3.0799 34.6668 2.51984 34.4488 2.09202C34.2571 1.71569 33.9511 1.40973 33.5748 1.21799C33.147 1 32.5869 1 31.4668 1Z" stroke="#605859" stroke-width="1.2"/>
<path d="M33.8332 6.83203V22.7987C33.8332 23.9188 33.8332 24.4789 33.6152 24.9067C33.4234 25.283 33.1175 25.589 32.7412 25.7807C32.3133 25.9987 31.7533 25.9987 30.6332 25.9987H5.3665C4.2464 25.9987 3.68635 25.9987 3.25852 25.7807C2.8822 25.589 2.57624 25.283 2.38449 24.9067C2.1665 24.4789 2.1665 23.9188 2.1665 22.7987V6.83203" stroke="#605859" stroke-width="1.2" stroke-linecap="round" stroke-linejoin="round"/>
</svg>
