<svg width="24" height="19" viewBox="0 0 24 19" fill="none" xmlns="http://www.w3.org/2000/svg">
<path d="M21.75 0H2.25002C1.00928 0 0 1.06535 0 2.37501V16.625C0 17.9347 1.00928 19 2.25002 19H21.75C22.9907 19 24 17.9347 24 16.625V2.37501C24 1.06535 22.9907 0 21.75 0ZM21.75 1.58332C21.8519 1.58332 21.9488 1.60564 22.0374 1.64461L12 10.8274L1.9625 1.64461C2.05113 1.60569 2.14807 1.58332 2.24997 1.58332H21.75ZM21.75 17.4166H2.25002C1.8362 17.4166 1.49999 17.0618 1.49999 16.6249V3.31741L11.5085 12.4734C11.6499 12.6025 11.825 12.6666 12 12.6666C12.175 12.6666 12.3501 12.6025 12.4915 12.4734L22.5 3.31741V16.625C22.5 17.0618 22.1638 17.4166 21.75 17.4166Z" fill="#A1A3A9"/>
</svg>
