<svg width="26" height="18" viewBox="0 0 26 18" fill="none" xmlns="http://www.w3.org/2000/svg">
<path d="M24.6666 0.333252H1.33336C0.59998 0.333252 0 0.933232 0 1.66656V16.3333C0 17.0665 0.59998 17.6666 1.33336 17.6666H24.6667C25.4 17.6666 26 17.0666 26 16.3333V1.66656C26 0.933232 25.4 0.333252 24.6666 0.333252ZM24.1663 1.33319L13.767 9.13329C13.58 9.27558 13.293 9.3646 12.9999 9.36327C12.7069 9.3646 12.42 9.27558 12.2329 9.13329L1.83366 1.33319H24.1663ZM18.6113 9.64795L24.278 16.648C24.2837 16.655 24.2907 16.6603 24.2967 16.6667H1.7033C1.7093 16.66 1.7163 16.655 1.72199 16.648L7.38867 9.64795C7.56229 9.4333 7.52939 9.11861 7.31433 8.94458C7.09968 8.77096 6.78498 8.80387 6.61131 9.01857L0.999984 15.9503V1.9582L11.6333 9.93319C12.033 10.2309 12.5193 10.3619 12.9999 10.3632C13.4799 10.3622 13.9666 10.2312 14.3665 9.93319L24.9998 1.9582V15.9502L19.3886 9.01857C19.215 8.80392 18.9 8.77091 18.6856 8.94458C18.4706 9.11821 18.4376 9.4333 18.6113 9.64795Z" fill="#FFAA29"/>
</svg>
