<svg width="19" height="23" viewBox="0 0 19 23" fill="none" xmlns="http://www.w3.org/2000/svg">
<path d="M11.3935 9.14491L12.7438 7.86046L10.8626 7.59331C10.6448 7.56235 10.4553 7.42682 10.356 7.23007L9.49985 5.53638L8.64378 7.23007C8.54441 7.42682 8.35488 7.56235 8.1371 7.59331L6.25586 7.86046L7.60612 9.14491C7.76933 9.30088 7.84435 9.52787 7.80549 9.7496L7.48304 11.5834L9.19187 10.7063C9.38535 10.6077 9.61432 10.6077 9.80775 10.7063L11.5166 11.5834L11.1941 9.7496C11.1554 9.52782 11.2304 9.30088 11.3935 9.14491Z" fill="#FFA929"/>
<path d="M9.4996 0C4.66982 0 0.740234 3.92959 0.740234 8.75936C0.740234 13.5891 4.66982 17.5187 9.4996 17.5187C14.3294 17.5187 18.259 13.5891 18.259 8.75936C18.259 3.92959 14.3294 0 9.4996 0ZM14.6808 7.87696L12.5843 9.87203L13.0785 12.6857C13.174 13.2318 12.6008 13.658 12.1066 13.4016L9.4996 12.0632L6.8926 13.4016C6.39981 13.6547 5.82449 13.2359 5.92071 12.6857L6.4149 9.87208L4.31849 7.87701C3.911 7.48816 4.13287 6.80009 4.68828 6.72153L7.59931 6.30829L8.89823 3.7388C9.12724 3.28478 9.87209 3.28478 10.1011 3.7388L11.4 6.30829L14.311 6.72153C14.8663 6.80005 15.0882 7.48816 14.6808 7.87696Z" fill="#FFA929"/>
<path d="M9.49977 18.8664C7.79647 18.8664 6.19254 18.4388 4.7832 17.6917V22.3252C4.7832 22.8643 5.38668 23.1837 5.83074 22.8857L9.49977 20.44L13.1688 22.8858C13.6149 23.1833 14.2163 22.8636 14.2163 22.3253V17.6917C12.807 18.4388 11.2031 18.8664 9.49977 18.8664Z" fill="#FFA929"/>
</svg>
