<svg width="22" height="22" viewBox="0 0 22 22" fill="none" xmlns="http://www.w3.org/2000/svg">
<path d="M19.7915 8.45736C20.4379 8.45736 20.9637 7.93151 20.9637 7.28515V5.76737C20.9637 5.28611 20.6755 4.85954 20.2291 4.67992L11.4395 1.08592C11.1532 0.970617 10.8435 0.972649 10.5646 1.08428C10.5581 1.0869 10.7117 1.02411 1.77072 4.67996C1.32438 4.85954 1.03613 5.28614 1.03613 5.76741V7.28523C1.03613 7.93159 1.56199 8.45744 2.20834 8.45744H2.91167V17.2881H2.20834C1.56199 17.2881 1.03613 17.8139 1.03613 18.4603V19.8279C1.03613 20.4742 1.56199 21.0001 2.20834 21.0001H19.7915C20.4378 21.0001 20.9637 20.4742 20.9637 19.8279V18.4603C20.9637 17.8139 20.4378 17.2881 19.7915 17.2881H19.0882V8.45744H19.7915V8.45736ZM19.7915 18.4602C19.7923 19.8591 19.7954 19.8278 19.7915 19.8278H2.20838V18.4602H19.7915ZM4.08392 17.288V8.45736H5.41242V17.288H4.08392ZM6.58463 17.288V8.45736H9.16349V17.288H6.58463ZM10.3357 17.288V8.45736H11.6642V17.288H10.3357ZM12.8364 17.288V8.45736H15.4153V17.288H12.8364ZM16.5875 17.288V8.45736H17.916V17.288H16.5875ZM2.20838 7.28515C2.20838 5.65019 2.20662 5.76808 2.21248 5.7657L11 2.1726L19.7874 5.7657C19.7935 5.76812 19.7915 5.65406 19.7915 7.28515C19.5967 7.28515 2.43989 7.28515 2.20838 7.28515Z" fill="#C4C4C4" stroke="#C4C4C4" stroke-width="0.5"/>
<path d="M10.9999 3.53418C10.6762 3.53418 10.4138 3.7966 10.4138 4.12028V5.37064C10.4138 5.69433 10.6762 5.95675 10.9999 5.95675C11.3236 5.95675 11.586 5.69433 11.586 5.37064V4.12028C11.586 3.7966 11.3236 3.53418 10.9999 3.53418Z" fill="#C4C4C4" stroke="#C4C4C4" stroke-width="0.5"/>
</svg>
