<svg width="36" height="27" viewBox="0 0 36 27" fill="none" xmlns="http://www.w3.org/2000/svg">
<path d="M31.8337 0.54541H3.97113C2.3349 0.54541 1 1.87882 1 3.51646V23.3235C1 24.9555 2.32895 26.2945 3.97113 26.2945H31.8337C33.4659 26.2945 34.8049 24.9656 34.8049 23.3235V3.51646C34.8049 1.88436 33.4759 0.54541 31.8337 0.54541ZM31.4235 2.52611L17.9654 15.9838L4.39099 2.52611H31.4235ZM2.98075 22.9133V3.91715L12.52 13.3743L2.98075 22.9133ZM4.38135 24.3138L13.9266 14.7688L17.2712 18.0846C17.6584 18.4685 18.2832 18.4672 18.6688 18.0816L21.93 14.8205L31.4235 24.3138H4.38135ZM32.8241 22.9132L23.3306 13.42L32.8241 3.9266V22.9132Z" fill="#A6AAB5" stroke="#A6AAB5" stroke-width="0.4"/>
</svg>
