<svg width="121" height="173" viewBox="0 0 121 173" fill="none" xmlns="http://www.w3.org/2000/svg">
<path d="M105.187 29.4028H65.2791V89.4344H105.187V29.4028Z" fill="#F46B7F"/>
<path fill-rule="evenodd" clip-rule="evenodd" d="M76.2522 29.4028H64.08C62.1731 29.4028 60.4831 30.6457 59.9236 32.4586C56.7035 42.823 46.4153 75.9345 46.4153 75.9345H64.6166L76.2522 29.4028Z" fill="#F46B7F"/>
<path fill-rule="evenodd" clip-rule="evenodd" d="M65.2791 42.6865L56.1213 75.9461H65.085L65.2791 42.6865Z" fill="#F65570"/>
<path fill-rule="evenodd" clip-rule="evenodd" d="M69.6981 8.5827C69.6981 8.5827 69.4926 10.8061 69.9036 12.0831C70.3147 13.3715 72.3016 15.2414 72.3016 15.2414L73.2949 8.57129H69.6981V8.5827Z" fill="#392F39"/>
<path fill-rule="evenodd" clip-rule="evenodd" d="M71.1255 10.6124C71.1255 10.6124 72.5985 16.3362 73.3864 19.4262C73.6719 20.5321 74.7224 21.2733 75.8643 21.1593C76.6294 21.0795 77.3258 21.0111 77.3258 21.0111C77.3258 21.0111 76.5266 25.4123 75.773 29.5055C75.4646 31.193 75.9214 32.9376 77.0289 34.2602C78.1366 35.5829 79.7695 36.3467 81.4937 36.3467H82.8981C84.6338 36.3467 86.2667 35.5714 87.3743 34.2373C88.4819 32.9034 88.9272 31.1474 88.6075 29.4486C87.3857 23.0634 85.7528 14.5575 85.7528 14.5575C85.7528 14.5575 86.084 14.512 86.4951 14.4435C86.9404 14.3751 87.34 14.1357 87.5912 13.7594C87.8425 13.3945 87.9338 12.927 87.831 12.4938C87.8082 12.3911 87.7853 12.2771 87.7511 12.1745C87.6483 11.7184 87.34 11.3308 86.9176 11.1141C86.4951 10.8974 86.0041 10.8861 85.5702 11.057C85.0449 11.2737 84.5995 11.4562 84.5995 11.4562C84.5995 11.4562 81.0255 9.42661 80.7515 6.45068C80.7628 6.48488 74.2542 10.6124 71.1255 10.6124Z" fill="#FFC5BC"/>
<path fill-rule="evenodd" clip-rule="evenodd" d="M80.763 6.48494C80.763 6.48494 74.2544 10.6239 71.1256 10.6239C67.997 10.6239 66.033 7.72776 66.4783 5.72101C66.9236 3.71425 68.7506 2.23199 71.1256 2.77928C73.5008 3.32658 74.46 4.18174 76.7208 2.77928C78.9703 1.36544 80.3177 -0.390474 82.9097 0.0770085C85.5018 0.544491 86.1298 2.51704 86.1298 4.47818C86.0841 4.46678 88.0481 4.66061 88.9958 6.48494C90.3547 9.1074 89.3384 14.74 86.0384 15.8118C82.727 16.8836 80.489 9.44946 80.763 6.48494Z" fill="#392F39"/>
<path fill-rule="evenodd" clip-rule="evenodd" d="M77.3143 21.0109L80.7285 20.646L76.241 27.2136L77.3143 21.0109Z" fill="#FAAA9E"/>
<path fill-rule="evenodd" clip-rule="evenodd" d="M67.2204 89.4346C67.2204 89.4346 59.3302 112.41 55.5963 123.287C54.4087 126.754 55.071 130.596 57.3662 133.457C65.0395 143.058 82.0533 164.346 82.0533 164.346L87.4315 160.446L72.1419 127.426L90.366 98.9097L67.2204 89.4346Z" fill="#2F80ED"/>
<path fill-rule="evenodd" clip-rule="evenodd" d="M82.0305 164.345L78.4907 172.999H80.7288L90.3432 166.637L87.4087 160.445L82.0305 164.345Z" fill="#F65570"/>
<path fill-rule="evenodd" clip-rule="evenodd" d="M105.187 89.4346L97.1721 168.268H87.0889L85.2277 102.376C85.2277 102.376 84.12 102.41 82.4986 102.467C75.1222 102.729 68.682 97.5414 67.3688 90.2897C67.2662 89.7538 67.209 89.4346 67.209 89.4346H105.187Z" fill="#5E94FF"/>
<path fill-rule="evenodd" clip-rule="evenodd" d="M87.0891 168.268L80.7402 173H97.1721V168.268H87.0891Z" fill="#F46B7F"/>
<path fill-rule="evenodd" clip-rule="evenodd" d="M66.4097 82.5596L76.9605 173H78.4906L74.0487 82.5596H66.4097Z" fill="#FDA458"/>
<path fill-rule="evenodd" clip-rule="evenodd" d="M50.138 82.5596L35.054 173H33.5239L42.499 82.5596H50.138Z" fill="#FDA458"/>
<path fill-rule="evenodd" clip-rule="evenodd" d="M99.1472 82.5596L118.821 173H120.352L106.786 82.5596H99.1472Z" fill="#FDA458"/>
<path fill-rule="evenodd" clip-rule="evenodd" d="M26.1132 82.5596L1.90567 173H0.386963L18.4855 82.5596H26.1132Z" fill="#FDA458"/>
<path fill-rule="evenodd" clip-rule="evenodd" d="M26.1129 82.5587L24.8454 87.2905H17.5261L18.4739 82.5587H26.1129ZM50.1378 82.5587L49.3499 87.2905H42.0191L42.4872 82.5587H50.1378ZM74.2882 87.2791H66.9688L66.4207 82.5474H74.0598L74.2882 87.2791ZM107.493 87.2791H100.174L99.1471 82.5474H106.786L107.493 87.2791Z" fill="#FFD299"/>
<path fill-rule="evenodd" clip-rule="evenodd" d="M105.187 72.7077C104.263 73.369 103.155 73.7226 102.002 73.7226C94.5107 73.7226 81.6879 73.7226 75.8188 73.7226C74.9967 73.7226 74.2088 73.3919 73.6264 72.8104C73.044 72.2289 72.7129 71.4421 72.7129 70.6212V63.666C72.7129 62.1039 73.8662 60.7927 75.4192 60.5874C80.7516 59.8919 92.1246 58.4211 92.1246 58.4211C92.1246 58.4211 94.294 46.0613 94.5571 45.4912L104.354 56.4599L105.187 72.7077Z" fill="#F65570"/>
<path fill-rule="evenodd" clip-rule="evenodd" d="M97.1721 29.4028C96.1897 29.4028 95.2537 29.8133 94.5798 30.5317C93.906 31.2499 93.5748 32.2077 93.6434 33.1883C94.2599 41.5118 95.6644 60.6443 95.6644 60.6443C95.6644 60.6443 84.0174 62.1494 78.7647 62.8335C77.326 63.0159 76.2527 64.2474 76.2527 65.6954C76.2527 67.8162 76.2527 70.8491 76.2527 73.0611C76.2527 73.8251 76.561 74.5548 77.0976 75.1021C77.6344 75.638 78.3765 75.9458 79.1416 75.9458C85.0108 75.9458 98.4393 75.9458 105.953 75.9458C107.346 75.9458 108.681 75.3757 109.652 74.361C110.611 73.3461 111.125 71.9893 111.057 70.5983C110.577 60.9179 109.583 40.7365 109.184 32.7551C109.093 30.8737 107.54 29.4028 105.656 29.4028H97.1721Z" fill="#F46B7F"/>
<path fill-rule="evenodd" clip-rule="evenodd" d="M79.3582 69.7322C79.1413 68.7858 78.4903 67.9876 77.5998 67.6C76.4122 67.0754 74.6766 66.3115 73.2036 65.6617C71.4108 64.8749 69.3669 64.8862 67.5856 65.6844C64.7766 66.95 60.8714 68.7173 60.8714 68.7173L58.8503 75.9348H76.9146C77.8395 75.9348 78.7302 75.5129 79.3125 74.7832C79.8949 74.0535 80.1118 73.1072 79.9177 72.2064C79.7122 71.3399 79.5066 70.4504 79.3582 69.7322Z" fill="#FFC5BC"/>
<path fill-rule="evenodd" clip-rule="evenodd" d="M34.3348 60.4394C34.1635 60.143 34.1635 59.7782 34.3348 59.493C34.506 59.1966 34.8143 59.0142 35.1568 59.0142C40.4437 59.0142 56.6468 59.0142 56.6468 59.0142L66.4325 75.9462H44.1433C43.6295 75.9462 43.15 75.6725 42.8873 75.2278C41.4029 72.651 36.3444 63.9056 34.3348 60.4394Z" fill="#CCCCCC"/>
<path fill-rule="evenodd" clip-rule="evenodd" d="M47.6946 65.604C46.5185 65.604 46.1188 66.5618 46.7926 67.7362C47.4662 68.9106 48.9735 69.8683 50.1611 69.8683C51.3372 69.8683 51.7368 68.9106 51.0632 67.7362C50.3781 66.5618 48.8707 65.604 47.6946 65.604Z" fill="white"/>
<path fill-rule="evenodd" clip-rule="evenodd" d="M56.8068 59.2877C56.7154 59.128 56.5328 59.0254 56.3501 59.0254C56.3044 59.0254 56.2587 59.0254 56.2131 59.0254C56.0189 59.0254 55.8476 59.128 55.7563 59.2877C55.6649 59.4473 55.6649 59.6525 55.7563 59.8235C57.4349 62.731 63.2013 72.7077 64.7199 75.3188C64.9483 75.7066 65.3594 75.946 65.8161 75.946H66.4442C66.4442 75.946 58.0515 61.4312 56.8068 59.2877Z" fill="white"/>
<path fill-rule="evenodd" clip-rule="evenodd" d="M65.085 74.5896V74.6807C65.085 75.3763 65.6559 75.9464 66.3525 75.9464H81.3566C81.7333 75.9464 82.0417 75.6385 82.0417 75.2622C82.0417 74.8859 81.7333 74.5781 81.3566 74.5781H65.085V74.5896Z" fill="white"/>
<path d="M71.4795 75.9463H16.0532V82.5594H71.4795V75.9463Z" fill="#E8B37D"/>
<path d="M108.361 75.9463H71.4792V82.5594H108.361V75.9463Z" fill="#FDA458"/>
</svg>
