<svg width="174" height="47" viewBox="0 0 174 47" fill="none" xmlns="http://www.w3.org/2000/svg">
<path d="M58.756 12.489C58.756 11.7177 58.8686 11.0373 59.094 10.448C59.328 9.85867 59.64 9.369 60.03 8.979C60.4286 8.58033 60.888 8.28133 61.408 8.082C61.9366 7.88267 62.4956 7.783 63.085 7.783C63.6656 7.783 64.2116 7.88267 64.723 8.082C65.243 8.28133 65.698 8.58033 66.088 8.979C66.478 9.369 66.7856 9.85867 67.011 10.448C67.245 11.0373 67.362 11.7177 67.362 12.489C67.362 13.2603 67.245 13.9407 67.011 14.53C66.7856 15.1193 66.478 15.6133 66.088 16.012C65.698 16.402 65.243 16.6967 64.723 16.896C64.2116 17.0953 63.6656 17.195 63.085 17.195C62.4956 17.195 61.9366 17.0953 61.408 16.896C60.888 16.6967 60.4286 16.402 60.03 16.012C59.64 15.6133 59.328 15.1193 59.094 14.53C58.8686 13.9407 58.756 13.2603 58.756 12.489ZM60.082 12.489C60.082 13.035 60.1513 13.5333 60.29 13.984C60.4286 14.426 60.6236 14.803 60.875 15.115C61.135 15.427 61.447 15.6697 61.811 15.843C62.1836 16.0077 62.5996 16.09 63.059 16.09C63.5183 16.09 63.93 16.0077 64.294 15.843C64.658 15.6697 64.9656 15.427 65.217 15.115C65.477 14.803 65.6763 14.426 65.815 13.984C65.9536 13.5333 66.023 13.035 66.023 12.489C66.023 11.943 65.9536 11.449 65.815 11.007C65.6763 10.5563 65.477 10.175 65.217 9.863C64.9656 9.551 64.658 9.31267 64.294 9.148C63.93 8.97467 63.5183 8.888 63.059 8.888C62.5996 8.888 62.1836 8.97467 61.811 9.148C61.447 9.31267 61.135 9.551 60.875 9.863C60.6236 10.175 60.4286 10.5563 60.29 11.007C60.1513 11.449 60.082 11.943 60.082 12.489ZM69.1601 10.435C69.4375 10.3657 69.8058 10.292 70.2651 10.214C70.7245 10.136 71.2531 10.097 71.8511 10.097C72.3885 10.097 72.8348 10.175 73.1901 10.331C73.5455 10.4783 73.8271 10.6907 74.0351 10.968C74.2518 11.2367 74.4035 11.5617 74.4901 11.943C74.5768 12.3243 74.6201 12.7447 74.6201 13.204V17H73.4111V13.464C73.4111 13.048 73.3808 12.6927 73.3201 12.398C73.2681 12.1033 73.1771 11.865 73.0471 11.683C72.9171 11.501 72.7438 11.371 72.5271 11.293C72.3105 11.2063 72.0418 11.163 71.7211 11.163C71.5911 11.163 71.4568 11.1673 71.3181 11.176C71.1795 11.1847 71.0451 11.1977 70.9151 11.215C70.7938 11.2237 70.6811 11.2367 70.5771 11.254C70.4818 11.2713 70.4125 11.2843 70.3691 11.293V17H69.1601V10.435ZM78.653 17.13C77.9076 17.1127 77.379 16.9523 77.067 16.649C76.755 16.3457 76.599 15.8733 76.599 15.232V7.12L77.808 6.912V15.037C77.808 15.2363 77.8253 15.401 77.86 15.531C77.8946 15.661 77.951 15.765 78.029 15.843C78.107 15.921 78.211 15.9817 78.341 16.025C78.471 16.0597 78.6313 16.09 78.822 16.116L78.653 17.13ZM81.3886 17H80.1796V10.24H81.3886V17ZM80.7776 9.018C80.561 9.018 80.3746 8.94867 80.2186 8.81C80.0713 8.66267 79.9976 8.46767 79.9976 8.225C79.9976 7.98233 80.0713 7.79167 80.2186 7.653C80.3746 7.50567 80.561 7.432 80.7776 7.432C80.9943 7.432 81.1763 7.50567 81.3236 7.653C81.4796 7.79167 81.5576 7.98233 81.5576 8.225C81.5576 8.46767 81.4796 8.66267 81.3236 8.81C81.1763 8.94867 80.9943 9.018 80.7776 9.018ZM83.4677 10.435C83.7451 10.3657 84.1134 10.292 84.5727 10.214C85.0321 10.136 85.5607 10.097 86.1587 10.097C86.6961 10.097 87.1424 10.175 87.4977 10.331C87.8531 10.4783 88.1347 10.6907 88.3427 10.968C88.5594 11.2367 88.7111 11.5617 88.7977 11.943C88.8844 12.3243 88.9277 12.7447 88.9277 13.204V17H87.7187V13.464C87.7187 13.048 87.6884 12.6927 87.6277 12.398C87.5757 12.1033 87.4847 11.865 87.3547 11.683C87.2247 11.501 87.0514 11.371 86.8347 11.293C86.6181 11.2063 86.3494 11.163 86.0287 11.163C85.8987 11.163 85.7644 11.1673 85.6257 11.176C85.4871 11.1847 85.3527 11.1977 85.2227 11.215C85.1014 11.2237 84.9887 11.2367 84.8847 11.254C84.7894 11.2713 84.7201 11.2843 84.6767 11.293V17H83.4677V10.435ZM90.5556 13.633C90.5556 13.035 90.6422 12.515 90.8156 12.073C90.9889 11.6223 91.2186 11.2497 91.5046 10.955C91.7906 10.6603 92.1199 10.4393 92.4926 10.292C92.8652 10.1447 93.2466 10.071 93.6366 10.071C94.5466 10.071 95.2442 10.357 95.7296 10.929C96.2149 11.4923 96.4576 12.3547 96.4576 13.516C96.4576 13.568 96.4576 13.6373 96.4576 13.724C96.4576 13.802 96.4532 13.8757 96.4446 13.945H91.8166C91.8686 14.647 92.0722 15.18 92.4276 15.544C92.7829 15.908 93.3376 16.09 94.0916 16.09C94.5162 16.09 94.8716 16.0553 95.1576 15.986C95.4522 15.908 95.6732 15.8343 95.8206 15.765L95.9896 16.779C95.8422 16.857 95.5822 16.9393 95.2096 17.026C94.8456 17.1127 94.4296 17.156 93.9616 17.156C93.3722 17.156 92.8609 17.0693 92.4276 16.896C92.0029 16.714 91.6519 16.467 91.3746 16.155C91.0972 15.843 90.8892 15.4747 90.7506 15.05C90.6206 14.6167 90.5556 14.1443 90.5556 13.633ZM95.1966 12.97C95.2052 12.424 95.0666 11.9777 94.7806 11.631C94.5032 11.2757 94.1176 11.098 93.6236 11.098C93.3462 11.098 93.0992 11.1543 92.8826 11.267C92.6746 11.371 92.4969 11.5097 92.3496 11.683C92.2022 11.8563 92.0852 12.0557 91.9986 12.281C91.9206 12.5063 91.8686 12.736 91.8426 12.97H95.1966ZM100.826 13.633C100.826 13.035 100.913 12.515 101.086 12.073C101.259 11.6223 101.489 11.2497 101.775 10.955C102.061 10.6603 102.39 10.4393 102.763 10.292C103.136 10.1447 103.517 10.071 103.907 10.071C104.817 10.071 105.515 10.357 106 10.929C106.485 11.4923 106.728 12.3547 106.728 13.516C106.728 13.568 106.728 13.6373 106.728 13.724C106.728 13.802 106.724 13.8757 106.715 13.945H102.087C102.139 14.647 102.343 15.18 102.698 15.544C103.053 15.908 103.608 16.09 104.362 16.09C104.787 16.09 105.142 16.0553 105.428 15.986C105.723 15.908 105.944 15.8343 106.091 15.765L106.26 16.779C106.113 16.857 105.853 16.9393 105.48 17.026C105.116 17.1127 104.7 17.156 104.232 17.156C103.643 17.156 103.131 17.0693 102.698 16.896C102.273 16.714 101.922 16.467 101.645 16.155C101.368 15.843 101.16 15.4747 101.021 15.05C100.891 14.6167 100.826 14.1443 100.826 13.633ZM105.467 12.97C105.476 12.424 105.337 11.9777 105.051 11.631C104.774 11.2757 104.388 11.098 103.894 11.098C103.617 11.098 103.37 11.1543 103.153 11.267C102.945 11.371 102.767 11.5097 102.62 11.683C102.473 11.8563 102.356 12.0557 102.269 12.281C102.191 12.5063 102.139 12.736 102.113 12.97H105.467ZM112.833 11.67C112.685 11.5487 112.473 11.4317 112.196 11.319C111.918 11.2063 111.615 11.15 111.286 11.15C110.939 11.15 110.64 11.215 110.389 11.345C110.146 11.4663 109.947 11.6397 109.791 11.865C109.635 12.0817 109.522 12.3417 109.453 12.645C109.383 12.9483 109.349 13.2733 109.349 13.62C109.349 14.4087 109.544 15.0197 109.934 15.453C110.324 15.8777 110.844 16.09 111.494 16.09C111.823 16.09 112.096 16.077 112.313 16.051C112.538 16.0163 112.711 15.9817 112.833 15.947V11.67ZM112.833 7.12L114.042 6.912V16.805C113.764 16.883 113.409 16.961 112.976 17.039C112.542 17.117 112.044 17.156 111.481 17.156C110.961 17.156 110.493 17.0737 110.077 16.909C109.661 16.7443 109.305 16.5103 109.011 16.207C108.716 15.9037 108.486 15.5353 108.322 15.102C108.166 14.66 108.088 14.166 108.088 13.62C108.088 13.1 108.153 12.6233 108.283 12.19C108.421 11.7567 108.621 11.384 108.881 11.072C109.141 10.76 109.457 10.5173 109.83 10.344C110.211 10.1707 110.644 10.084 111.13 10.084C111.52 10.084 111.862 10.136 112.157 10.24C112.46 10.344 112.685 10.4437 112.833 10.539V7.12ZM121.502 16.805C121.225 16.8743 120.856 16.948 120.397 17.026C119.946 17.104 119.422 17.143 118.824 17.143C118.304 17.143 117.866 17.0693 117.511 16.922C117.156 16.766 116.87 16.5493 116.653 16.272C116.436 15.9947 116.28 15.6697 116.185 15.297C116.09 14.9157 116.042 14.4953 116.042 14.036V10.24H117.251V13.776C117.251 14.5993 117.381 15.1887 117.641 15.544C117.901 15.8993 118.339 16.077 118.954 16.077C119.084 16.077 119.218 16.0727 119.357 16.064C119.496 16.0553 119.626 16.0467 119.747 16.038C119.868 16.0207 119.977 16.0077 120.072 15.999C120.176 15.9817 120.25 15.9643 120.293 15.947V10.24H121.502V16.805ZM126.523 17.156C125.977 17.156 125.496 17.0693 125.08 16.896C124.673 16.7227 124.326 16.48 124.04 16.168C123.763 15.856 123.555 15.4877 123.416 15.063C123.277 14.6297 123.208 14.153 123.208 13.633C123.208 13.113 123.282 12.6363 123.429 12.203C123.585 11.7697 123.802 11.397 124.079 11.085C124.356 10.7643 124.694 10.5173 125.093 10.344C125.5 10.162 125.951 10.071 126.445 10.071C126.748 10.071 127.052 10.097 127.355 10.149C127.658 10.201 127.949 10.2833 128.226 10.396L127.953 11.423C127.771 11.3363 127.559 11.267 127.316 11.215C127.082 11.163 126.831 11.137 126.562 11.137C125.886 11.137 125.366 11.3493 125.002 11.774C124.647 12.1987 124.469 12.8183 124.469 13.633C124.469 13.997 124.508 14.3307 124.586 14.634C124.673 14.9373 124.803 15.1973 124.976 15.414C125.158 15.6307 125.388 15.7997 125.665 15.921C125.942 16.0337 126.28 16.09 126.679 16.09C127 16.09 127.29 16.0597 127.55 15.999C127.81 15.9383 128.014 15.8733 128.161 15.804L128.33 16.818C128.261 16.8613 128.161 16.9047 128.031 16.948C127.901 16.9827 127.754 17.013 127.589 17.039C127.424 17.0737 127.247 17.0997 127.056 17.117C126.874 17.143 126.696 17.156 126.523 17.156ZM131.916 16.129C132.202 16.129 132.453 16.1247 132.67 16.116C132.895 16.0987 133.082 16.0727 133.229 16.038V14.023C133.142 13.9797 132.999 13.945 132.8 13.919C132.609 13.8843 132.375 13.867 132.098 13.867C131.916 13.867 131.721 13.88 131.513 13.906C131.314 13.932 131.127 13.9883 130.954 14.075C130.789 14.153 130.651 14.2657 130.538 14.413C130.425 14.5517 130.369 14.738 130.369 14.972C130.369 15.4053 130.508 15.7087 130.785 15.882C131.062 16.0467 131.439 16.129 131.916 16.129ZM131.812 10.071C132.297 10.071 132.705 10.136 133.034 10.266C133.372 10.3873 133.641 10.565 133.84 10.799C134.048 11.0243 134.195 11.2973 134.282 11.618C134.369 11.93 134.412 12.2767 134.412 12.658V16.883C134.308 16.9003 134.161 16.9263 133.97 16.961C133.788 16.987 133.58 17.013 133.346 17.039C133.112 17.065 132.856 17.0867 132.579 17.104C132.31 17.13 132.042 17.143 131.773 17.143C131.392 17.143 131.041 17.104 130.72 17.026C130.399 16.948 130.122 16.8267 129.888 16.662C129.654 16.4887 129.472 16.2633 129.342 15.986C129.212 15.7087 129.147 15.375 129.147 14.985C129.147 14.6123 129.221 14.2917 129.368 14.023C129.524 13.7543 129.732 13.5377 129.992 13.373C130.252 13.2083 130.555 13.087 130.902 13.009C131.249 12.931 131.613 12.892 131.994 12.892C132.115 12.892 132.241 12.9007 132.371 12.918C132.501 12.9267 132.622 12.944 132.735 12.97C132.856 12.9873 132.96 13.0047 133.047 13.022C133.134 13.0393 133.194 13.0523 133.229 13.061V12.723C133.229 12.5237 133.207 12.3287 133.164 12.138C133.121 11.9387 133.043 11.7653 132.93 11.618C132.817 11.462 132.661 11.3407 132.462 11.254C132.271 11.1587 132.02 11.111 131.708 11.111C131.309 11.111 130.958 11.1413 130.655 11.202C130.36 11.254 130.139 11.3103 129.992 11.371L129.849 10.37C130.005 10.3007 130.265 10.2357 130.629 10.175C130.993 10.1057 131.387 10.071 131.812 10.071ZM137.551 10.24H140.112V11.254H137.551V14.374C137.551 14.712 137.577 14.9937 137.629 15.219C137.681 15.4357 137.759 15.609 137.863 15.739C137.967 15.8603 138.097 15.947 138.253 15.999C138.409 16.051 138.591 16.077 138.799 16.077C139.163 16.077 139.453 16.038 139.67 15.96C139.895 15.8733 140.051 15.8127 140.138 15.778L140.372 16.779C140.251 16.8397 140.038 16.9133 139.735 17C139.432 17.0953 139.085 17.143 138.695 17.143C138.236 17.143 137.854 17.0867 137.551 16.974C137.256 16.8527 137.018 16.675 136.836 16.441C136.654 16.207 136.524 15.921 136.446 15.583C136.377 15.2363 136.342 14.8377 136.342 14.387V8.355L137.551 8.147V10.24ZM142.859 17H141.65V10.24H142.859V17ZM142.248 9.018C142.032 9.018 141.845 8.94867 141.689 8.81C141.542 8.66267 141.468 8.46767 141.468 8.225C141.468 7.98233 141.542 7.79167 141.689 7.653C141.845 7.50567 142.032 7.432 142.248 7.432C142.465 7.432 142.647 7.50567 142.794 7.653C142.95 7.79167 143.028 7.98233 143.028 8.225C143.028 8.46767 142.95 8.66267 142.794 8.81C142.647 8.94867 142.465 9.018 142.248 9.018ZM150.905 13.62C150.905 14.1573 150.827 14.6427 150.671 15.076C150.515 15.5093 150.294 15.882 150.008 16.194C149.731 16.506 149.397 16.7487 149.007 16.922C148.617 17.0867 148.193 17.169 147.733 17.169C147.274 17.169 146.849 17.0867 146.459 16.922C146.069 16.7487 145.731 16.506 145.445 16.194C145.168 15.882 144.951 15.5093 144.795 15.076C144.639 14.6427 144.561 14.1573 144.561 13.62C144.561 13.0913 144.639 12.6103 144.795 12.177C144.951 11.735 145.168 11.358 145.445 11.046C145.731 10.734 146.069 10.4957 146.459 10.331C146.849 10.1577 147.274 10.071 147.733 10.071C148.193 10.071 148.617 10.1577 149.007 10.331C149.397 10.4957 149.731 10.734 150.008 11.046C150.294 11.358 150.515 11.735 150.671 12.177C150.827 12.6103 150.905 13.0913 150.905 13.62ZM149.644 13.62C149.644 12.8573 149.471 12.255 149.124 11.813C148.786 11.3623 148.323 11.137 147.733 11.137C147.144 11.137 146.676 11.3623 146.329 11.813C145.991 12.255 145.822 12.8573 145.822 13.62C145.822 14.3827 145.991 14.9893 146.329 15.44C146.676 15.882 147.144 16.103 147.733 16.103C148.323 16.103 148.786 15.882 149.124 15.44C149.471 14.9893 149.644 14.3827 149.644 13.62ZM152.606 10.435C152.884 10.3657 153.252 10.292 153.711 10.214C154.171 10.136 154.699 10.097 155.297 10.097C155.835 10.097 156.281 10.175 156.636 10.331C156.992 10.4783 157.273 10.6907 157.481 10.968C157.698 11.2367 157.85 11.5617 157.936 11.943C158.023 12.3243 158.066 12.7447 158.066 13.204V17H156.857V13.464C156.857 13.048 156.827 12.6927 156.766 12.398C156.714 12.1033 156.623 11.865 156.493 11.683C156.363 11.501 156.19 11.371 155.973 11.293C155.757 11.2063 155.488 11.163 155.167 11.163C155.037 11.163 154.903 11.1673 154.764 11.176C154.626 11.1847 154.491 11.1977 154.361 11.215C154.24 11.2237 154.127 11.2367 154.023 11.254C153.928 11.2713 153.859 11.2843 153.815 11.293V17H152.606V10.435ZM164.289 17H163.08V10.24H164.289V17ZM163.678 9.018C163.461 9.018 163.275 8.94867 163.119 8.81C162.972 8.66267 162.898 8.46767 162.898 8.225C162.898 7.98233 162.972 7.79167 163.119 7.653C163.275 7.50567 163.461 7.432 163.678 7.432C163.895 7.432 164.077 7.50567 164.224 7.653C164.38 7.79167 164.458 7.98233 164.458 8.225C164.458 8.46767 164.38 8.66267 164.224 8.81C164.077 8.94867 163.895 9.018 163.678 9.018ZM166.368 10.435C166.645 10.3657 167.014 10.292 167.473 10.214C167.932 10.136 168.461 10.097 169.059 10.097C169.596 10.097 170.043 10.175 170.398 10.331C170.753 10.4783 171.035 10.6907 171.243 10.968C171.46 11.2367 171.611 11.5617 171.698 11.943C171.785 12.3243 171.828 12.7447 171.828 13.204V17H170.619V13.464C170.619 13.048 170.589 12.6927 170.528 12.398C170.476 12.1033 170.385 11.865 170.255 11.683C170.125 11.501 169.952 11.371 169.735 11.293C169.518 11.2063 169.25 11.163 168.929 11.163C168.799 11.163 168.665 11.1673 168.526 11.176C168.387 11.1847 168.253 11.1977 168.123 11.215C168.002 11.2237 167.889 11.2367 167.785 11.254C167.69 11.2713 167.62 11.2843 167.577 11.293V17H166.368V10.435ZM64.619 27.567H65.88V31.779C65.776 31.8137 65.6243 31.8527 65.425 31.896C65.2343 31.9393 65.009 31.9827 64.749 32.026C64.4976 32.0693 64.2203 32.104 63.917 32.13C63.6136 32.1647 63.306 32.182 62.994 32.182C62.3613 32.182 61.785 32.078 61.265 31.87C60.745 31.662 60.2986 31.3587 59.926 30.96C59.5533 30.5613 59.263 30.0717 59.055 29.491C58.8556 28.9103 58.756 28.243 58.756 27.489C58.756 26.735 58.8686 26.0677 59.094 25.487C59.328 24.8977 59.64 24.4037 60.03 24.005C60.42 23.6063 60.875 23.303 61.395 23.095C61.9236 22.887 62.487 22.783 63.085 22.783C63.4923 22.783 63.852 22.809 64.164 22.861C64.4846 22.913 64.7576 22.9737 64.983 23.043C65.2083 23.1123 65.3903 23.1817 65.529 23.251C65.6763 23.3203 65.776 23.3723 65.828 23.407L65.425 24.46C65.1736 24.2953 64.84 24.161 64.424 24.057C64.008 23.9443 63.5833 23.888 63.15 23.888C62.6906 23.888 62.2703 23.9703 61.889 24.135C61.5163 24.2997 61.1956 24.538 60.927 24.85C60.667 25.162 60.4633 25.5433 60.316 25.994C60.1686 26.436 60.095 26.9343 60.095 27.489C60.095 28.0263 60.1556 28.516 60.277 28.958C60.407 29.4 60.5976 29.7813 60.849 30.102C61.109 30.414 61.4253 30.6567 61.798 30.83C62.1793 31.0033 62.6256 31.09 63.137 31.09C63.501 31.09 63.8086 31.0727 64.06 31.038C64.32 30.9947 64.5063 30.9557 64.619 30.921V27.567ZM70.2723 25.097C70.3763 25.097 70.4933 25.1057 70.6233 25.123C70.762 25.1317 70.8963 25.149 71.0263 25.175C71.1563 25.1923 71.2733 25.214 71.3773 25.24C71.49 25.2573 71.5723 25.2747 71.6243 25.292L71.4163 26.345C71.321 26.3103 71.1607 26.2713 70.9353 26.228C70.7187 26.176 70.437 26.15 70.0903 26.15C69.865 26.15 69.6397 26.176 69.4143 26.228C69.1977 26.2713 69.0547 26.3017 68.9853 26.319V32H67.7763V25.526C68.0623 25.422 68.4177 25.3267 68.8423 25.24C69.267 25.1447 69.7437 25.097 70.2723 25.097ZM72.414 28.633C72.414 28.035 72.5006 27.515 72.674 27.073C72.8473 26.6223 73.077 26.2497 73.363 25.955C73.649 25.6603 73.9783 25.4393 74.351 25.292C74.7236 25.1447 75.105 25.071 75.495 25.071C76.405 25.071 77.1026 25.357 77.588 25.929C78.0733 26.4923 78.316 27.3547 78.316 28.516C78.316 28.568 78.316 28.6373 78.316 28.724C78.316 28.802 78.3116 28.8757 78.303 28.945H73.675C73.727 29.647 73.9306 30.18 74.286 30.544C74.6413 30.908 75.196 31.09 75.95 31.09C76.3746 31.09 76.73 31.0553 77.016 30.986C77.3106 30.908 77.5316 30.8343 77.679 30.765L77.848 31.779C77.7006 31.857 77.4406 31.9393 77.068 32.026C76.704 32.1127 76.288 32.156 75.82 32.156C75.2306 32.156 74.7193 32.0693 74.286 31.896C73.8613 31.714 73.5103 31.467 73.233 31.155C72.9556 30.843 72.7476 30.4747 72.609 30.05C72.479 29.6167 72.414 29.1443 72.414 28.633ZM77.055 27.97C77.0636 27.424 76.925 26.9777 76.639 26.631C76.3616 26.2757 75.976 26.098 75.482 26.098C75.2046 26.098 74.9576 26.1543 74.741 26.267C74.533 26.371 74.3553 26.5097 74.208 26.683C74.0606 26.8563 73.9436 27.0557 73.857 27.281C73.779 27.5063 73.727 27.736 73.701 27.97H77.055ZM79.6757 28.633C79.6757 28.035 79.7624 27.515 79.9357 27.073C80.109 26.6223 80.3387 26.2497 80.6247 25.955C80.9107 25.6603 81.24 25.4393 81.6127 25.292C81.9854 25.1447 82.3667 25.071 82.7567 25.071C83.6667 25.071 84.3644 25.357 84.8497 25.929C85.335 26.4923 85.5777 27.3547 85.5777 28.516C85.5777 28.568 85.5777 28.6373 85.5777 28.724C85.5777 28.802 85.5734 28.8757 85.5647 28.945H80.9367C80.9887 29.647 81.1924 30.18 81.5477 30.544C81.903 30.908 82.4577 31.09 83.2117 31.09C83.6364 31.09 83.9917 31.0553 84.2777 30.986C84.5724 30.908 84.7934 30.8343 84.9407 30.765L85.1097 31.779C84.9624 31.857 84.7024 31.9393 84.3297 32.026C83.9657 32.1127 83.5497 32.156 83.0817 32.156C82.4924 32.156 81.981 32.0693 81.5477 31.896C81.123 31.714 80.772 31.467 80.4947 31.155C80.2174 30.843 80.0094 30.4747 79.8707 30.05C79.7407 29.6167 79.6757 29.1443 79.6757 28.633ZM84.3167 27.97C84.3254 27.424 84.1867 26.9777 83.9007 26.631C83.6234 26.2757 83.2377 26.098 82.7437 26.098C82.4664 26.098 82.2194 26.1543 82.0027 26.267C81.7947 26.371 81.617 26.5097 81.4697 26.683C81.3224 26.8563 81.2054 27.0557 81.1187 27.281C81.0407 27.5063 80.9887 27.736 80.9627 27.97H84.3167ZM90.2524 32.156C89.7064 32.156 89.2254 32.0693 88.8094 31.896C88.4021 31.7227 88.0554 31.48 87.7694 31.168C87.4921 30.856 87.2841 30.4877 87.1454 30.063C87.0067 29.6297 86.9374 29.153 86.9374 28.633C86.9374 28.113 87.0111 27.6363 87.1584 27.203C87.3144 26.7697 87.5311 26.397 87.8084 26.085C88.0857 25.7643 88.4237 25.5173 88.8224 25.344C89.2297 25.162 89.6804 25.071 90.1744 25.071C90.4777 25.071 90.7811 25.097 91.0844 25.149C91.3877 25.201 91.6781 25.2833 91.9554 25.396L91.6824 26.423C91.5004 26.3363 91.2881 26.267 91.0454 26.215C90.8114 26.163 90.5601 26.137 90.2914 26.137C89.6154 26.137 89.0954 26.3493 88.7314 26.774C88.3761 27.1987 88.1984 27.8183 88.1984 28.633C88.1984 28.997 88.2374 29.3307 88.3154 29.634C88.4021 29.9373 88.5321 30.1973 88.7054 30.414C88.8874 30.6307 89.1171 30.7997 89.3944 30.921C89.6717 31.0337 90.0097 31.09 90.4084 31.09C90.7291 31.09 91.0194 31.0597 91.2794 30.999C91.5394 30.9383 91.7431 30.8733 91.8904 30.804L92.0594 31.818C91.9901 31.8613 91.8904 31.9047 91.7604 31.948C91.6304 31.9827 91.4831 32.013 91.3184 32.039C91.1537 32.0737 90.9761 32.0997 90.7854 32.117C90.6034 32.143 90.4257 32.156 90.2524 32.156ZM92.9804 28.633C92.9804 28.035 93.067 27.515 93.2404 27.073C93.4137 26.6223 93.6434 26.2497 93.9294 25.955C94.2154 25.6603 94.5447 25.4393 94.9174 25.292C95.29 25.1447 95.6714 25.071 96.0614 25.071C96.9714 25.071 97.669 25.357 98.1544 25.929C98.6397 26.4923 98.8824 27.3547 98.8824 28.516C98.8824 28.568 98.8824 28.6373 98.8824 28.724C98.8824 28.802 98.878 28.8757 98.8694 28.945H94.2414C94.2934 29.647 94.497 30.18 94.8524 30.544C95.2077 30.908 95.7624 31.09 96.5164 31.09C96.941 31.09 97.2964 31.0553 97.5824 30.986C97.877 30.908 98.098 30.8343 98.2454 30.765L98.4144 31.779C98.267 31.857 98.007 31.9393 97.6344 32.026C97.2704 32.1127 96.8544 32.156 96.3864 32.156C95.797 32.156 95.2857 32.0693 94.8524 31.896C94.4277 31.714 94.0767 31.467 93.7994 31.155C93.522 30.843 93.314 30.4747 93.1754 30.05C93.0454 29.6167 92.9804 29.1443 92.9804 28.633ZM97.6214 27.97C97.63 27.424 97.4914 26.9777 97.2054 26.631C96.928 26.2757 96.5424 26.098 96.0484 26.098C95.771 26.098 95.524 26.1543 95.3074 26.267C95.0994 26.371 94.9217 26.5097 94.7744 26.683C94.627 26.8563 94.51 27.0557 94.4234 27.281C94.3454 27.5063 94.2934 27.736 94.2674 27.97H97.6214ZM105.916 31.129C106.202 31.129 106.453 31.1247 106.67 31.116C106.895 31.0987 107.082 31.0727 107.229 31.038V29.023C107.142 28.9797 106.999 28.945 106.8 28.919C106.609 28.8843 106.375 28.867 106.098 28.867C105.916 28.867 105.721 28.88 105.513 28.906C105.314 28.932 105.127 28.9883 104.954 29.075C104.789 29.153 104.651 29.2657 104.538 29.413C104.425 29.5517 104.369 29.738 104.369 29.972C104.369 30.4053 104.508 30.7087 104.785 30.882C105.062 31.0467 105.439 31.129 105.916 31.129ZM105.812 25.071C106.297 25.071 106.705 25.136 107.034 25.266C107.372 25.3873 107.641 25.565 107.84 25.799C108.048 26.0243 108.195 26.2973 108.282 26.618C108.369 26.93 108.412 27.2767 108.412 27.658V31.883C108.308 31.9003 108.161 31.9263 107.97 31.961C107.788 31.987 107.58 32.013 107.346 32.039C107.112 32.065 106.856 32.0867 106.579 32.104C106.31 32.13 106.042 32.143 105.773 32.143C105.392 32.143 105.041 32.104 104.72 32.026C104.399 31.948 104.122 31.8267 103.888 31.662C103.654 31.4887 103.472 31.2633 103.342 30.986C103.212 30.7087 103.147 30.375 103.147 29.985C103.147 29.6123 103.221 29.2917 103.368 29.023C103.524 28.7543 103.732 28.5377 103.992 28.373C104.252 28.2083 104.555 28.087 104.902 28.009C105.249 27.931 105.613 27.892 105.994 27.892C106.115 27.892 106.241 27.9007 106.371 27.918C106.501 27.9267 106.622 27.944 106.735 27.97C106.856 27.9873 106.96 28.0047 107.047 28.022C107.134 28.0393 107.194 28.0523 107.229 28.061V27.723C107.229 27.5237 107.207 27.3287 107.164 27.138C107.121 26.9387 107.043 26.7653 106.93 26.618C106.817 26.462 106.661 26.3407 106.462 26.254C106.271 26.1587 106.02 26.111 105.708 26.111C105.309 26.111 104.958 26.1413 104.655 26.202C104.36 26.254 104.139 26.3103 103.992 26.371L103.849 25.37C104.005 25.3007 104.265 25.2357 104.629 25.175C104.993 25.1057 105.387 25.071 105.812 25.071ZM110.42 25.435C110.697 25.3657 111.066 25.292 111.525 25.214C111.984 25.136 112.513 25.097 113.111 25.097C113.648 25.097 114.095 25.175 114.45 25.331C114.805 25.4783 115.087 25.6907 115.295 25.968C115.512 26.2367 115.663 26.5617 115.75 26.943C115.837 27.3243 115.88 27.7447 115.88 28.204V32H114.671V28.464C114.671 28.048 114.641 27.6927 114.58 27.398C114.528 27.1033 114.437 26.865 114.307 26.683C114.177 26.501 114.004 26.371 113.787 26.293C113.57 26.2063 113.302 26.163 112.981 26.163C112.851 26.163 112.717 26.1673 112.578 26.176C112.439 26.1847 112.305 26.1977 112.175 26.215C112.054 26.2237 111.941 26.2367 111.837 26.254C111.742 26.2713 111.672 26.2843 111.629 26.293V32H110.42V25.435ZM122.253 26.67C122.105 26.5487 121.893 26.4317 121.616 26.319C121.338 26.2063 121.035 26.15 120.706 26.15C120.359 26.15 120.06 26.215 119.809 26.345C119.566 26.4663 119.367 26.6397 119.211 26.865C119.055 27.0817 118.942 27.3417 118.873 27.645C118.803 27.9483 118.769 28.2733 118.769 28.62C118.769 29.4087 118.964 30.0197 119.354 30.453C119.744 30.8777 120.264 31.09 120.914 31.09C121.243 31.09 121.516 31.077 121.733 31.051C121.958 31.0163 122.131 30.9817 122.253 30.947V26.67ZM122.253 22.12L123.462 21.912V31.805C123.184 31.883 122.829 31.961 122.396 32.039C121.962 32.117 121.464 32.156 120.901 32.156C120.381 32.156 119.913 32.0737 119.497 31.909C119.081 31.7443 118.725 31.5103 118.431 31.207C118.136 30.9037 117.906 30.5353 117.742 30.102C117.586 29.66 117.508 29.166 117.508 28.62C117.508 28.1 117.573 27.6233 117.703 27.19C117.841 26.7567 118.041 26.384 118.301 26.072C118.561 25.76 118.877 25.5173 119.25 25.344C119.631 25.1707 120.064 25.084 120.55 25.084C120.94 25.084 121.282 25.136 121.577 25.24C121.88 25.344 122.105 25.4437 122.253 25.539V22.12ZM132.501 32.195C131.868 32.195 131.292 32.091 130.772 31.883C130.252 31.675 129.805 31.3717 129.433 30.973C129.06 30.5743 128.77 30.0847 128.562 29.504C128.362 28.9147 128.263 28.243 128.263 27.489C128.263 26.735 128.375 26.0677 128.601 25.487C128.835 24.8977 129.147 24.4037 129.537 24.005C129.927 23.6063 130.382 23.303 130.902 23.095C131.422 22.887 131.976 22.783 132.566 22.783C132.938 22.783 133.272 22.809 133.567 22.861C133.87 22.913 134.13 22.9737 134.347 23.043C134.572 23.1123 134.754 23.1817 134.893 23.251C135.031 23.3203 135.127 23.3723 135.179 23.407L134.815 24.447C134.737 24.395 134.624 24.3387 134.477 24.278C134.329 24.2173 134.16 24.1567 133.97 24.096C133.788 24.0353 133.584 23.9877 133.359 23.953C133.142 23.9097 132.921 23.888 132.696 23.888C132.219 23.888 131.79 23.9703 131.409 24.135C131.027 24.2997 130.702 24.538 130.434 24.85C130.165 25.162 129.957 25.5433 129.81 25.994C129.671 26.436 129.602 26.9343 129.602 27.489C129.602 28.0263 129.662 28.516 129.784 28.958C129.914 29.4 130.104 29.7813 130.356 30.102C130.607 30.414 130.919 30.6567 131.292 30.83C131.673 31.0033 132.115 31.09 132.618 31.09C133.198 31.09 133.679 31.0293 134.061 30.908C134.442 30.7867 134.728 30.6783 134.919 30.583L135.244 31.623C135.183 31.6663 135.075 31.7227 134.919 31.792C134.763 31.8527 134.568 31.9133 134.334 31.974C134.1 32.0347 133.827 32.0867 133.515 32.13C133.203 32.1733 132.865 32.195 132.501 32.195ZM135.614 33.261C135.71 33.3043 135.831 33.3433 135.978 33.378C136.134 33.4213 136.286 33.443 136.433 33.443C136.91 33.443 137.283 33.3347 137.551 33.118C137.82 32.91 138.063 32.5677 138.279 32.091C137.733 31.051 137.222 29.9503 136.745 28.789C136.277 27.619 135.887 26.436 135.575 25.24H136.875C136.971 25.63 137.083 26.0503 137.213 26.501C137.352 26.9517 137.504 27.4153 137.668 27.892C137.833 28.3687 138.011 28.8453 138.201 29.322C138.392 29.7987 138.591 30.258 138.799 30.7C139.129 29.79 139.415 28.8887 139.657 27.996C139.9 27.1033 140.13 26.1847 140.346 25.24H141.594C141.282 26.514 140.936 27.7403 140.554 28.919C140.173 30.089 139.761 31.1853 139.319 32.208C139.146 32.598 138.964 32.9317 138.773 33.209C138.591 33.495 138.388 33.729 138.162 33.911C137.937 34.093 137.681 34.2273 137.395 34.314C137.118 34.4007 136.802 34.444 136.446 34.444C136.351 34.444 136.251 34.4353 136.147 34.418C136.043 34.4093 135.939 34.392 135.835 34.366C135.74 34.3487 135.649 34.327 135.562 34.301C135.484 34.275 135.428 34.2533 135.393 34.236L135.614 33.261ZM147.562 28.633C147.562 27.8443 147.367 27.2377 146.977 26.813C146.587 26.3883 146.067 26.176 145.417 26.176C145.053 26.176 144.767 26.189 144.559 26.215C144.36 26.241 144.199 26.2713 144.078 26.306V30.57C144.225 30.6913 144.438 30.8083 144.715 30.921C144.992 31.0337 145.296 31.09 145.625 31.09C145.972 31.09 146.266 31.0293 146.509 30.908C146.76 30.778 146.964 30.6047 147.12 30.388C147.276 30.1627 147.389 29.9027 147.458 29.608C147.527 29.3047 147.562 28.9797 147.562 28.633ZM148.823 28.633C148.823 29.1443 148.754 29.6167 148.615 30.05C148.485 30.4833 148.29 30.856 148.03 31.168C147.77 31.48 147.449 31.7227 147.068 31.896C146.695 32.0693 146.266 32.156 145.781 32.156C145.391 32.156 145.044 32.104 144.741 32C144.446 31.896 144.225 31.7963 144.078 31.701V34.405H142.869V25.448C143.155 25.3787 143.51 25.305 143.935 25.227C144.368 25.1403 144.867 25.097 145.43 25.097C145.95 25.097 146.418 25.1793 146.834 25.344C147.25 25.5087 147.605 25.7427 147.9 26.046C148.195 26.3493 148.42 26.722 148.576 27.164C148.741 27.5973 148.823 28.087 148.823 28.633ZM153.02 25.097C153.124 25.097 153.241 25.1057 153.371 25.123C153.51 25.1317 153.644 25.149 153.774 25.175C153.904 25.1923 154.021 25.214 154.125 25.24C154.238 25.2573 154.32 25.2747 154.372 25.292L154.164 26.345C154.069 26.3103 153.909 26.2713 153.683 26.228C153.467 26.176 153.185 26.15 152.838 26.15C152.613 26.15 152.388 26.176 152.162 26.228C151.946 26.2713 151.803 26.3017 151.733 26.319V32H150.524V25.526C150.81 25.422 151.166 25.3267 151.59 25.24C152.015 25.1447 152.492 25.097 153.02 25.097ZM160.921 31.805C160.644 31.8743 160.275 31.948 159.816 32.026C159.365 32.104 158.841 32.143 158.243 32.143C157.723 32.143 157.285 32.0693 156.93 31.922C156.575 31.766 156.289 31.5493 156.072 31.272C155.855 30.9947 155.699 30.6697 155.604 30.297C155.509 29.9157 155.461 29.4953 155.461 29.036V25.24H156.67V28.776C156.67 29.5993 156.8 30.1887 157.06 30.544C157.32 30.8993 157.758 31.077 158.373 31.077C158.503 31.077 158.637 31.0727 158.776 31.064C158.915 31.0553 159.045 31.0467 159.166 31.038C159.287 31.0207 159.396 31.0077 159.491 30.999C159.595 30.9817 159.669 30.9643 159.712 30.947V25.24H160.921V31.805ZM164.577 31.129C165.071 31.129 165.435 31.064 165.669 30.934C165.912 30.804 166.033 30.596 166.033 30.31C166.033 30.0153 165.916 29.7813 165.682 29.608C165.448 29.4347 165.062 29.2397 164.525 29.023C164.265 28.919 164.014 28.815 163.771 28.711C163.537 28.5983 163.333 28.4683 163.16 28.321C162.987 28.1737 162.848 27.996 162.744 27.788C162.64 27.58 162.588 27.3243 162.588 27.021C162.588 26.423 162.809 25.9507 163.251 25.604C163.693 25.2487 164.295 25.071 165.058 25.071C165.249 25.071 165.439 25.084 165.63 25.11C165.821 25.1273 165.998 25.1533 166.163 25.188C166.328 25.214 166.471 25.2443 166.592 25.279C166.722 25.3137 166.822 25.344 166.891 25.37L166.67 26.41C166.54 26.3407 166.336 26.2713 166.059 26.202C165.782 26.124 165.448 26.085 165.058 26.085C164.72 26.085 164.425 26.1543 164.174 26.293C163.923 26.423 163.797 26.631 163.797 26.917C163.797 27.0643 163.823 27.1943 163.875 27.307C163.936 27.4197 164.022 27.5237 164.135 27.619C164.256 27.7057 164.404 27.788 164.577 27.866C164.75 27.944 164.958 28.0263 165.201 28.113C165.522 28.2343 165.808 28.3557 166.059 28.477C166.31 28.5897 166.523 28.724 166.696 28.88C166.878 29.036 167.017 29.2267 167.112 29.452C167.207 29.6687 167.255 29.9373 167.255 30.258C167.255 30.882 167.021 31.3543 166.553 31.675C166.094 31.9957 165.435 32.156 164.577 32.156C163.979 32.156 163.511 32.104 163.173 32C162.835 31.9047 162.605 31.831 162.484 31.779L162.705 30.739C162.844 30.791 163.065 30.869 163.368 30.973C163.671 31.077 164.074 31.129 164.577 31.129Z" fill="white"/>
<path d="M15.9925 5.15508C15.2835 4.83947 14.8109 4.23455 14.6008 3.55072C15.2573 3.26141 16.045 3.26141 16.7276 3.57702C17.4366 3.89263 17.9092 4.49756 18.1193 5.18138C17.4628 5.4707 16.7014 5.497 15.9925 5.15508Z" fill="white"/>
<path d="M16.2025 2.13039C15.8874 2.84052 15.2835 3.31393 14.6008 3.52434C14.312 2.86682 14.312 2.07778 14.6271 1.39396C14.9684 0.683828 15.5461 0.210409 16.255 0C16.5176 0.657527 16.5439 1.44656 16.2025 2.13039Z" fill="white"/>
<path d="M13.2092 6.57511C12.474 6.3647 11.8701 5.86498 11.555 5.23376C12.1589 4.83924 12.9204 4.68144 13.6556 4.89184C14.3908 5.10225 14.9947 5.60197 15.3098 6.2332C14.7321 6.62771 13.9707 6.78552 13.2092 6.57511Z" fill="white"/>
<path d="M12.8942 3.55086C12.6841 4.28729 12.1852 4.89222 11.555 5.20783C11.1612 4.60291 11.0037 3.84017 11.2137 3.10374C11.4238 2.36731 11.9226 1.76239 12.5528 1.44678C12.9729 2.0517 13.1042 2.81443 12.8942 3.55086Z" fill="white"/>
<path d="M10.7148 8.46899C9.95332 8.39008 9.27064 7.99557 8.85052 7.41695C9.37566 6.91723 10.0846 6.65421 10.8723 6.70682C11.6338 6.78572 12.3164 7.18024 12.7366 7.75886C12.2114 8.25858 11.5025 8.52159 10.7148 8.46899Z" fill="white"/>
<path d="M9.90084 5.5496C9.82207 6.31233 9.42821 6.99615 8.85056 7.41697C8.35168 6.89095 8.08911 6.18082 8.14162 5.39179C8.22039 4.62906 8.61425 3.94523 9.1919 3.52441C9.69078 4.05044 9.95335 4.76056 9.90084 5.5496Z" fill="white"/>
<path d="M8.58804 10.757C7.82659 10.8359 7.09139 10.5466 6.56625 10.0469C6.98637 9.46823 7.66905 9.07372 8.4305 8.99482C9.19195 8.91591 9.92715 9.20522 10.4523 9.70494C10.0322 10.2836 9.34949 10.6781 8.58804 10.757Z" fill="white"/>
<path d="M7.27516 8.02167C7.35393 8.7844 7.0651 9.52083 6.56622 10.0469C5.98857 9.62604 5.59471 8.94221 5.51594 8.17948C5.43717 7.41675 5.726 6.68032 6.22488 6.1543C6.80254 6.57511 7.19639 7.25894 7.27516 8.02167Z" fill="white"/>
<path d="M6.88126 13.3871C6.14606 13.5975 5.38461 13.4397 4.7807 13.0452C5.09578 12.414 5.69969 11.888 6.43489 11.7039C7.17009 11.4934 7.93154 11.6513 8.53545 12.0458C8.22037 12.677 7.64271 13.1767 6.88126 13.3871Z" fill="white"/>
<path d="M5.09579 10.9148C5.30584 11.6512 5.1483 12.4139 4.75444 13.0189C4.12428 12.7033 3.59914 12.0983 3.41534 11.3619C3.20528 10.6255 3.36282 9.86274 3.75668 9.25781C4.4131 9.57343 4.91199 10.1783 5.09579 10.9148Z" fill="white"/>
<path d="M5.64723 16.2542C4.93829 16.5698 4.17684 16.5698 3.52042 16.2805C3.73047 15.5967 4.2031 14.9918 4.91204 14.6761C5.62098 14.3605 6.38243 14.3605 7.03885 14.6498C6.85505 15.3337 6.35617 15.9386 5.64723 16.2542Z" fill="white"/>
<path d="M3.46786 14.1503C3.78294 14.8604 3.78294 15.6232 3.49412 16.2807C2.81144 16.0703 2.20753 15.5969 1.89244 14.8867C1.57736 14.2029 1.57736 13.4139 1.86619 12.7563C2.54887 12.9668 3.15278 13.4402 3.46786 14.1503Z" fill="white"/>
<path d="M4.93827 19.3313C4.3081 19.7784 3.54665 19.9099 2.83771 19.7258C2.91648 19.0157 3.31033 18.3318 3.9405 17.8847C4.57067 17.4376 5.33212 17.3061 6.04106 17.4902C5.96229 18.2003 5.56843 18.8842 4.93827 19.3313Z" fill="white"/>
<path d="M2.44385 17.6217C2.89022 18.253 3.02151 19.0157 2.83771 19.7258C2.12877 19.6469 1.44609 19.2524 0.999718 18.6212C0.55335 17.99 0.422065 17.2272 0.605864 16.5171C1.3148 16.6223 1.99748 16.9905 2.44385 17.6217Z" fill="white"/>
<path d="M4.75446 22.4613C4.20306 23.0136 3.46787 23.2503 2.75893 23.224C2.70642 22.5139 2.96899 21.7775 3.52038 21.2251C4.07178 20.6728 4.80697 20.4361 5.51591 20.4624C5.56843 21.1725 5.30586 21.909 4.75446 22.4613Z" fill="white"/>
<path d="M1.99749 21.2249C2.54889 21.7772 2.7852 22.5136 2.75895 23.2238C2.05001 23.2764 1.31481 23.0134 0.763415 22.461C0.212019 21.9087 -0.0242942 21.1723 0.00196276 20.4622C0.710901 20.4096 1.4461 20.6726 1.99749 21.2249Z" fill="white"/>
<path d="M5.1221 25.5645C4.67573 26.1958 3.99305 26.564 3.28411 26.6692C3.12657 25.959 3.23159 25.1963 3.67796 24.5651C4.12433 23.9339 4.80701 23.5657 5.51595 23.4604C5.69975 24.1706 5.56847 24.9333 5.1221 25.5645Z" fill="white"/>
<path d="M2.20755 24.8281C2.83772 25.2752 3.20532 25.959 3.31035 26.6692C2.60141 26.827 1.83996 26.7218 1.20979 26.2747C0.57962 25.8275 0.212023 25.1437 0.106995 24.4336C0.789676 24.2495 1.55113 24.381 2.20755 24.8281Z" fill="white"/>
<path d="M6.0411 28.5366C5.72602 29.2468 5.12211 29.7202 4.43943 29.9306C4.1506 29.2731 4.1506 28.484 4.46568 27.8002C4.78077 27.0901 5.38468 26.6167 6.06736 26.4062C6.35619 27.0638 6.35619 27.8528 6.0411 28.5366Z" fill="white"/>
<path d="M3.02153 28.3263C3.73047 28.6419 4.20309 29.2468 4.41315 29.9306C3.75673 30.2199 2.96902 30.2199 2.28633 29.9043C1.5774 29.5887 1.10477 28.9838 0.894714 28.2737C1.55114 28.0106 2.31259 28.0106 3.02153 28.3263Z" fill="white"/>
<path d="M7.45894 31.3248C7.24889 32.0612 6.75001 32.6661 6.11984 32.9818C5.72598 32.3768 5.56844 31.6141 5.7785 30.8777C5.98855 30.1412 6.48744 29.5363 7.1176 29.2207C7.51146 29.8256 7.64274 30.5884 7.45894 31.3248Z" fill="white"/>
<path d="M4.4394 31.64C5.17459 31.8504 5.7785 32.3501 6.09359 32.9814C5.48968 33.3759 4.72822 33.5337 3.99303 33.3233C3.25783 33.1129 2.65392 32.6131 2.33884 31.9819C2.94275 31.5874 3.7042 31.4559 4.4394 31.64Z" fill="white"/>
<path d="M9.3232 33.823C9.24443 34.5858 8.85058 35.2696 8.27292 35.6904C7.77404 35.1644 7.51147 34.4543 7.56398 33.6652C7.64275 32.9025 8.03661 32.2187 8.61426 31.7979C9.11315 32.3239 9.40197 33.0603 9.3232 33.823Z" fill="white"/>
<path d="M6.40869 34.6642C7.17014 34.7432 7.85282 35.1377 8.27293 35.7163C7.74779 36.216 7.03886 36.479 6.25115 36.4264C5.48969 36.3475 4.80701 35.953 4.3869 35.3744C4.91204 34.8747 5.64724 34.5853 6.40869 34.6642Z" fill="white"/>
<path d="M11.6075 35.9797C11.6863 36.7424 11.3975 37.4788 10.8986 38.0049C10.3209 37.584 9.92708 36.9002 9.84831 36.1375C9.76954 35.3748 10.0584 34.6383 10.5572 34.1123C11.1612 34.5331 11.555 35.1906 11.6075 35.9797Z" fill="white"/>
<path d="M8.90307 37.2951C9.66452 37.2162 10.3997 37.5055 10.9249 38.0052C10.5047 38.5839 9.82206 38.9784 9.06061 39.0573C8.29915 39.1362 7.56396 38.8469 7.03882 38.3472C7.45893 37.7685 8.11536 37.374 8.90307 37.2951Z" fill="white"/>
<path d="M14.2333 37.6892C14.4433 38.4256 14.2858 39.1884 13.8919 39.7933C13.2618 39.4777 12.7366 38.8727 12.5528 38.1363C12.3428 37.3999 12.5003 36.6372 12.8942 36.0322C13.5243 36.3478 14.0495 36.9265 14.2333 37.6892Z" fill="white"/>
<path d="M11.7914 39.4514C12.5266 39.241 13.288 39.3988 13.8919 39.7933C13.5768 40.4246 12.9729 40.9506 12.2377 41.1347C11.5025 41.3451 10.7411 41.1873 10.1372 40.7928C10.4523 40.1615 11.0299 39.6618 11.7914 39.4514Z" fill="white"/>
<path d="M17.1215 38.8993C17.4366 39.6095 17.4366 40.3722 17.1477 41.0297C16.4651 40.8193 15.8612 40.3459 15.5461 39.6358C15.231 38.9256 15.231 38.1629 15.5198 37.5054C16.2025 37.7158 16.7801 38.2155 17.1215 38.8993Z" fill="white"/>
<path d="M15.0209 41.0824C15.7299 40.7668 16.4913 40.7668 17.1477 41.0561C16.9377 41.7399 16.4651 42.3448 15.7561 42.6605C15.0472 42.9761 14.2857 42.9761 13.6293 42.6868C13.8131 42.0029 14.312 41.4243 15.0209 41.0824Z" fill="white"/>
<path d="M19.6685 2.57768C18.9333 2.84069 18.1718 2.76179 17.5417 2.41988C17.8042 1.76235 18.3556 1.18373 19.0646 0.920715C19.7998 0.657704 20.5612 0.736607 21.1914 1.07852C20.9288 1.76235 20.4037 2.31467 19.6685 2.57768Z" fill="white"/>
<path d="M26.4165 47.0002C22.8455 43.4758 19.5372 42.0819 17.0953 41.2402C16.859 41.1613 16.6489 41.0824 16.4388 41.0035C8.11538 38.0841 2.52264 30.3779 2.52264 21.8038C2.52264 12.1776 9.58577 3.76122 19.3271 1.81494L19.3796 2.13055C9.82208 4.07683 2.83773 12.3354 2.83773 21.8301C2.83773 30.2464 8.35169 37.8474 16.5439 40.7142C16.7539 40.7931 16.964 40.8457 17.2003 40.9246C19.6685 41.7663 24.0796 43.1602 27.6768 46.7372L26.4165 47.0002Z" fill="white"/>
<path d="M31.0115 5.15508C31.7205 4.83947 32.1931 4.23455 32.4031 3.55072C31.7467 3.26141 30.959 3.26141 30.2763 3.57702C29.5674 3.89263 29.0948 4.49756 28.8847 5.18138C29.5149 5.4707 30.3026 5.497 31.0115 5.15508Z" fill="white"/>
<path d="M30.7752 2.13039C31.0903 2.84052 31.6942 3.31393 32.3769 3.52434C32.6657 2.86682 32.6657 2.07778 32.3506 1.39396C32.0355 0.683828 31.4316 0.210409 30.7489 0C30.4601 0.657527 30.4601 1.44656 30.7752 2.13039Z" fill="white"/>
<path d="M33.7948 6.57462C34.53 6.36422 35.1339 5.8645 35.449 5.23327C34.8451 4.83875 34.0836 4.68095 33.3484 4.89136C32.6132 5.10176 32.0093 5.60148 31.6942 6.23271C32.2719 6.62723 33.0333 6.78503 33.7948 6.57462Z" fill="white"/>
<path d="M34.0836 3.55037C34.2937 4.2868 34.7926 4.89173 35.4227 5.20734C35.8166 4.60242 35.9741 3.83969 35.7641 3.10326C35.554 2.36683 35.0551 1.7619 34.425 1.44629C34.0311 2.05121 33.8998 2.81394 34.0836 3.55037Z" fill="white"/>
<path d="M36.2892 8.46899C37.0507 8.39008 37.7333 7.99557 38.1535 7.41695C37.6283 6.91723 36.9194 6.65421 36.1317 6.70682C35.3702 6.78572 34.6875 7.18024 34.2674 7.75886C34.7926 8.25858 35.5015 8.52159 36.2892 8.46899Z" fill="white"/>
<path d="M37.1032 5.5496C37.1819 6.31233 37.5758 6.99615 38.1534 7.41697C38.6523 6.89095 38.9149 6.18082 38.8624 5.39179C38.7836 4.62906 38.3898 3.94523 37.8121 3.52441C37.3132 4.05044 37.0507 4.76056 37.1032 5.5496Z" fill="white"/>
<path d="M38.416 10.757C39.1775 10.8359 39.9127 10.5466 40.4378 10.0469C40.0177 9.46823 39.335 9.07372 38.5736 8.99482C37.8121 8.91591 37.0769 9.20522 36.5518 9.70494C36.9719 10.2836 37.6283 10.6781 38.416 10.757Z" fill="white"/>
<path d="M39.7289 8.02167C39.6501 8.7844 39.9389 9.52083 40.4378 10.0469C41.0155 9.62604 41.4093 8.94221 41.4881 8.17948C41.5669 7.41675 41.278 6.68032 40.7791 6.1543C40.2015 6.57511 39.8076 7.25894 39.7289 8.02167Z" fill="white"/>
<path d="M40.1228 13.3871C40.858 13.5975 41.6194 13.4397 42.2233 13.0452C41.9082 12.414 41.3043 11.888 40.5691 11.7039C39.8339 11.4934 39.0725 11.6513 38.4686 12.0458C38.7837 12.677 39.3613 13.1767 40.1228 13.3871Z" fill="white"/>
<path d="M41.882 10.9148C41.6719 11.6512 41.8294 12.4139 42.2233 13.0189C42.8535 12.7033 43.3786 12.0983 43.5624 11.3619C43.7725 10.6255 43.6149 9.86274 43.2211 9.25781C42.5909 9.57343 42.092 10.1783 41.882 10.9148Z" fill="white"/>
<path d="M41.3568 16.2537C42.0657 16.5693 42.8272 16.5693 43.4836 16.28C43.2736 15.5962 42.8009 14.9913 42.092 14.6757C41.3831 14.36 40.6216 14.36 39.9652 14.6494C40.149 15.3332 40.6479 15.9381 41.3568 16.2537Z" fill="white"/>
<path d="M43.5099 14.1498C43.1948 14.8599 43.1948 15.6227 43.4836 16.2802C44.1663 16.0698 44.7702 15.5964 45.0853 14.8862C45.4004 14.1761 45.4004 13.4134 45.1116 12.7559C44.4551 12.9663 43.8512 13.4397 43.5099 14.1498Z" fill="white"/>
<path d="M42.0657 19.3313C42.6959 19.7784 43.4573 19.9099 44.1662 19.7258C44.0875 19.0157 43.6936 18.3318 43.0635 17.8847C42.4333 17.4376 41.6718 17.3061 40.9629 17.4902C41.0417 18.2003 41.4355 18.8842 42.0657 19.3313Z" fill="white"/>
<path d="M44.5601 17.6217C44.1137 18.253 43.9825 19.0157 44.1663 19.7258C44.8752 19.6469 45.5579 19.2524 46.0042 18.6212C46.4506 17.99 46.5819 17.2272 46.3981 16.5171C45.6892 16.6223 45.0065 16.9905 44.5601 17.6217Z" fill="white"/>
<path d="M42.2495 22.4628C42.8009 23.0151 43.5361 23.2518 44.245 23.2255C44.2976 22.5154 44.035 21.7789 43.4836 21.2266C42.9322 20.6743 42.197 20.4376 41.4881 20.4639C41.4355 21.174 41.6981 21.9104 42.2495 22.4628Z" fill="white"/>
<path d="M45.0065 21.2254C44.4551 21.7777 44.2188 22.5141 44.2451 23.2243C44.954 23.2769 45.6892 23.0138 46.2406 22.4615C46.792 21.9092 47.0283 21.1728 47.0021 20.4626C46.2669 20.41 45.5579 20.6731 45.0065 21.2254Z" fill="white"/>
<path d="M41.8557 25.5645C42.302 26.1958 42.9847 26.564 43.6937 26.6692C43.8512 25.959 43.7462 25.1963 43.2998 24.5651C42.8534 23.9339 42.1708 23.5657 41.4618 23.4604C41.3043 24.1706 41.4356 24.9333 41.8557 25.5645Z" fill="white"/>
<path d="M44.7964 24.8281C44.1663 25.2752 43.7987 25.959 43.6936 26.6692C44.4026 26.827 45.164 26.7218 45.7942 26.2747C46.4244 25.8275 46.792 25.1437 46.897 24.4336C46.1881 24.2495 45.4266 24.381 44.7964 24.8281Z" fill="white"/>
<path d="M40.9629 28.5371C41.278 29.2473 41.8819 29.7207 42.5646 29.9311C42.8534 29.2736 42.8534 28.4845 42.5384 27.8007C42.2233 27.0906 41.6194 26.6171 40.9367 26.4067C40.6479 27.0643 40.6479 27.8533 40.9629 28.5371Z" fill="white"/>
<path d="M43.9825 28.3263C43.2735 28.6419 42.8009 29.2468 42.5909 29.9306C43.2473 30.2199 44.035 30.2199 44.7177 29.9043C45.4266 29.5887 45.8992 28.9838 46.1093 28.2737C45.4529 28.0106 44.6914 28.0106 43.9825 28.3263Z" fill="white"/>
<path d="M39.5451 31.3243C39.7551 32.0607 40.254 32.6657 40.8842 32.9813C41.278 32.3763 41.4356 31.6136 41.2255 30.8772C41.0154 30.1408 40.5166 29.5358 39.8864 29.2202C39.4925 29.8251 39.3613 30.5879 39.5451 31.3243Z" fill="white"/>
<path d="M42.5646 31.64C41.8294 31.8504 41.2255 32.3501 40.9104 32.9814C41.5143 33.3759 42.2758 33.5337 43.011 33.3233C43.7462 33.1129 44.3501 32.6131 44.6652 31.9819C44.0613 31.5874 43.2998 31.4559 42.5646 31.64Z" fill="white"/>
<path d="M37.6808 33.823C37.7596 34.5858 38.1534 35.2696 38.7311 35.6904C39.23 35.1644 39.4925 34.4543 39.44 33.6652C39.3612 32.9025 38.9674 32.2187 38.3897 31.7979C37.8909 32.3239 37.602 33.0603 37.6808 33.823Z" fill="white"/>
<path d="M40.5954 34.6647C39.8339 34.7436 39.1512 35.1382 38.7311 35.7168C39.2562 36.2165 39.9652 36.4795 40.7529 36.4269C41.5406 36.3743 42.197 35.9535 42.6171 35.3749C42.0657 34.8751 41.3568 34.5858 40.5954 34.6647Z" fill="white"/>
<path d="M35.3964 35.9802C35.3177 36.7429 35.6065 37.4793 36.1054 38.0053C36.683 37.5845 37.0769 36.9007 37.1557 36.138C37.2344 35.3752 36.9456 34.6388 36.4467 34.1128C35.8428 34.5336 35.4489 35.1911 35.3964 35.9802Z" fill="white"/>
<path d="M38.1009 37.2951C37.3395 37.2162 36.6043 37.5055 36.0791 38.0052C36.4992 38.5839 37.1819 38.9784 37.9434 39.0573C38.7048 39.1362 39.44 38.8469 39.9652 38.3472C39.5451 37.7685 38.8886 37.374 38.1009 37.2951Z" fill="white"/>
<path d="M32.7708 37.6892C32.5607 38.4256 32.7183 39.1884 33.1121 39.7933C33.7423 39.4777 34.2674 38.8727 34.4512 38.1363C34.6613 37.3999 34.5037 36.6372 34.1099 36.0322C33.4797 36.3478 32.9546 36.9265 32.7708 37.6892Z" fill="white"/>
<path d="M35.2127 39.4514C34.4775 39.241 33.716 39.3988 33.1121 39.7933C33.4272 40.4246 34.0311 40.9506 34.7663 41.1347C35.5015 41.3451 36.2629 41.1873 36.8668 40.7928C36.5518 40.1615 35.9741 39.6618 35.2127 39.4514Z" fill="white"/>
<path d="M29.8825 38.8993C29.5674 39.6095 29.5674 40.3722 29.8562 41.0297C30.5389 40.8193 31.1428 40.3459 31.4579 39.6358C31.773 38.9256 31.773 38.1629 31.4842 37.5054C30.8015 37.7158 30.1976 38.2155 29.8825 38.8993Z" fill="white"/>
<path d="M31.983 41.0824C31.2741 40.7668 30.5126 40.7668 29.8562 41.0561C30.0663 41.7399 30.5389 42.3448 31.2478 42.6605C31.9568 42.9761 32.7182 42.9761 33.3746 42.6868C33.1646 42.0029 32.692 41.4243 31.983 41.0824Z" fill="white"/>
<path d="M27.3356 2.57768C28.0708 2.84069 28.8322 2.76179 29.4624 2.41988C29.1998 1.76235 28.6484 1.18373 27.9395 0.920715C27.2043 0.657704 26.4428 0.736607 25.8127 1.07852C26.0752 1.76235 26.6004 2.31467 27.3356 2.57768Z" fill="white"/>
<path d="M20.5875 46.9998L19.3271 46.7631C22.9506 43.1862 27.3355 41.7922 29.8037 40.9506C30.04 40.8717 30.2501 40.7928 30.4601 40.7402C38.6523 37.8733 44.1663 30.2723 44.1663 21.856C44.1663 12.3613 37.2082 4.10278 27.5981 2.1828L27.6506 1.86719C37.392 3.81347 44.4551 12.2298 44.4551 21.856C44.4551 30.4301 38.8623 38.1364 30.5389 41.0558C30.3288 41.1347 30.1188 41.1873 29.8825 41.2925C27.4668 42.0815 24.1584 43.4755 20.5875 46.9998Z" fill="white"/>
<path d="M18.1193 11.4937C19.4584 10.8362 20.5086 10.468 22.2154 8.4165H26.3902V21.6985H28.5695V24.8284H19.1958V21.6985H21.5327V12.9929L19.1958 14.0975L18.1193 11.4937Z" fill="white"/>
<path d="M32.5869 30.6934H15.231V32.929H32.5869V30.6934Z" fill="white"/>
<path d="M30.7226 24.8281H17.0952V30.6933H30.7226V24.8281Z" fill="white"/>
<path d="M27.4931 29.5885H20.3249C20.3249 29.0887 19.931 28.6942 19.4322 28.6942V26.8269C19.931 26.8269 20.3249 26.4323 20.3249 25.9326H27.4931C27.4931 26.4323 27.8869 26.8269 28.3858 26.8269V28.0104V28.6942C27.8869 28.7205 27.4931 29.115 27.4931 29.5885Z" fill="white"/>
</svg>
