<svg width="149" height="109" viewBox="0 0 149 109" fill="none" xmlns="http://www.w3.org/2000/svg">
<rect x="0.642054" y="46.3563" width="132.199" height="65.9475" rx="7.5" transform="rotate(-20.2306 0.642054 46.3563)" stroke="#27AE60" stroke-miterlimit="4.62023" stroke-linecap="round" stroke-linejoin="bevel" stroke-dasharray="7 7"/>
<path d="M39.7374 54.2764C43.2079 52.9974 46.1154 52.6818 48.4601 53.3297C50.8198 53.945 52.4814 55.56 53.4451 58.1748C53.9707 59.601 54.1604 60.9215 54.0141 62.1364C53.8829 63.3187 53.4482 64.4104 52.7101 65.4114C51.9871 66.3798 50.9888 67.2607 49.7152 68.054C48.4416 68.8474 46.9372 69.5638 45.202 70.2033L42.4565 71.2151L45.8336 80.3786L42.375 81.6532L33.4001 57.3004C34.2871 56.7035 35.3117 56.1504 36.4739 55.6411C37.6512 55.0992 38.739 54.6443 39.7374 54.2764ZM41.1395 57.202C39.6658 57.7451 38.5498 58.1969 37.7917 58.5573L41.3658 68.2557L43.9687 67.2964C45.1572 66.8584 46.2006 66.3929 47.0989 65.8999C47.9884 65.383 48.6883 64.8281 49.1987 64.235C49.7241 63.6094 50.0469 62.91 50.1669 62.1368C50.2869 61.3636 50.163 60.4778 49.795 59.4794C49.4446 58.5286 48.9654 57.8143 48.3573 57.3364C47.773 56.8498 47.0942 56.5464 46.321 56.4264C45.5628 56.2739 44.7414 56.2796 43.8569 56.4436C42.9724 56.6075 42.0666 56.8604 41.1395 57.202ZM78.8006 68.2291C78.0023 67.3084 77.2365 66.4026 76.5033 65.5119C75.7613 64.5974 75.003 63.6754 74.2285 62.7459L63.0326 66.872L63.1121 74.0109L59.5109 75.3381C59.4981 72.3729 59.5003 69.6317 59.5176 67.1144C59.5261 64.5734 59.5546 62.16 59.6032 59.8741C59.6755 57.5796 59.771 55.3845 59.8897 53.2888C59.9995 51.1694 60.1538 49.0606 60.3526 46.9625L63.5259 45.793C65.0387 47.2604 66.5245 48.7647 67.9835 50.306C69.4337 51.8234 70.919 53.436 72.4392 55.1436C73.9833 56.8425 75.583 58.6558 77.2385 60.5836C78.8851 62.4877 80.6657 64.5719 82.5801 66.8362L78.8006 68.2291ZM72.1789 60.2614C70.6561 58.4737 69.1596 56.7573 67.6893 55.1122C66.2341 53.4346 64.7739 51.8533 63.3087 50.3684C63.1337 52.4578 63.0251 54.6172 62.9828 56.8467C62.9555 59.0437 62.9545 61.312 62.9797 63.6516L72.1789 60.2614ZM76.8286 40.8905L80.2872 39.6159L89.3934 64.3253L85.9348 65.5999L76.8286 40.8905ZM111.239 42.2216C112.027 44.3609 112.382 46.3496 112.303 48.1875C112.216 50.0016 111.759 51.655 110.932 53.1477C110.096 54.6166 108.931 55.9235 107.436 57.0684C105.932 58.1896 104.17 59.1225 102.15 59.8671C101.151 60.235 100.029 60.5949 98.7813 60.9465C97.5665 61.3132 96.428 61.5573 95.3658 61.6788L86.5355 37.7181C87.4225 37.1213 88.4471 36.5682 89.6093 36.0588C90.7866 35.517 91.8744 35.0621 92.8728 34.6942C94.8932 33.9495 96.8437 33.5277 98.7241 33.4287C100.596 33.3059 102.331 33.5441 103.928 34.1432C105.517 34.7186 106.938 35.6799 108.191 37.0272C109.434 38.3508 110.45 40.0823 111.239 42.2216ZM101.318 56.7313C104.598 55.5223 106.74 53.7881 107.743 51.5284C108.738 49.245 108.679 46.5939 107.566 43.5751C106.454 40.5562 104.783 38.5127 102.553 37.4444C100.315 36.3524 97.5553 36.4109 94.2749 37.6198C93.3003 37.979 92.5441 38.2712 92.0061 38.4964C91.4919 38.7129 91.1322 38.8725 90.9271 38.9751L97.8915 57.8726C98.1141 57.8175 98.4913 57.7055 99.0231 57.5366C99.5785 57.3589 100.344 57.0904 101.318 56.7313Z" fill="#27AE60"/>
</svg>
