<svg width="338" height="350" viewBox="0 0 338 350" fill="none" xmlns="http://www.w3.org/2000/svg">
<g clip-path="url(#clip0)">
<path d="M172.549 350.008C263.925 350.008 338 307.182 338 254.353C338 201.524 263.925 158.698 172.549 158.698C81.1734 158.698 7.09863 201.524 7.09863 254.353C7.09863 307.182 81.1734 350.008 172.549 350.008Z" fill="#F2F2F2"/>
<path d="M146.229 287.857C167.678 287.857 185.066 277.804 185.066 265.403C185.066 253.001 167.678 242.948 146.229 242.948C124.78 242.948 107.393 253.001 107.393 265.403C107.393 277.804 124.78 287.857 146.229 287.857Z" fill="#E0E0E0"/>
<path d="M212.072 308.708C238.043 308.708 259.096 296.537 259.096 281.523C259.096 266.509 238.043 254.337 212.072 254.337C186.102 254.337 165.048 266.509 165.048 281.523C165.048 296.537 186.102 308.708 212.072 308.708Z" fill="#E0E0E0"/>
<path d="M155.686 257.457C160.884 260.466 160.884 265.339 155.686 268.341C150.488 271.35 142.057 271.35 136.859 268.341C131.662 265.332 131.662 260.458 136.859 257.457C142.057 254.456 150.488 254.456 155.686 257.457Z" fill="#37474F"/>
<path d="M159.59 256.81H132.963V262.899H159.59V256.81Z" fill="#37474F"/>
<path d="M155.686 251.367C160.884 254.376 160.884 259.25 155.686 262.251C150.488 265.26 142.057 265.26 136.859 262.251C131.662 259.242 131.662 254.369 136.859 251.367C142.057 248.358 150.488 248.358 155.686 251.367Z" fill="#455A64"/>
<path d="M150.709 252.75C153.154 254.164 153.154 256.462 150.709 257.876C148.264 259.289 144.289 259.289 141.844 257.876C139.399 256.462 139.399 254.164 141.844 252.75C144.289 251.336 148.256 251.336 150.709 252.75Z" fill="#263238"/>
<path d="M152.547 140.351H140.006V255.317H152.547V140.351Z" fill="#263238"/>
<path d="M85.8921 139.063V97.4947L129.848 72.3311L133.807 110.764L85.8921 139.063Z" fill="#0D97FF"/>
<path opacity="0.5" d="M85.8921 139.063V97.4947L129.848 72.3311L133.807 110.764L85.8921 139.063Z" fill="black"/>
<path d="M85.8921 139.063L133.807 110.764V155.997L123.893 161.036L85.8921 139.063Z" fill="#0D97FF"/>
<path opacity="0.3" d="M85.8921 139.063L133.807 110.764V155.997L123.893 161.036L85.8921 139.063Z" fill="black"/>
<path d="M197.489 87.2588L192.945 89.7626L165.293 104.927L160.292 107.676L125.73 126.631C123.538 122.919 117.835 105.606 114.807 102.471C111.786 99.3431 108.418 96.6261 104.884 94.5805C100.546 92.0688 96.4766 90.8762 92.9747 90.8762C90.7426 90.8762 88.7392 91.358 87.0435 92.29L155.355 52.7991L155.379 52.7833L156.735 52.0014L156.751 51.9935C156.948 51.8987 157.145 51.8039 157.35 51.7249C157.555 51.6459 157.753 51.567 157.966 51.4959C157.973 51.488 157.989 51.488 158.005 51.4801C158.21 51.4169 158.407 51.3537 158.62 51.2905C158.841 51.2273 159.07 51.18 159.291 51.1247C159.472 51.0852 159.646 51.0536 159.827 51.022C159.922 51.0062 160.024 50.9904 160.119 50.9825C160.434 50.9351 160.758 50.9035 161.089 50.8798C161.215 50.864 161.357 50.864 161.483 50.8561C161.704 50.8482 161.925 50.8403 162.146 50.8403C163.897 50.8403 165.798 51.1405 167.793 51.7486C169.789 52.3647 171.902 53.2888 174.063 54.5446C174.174 54.6078 174.292 54.6709 174.403 54.7499C185.855 61.495 195.343 75.1667 197.489 87.2588Z" fill="#0D97FF"/>
<path d="M87.0279 92.29L86.9727 92.3216C86.9884 92.3137 87.0042 92.2979 87.0279 92.29Z" fill="#0D97FF"/>
<g opacity="0.3">
<path opacity="0.3" d="M197.489 87.2588L192.945 89.7626L165.293 104.927L160.292 107.676L125.73 126.631C123.538 122.919 117.835 105.606 114.807 102.471C111.786 99.3431 108.418 96.6261 104.884 94.5805C100.546 92.0688 96.4766 90.8762 92.9747 90.8762C90.7426 90.8762 88.7392 91.358 87.0435 92.29L155.355 52.7991L155.379 52.7833L156.735 52.0014L156.751 51.9935C156.948 51.8987 157.145 51.8039 157.35 51.7249C157.555 51.6459 157.753 51.567 157.966 51.4959C157.973 51.488 157.989 51.488 158.005 51.4801C158.21 51.4169 158.407 51.3537 158.62 51.2905C158.841 51.2273 159.07 51.18 159.291 51.1247C159.472 51.0852 159.646 51.0536 159.827 51.022C159.922 51.0062 160.024 50.9904 160.119 50.9825C160.434 50.9351 160.758 50.9035 161.089 50.8798C161.215 50.864 161.357 50.864 161.483 50.8561C161.704 50.8482 161.925 50.8403 162.146 50.8403C163.897 50.8403 165.798 51.1405 167.793 51.7486C169.789 52.3647 171.902 53.2888 174.063 54.5446C174.174 54.6078 174.292 54.6709 174.403 54.7499C185.855 61.495 195.343 75.1667 197.489 87.2588Z" fill="black"/>
<path opacity="0.3" d="M87.0279 92.29L86.9727 92.3216C86.9884 92.3137 87.0042 92.2979 87.0279 92.29Z" fill="black"/>
</g>
<path d="M191.929 72.8604C191.984 72.963 192.047 73.0657 192.102 73.1684C192.039 73.0657 191.984 72.963 191.929 72.8604Z" fill="#0D97FF"/>
<path d="M195.565 80.395C196.44 82.7013 197.095 85.0076 197.497 87.2585L192.954 89.7623L165.301 104.927L160.301 107.675L125.739 126.631L128.767 169.486L197.97 129.451V92.2423C197.962 88.4828 197.095 84.4389 195.565 80.395Z" fill="#0D97FF"/>
<path d="M194.539 77.9152C194.247 77.2676 193.94 76.612 193.616 75.9644C193.932 76.612 194.247 77.2676 194.539 77.9152Z" fill="#0D97FF"/>
<path d="M192.41 73.7134C192.749 74.3136 193.072 74.9218 193.388 75.53C193.072 74.9139 192.749 74.3136 192.41 73.7134Z" fill="#0D97FF"/>
<path d="M195.533 80.3242C195.265 79.6213 194.973 78.9105 194.666 78.2075C194.973 78.9105 195.265 79.6134 195.533 80.3242Z" fill="#0D97FF"/>
<g opacity="0.5">
<path opacity="0.5" d="M191.929 72.8604C191.984 72.963 192.047 73.0657 192.102 73.1684C192.039 73.0657 191.984 72.963 191.929 72.8604Z" fill="black"/>
<path opacity="0.5" d="M195.565 80.395C196.44 82.7013 197.095 85.0076 197.497 87.2585L192.954 89.7623L165.301 104.927L160.301 107.675L125.739 126.631L128.767 169.486L197.97 129.451V92.2423C197.962 88.4828 197.095 84.4389 195.565 80.395Z" fill="black"/>
<path opacity="0.5" d="M194.539 77.9152C194.247 77.2676 193.94 76.612 193.616 75.9644C193.932 76.612 194.247 77.2676 194.539 77.9152Z" fill="black"/>
<path opacity="0.5" d="M192.41 73.7134C192.749 74.3136 193.072 74.9218 193.388 75.53C193.072 74.9139 192.749 74.3136 192.41 73.7134Z" fill="black"/>
<path opacity="0.5" d="M195.533 80.3242C195.265 79.6213 194.973 78.9105 194.666 78.2075C194.973 78.9105 195.265 79.6134 195.533 80.3242Z" fill="black"/>
</g>
<path d="M92.9751 95.7414C95.7277 95.7414 99.0088 96.7919 102.456 98.7901C114.073 105.511 123.893 120.842 123.893 132.271V161.036L85.8923 139.063V104.666C85.8923 97.2895 89.7492 95.7414 92.9751 95.7414ZM92.9751 90.8604C85.8292 90.8604 81.0259 95.8125 81.0259 104.666V141.875L128.767 169.471V132.263C128.767 119.065 118.08 102.178 104.901 94.5646C100.555 92.0609 96.4849 90.8604 92.9751 90.8604Z" fill="#0D97FF"/>
<path d="M81.0256 141.875L55.3211 156.084C44.1291 162.26 43.9635 178.309 55.0293 184.707C69.597 193.126 87.5326 193.134 102.108 184.723L128.759 169.479L81.0256 141.875Z" fill="#0D97FF"/>
<path opacity="0.2" d="M81.0256 141.875L55.3211 156.084C44.1291 162.26 43.9635 178.309 55.0293 184.707C69.597 193.126 87.5326 193.134 102.108 184.723L128.759 169.479L81.0256 141.875Z" fill="white"/>
<path d="M144.691 158.137L139.328 161.241V109.39L144.691 106.286V158.137Z" fill="#E0E0E0"/>
<path d="M154.811 110.796L139.328 119.744V109.39L154.811 100.433V110.796Z" fill="#E0E0E0"/>
<path d="M146.994 156.321C146.994 159.535 144.739 163.445 141.962 165.048C139.186 166.651 136.93 165.356 136.93 162.142C136.93 158.927 139.186 155.017 141.962 153.414C144.746 151.803 146.994 153.106 146.994 156.321Z" fill="#0D97FF"/>
<path opacity="0.2" d="M146.994 156.321C146.994 159.535 144.739 163.445 141.962 165.048C139.186 166.651 136.93 165.356 136.93 162.142C136.93 158.927 139.186 155.017 141.962 153.414C144.746 151.803 146.994 153.106 146.994 156.321Z" fill="black"/>
<path d="M148.674 157.292C148.674 160.507 146.419 164.416 143.642 166.02C140.866 167.623 138.61 166.328 138.61 163.113C138.61 159.899 140.866 155.989 143.642 154.386C146.419 152.775 148.674 154.078 148.674 157.292Z" fill="#0D97FF"/>
<path d="M261.076 242.687L269.98 247.869C269.98 247.869 265.485 233.502 267.985 219.056C268.923 213.598 270.911 210.889 271.605 209.436C272.307 207.983 277.67 198.971 272.946 194.817C268.222 190.662 257.132 198.924 257.629 221.181C257.881 232.601 261.076 242.687 261.076 242.687Z" fill="#0D97FF"/>
<path opacity="0.3" d="M261.076 242.687L269.98 247.869C269.98 247.869 265.485 233.502 267.985 219.056C268.923 213.598 270.911 210.889 271.605 209.436C272.307 207.983 277.67 198.971 272.946 194.817C268.222 190.662 257.132 198.924 257.629 221.181C257.881 232.601 261.076 242.687 261.076 242.687Z" fill="black"/>
<path d="M265.216 245.499C265.051 245.499 264.901 245.396 264.846 245.239C264.814 245.144 261.446 235.784 261.62 220.77C261.801 205.661 269.728 197.612 269.807 197.534C269.964 197.376 270.217 197.376 270.367 197.534C270.524 197.691 270.524 197.944 270.367 198.094C270.288 198.173 262.59 206.016 262.416 220.778C262.243 235.634 265.555 244.875 265.595 244.962C265.674 245.167 265.563 245.396 265.358 245.475C265.311 245.491 265.264 245.499 265.216 245.499Z" fill="white"/>
<path d="M267.985 246.739L282.694 255.404C282.694 255.404 289.43 254.408 288.917 248.058C288.405 241.708 285.668 240.215 289.075 237.419C292.483 234.631 293.366 234.442 293.2 231.709C293.035 228.976 291.197 227.784 290.337 226.702C289.47 225.62 287.064 223.345 288.76 220.043C290.455 216.742 292.751 213.559 289.343 212.05C287.309 211.15 283.885 212.28 281.614 214.688C279.342 217.105 277.473 218.835 275.32 219.396C273.167 219.957 268.687 220.004 268.837 223.708C268.986 227.42 269.949 228.7 269.05 230.351C267.362 233.455 260.129 235.129 267.985 246.739Z" fill="#0D97FF"/>
<path d="M273.971 250.665C273.766 250.665 273.592 250.507 273.577 250.301C273.561 250.08 271.96 228.123 287.198 213.693C287.356 213.543 287.608 213.551 287.758 213.709C287.908 213.867 287.9 214.12 287.742 214.27C272.788 228.423 274.35 250.017 274.365 250.23C274.381 250.451 274.223 250.641 274.003 250.657C273.995 250.665 273.987 250.665 273.971 250.665Z" fill="white"/>
<path d="M276.613 231.836C276.408 231.836 276.235 231.678 276.219 231.464C275.793 225.699 271.786 222.737 271.747 222.705C271.566 222.579 271.526 222.326 271.66 222.152C271.786 221.971 272.039 221.931 272.212 222.066C272.386 222.192 276.558 225.264 277.016 231.417C277.031 231.638 276.866 231.828 276.645 231.844C276.629 231.836 276.621 231.836 276.613 231.836Z" fill="white"/>
<path d="M275.525 235.587C275.43 235.587 275.335 235.556 275.257 235.485C275.091 235.335 275.083 235.082 275.225 234.924C275.383 234.742 279.216 230.596 288.081 231.812C288.302 231.843 288.452 232.041 288.42 232.262C288.389 232.483 288.192 232.633 287.971 232.602C279.516 231.441 275.848 235.413 275.809 235.453C275.746 235.54 275.635 235.587 275.525 235.587Z" fill="white"/>
<path d="M99.1034 117.541C98.4015 117.541 97.6916 117.509 96.9975 117.454C96.5953 117.422 96.3035 117.067 96.335 116.664C96.3666 116.261 96.7294 115.961 97.1237 116.001C98.0623 116.08 99.0088 116.103 99.9395 116.072C100.334 116.064 100.673 116.372 100.689 116.775C100.705 117.178 100.389 117.509 99.9868 117.525C99.6871 117.541 99.3953 117.541 99.1034 117.541ZM102.842 117.241C102.495 117.241 102.187 116.988 102.124 116.633C102.061 116.238 102.329 115.859 102.724 115.795C103.654 115.645 104.569 115.424 105.453 115.156C105.839 115.037 106.241 115.258 106.36 115.637C106.478 116.024 106.265 116.427 105.879 116.546C104.932 116.838 103.954 117.067 102.96 117.233C102.921 117.233 102.881 117.241 102.842 117.241ZM94.1818 117.035C94.1345 117.035 94.0871 117.028 94.0319 117.02C93.0618 116.822 92.0917 116.562 91.1452 116.246C90.7666 116.119 90.5616 115.709 90.6877 115.329C90.8139 114.95 91.2241 114.737 91.6027 114.871C92.4939 115.164 93.4088 115.408 94.3238 115.598C94.7181 115.677 94.9705 116.064 94.8916 116.459C94.8207 116.798 94.521 117.035 94.1818 117.035ZM108.371 115.527C108.095 115.527 107.835 115.377 107.716 115.108C107.543 114.745 107.701 114.311 108.063 114.137C108.229 114.058 108.402 113.979 108.568 113.892C108.923 113.71 109.365 113.852 109.546 114.208C109.728 114.563 109.586 115.006 109.231 115.187C109.049 115.282 108.868 115.369 108.686 115.456C108.584 115.511 108.473 115.527 108.371 115.527ZM88.6765 115.219C88.574 115.219 88.4714 115.195 88.3689 115.148C87.4776 114.729 86.5943 114.263 85.7424 113.742C85.3954 113.537 85.285 113.086 85.4979 112.747C85.703 112.399 86.1526 112.289 86.4917 112.502C87.3041 112.992 88.1402 113.442 88.9841 113.829C89.3469 113.995 89.5047 114.429 89.339 114.792C89.2128 115.061 88.9526 115.219 88.6765 115.219ZM83.7154 112.218C83.5656 112.218 83.4078 112.17 83.2816 112.075C82.5008 111.491 81.7357 110.851 80.9943 110.172C80.6946 109.903 80.6788 109.437 80.947 109.145C81.2152 108.845 81.6726 108.829 81.9723 109.098C82.6743 109.745 83.4078 110.354 84.1492 110.906C84.4726 111.151 84.5357 111.601 84.2912 111.925C84.1571 112.123 83.9363 112.218 83.7154 112.218ZM79.4326 108.308C79.2355 108.308 79.0383 108.229 78.8963 108.071C78.2338 107.352 77.5949 106.586 76.9955 105.796C76.751 105.48 76.8141 105.022 77.1296 104.777C77.4529 104.533 77.9025 104.596 78.147 104.912C78.7228 105.67 79.338 106.404 79.969 107.092C80.2371 107.392 80.2214 107.85 79.9217 108.118C79.7797 108.245 79.6062 108.308 79.4326 108.308ZM75.8992 103.703C75.6625 103.703 75.4259 103.585 75.2918 103.372C74.9764 102.874 74.6688 102.376 74.3769 101.871C74.1797 101.523 73.9826 101.168 73.7933 100.813C73.604 100.457 73.7381 100.015 74.093 99.8332C74.4479 99.6436 74.8896 99.7779 75.0789 100.133C75.2603 100.473 75.4496 100.813 75.6389 101.144C75.9228 101.634 76.2147 102.116 76.5144 102.59C76.7352 102.929 76.6327 103.379 76.2935 103.593C76.1673 103.664 76.0332 103.703 75.8992 103.703ZM73.1781 98.5695C72.8941 98.5695 72.626 98.4036 72.5076 98.1272C72.1212 97.211 71.7662 96.2711 71.4744 95.3391C71.3561 94.96 71.5612 94.5493 71.9477 94.4229C72.3341 94.2966 72.7364 94.5098 72.8626 94.8968C73.1465 95.7893 73.4778 96.6818 73.8485 97.5585C74.0062 97.9297 73.8327 98.3562 73.462 98.5142C73.3752 98.5537 73.2727 98.5695 73.1781 98.5695ZM71.4192 93.0408C71.0879 93.0408 70.7803 92.8117 70.7094 92.4642C70.4964 91.4848 70.3387 90.4896 70.2361 89.5182C70.1967 89.1154 70.4806 88.7599 70.8829 88.7204C70.9854 88.7047 71.0879 88.7204 71.1826 88.752C71.293 88.5625 71.4823 88.4282 71.711 88.3966C72.6338 88.2702 73.5488 88.0649 74.4321 87.7964C74.8186 87.6779 75.2209 87.8911 75.3392 88.2781C75.4575 88.6652 75.2445 89.068 74.858 89.1864C73.9037 89.4787 72.9178 89.6998 71.9161 89.842C71.853 89.8499 71.7899 89.8499 71.7347 89.842C71.8293 90.616 71.9634 91.39 72.1291 92.1641C72.2158 92.559 71.9634 92.946 71.5691 93.025C71.5139 93.0329 71.4665 93.0408 71.4192 93.0408ZM68.9189 90.0236C68.9189 90.0236 68.9111 90.0236 68.9189 90.0236C67.9252 90.0158 66.9156 89.9289 65.9218 89.7788C65.5274 89.7156 65.2514 89.3523 65.3145 88.9495C65.3776 88.5546 65.7404 88.286 66.1426 88.3413C67.0733 88.4835 68.0119 88.5546 68.9347 88.5704C69.337 88.5783 69.6603 88.9021 69.6525 89.3049C69.6367 89.6998 69.3133 90.0236 68.9189 90.0236ZM63.1928 89.1706C63.1297 89.1706 63.0587 89.1627 62.9956 89.1391C62.0413 88.8626 61.0948 88.5309 60.172 88.136C59.8013 87.978 59.6357 87.5515 59.7855 87.1803C59.9433 86.8091 60.3692 86.6432 60.7399 86.7933C61.6075 87.1645 62.4987 87.4804 63.39 87.7332C63.7765 87.8438 63.9973 88.2466 63.8869 88.6336C63.8001 88.9574 63.5083 89.1706 63.1928 89.1706ZM77.3346 88.1202C77.0744 88.1202 76.8141 87.978 76.6879 87.7253C76.5065 87.3699 76.6406 86.9276 76.9955 86.7459C77.8473 86.3036 78.6124 85.7902 79.267 85.2295C79.5667 84.9688 80.0242 85.0004 80.2924 85.3084C80.5526 85.6086 80.5211 86.0746 80.2135 86.3352C79.48 86.9749 78.6203 87.5436 77.6659 88.0412C77.5634 88.0965 77.4451 88.1202 77.3346 88.1202ZM70.8277 87.2672H70.8198C70.4175 87.2593 70.102 86.9355 70.102 86.5326C70.1178 85.5217 70.1967 84.5186 70.3308 83.5392C70.386 83.1443 70.7488 82.86 71.151 82.9232C71.5454 82.9785 71.8215 83.3497 71.7662 83.7446C71.6322 84.6608 71.5612 85.6007 71.5533 86.5484C71.5454 86.9434 71.222 87.2672 70.8277 87.2672ZM57.861 86.896C57.7348 86.896 57.6165 86.8644 57.4982 86.8012C56.6385 86.3036 55.7946 85.7428 55.0058 85.1505C54.6825 84.9056 54.6194 84.4554 54.8639 84.1316C55.1005 83.8078 55.558 83.7446 55.8813 83.9894C56.6227 84.5502 57.4193 85.0715 58.2238 85.5454C58.5709 85.7428 58.6892 86.193 58.492 86.5405C58.35 86.7617 58.1134 86.896 57.861 86.896ZM81.6174 84.3054C81.4912 84.3054 81.365 84.2738 81.2546 84.2027C80.9076 83.9973 80.7971 83.555 80.9943 83.2075C81.2073 82.8442 81.3887 82.4651 81.5228 82.0781C81.6647 81.6674 81.7515 81.233 81.7909 80.7828C81.8225 80.38 82.1537 80.0798 82.5718 80.1114C82.974 80.143 83.2737 80.4905 83.2422 80.8855C83.2028 81.4699 83.0844 82.0307 82.8951 82.5599C82.7295 83.0338 82.5166 83.4997 82.2563 83.942C82.1064 84.179 81.8619 84.3054 81.6174 84.3054ZM53.2391 83.405C53.0577 83.405 52.8763 83.3339 52.7343 83.1996C52.5687 83.0417 52.4109 82.8758 52.2453 82.7099C51.7169 82.165 51.2042 81.5884 50.7152 80.9881C50.4628 80.6801 50.5101 80.222 50.8177 79.9693C51.1253 79.7165 51.5828 79.7639 51.8352 80.0719C52.2926 80.6406 52.7816 81.1856 53.2785 81.699C53.4284 81.8569 53.5783 82.007 53.7281 82.1571C54.0199 82.4335 54.0199 82.8995 53.7439 83.1838C53.6177 83.326 53.4284 83.405 53.2391 83.405ZM71.6637 81.5252C71.5927 81.5252 71.5217 81.5173 71.4508 81.4936C71.0643 81.3751 70.8513 80.9723 70.9696 80.5853C71.293 79.5191 71.7189 78.5634 72.2237 77.7578C72.4367 77.4181 72.8862 77.3155 73.2254 77.5287C73.5645 77.742 73.6671 78.1922 73.4541 78.5318C73.0203 79.2268 72.6496 80.0561 72.3578 81.0039C72.2631 81.3277 71.9713 81.5252 71.6637 81.5252ZM49.5794 78.903C49.3428 78.903 49.1062 78.7845 48.9721 78.5713C48.4437 77.7499 47.9389 76.889 47.4814 75.9886C47.3 75.6332 47.442 75.1909 47.7969 75.0092C48.1518 74.8275 48.5935 74.9697 48.7749 75.3251C49.2087 76.1781 49.6898 76.9995 50.1946 77.7736C50.4155 78.1132 50.3208 78.5634 49.9817 78.7766C49.8476 78.8635 49.7135 78.903 49.5794 78.903ZM82.0512 78.7213C81.7673 78.7213 81.4991 78.5555 81.3808 78.2712C81.0416 77.4497 80.5211 76.7784 79.8743 76.3519C79.5431 76.1307 79.4484 75.6806 79.6771 75.3409C79.898 75.0092 80.3555 74.9144 80.6867 75.1435C81.5701 75.7358 82.2799 76.6283 82.7295 77.7183C82.8794 78.0895 82.7059 78.516 82.3352 78.6661C82.2405 78.7056 82.1459 78.7213 82.0512 78.7213ZM74.8186 76.7784C74.582 76.7784 74.3533 76.6678 74.2192 76.4546C73.9983 76.1229 74.0851 75.6727 74.4164 75.4436C75.3628 74.8039 76.4118 74.4168 77.4608 74.33C77.8552 74.2905 78.2101 74.5906 78.2496 74.9934C78.2811 75.3962 77.9893 75.7437 77.587 75.7832C76.7904 75.8543 75.9701 76.1544 75.2366 76.652C75.0947 76.7389 74.9527 76.7784 74.8186 76.7784ZM46.9214 73.7455C46.6296 73.7455 46.3614 73.5717 46.251 73.2874C45.8882 72.3791 45.5569 71.4392 45.273 70.4835C45.1547 70.0965 45.3755 69.6937 45.762 69.5753C46.1406 69.4568 46.5507 69.6779 46.669 70.057C46.9451 70.9732 47.2606 71.8736 47.6076 72.7424C47.7575 73.1136 47.5761 73.5401 47.2054 73.6902C47.1028 73.7297 47.0082 73.7455 46.9214 73.7455ZM45.2414 68.1852C44.9102 68.1852 44.6026 67.9482 44.5316 67.6086C44.3265 66.6529 44.1609 65.6736 44.0268 64.6863C43.9716 64.2914 44.2555 63.9202 44.6499 63.8728C45.0443 63.8254 45.415 64.1018 45.4623 64.4967C45.5885 65.4445 45.7541 66.3844 45.9513 67.3085C46.038 67.7034 45.7857 68.0904 45.3913 68.1694C45.3361 68.1773 45.2888 68.1852 45.2414 68.1852ZM44.4685 62.4274C44.0899 62.4274 43.7665 62.1273 43.7429 61.7403C43.6955 60.9583 43.6719 60.1685 43.6719 59.3866C43.6719 59.1813 43.6719 58.9838 43.6798 58.7784C43.6877 58.3756 44.0426 58.0518 44.4133 58.0597C44.8155 58.0676 45.131 58.3993 45.131 58.7942C45.131 58.9917 45.1231 59.1892 45.1231 59.3787C45.1231 60.129 45.1468 60.8952 45.1862 61.6455C45.2099 62.0483 44.9023 62.3879 44.5 62.4116C44.4921 62.4274 44.4843 62.4274 44.4685 62.4274Z" fill="#263238"/>
<path d="M51.7088 36.0078L47.3708 54.8845L0 44.7037L51.7088 36.0078Z" fill="#0D97FF"/>
<path opacity="0.3" d="M51.7088 36.0078L47.3708 54.8845L0 44.7037L51.7088 36.0078Z" fill="black"/>
<path d="M3.16319e-06 44.7039C-0.0157713 44.7118 58.9729 43.1006 58.9729 43.1006L72.8387 64.4889L3.16319e-06 44.7039Z" fill="#0D97FF"/>
<path d="M0 44.7039L51.7088 36.008L39.523 21.8545L0 44.7039Z" fill="#0D97FF"/>
<g opacity="0.4">
<path opacity="0.4" d="M110.919 99.8174L110.863 99.849C110.879 99.8411 110.903 99.8253 110.919 99.8174Z" fill="black"/>
</g>
<path d="M205.442 241.41L192.96 241.091L192.315 266.397L204.797 266.716L205.442 241.41Z" fill="#945959"/>
<path d="M189.042 139.79C189.042 139.79 188.166 182.851 188.466 199.919C188.687 212.761 190.69 251.257 190.69 251.257C190.69 251.257 198.782 256.557 207.316 252.134C207.316 252.134 212.238 213.251 211.039 201.546C210.889 200.124 210.905 198.695 211.071 197.273L218.595 132.082L189.042 139.79Z" fill="#37474F"/>
<path d="M196.653 262.883C196.653 262.883 203.578 262.086 204.974 259.835V258.366C204.974 258.366 206.173 259.005 205.944 261.438C205.731 263.697 206.638 267.543 206.764 272.235C206.788 273.009 206.433 273.751 205.818 274.225C204.485 275.26 201.645 276.847 196.653 277.069C194.902 277.148 187.906 281.642 182.077 281.642C176.249 281.642 172.439 278.751 172.439 274.707C172.439 270.663 184.317 267.006 184.317 267.006L190.028 261.446C190.028 261.446 188.923 255.412 192.559 256.865C196.195 258.303 196.653 259.835 196.653 262.883Z" fill="#37474F"/>
<path d="M195.359 266.374C195.209 266.374 195.068 266.28 195.012 266.13C193.798 262.489 190.004 261.809 189.964 261.809C189.767 261.778 189.633 261.588 189.665 261.391C189.696 261.193 189.893 261.059 190.083 261.091C190.256 261.122 194.35 261.849 195.699 265.901C195.762 266.09 195.659 266.295 195.47 266.359C195.438 266.367 195.399 266.374 195.359 266.374Z" fill="#FAFAFA"/>
<path d="M193.08 268.657C192.93 268.657 192.788 268.562 192.733 268.412C191.526 264.787 187.725 264.099 187.685 264.092C187.488 264.06 187.354 263.87 187.385 263.673C187.417 263.475 187.606 263.341 187.803 263.373C187.977 263.404 192.07 264.131 193.419 268.183C193.482 268.372 193.38 268.578 193.19 268.641C193.159 268.649 193.119 268.657 193.08 268.657Z" fill="#FAFAFA"/>
<path d="M191.069 270.616C190.919 270.616 190.777 270.521 190.722 270.371C189.515 266.746 185.713 266.05 185.674 266.05C185.477 266.019 185.343 265.829 185.374 265.632C185.406 265.434 185.595 265.3 185.792 265.332C185.966 265.363 190.059 266.09 191.408 270.142C191.471 270.331 191.369 270.537 191.179 270.6C191.148 270.608 191.108 270.616 191.069 270.616Z" fill="#FAFAFA"/>
<path d="M172.439 274.699C172.439 278.696 176.162 281.563 181.888 281.626L190.051 278.348C190.051 269.873 184.317 266.999 184.317 266.999C184.317 266.999 172.439 270.655 172.439 274.699Z" fill="#EBEBEB"/>
<path d="M206.567 272.582C205.171 273.664 202.197 275.331 196.976 275.552C195.146 275.631 187.827 280.33 181.73 280.33C177.55 280.33 174.355 278.909 172.77 276.642C173.803 279.627 177.242 281.626 182.077 281.626C187.906 281.626 194.902 277.131 196.653 277.053C201.645 276.831 204.485 275.244 205.818 274.209C206.385 273.767 206.717 273.103 206.748 272.393C206.685 272.464 206.638 272.535 206.567 272.582Z" fill="#263238"/>
<path d="M196.274 145.816C196.274 145.816 197.418 155.563 204.879 160.72L211.465 193.79L215.693 152.443L196.274 145.816Z" fill="#263238"/>
<path d="M239.169 248.335L226.721 249.311L228.693 274.548L241.141 273.573L239.169 248.335Z" fill="#945959"/>
<path d="M234.346 140.777C234.346 140.777 235.852 146.488 236.586 170.04C237.17 188.712 237.603 199.453 237.761 203.102C237.801 204.01 237.895 204.911 238.053 205.811C238.652 209.294 240.269 219.657 241.129 234.276C242.194 252.426 242.281 261.043 242.281 261.043C242.281 261.043 234.583 267.069 225.291 262.338L216.308 208.196L206.867 157.964C206.867 157.964 193.884 153.012 192.741 139.774L234.346 140.777Z" fill="#37474F"/>
<path d="M240.664 267.788L240.853 270.252C240.853 270.252 239.37 272.338 237.619 272.946C237.619 272.946 236.286 268.033 233.904 267.78C231.53 267.528 226.601 267.314 227.263 270.047C227.926 272.78 227.949 274.391 227.949 274.391L223.383 282.929C223.383 282.929 214.091 290.938 217.98 296.048C221.86 301.158 234.882 298.425 236.168 290.409C236.562 287.968 238.006 285.828 240.064 284.461C242.123 283.087 242.517 281.184 242.28 279.351C242.044 277.519 241.492 273.996 241.665 272.401C241.831 270.813 242.257 267.812 240.664 267.788Z" fill="#37474F"/>
<path d="M217.972 296.048C221.198 300.289 230.71 299.128 234.59 294.018C234.756 293.228 234.851 292.391 234.851 291.498C234.851 282.376 223.383 282.929 223.383 282.929C223.383 282.929 214.092 290.945 217.972 296.048Z" fill="#EBEBEB"/>
<path d="M242.272 279.351C242.257 279.217 242.233 279.059 242.209 278.901C242.036 280.22 241.405 281.476 239.914 282.471C237.792 283.893 236.294 286.096 235.892 288.624C234.582 296.822 221.411 299.665 217.23 294.618C217.38 295.116 217.617 295.59 217.964 296.048C221.844 301.158 234.866 298.425 236.152 290.409C236.546 287.968 237.99 285.828 240.048 284.461C242.115 283.087 242.509 281.183 242.272 279.351Z" fill="#263238"/>
<path d="M234.693 276.302C234.606 276.302 234.511 276.271 234.44 276.199C231.664 273.569 227.989 274.762 227.949 274.778C227.76 274.841 227.555 274.738 227.492 274.549C227.429 274.359 227.531 274.154 227.72 274.091C227.886 274.035 231.838 272.74 234.937 275.67C235.087 275.805 235.087 276.042 234.953 276.184C234.89 276.263 234.787 276.302 234.693 276.302Z" fill="#FAFAFA"/>
<path d="M233.108 279.47C233.021 279.47 232.926 279.438 232.855 279.367C230.079 276.745 226.404 277.929 226.364 277.945C226.175 278.008 225.97 277.906 225.907 277.716C225.844 277.527 225.946 277.321 226.136 277.258C226.301 277.203 230.253 275.908 233.352 278.838C233.494 278.972 233.502 279.209 233.368 279.351C233.297 279.43 233.202 279.47 233.108 279.47Z" fill="#FAFAFA"/>
<path d="M231.522 282.637C231.436 282.637 231.341 282.605 231.27 282.534C228.494 279.912 224.818 281.096 224.779 281.112C224.59 281.175 224.384 281.073 224.321 280.883C224.258 280.694 224.361 280.488 224.55 280.425C224.716 280.37 228.667 279.075 231.767 282.005C231.909 282.139 231.917 282.376 231.783 282.518C231.712 282.597 231.617 282.637 231.522 282.637Z" fill="#FAFAFA"/>
<path d="M151.719 38.6143C151.719 38.6143 150.355 32.7459 150.165 28.9311C149.976 25.1163 148.872 23.7815 146.545 25.6928C144.226 27.5963 138.918 33.1566 139.234 37.4769C139.604 42.4686 140.74 46.3071 143.643 50.9433L153.139 47.4207L151.719 38.6143Z" fill="#945959"/>
<path d="M181.123 73.1454L167.525 70.1362C167.525 70.1362 161.736 60.7452 158.384 55.7931C155.032 50.8409 153.131 47.4131 153.131 47.4131L143.635 50.9357C143.635 50.9357 154.212 77.2603 159.117 81.6991C161.586 83.9343 177.534 88.8785 177.534 88.8785C177.534 88.8785 184.207 81.8334 181.123 73.1454Z" fill="#945959"/>
<path d="M198.254 76.8414L181.123 73.145C181.123 73.145 181.044 80.901 177.542 88.8782L194.752 94.1858L198.254 76.8414Z" fill="#0D97FF"/>
<path opacity="0.3" d="M198.254 76.8414L181.123 73.145C181.123 73.145 181.044 80.901 177.542 88.8782L194.752 94.1858L198.254 76.8414Z" fill="white"/>
<path d="M222.018 78.9027L229.984 81.4222L234.354 105.022L231.767 116.459C231.412 118.022 231.349 119.634 231.569 121.221L234.354 140.785C234.354 140.785 226.435 145.816 211.97 145.816C197.504 145.816 189.049 139.79 189.049 139.79L190.146 95.2599C190.564 88.349 193.443 81.8093 198.262 76.8413L208.144 77.9865L222.018 78.9027Z" fill="#0D97FF"/>
<path d="M196.905 41.4414C196.905 41.4414 189.294 48.1312 195.911 63.0508L203.649 42.8868L196.905 41.4414Z" fill="#263238"/>
<path d="M222.018 78.9025L208.137 77.9863V59.9863H222.018V78.9025Z" fill="#945959"/>
<path d="M208.137 76.8411C212.822 76.8411 219.928 72.663 219.928 69.7565L221.49 59.9785H208.137V76.8411Z" fill="#703838"/>
<path d="M211.828 37.311C207.159 37.311 197.221 39.9174 196.077 52.1596C194.934 64.4018 196.716 74.8037 202.348 74.8037C213.398 74.8037 223.998 73.3978 224.093 55.2952C224.164 39.3251 216.379 37.311 211.828 37.311Z" fill="#945959"/>
<path d="M222.018 66.0207L220.22 60.492C219.621 61.0054 218.69 60.571 218.69 59.7812V49.9164C218.69 49.9164 214.099 48.6132 214.581 44.743C214.581 44.743 212.23 46.844 203.215 46.844C194.2 46.844 192.015 39.1985 192.914 34.9414C192.914 34.9414 194.586 36.6632 199.35 36.6632C204.114 36.6632 223.951 30.6685 224.463 42.6658C224.463 42.6658 226.135 40.2095 228.841 42.6658L225.362 44.7351C225.362 44.7351 229.48 44.6009 228.841 50.6667C228.415 54.6553 226.964 61.6294 226.009 65.9418C225.481 68.3507 224.045 70.4516 222.003 71.8259V66.0207H222.018Z" fill="#263238"/>
<path d="M204.99 55.832V63.6907L200.399 62.2769L204.99 55.832Z" fill="#703838"/>
<path d="M212.301 57.08C212.301 57.8935 211.647 58.549 210.834 58.549C210.022 58.549 209.367 57.8935 209.367 57.08C209.367 56.2665 210.022 55.6109 210.834 55.6109C211.639 55.603 212.301 56.2665 212.301 57.08Z" fill="#263238"/>
<path d="M201.307 56.053C201.307 56.8666 200.652 57.5221 199.84 57.5221C199.027 57.5221 198.373 56.8666 198.373 56.053C198.373 55.2395 199.027 54.584 199.84 54.584C200.652 54.584 201.307 55.2395 201.307 56.053Z" fill="#263238"/>
<path d="M198.049 52.9886L200.92 51.2826C200.92 51.2826 199.816 50.1374 198.72 50.8245C197.631 51.5117 198.049 52.9886 198.049 52.9886Z" fill="#263238"/>
<path d="M213.816 54.0551L210.945 52.349C210.945 52.349 212.049 51.2038 213.145 51.8909C214.242 52.5781 213.816 54.0551 213.816 54.0551Z" fill="#263238"/>
<path d="M205.368 67.4661C205.368 67.4661 207.498 66.0997 209.548 64.5596C209.548 64.5596 210.739 66.8816 208.87 68.0822C206.993 69.2827 205.368 67.4661 205.368 67.4661Z" fill="#703838"/>
<path d="M220.086 60.5709L225.173 55.058L221.521 52.8623L220.086 60.5709Z" fill="#253239"/>
<path d="M220.93 58.4225C219.266 61.3054 219.692 64.8122 222.018 66.0127C223.509 66.7867 227.91 65.1202 229.574 62.2374C231.239 59.3545 230.3 56.8745 228.036 55.5634C225.773 54.2602 222.594 55.5397 220.93 58.4225Z" fill="#945959"/>
<path d="M208.137 77.9863L206.244 80.9955C204.698 83.4519 205.621 86.7059 208.224 87.9775C212.948 90.2838 218.635 88.0091 220.473 83.0728L222.018 78.9025L208.137 77.9863Z" fill="#945959"/>
<path d="M153.139 47.4127C153.139 47.4127 155.458 43.8743 155.418 40.5176C155.379 37.1609 155.797 35.597 156.373 34.7993C156.941 34.0016 156.302 32.8169 154.756 33.2355C153.446 33.5909 151.83 35.5891 151.475 37.461C151.364 38.0613 151.001 38.5825 150.465 38.8669C148.832 39.7436 145.796 42.2552 147.239 48.3526L153.139 47.4127Z" fill="#945959"/>
<path d="M146.971 44.1903C146.955 44.1903 146.94 44.1903 146.932 44.1903C146.782 44.1666 146.679 44.0244 146.703 43.8823C147.192 40.7625 149.195 39.2539 150.339 38.6379C150.789 38.393 151.104 37.9507 151.207 37.4215C151.23 37.2715 151.372 37.1767 151.522 37.2004C151.672 37.232 151.767 37.3742 151.743 37.5163C151.617 38.2114 151.199 38.7958 150.599 39.1118C149.543 39.6804 147.697 41.0705 147.239 43.9612C147.216 44.0955 147.097 44.1903 146.971 44.1903Z" fill="#703838"/>
<path d="M231.152 110.512L234.654 117.905L252.629 125.029L245.38 103.032L231.152 110.512Z" fill="#945959"/>
<path d="M228.92 81.083C228.92 81.083 222.925 87.2515 225.52 95.9474C228.107 104.643 231.152 110.512 231.152 110.512C231.152 110.512 241.255 110.82 245.38 103.04L240.23 90.0237C238.589 85.8772 235.095 82.7574 230.797 81.5964L228.92 81.083Z" fill="#0D97FF"/>
<path opacity="0.3" d="M228.92 81.083C228.92 81.083 222.925 87.2515 225.52 95.9474C228.107 104.643 231.152 110.512 231.152 110.512C231.152 110.512 241.255 110.82 245.38 103.04L240.23 90.0237C238.589 85.8772 235.095 82.7574 230.797 81.5964L228.92 81.083Z" fill="white"/>
<path d="M233.644 116.53C238.187 117.865 251.58 121.838 251.58 121.838C251.58 121.838 251.682 122.13 252.629 125.029C254.08 129.491 249.498 140.296 233.163 132.453C216.837 124.618 210.897 120.424 210.897 120.424L212.664 110.512C212.664 110.512 228.454 115.006 233.644 116.53Z" fill="#945959"/>
<path d="M234.117 116.759L242.573 119.2L233.108 114.626L234.117 116.759Z" fill="#703838"/>
<path d="M210.148 124.871L199.548 123.741C198.775 123.662 198.128 123.109 197.931 122.351L192.134 100.52C191.96 99.8728 192.465 99.2489 193.127 99.2804L203.381 99.7622C204.162 99.8017 204.832 100.339 205.037 101.089L211.205 123.623C211.378 124.302 210.834 124.95 210.148 124.871Z" fill="#37474F"/>
<path d="M196.274 102.503C196.274 103.009 195.864 103.419 195.359 103.419C194.854 103.419 194.444 103.009 194.444 102.503C194.444 101.998 194.854 101.587 195.359 101.587C195.864 101.587 196.274 101.998 196.274 102.503Z" fill="#263238"/>
<path d="M212.664 110.511C212.664 110.511 209.596 105.172 205.794 103.877L207.317 109.745C207.317 109.745 204.422 109.974 201.149 109.974C197.875 109.974 194.295 107.763 193.23 107.194C192.165 106.618 191.234 110.598 195.352 118.062C199.477 125.534 210.897 120.424 210.897 120.424L212.664 110.511Z" fill="#945959"/>
<path d="M258.985 3.09634L264.696 6.35039V4.32845C264.688 4.18629 264.68 4.04412 264.68 3.90195C264.68 3.75978 264.688 3.62552 264.696 3.49125V3.44386C264.901 0.758476 266.928 -0.268288 269.404 1.16918C270.461 1.77734 271.432 2.74092 272.212 3.87036C272.772 0.229297 275.738 -1.0897 279.327 0.987523C283.31 3.29379 286.543 8.8936 286.543 13.4982V17.8343C286.543 18.5294 286.914 19.177 287.514 19.5325L290.874 21.507C292.356 22.3758 293.263 23.9712 293.263 25.693C293.263 27.2332 291.599 28.1889 290.274 27.4227L259.072 9.37539C257.384 8.39602 256.351 6.59523 256.351 4.64438C256.343 3.278 257.81 2.42499 258.985 3.09634Z" fill="#E6E6E6"/>
<path d="M283.735 39.4674L287.955 41.8764V40.3836C287.947 40.273 287.939 40.1703 287.939 40.0677C287.939 39.965 287.947 39.8623 287.955 39.7675V39.7359C288.105 37.7535 289.603 36.9953 291.441 38.0536C292.222 38.5038 292.94 39.2147 293.523 40.0519C293.934 37.3586 296.134 36.3871 298.784 37.9194C301.734 39.6254 304.124 43.764 304.124 47.176V50.3827C304.124 50.8961 304.4 51.3779 304.842 51.6385L307.326 53.0997C308.422 53.7473 309.093 54.9241 309.093 56.1958C309.093 57.3331 307.862 58.0439 306.876 57.4753L283.798 44.1194C282.552 43.4007 281.779 42.0659 281.779 40.6205C281.779 39.6017 282.86 38.9698 283.735 39.4674Z" fill="#E6E6E6"/>
</g>
<defs>
<clipPath id="clip0">
<rect width="338" height="350" fill="white"/>
</clipPath>
</defs>
</svg>
