<svg width="20" height="19" viewBox="0 0 20 19" fill="none" xmlns="http://www.w3.org/2000/svg">
<path d="M19.0402 11.8484C18.7075 11.8484 18.4375 12.1184 18.4375 12.451V16.6698H1.56253V9.43764H8.192C8.52468 9.43764 8.79468 9.16764 8.79468 8.83496C8.79468 8.50228 8.52468 8.23228 8.192 8.23228H1.56253V5.82157H8.192C8.52468 5.82157 8.79468 5.55157 8.79468 5.21889C8.79468 4.88621 8.52468 4.61621 8.192 4.61621H1.56253C0.897178 4.61621 0.357178 5.15621 0.357178 5.82157V16.6698C0.357178 17.3351 0.897178 17.8751 1.56253 17.8751H18.4375C19.1029 17.8751 19.6429 17.3351 19.6429 16.6698V12.451C19.6429 12.1184 19.3729 11.8484 19.0402 11.8484Z" fill="#C4C4C4" stroke="#C4C4C4" stroke-width="0.3"/>
<path d="M5.78122 11.8481H3.3705C3.03782 11.8481 2.76782 12.1181 2.76782 12.4508C2.76782 12.7835 3.03782 13.0535 3.3705 13.0535H5.78122C6.11389 13.0535 6.38389 12.7835 6.38389 12.4508C6.38389 12.1181 6.11389 11.8481 5.78122 11.8481Z" fill="#C4C4C4" stroke="#C4C4C4" stroke-width="0.3"/>
<path d="M19.2776 2.85595L15.0589 1.04791C14.9058 0.984029 14.7358 0.984029 14.5828 1.04791L10.364 2.85595C10.1434 2.95117 10 3.16934 10 3.41041V5.82113C10 9.13706 11.2258 11.0753 14.5213 12.9737C14.6141 13.0268 14.7178 13.0533 14.8214 13.0533C14.9251 13.0533 15.0287 13.0268 15.1216 12.9737C18.417 11.0801 19.6429 9.14189 19.6429 5.82113V3.41041C19.6429 3.16934 19.4994 2.95117 19.2776 2.85595ZM18.4375 5.82113C18.4375 8.6043 17.5166 10.1363 14.8214 11.7515C12.1263 10.1327 11.2054 8.60068 11.2054 5.82113V3.80818L14.8214 2.25809L18.4375 3.80818V5.82113Z" fill="#C4C4C4" stroke="#C4C4C4" stroke-width="0.3"/>
<path d="M17.0067 4.74732C16.7476 4.54241 16.3691 4.58219 16.1594 4.84134L14.2646 7.21107L13.5148 6.09009C13.328 5.81286 12.9531 5.73933 12.6795 5.92254C12.4035 6.10696 12.3275 6.48183 12.512 6.75786L13.7173 8.56589C13.8246 8.7262 14.0006 8.82504 14.1934 8.83469C14.2019 8.83469 14.2115 8.83469 14.2187 8.83469C14.4008 8.83469 14.5743 8.75272 14.69 8.60808L17.1008 5.59469C17.3081 5.33433 17.2671 4.95585 17.0067 4.74732Z" fill="#C4C4C4" stroke="#C4C4C4" stroke-width="0.3"/>
</svg>
