<svg width="38" height="38" viewBox="0 0 38 38" fill="none" xmlns="http://www.w3.org/2000/svg">
<g clip-path="url(#clip0)">
<path d="M22.6668 9.32528L25.2706 11.2516C25.5637 11.4684 25.4155 11.9481 25.045 11.9504L24.2279 11.9554C24.2271 11.9554 24.2263 11.9554 24.2255 11.9554C24.0153 11.9554 23.8437 11.7853 23.8424 11.5751C23.8386 10.9602 23.3375 10.4637 22.7224 10.4687C22.1075 10.4725 21.6122 10.974 21.6159 11.5888C21.6233 12.7767 22.4276 13.776 23.5176 14.0837V14.1376C23.5176 14.7524 24.0161 15.2508 24.6308 15.2508C25.2456 15.2508 25.744 14.7524 25.744 14.1376V14.0814C26.1778 13.9611 26.5748 13.7299 26.8996 13.4009C27.3896 12.9047 27.657 12.2474 27.6521 11.5484V11.5414C27.6466 10.7248 27.2513 9.94731 26.5947 9.46162L23.9911 7.53543C23.6954 7.31663 23.8507 6.84519 24.2191 6.84519H25.0374C25.2487 6.84519 25.4206 7.01686 25.4206 7.22786C25.4206 7.84269 25.919 8.34114 26.5338 8.34114C27.1486 8.34114 27.647 7.84269 27.647 7.22786C27.647 6.03405 26.8405 5.02557 25.744 4.71667V4.66309C25.744 4.04826 25.2455 3.5498 24.6308 3.5498C24.016 3.5498 23.5175 4.04826 23.5175 4.66309V4.71519C22.4184 5.02238 21.6094 6.03212 21.6094 7.22786C21.6094 8.05132 22.0047 8.83537 22.6668 9.32528V9.32528Z" fill="#FFAA29"/>
<path d="M24.6313 18.8007C29.8161 18.8007 34.0341 14.5838 34.0341 9.40032C34.0341 4.21689 29.816 0 24.6313 0C19.4466 0 15.2285 4.21696 15.2285 9.4004C15.2285 14.5838 19.4466 18.8007 24.6313 18.8007ZM24.6313 2.22656C28.5883 2.22656 31.8076 5.44476 31.8076 9.4004C31.8076 13.356 28.5883 16.5742 24.6313 16.5742C20.6743 16.5742 17.455 13.356 17.455 9.4004C17.455 5.44476 20.6743 2.22656 24.6313 2.22656Z" fill="#FFAA29"/>
<path d="M37.2344 21.3146C36.0304 19.7645 33.8567 19.4729 32.292 20.5584L28.0563 23.3921C27.4676 22.2962 26.3103 21.5491 24.9814 21.5491H21.9598C20.4347 20.1186 18.3985 19.3064 16.2982 19.3064C14.7219 19.3064 13.1885 19.7517 11.8639 20.5942C10.6704 21.3534 9.69409 22.4021 9.02322 23.6403L8.45604 23.9871L8.30909 23.5573C8.11018 22.9756 7.47754 22.6652 6.89582 22.8639L0.753548 24.9628C0.172044 25.1614 -0.138784 25.7946 0.0601221 26.3764L3.77648 37.2467C3.97546 37.8287 4.60832 38.1386 5.18975 37.94L11.332 35.8413C11.8806 35.6538 12.2399 35.0551 12.0131 34.3917L21.7596 34.09C24.4139 34.0864 26.9593 33.2713 29.1214 31.7323L36.4715 26.5042C38.1565 25.3048 38.5044 22.9485 37.2344 21.3146V21.3146ZM5.52314 35.4731L2.52708 26.7097L6.56243 25.3309C6.99713 26.6024 9.10984 32.7819 9.55849 34.0944L5.52314 35.4731ZM35.1807 24.6899L27.8307 29.9181C26.0427 31.1907 23.9372 31.8633 21.7419 31.8633C21.7305 31.8633 21.7189 31.8635 21.7075 31.8639L11.2595 32.1872L9.194 26.1456L10.4494 25.3779C10.4497 25.3777 10.4499 25.3775 10.4502 25.3773C10.635 25.2642 10.7795 25.0981 10.8677 24.9185C11.8923 22.8302 13.9732 21.5328 16.2982 21.5328C17.9784 21.5328 19.5389 22.2055 20.6923 23.4268C20.9048 23.6518 21.2099 23.7754 21.5017 23.7754H24.9814C25.6769 23.7754 26.2428 24.341 26.2428 25.0362C26.2428 25.7241 25.6864 26.2969 24.9814 26.2969H18.7003C18.0855 26.2969 17.5871 26.7954 17.5871 27.4102C17.5871 28.025 18.0856 28.5235 18.7003 28.5235H24.9814C25.9138 28.5235 26.7898 28.1604 27.4473 27.5019C27.9073 27.0421 28.2225 26.4764 28.3712 25.8601L33.5384 22.4032C33.5447 22.399 33.5508 22.3948 33.557 22.3905C34.1663 21.9648 35.0103 22.0807 35.4763 22.6806C35.9677 23.313 35.8334 24.2254 35.1807 24.6899Z" fill="#FFAA29"/>
</g>
<defs>
<clipPath id="clip0">
<rect width="38" height="38" fill="white"/>
</clipPath>
</defs>
</svg>
