<svg width="17" height="15" viewBox="0 0 17 15" fill="none" xmlns="http://www.w3.org/2000/svg">
<path d="M15.3929 9.16957C15.1366 9.16957 14.9286 9.37757 14.9286 9.63386V12.8839H1.92857V7.31243H7.03571C7.292 7.31243 7.5 7.10443 7.5 6.84814C7.5 6.59186 7.292 6.38386 7.03571 6.38386H1.92857V4.52672H7.03571C7.292 4.52672 7.5 4.31872 7.5 4.06243C7.5 3.80614 7.292 3.59814 7.03571 3.59814H1.92857C1.416 3.59814 1 4.01414 1 4.52672V12.8839C1 13.3964 1.416 13.8124 1.92857 13.8124H14.9286C15.4411 13.8124 15.8571 13.3964 15.8571 12.8839V9.63386C15.8571 9.37757 15.6491 9.16957 15.3929 9.16957Z" fill="#777" stroke="#777" stroke-width="0.5"/>
<path d="M5.17861 9.16992H3.32146C3.06518 9.16992 2.85718 9.37792 2.85718 9.63421C2.85718 9.89049 3.06518 10.0985 3.32146 10.0985H5.17861C5.43489 10.0985 5.64289 9.89049 5.64289 9.63421C5.64289 9.37792 5.43489 9.16992 5.17861 9.16992Z" fill="#777" stroke="#777" stroke-width="0.5"/>
<path d="M15.5758 2.24227L12.3258 0.849411C12.2079 0.800196 12.0769 0.800196 11.959 0.849411L8.70902 2.24227C8.53909 2.31563 8.42859 2.4837 8.42859 2.66941V4.52655C8.42859 7.08105 9.37295 8.5742 11.9117 10.0367C11.9832 10.0776 12.063 10.098 12.1429 10.098C12.2227 10.098 12.3026 10.0776 12.3741 10.0367C14.9128 8.57791 15.8572 7.08477 15.8572 4.52655V2.66941C15.8572 2.4837 15.7467 2.31563 15.5758 2.24227ZM14.9286 4.52655C14.9286 6.67063 14.2192 7.85084 12.1429 9.09513C10.0666 7.84805 9.35716 6.66784 9.35716 4.52655V2.97584L12.1429 1.7817L14.9286 2.97584V4.52655Z" fill="#777" stroke="#777" stroke-width="0.5"/>
<path d="M13.8263 3.69926C13.6267 3.5414 13.3351 3.57205 13.1735 3.77169L11.7138 5.59726L11.1363 4.73369C10.9923 4.52012 10.7035 4.46347 10.4928 4.60462C10.2801 4.74669 10.2216 5.03547 10.3637 5.24812L11.2923 6.64097C11.3749 6.76447 11.5105 6.84062 11.659 6.84805C11.6655 6.84805 11.673 6.84805 11.6785 6.84805C11.8188 6.84805 11.9525 6.7849 12.0416 6.67347L13.8988 4.35205C14.0585 4.15147 14.0269 3.8599 13.8263 3.69926Z" fill="#777" stroke="#777" stroke-width="0.5"/>
</svg>
