<svg width="75" height="22" viewBox="0 0 75 22" fill="none" xmlns="http://www.w3.org/2000/svg">
<path d="M57.9755 6.91675H53.9279C53.6898 6.91675 53.4517 7.15484 53.3327 7.39294L51.666 17.8691C51.666 18.1072 51.7851 18.2263 52.0232 18.2263H54.166C54.4041 18.2263 54.5232 18.1072 54.5232 17.8691L54.9993 14.893C54.9993 14.6549 55.2374 14.4168 55.5946 14.4168H56.9041C59.6422 14.4168 61.1898 13.1072 61.547 10.4882C61.7851 9.41675 61.547 8.46437 61.0708 7.86913C60.3565 7.27389 59.2851 6.91675 57.9755 6.91675ZM58.4517 10.8453C58.2136 12.2739 57.1422 12.2739 56.0708 12.2739H55.3565L55.8327 9.5358C55.8327 9.41675 55.9517 9.2977 56.1898 9.2977H56.4279C57.1422 9.2977 57.8565 9.2977 58.2136 9.7739C58.4517 9.89294 58.4517 10.2501 58.4517 10.8453Z" fill="#139AD6"/>
<path d="M28.8095 6.91675H24.7619C24.5238 6.91675 24.2857 7.15484 24.1667 7.39294L22.5 17.8691C22.5 18.1072 22.619 18.2263 22.8571 18.2263H24.7619C25 18.2263 25.2381 17.9882 25.3571 17.7501L25.8333 14.893C25.8333 14.6549 26.0714 14.4168 26.4286 14.4168H27.7381C30.4762 14.4168 32.0238 13.1072 32.381 10.4882C32.619 9.41675 32.3809 8.46437 31.9048 7.86913C31.1905 7.27389 30.2381 6.91675 28.8095 6.91675ZM29.2857 10.8453C29.0476 12.2739 27.9762 12.2739 26.9048 12.2739H26.3095L26.7857 9.5358C26.7857 9.41675 26.9048 9.2977 27.1429 9.2977H27.381C28.0952 9.2977 28.8095 9.2977 29.1667 9.7739C29.2857 9.89294 29.4048 10.2501 29.2857 10.8453Z" fill="#263B80"/>
<path d="M41.0713 10.7264H39.1666C39.0475 10.7264 38.8094 10.8454 38.8094 10.9645L38.6904 11.5597L38.5713 11.3216C38.0951 10.7264 37.2618 10.4883 36.3094 10.4883C34.1666 10.4883 32.2618 12.155 31.9047 14.4169C31.6666 15.6073 32.0237 16.6788 32.6189 17.3931C33.2142 18.1073 34.0475 18.3454 35.1189 18.3454C36.9047 18.3454 37.857 17.274 37.857 17.274L37.738 17.8692C37.738 18.1073 37.857 18.2264 38.0951 18.2264H39.8809C40.119 18.2264 40.357 17.9883 40.4761 17.7502L41.5475 11.0835C41.4285 10.9645 41.1904 10.7264 41.0713 10.7264ZM38.3332 14.5359C38.0951 15.6073 37.2618 16.4407 36.0713 16.4407C35.4761 16.4407 34.9999 16.2026 34.7618 15.9645C34.5237 15.6073 34.4047 15.1311 34.4047 14.5359C34.5237 13.4645 35.4761 12.6311 36.5475 12.6311C37.1428 12.6311 37.4999 12.8692 37.857 13.1073C38.2142 13.4645 38.3332 14.0597 38.3332 14.5359Z" fill="#263B80"/>
<path d="M70.1192 10.7264H68.2144C68.0954 10.7264 67.8573 10.8454 67.8573 10.9645L67.7382 11.5597L67.6192 11.3216C67.143 10.7264 66.3096 10.4883 65.3573 10.4883C63.2144 10.4883 61.3097 12.155 60.9525 14.4169C60.7144 15.6073 61.0716 16.6788 61.6668 17.3931C62.262 18.1073 63.0954 18.3454 64.1668 18.3454C65.9525 18.3454 66.9049 17.274 66.9049 17.274L66.7858 17.8692C66.7858 18.1073 66.9049 18.2264 67.143 18.2264H68.9287C69.1668 18.2264 69.4049 17.9883 69.5239 17.7502L70.5953 11.0835C70.4763 10.9645 70.3573 10.7264 70.1192 10.7264ZM67.3811 14.5359C67.143 15.6073 66.3096 16.4407 65.1192 16.4407C64.5239 16.4407 64.0477 16.2026 63.8096 15.9645C63.5715 15.6073 63.4525 15.1311 63.4525 14.5359C63.5715 13.4645 64.5239 12.6311 65.5954 12.6311C66.1906 12.6311 66.5477 12.8692 66.9049 13.1073C67.3811 13.4645 67.5001 14.0597 67.3811 14.5359Z" fill="#139AD6"/>
<path d="M51.4284 10.7261H49.4046C49.1665 10.7261 49.0474 10.8451 48.9284 10.9642L46.3093 15.0118L45.1189 11.2023C44.9998 10.9642 44.8808 10.8451 44.5236 10.8451H42.6189C42.3808 10.8451 42.2617 11.0832 42.2617 11.3213L44.4046 17.6308L42.3808 20.488C42.2617 20.7261 42.3808 21.0832 42.6189 21.0832H44.5236C44.7617 21.0832 44.8808 20.9641 44.9998 20.8451L51.5475 11.4404C51.9046 11.0832 51.6665 10.7261 51.4284 10.7261Z" fill="#263B80"/>
<path d="M72.3805 7.27406L70.7139 17.9883C70.7139 18.2264 70.8329 18.3455 71.071 18.3455H72.7377C72.9758 18.3455 73.2139 18.1074 73.3329 17.8693L74.9996 7.3931C74.9996 7.15501 74.8805 7.03596 74.6424 7.03596H72.7377C72.6186 6.91691 72.4996 7.03596 72.3805 7.27406Z" fill="#139AD6"/>
<path d="M13.6905 3.34507C12.8571 2.39269 11.3095 1.9165 9.16667 1.9165H3.21429C2.85714 1.9165 2.5 2.27364 2.38095 2.63079L0 18.226C0 18.5832 0.238095 18.8213 0.476191 18.8213H4.16667L5.11905 12.9879V13.226C5.2381 12.8689 5.59524 12.5117 5.95238 12.5117H7.7381C11.1905 12.5117 13.8095 11.0832 14.6429 7.1546C14.6429 7.03555 14.6429 6.9165 14.6429 6.79745C14.5238 6.79745 14.5238 6.79745 14.6429 6.79745C14.7619 5.24984 14.5238 4.29745 13.6905 3.34507Z" fill="#263B80"/>
<path d="M14.5239 6.79785C14.5239 6.9169 14.5239 7.03595 14.5239 7.155C13.6905 11.2026 11.0715 12.5121 7.61909 12.5121H5.83338C5.47624 12.5121 5.11909 12.8693 5.00005 13.2264L3.80957 20.4883C3.80957 20.7264 3.92862 20.9645 4.28576 20.9645H7.381C7.73814 20.9645 8.09528 20.7264 8.09528 20.3693V20.2502L8.69052 16.5598V16.3217C8.69052 15.9645 9.04766 15.7264 9.40481 15.7264H9.881C12.8572 15.7264 15.2381 14.5359 15.8334 10.9645C16.0715 9.53595 15.9524 8.22642 15.2381 7.39309C15.1191 7.15499 14.881 6.9169 14.5239 6.79785Z" fill="#139AD6"/>
<path d="M13.6906 6.44039C13.5715 6.44039 13.4525 6.32135 13.3334 6.32135C13.2144 6.32135 13.0953 6.32135 12.9763 6.2023C12.5001 6.08325 12.0239 6.08325 11.4287 6.08325H6.78581C6.66676 6.08325 6.54771 6.08325 6.42866 6.2023C6.19057 6.32135 6.07152 6.55944 6.07152 6.79754L5.11914 12.988V13.2261C5.23819 12.869 5.59533 12.5118 5.95247 12.5118H7.73819C11.1906 12.5118 13.8096 11.0833 14.643 7.15468C14.643 7.03563 14.6429 6.91658 14.762 6.79754C14.5239 6.67849 14.4049 6.55944 14.1668 6.55944C13.8096 6.44039 13.8096 6.44039 13.6906 6.44039Z" fill="#232C65"/>
</svg>
