<svg width="16" height="16" viewBox="0 0 16 16" fill="none" xmlns="http://www.w3.org/2000/svg">
<path d="M11.5 8H9.5C9.22384 8 9 8.22384 9 8.5V12.5C9 12.7762 9.22384 13 9.5 13H11.5C12.0523 13 12.5 12.5523 12.5 12V9C12.5 8.44772 12.0523 8 11.5 8ZM11.5 12H10V9H11.5V12Z" fill="#A6AAB5"/>
<path d="M16 9V8H13.5C13.2238 8 13 8.22384 13 8.5V13H14V11H16V10H14V9H16Z" fill="#A6AAB5"/>
<path d="M1 14.4998V1.49976C1 1.22361 1.22384 0.999763 1.5 0.999763H9V2.99976C9 3.55204 9.44772 3.99976 10 3.99976H12V5.49976H13V3.49976C13.0008 3.36686 12.9486 3.23911 12.855 3.14476L9.855 0.144764C9.76065 0.0511701 9.6329 -0.000986162 9.5 -0.000236163H1.5C0.671562 -0.000236163 0 0.671357 0 1.49976V14.4998C0 15.3282 0.671562 15.9998 1.5 15.9998H5V14.9998H1.5C1.22387 14.9998 1 14.7759 1 14.4998Z" fill="#A6AAB5"/>
<path d="M7.5 8H5.5C5.22384 8 5 8.22384 5 8.5V13H6V11.5H7.5C8.05228 11.5 8.5 11.0523 8.5 10.5V9C8.5 8.44772 8.05228 8 7.5 8ZM7.5 10.5H6V9H7.5V10.5Z" fill="#A6AAB5"/>
</svg>
