<svg width="42" height="42" viewBox="0 0 42 42" fill="none" xmlns="http://www.w3.org/2000/svg">
<path d="M21 41C17.0444 41 13.1776 39.827 9.8886 37.6294C6.59962 35.4317 4.03617 32.3082 2.52242 28.6536C1.00867 24.9991 0.612599 20.9778 1.3843 17.0982C2.15601 13.2186 4.06082 9.65491 6.85787 6.85787C9.65492 4.06082 13.2186 2.15601 17.0982 1.3843C20.9778 0.6126 24.9991 1.00867 28.6537 2.52242C32.3082 4.03617 35.4318 6.59961 37.6294 9.88859C39.827 13.1776 41 17.0444 41 21C40.9917 22.479 40.8325 23.9533 40.525 25.4C40.4889 25.5641 40.4208 25.7196 40.3246 25.8574C40.2284 25.9952 40.106 26.1128 39.9644 26.2033C39.8228 26.2939 39.6648 26.3556 39.4993 26.3851C39.3338 26.4145 39.1642 26.4111 39 26.375C38.8358 26.3389 38.6804 26.2708 38.5426 26.1746C38.4047 26.0784 38.2872 25.956 38.1967 25.8144C38.1061 25.6728 38.0444 25.5147 38.0149 25.3493C37.9855 25.1838 37.9889 25.0141 38.025 24.85C38.3216 23.5875 38.4808 22.2967 38.5 21C38.4973 17.1799 37.2447 13.4657 34.9334 10.4241C32.622 7.38263 29.379 5.18095 25.6992 4.15516C22.0194 3.12937 18.1051 3.33582 14.5536 4.743C11.0022 6.15018 8.00872 8.68078 6.03017 11.9485C4.05161 15.2163 3.19666 19.0417 3.5958 22.8409C3.99494 26.6401 5.62625 30.2043 8.24074 32.9895C10.8552 35.7747 14.3092 37.6279 18.0756 38.2663C21.842 38.9047 25.7138 38.2931 29.1 36.525C29.2458 36.4252 29.411 36.3574 29.5849 36.3262C29.7587 36.2949 29.9372 36.3009 30.1086 36.3436C30.28 36.3863 30.4404 36.4649 30.5792 36.5742C30.718 36.6834 30.832 36.8208 30.9139 36.9774C30.9957 37.1339 31.0434 37.306 31.0539 37.4823C31.0643 37.6587 31.0373 37.8352 30.9746 38.0003C30.9119 38.1655 30.8149 38.3154 30.69 38.4403C30.5651 38.5652 30.4151 38.6622 30.25 38.725C27.3981 40.2257 24.2227 41.0067 21 41Z" fill="#FF0000" stroke="#FF0000"/>
<path d="M34 35C33.7348 35 33.4804 34.842 33.2929 34.5607C33.1054 34.2794 33 33.8978 33 33.5V21.5C33 21.1022 33.1054 20.7206 33.2929 20.4393C33.4804 20.158 33.7348 20 34 20C34.2652 20 34.5196 20.158 34.7071 20.4393C34.8946 20.7206 35 21.1022 35 21.5V33.5C35 33.8978 34.8946 34.2794 34.7071 34.5607C34.5196 34.842 34.2652 35 34 35Z" fill="#FF0000" stroke="#FF0000"/>
<path d="M22.9997 22.3C23.0073 22.2335 23.0073 22.1665 22.9997 22.1C22.9997 22.1 22.9997 22.1 22.9997 22V12C22.9997 11.7348 22.8944 11.4804 22.7068 11.2929C22.5193 11.1054 22.265 11 21.9997 11C21.7345 11 21.4802 11.1054 21.2926 11.2929C21.1051 11.4804 20.9997 11.7348 20.9997 12V21.46L15.4397 25.16C15.2192 25.3103 15.0663 25.5411 15.014 25.8028C14.9616 26.0646 15.0139 26.3364 15.1597 26.56C15.2548 26.6947 15.3806 26.8048 15.5267 26.8813C15.6727 26.9578 15.8349 26.9985 15.9997 27C16.1971 26.9961 16.3901 26.9409 16.5597 26.84L22.5597 22.84L22.6997 22.7L22.8197 22.54L22.9997 22.3Z" fill="#FF0000" stroke="#FF0000"/>
<path d="M34.0001 39.0001C33.8044 38.9973 33.6138 38.9372 33.4519 38.8271C33.29 38.7171 33.164 38.5619 33.0895 38.3809C33.015 38.1999 32.9952 38.001 33.0326 37.8089C33.0701 37.6168 33.1631 37.4399 33.3001 37.3001C33.4373 37.1593 33.6137 37.0631 33.8063 37.0239C33.9988 36.9846 34.1988 37.0042 34.3801 37.0801C34.5049 37.1227 34.6156 37.1988 34.7001 37.3001C34.7958 37.3899 34.872 37.4983 34.9241 37.6187C34.9763 37.7391 35.0031 37.8689 35.0031 38.0001C35.0031 38.1313 34.9763 38.2611 34.9241 38.3815C34.872 38.5019 34.7958 38.6103 34.7001 38.7001C34.6156 38.8013 34.5049 38.8774 34.3801 38.9201C34.2617 38.9768 34.1314 39.0042 34.0001 39.0001V39.0001Z" fill="#FF0000" stroke="#FF0000"/>
</svg>
