<svg width="40" height="40" viewBox="0 0 40 40" fill="none" xmlns="http://www.w3.org/2000/svg">
<path d="M31.4153 24.7786C30.6008 23.9259 29.6183 23.4701 28.577 23.4701C27.5442 23.4701 26.5533 23.9175 25.7051 24.7702L23.0516 27.4295C22.8333 27.3113 22.6149 27.2015 22.405 27.0918C22.1027 26.9398 21.8172 26.7963 21.5737 26.6444C19.0881 25.0572 16.8292 22.9889 14.6627 20.3126C13.613 18.9788 12.9076 17.8559 12.3954 16.7162C13.084 16.0831 13.7222 15.4246 14.3436 14.7914C14.5787 14.555 14.8138 14.3102 15.049 14.0738C16.8124 12.3009 16.8124 10.0046 15.049 8.23175L12.7565 5.92701C12.4962 5.6653 12.2275 5.39515 11.9755 5.125C11.4717 4.60158 10.9427 4.06127 10.3968 3.55473C9.5823 2.74428 8.60821 2.31372 7.58374 2.31372C6.55927 2.31372 5.56838 2.74428 4.72865 3.55473C4.72026 3.56318 4.72026 3.56318 4.71186 3.57162L1.85677 6.46732C0.781915 7.54793 0.168911 8.86493 0.0345537 10.393C-0.166982 12.8581 0.555187 15.1544 1.10941 16.6571C2.46978 20.3464 4.50193 23.7655 7.53336 27.4295C11.2114 31.8448 15.6368 35.3315 20.6919 37.7882C22.6233 38.7084 25.2013 39.7974 28.0816 39.9831C28.2579 39.9916 28.4427 40 28.6106 40C30.5504 40 32.1795 39.2993 33.4559 37.9063C33.4643 37.8895 33.4811 37.881 33.4895 37.8641C33.9261 37.3323 34.43 36.8511 34.959 36.3361C35.3201 35.99 35.6896 35.6269 36.0506 35.247C36.882 34.3775 37.3186 33.3644 37.3186 32.326C37.3186 31.2792 36.8736 30.2745 36.0254 29.4303L31.4153 24.7786ZM34.4216 33.6683C34.4132 33.6683 34.4132 33.6768 34.4216 33.6683C34.0941 34.0229 33.7582 34.3437 33.3971 34.6983C32.8513 35.2217 32.297 35.7705 31.7764 36.3867C30.9283 37.2985 29.929 37.7291 28.619 37.7291C28.4931 37.7291 28.3587 37.7291 28.2327 37.7206C25.7387 37.5602 23.4211 36.5809 21.6828 35.7451C16.93 33.4319 12.7565 30.1479 9.2884 25.9859C6.42491 22.5161 4.51032 19.308 3.24233 15.8636C2.46138 13.7614 2.17587 12.1236 2.30183 10.5787C2.3858 9.59096 2.76368 8.77206 3.46066 8.07135L6.32414 5.19254C6.73561 4.80419 7.17227 4.59313 7.60054 4.59313C8.12957 4.59313 8.55783 4.91394 8.82654 5.18409C8.83494 5.19254 8.84334 5.20098 8.85174 5.20942C9.36397 5.69063 9.85102 6.18872 10.3633 6.72059C10.6236 6.99074 10.8923 7.26089 11.161 7.53949L13.4535 9.84423C14.3436 10.7391 14.3436 11.5665 13.4535 12.4613C13.2099 12.7062 12.9748 12.951 12.7313 13.1874C12.0259 13.9134 11.3541 14.5888 10.6236 15.2473C10.6068 15.2642 10.59 15.2726 10.5816 15.2895C9.85941 16.0155 9.99377 16.7247 10.1449 17.2059C10.1533 17.2312 10.1617 17.2565 10.1701 17.2819C10.7663 18.7339 11.6061 20.1016 12.8824 21.731L12.8908 21.7394C15.2085 24.6098 17.6521 26.847 20.3477 28.5608C20.6919 28.7803 21.0446 28.9575 21.3805 29.1264C21.6828 29.2783 21.9683 29.4219 22.2119 29.5738C22.2455 29.5907 22.279 29.616 22.3126 29.6329C22.5981 29.7764 22.8669 29.844 23.144 29.844C23.8409 29.844 24.2776 29.405 24.4204 29.2615L27.2922 26.3742C27.5777 26.0872 28.0312 25.741 28.5602 25.741C29.0809 25.741 29.5091 26.0703 29.7694 26.3573C29.7778 26.3658 29.7778 26.3658 29.7862 26.3742L34.4132 31.0259C35.2781 31.887 35.2781 32.7734 34.4216 33.6683Z" fill="#A1A3A9"/>
<path d="M21.4722 9.51481C23.6723 9.88627 25.6708 10.9331 27.2663 12.5371C28.8618 14.1412 29.8947 16.1504 30.2726 18.3623C30.3649 18.9195 30.8436 19.3078 31.3894 19.3078C31.4566 19.3078 31.5154 19.2994 31.5825 19.291C32.2039 19.1897 32.6154 18.5987 32.5146 17.974C32.0612 15.2978 30.8016 12.858 28.8786 10.9247C26.9556 8.99139 24.5288 7.72505 21.8669 7.26916C21.2455 7.16786 20.666 7.58153 20.5569 8.19781C20.4477 8.8141 20.8508 9.4135 21.4722 9.51481Z" fill="#A1A3A9"/>
<path d="M39.7117 17.6448C38.9643 13.238 36.8986 9.2279 33.7244 6.03672C30.5502 2.84554 26.5615 0.768738 22.1781 0.0173755C21.5651 -0.0923741 20.9857 0.32974 20.8765 0.946026C20.7757 1.57075 21.1872 2.15327 21.8086 2.26302C25.7217 2.92996 29.2906 4.7957 32.1289 7.64075C34.9672 10.4942 36.8146 14.0822 37.478 18.0163C37.5704 18.5735 38.049 18.9618 38.5948 18.9618C38.662 18.9618 38.7208 18.9534 38.788 18.945C39.401 18.8521 39.8208 18.2611 39.7117 17.6448Z" fill="#A1A3A9"/>
</svg>
