<svg width="18" height="18" viewBox="0 0 18 18" fill="none" xmlns="http://www.w3.org/2000/svg">
<path d="M9 0C4.0293 0 0 4.02946 0 9C0 13.9705 4.0293 18 9 18C13.9706 18 18 13.9705 18 9C18 4.02946 13.9706 0 9 0ZM8.98057 14.9088C8.31489 14.9088 7.77335 14.3672 7.77335 13.7015C7.77335 13.0359 8.31489 12.4943 8.98057 12.4943C9.64631 12.4943 10.1879 13.0359 10.1879 13.7015C10.1879 14.3672 9.64631 14.9088 8.98057 14.9088ZM10.8718 8.98195C10.3501 9.47012 10.0054 9.79258 10.0054 10.5735V11.1511C10.0054 11.2973 9.88687 11.4158 9.74065 11.4158H8.30478C8.15855 11.4158 8.04007 11.2973 8.04007 11.1511V10.5735C8.04007 8.96972 8.87358 8.18709 9.48214 7.61564C10.0002 7.12969 10.3423 6.80871 10.3423 6.03916C10.3423 5.79611 10.3423 5.05646 9.02276 5.05646C7.78553 5.05646 7.73598 5.73851 7.71485 6.02974L7.67181 6.62194C7.66657 6.69319 7.63285 6.75937 7.57805 6.80532C7.52347 6.85138 7.45248 6.87319 7.38138 6.8661L5.94926 6.72279C5.80632 6.70849 5.70092 6.58276 5.71166 6.4395L5.75396 5.87764C5.88155 4.18489 7.17009 3.09113 9.03664 3.09113C10.0128 3.09113 10.8341 3.36515 11.4118 3.88355C11.9977 4.40931 12.3075 5.15954 12.3075 6.05308C12.3076 7.63756 11.4778 8.41458 10.8718 8.98195Z" fill="#C4C4C4"/>
</svg>
