<svg width="627" height="567" viewBox="0 0 627 567" fill="none" xmlns="http://www.w3.org/2000/svg">
<path d="M509.865 228.117C476.486 203.196 424.207 179.627 366.432 163.455C313.827 148.73 262.519 141.62 221.947 143.436L221.736 138.724C262.791 136.887 314.632 144.057 367.707 158.913C426.02 175.237 478.866 199.084 512.693 224.34L509.865 228.117Z" fill="#F26A1D"/>
<path d="M506.4 247.313C506.43 269.393 501.795 291.23 492.798 311.399C492.047 313.088 491.265 314.761 490.451 316.418C474.803 348.427 448.757 374.195 416.561 389.522C384.366 404.848 347.92 408.827 313.169 400.81C278.418 392.792 247.413 373.252 225.21 345.376C203.007 317.5 190.917 282.933 190.912 247.313C190.912 243.667 191.036 240.049 191.285 236.459C191.403 234.634 191.556 232.82 191.743 231.016C195.926 190.863 215.384 153.845 246.101 127.602C276.817 101.359 316.449 87.8938 356.818 89.9845C397.186 92.0753 435.211 109.563 463.045 138.838C490.879 168.113 506.398 206.942 506.4 247.313H506.4Z" fill="#AEDBFD"/>
<path opacity="0.1" d="M492.798 311.399C492.047 313.088 491.265 314.761 490.451 316.418C485.841 316.918 480.989 317.281 475.895 317.508C471.677 317.696 467.337 317.791 462.902 317.791C424.165 317.791 377.546 310.649 329.92 297.32C276.845 282.462 228.827 261.68 194.709 238.799C193.547 238.021 192.406 237.241 191.285 236.46C191.403 234.634 191.556 232.82 191.743 231.017C193.552 232.304 195.417 233.593 197.34 234.884C231.056 257.492 278.592 278.052 331.195 292.778C378.405 305.994 424.586 313.074 462.879 313.074C467.257 313.074 471.525 312.981 475.682 312.796C481.737 312.522 487.442 312.057 492.798 311.399Z" fill="black"/>
<path d="M462.903 314.018C424.167 314.019 377.545 306.877 329.921 293.546C276.846 278.69 228.827 257.907 194.708 235.026C159.878 211.669 143.545 188.653 148.719 170.219C153.892 151.785 179.823 140.599 221.735 138.724L221.947 143.436C202.374 144.312 186.423 147.217 174.537 152.071C162.681 156.913 155.524 163.447 153.266 171.492C151.008 179.536 153.722 188.833 161.332 199.125C168.96 209.441 181.076 220.203 197.341 231.111C231.054 253.719 278.591 274.28 331.196 289.005C378.407 302.22 424.584 309.302 462.88 309.303C467.256 309.303 471.523 309.21 475.681 309.024C495.254 308.148 511.204 305.243 523.091 300.389C534.948 295.547 542.104 289.013 544.362 280.968C548.416 266.523 536.165 247.753 509.865 228.117L512.693 224.34C526.227 234.444 536.245 244.405 542.47 253.943C549.143 264.169 551.309 273.69 548.91 282.241C543.736 300.675 517.805 311.86 475.893 313.736C471.675 313.925 467.338 314.018 462.903 314.018Z" fill="#F26A1D"/>
<path d="M352.829 61.3605C353.827 61.3605 354.636 60.5523 354.636 59.5553C354.636 58.5582 353.827 57.75 352.829 57.75C351.831 57.75 351.021 58.5582 351.021 59.5553C351.021 60.5523 351.831 61.3605 352.829 61.3605Z" fill="#F2F2F2"/>
<path d="M113.022 139.697C114.739 139.697 116.131 138.306 116.131 136.591C116.131 134.876 114.739 133.485 113.022 133.485C111.304 133.485 109.912 134.876 109.912 136.591C109.912 138.306 111.304 139.697 113.022 139.697Z" fill="#AEDBFD"/>
<path d="M106.394 264.28C109.786 264.28 112.537 261.533 112.537 258.144C112.537 254.756 109.786 252.009 106.394 252.009C103.001 252.009 100.251 254.756 100.251 258.144C100.251 261.533 103.001 264.28 106.394 264.28Z" fill="#AEDBFD"/>
<path d="M475.143 74.4762C477.404 74.4762 479.237 72.6455 479.237 70.3873C479.237 68.129 477.404 66.2983 475.143 66.2983C472.881 66.2983 471.048 68.129 471.048 70.3873C471.048 72.6455 472.881 74.4762 475.143 74.4762Z" fill="#AEDBFD"/>
<path d="M620.353 246.731C624.024 246.731 627 243.758 627 240.092C627 236.425 624.024 233.453 620.353 233.453C616.681 233.453 613.705 236.425 613.705 240.092C613.705 243.758 616.681 246.731 620.353 246.731Z" fill="#AEDBFD"/>
<path d="M568.373 136.907C569.948 136.907 571.225 135.632 571.225 134.059C571.225 132.486 569.948 131.21 568.373 131.21C566.798 131.21 565.521 132.486 565.521 134.059C565.521 135.632 566.798 136.907 568.373 136.907Z" fill="#AEDBFD"/>
<path d="M222.08 101.909C224.537 101.909 226.529 99.9196 226.529 97.4655C226.529 95.0114 224.537 93.022 222.08 93.022C219.622 93.022 217.63 95.0114 217.63 97.4655C217.63 99.9196 219.622 101.909 222.08 101.909Z" fill="#AEDBFD"/>
<path d="M558.391 229.479C559.966 229.479 561.243 228.204 561.243 226.631C561.243 225.057 559.966 223.782 558.391 223.782C556.815 223.782 555.538 225.057 555.538 226.631C555.538 228.204 556.815 229.479 558.391 229.479Z" fill="#AEDBFD"/>
<path d="M3.54976 240.656C5.51024 240.656 7.09952 239.069 7.09952 237.111C7.09952 235.153 5.51024 233.565 3.54976 233.565C1.58928 233.565 0 235.153 0 237.111C0 239.069 1.58928 240.656 3.54976 240.656Z" fill="#AEDBFD"/>
<path d="M57.4775 182.608C59.6006 182.608 61.3217 180.889 61.3217 178.768C61.3217 176.648 59.6006 174.929 57.4775 174.929C55.3544 174.929 53.6333 176.648 53.6333 178.768C53.6333 180.889 55.3544 182.608 57.4775 182.608Z" fill="#AEDBFD"/>
<path d="M304.307 7.57587H296.722V0H292.652V7.57587H285.062V11.6443H292.652V19.2201H296.722V11.6443H304.307V7.57587Z" fill="#AEDBFD"/>
<path d="M480.28 417.524H475.515V412.768H472.961V417.524H468.197V420.077H472.961V424.834H475.515V420.077H480.28V417.524Z" fill="#CCCCCC"/>
<path d="M590.224 393.174H586.663V389.618H584.751V393.174H581.19V395.084H584.751V398.64H586.663V395.084H590.224V393.174Z" fill="#AEDBFD"/>
<path opacity="0.1" d="M249.194 234.074C256.514 234.074 262.449 228.147 262.449 220.836C262.449 213.524 256.514 207.597 249.194 207.597C241.873 207.597 235.938 213.524 235.938 220.836C235.938 228.147 241.873 234.074 249.194 234.074Z" fill="black"/>
<path opacity="0.1" d="M395.609 367.061C402.929 367.061 408.864 361.134 408.864 353.822C408.864 346.511 402.929 340.584 395.609 340.584C388.288 340.584 382.353 346.511 382.353 353.822C382.353 361.134 388.288 367.061 395.609 367.061Z" fill="black"/>
<path opacity="0.1" d="M351.021 254.534C358.342 254.534 364.277 248.607 364.277 241.295C364.277 233.984 358.342 228.057 351.021 228.057C343.7 228.057 337.766 233.984 337.766 241.295C337.766 248.607 343.7 254.534 351.021 254.534Z" fill="black"/>
<path opacity="0.1" d="M255.821 327.346C263.142 327.346 269.077 321.418 269.077 314.107C269.077 306.796 263.142 300.869 255.821 300.869C248.5 300.869 242.566 306.796 242.566 314.107C242.566 321.418 248.5 327.346 255.821 327.346Z" fill="black"/>
<path opacity="0.1" d="M422.12 183.527C429.441 183.527 435.376 177.6 435.376 170.289C435.376 162.977 429.441 157.05 422.12 157.05C414.799 157.05 408.864 162.977 408.864 170.289C408.864 177.6 414.799 183.527 422.12 183.527Z" fill="black"/>
<path opacity="0.1" d="M466.105 273.188C473.426 273.188 479.36 267.261 479.36 259.949C479.36 252.638 473.426 246.711 466.105 246.711C458.784 246.711 452.849 252.638 452.849 259.949C452.849 267.261 458.784 273.188 466.105 273.188Z" fill="black"/>
<path d="M422.12 132.379C431.77 132.379 439.593 124.566 439.593 114.928C439.593 105.29 431.77 97.4771 422.12 97.4771C412.47 97.4771 404.647 105.29 404.647 114.928C404.647 124.566 412.47 132.379 422.12 132.379Z" fill="white"/>
<path d="M422.12 89.6543C415.568 89.6543 409.285 92.2537 404.652 96.8805C400.019 101.507 397.416 107.783 397.416 114.326C397.416 127.952 422.12 172.696 422.12 172.696C422.12 172.696 446.824 127.952 446.824 114.326C446.824 107.783 444.221 101.507 439.588 96.8805C434.955 92.2537 428.672 89.6543 422.12 89.6543ZM422.12 126.361C419.856 126.361 417.642 125.69 415.76 124.434C413.877 123.178 412.41 121.392 411.543 119.303C410.677 117.214 410.45 114.915 410.892 112.697C411.334 110.479 412.424 108.442 414.025 106.843C415.626 105.244 417.666 104.155 419.887 103.714C422.107 103.273 424.409 103.499 426.501 104.365C428.593 105.23 430.381 106.696 431.639 108.576C432.897 110.456 433.568 112.666 433.568 114.928C433.568 116.429 433.272 117.916 432.697 119.303C432.121 120.69 431.278 121.951 430.215 123.012C429.152 124.074 427.89 124.916 426.501 125.491C425.112 126.065 423.623 126.361 422.12 126.361Z" fill="#0D97FF"/>
<path d="M249.125 179.713C258.775 179.713 266.598 171.9 266.598 162.262C266.598 152.624 258.775 144.812 249.125 144.812C239.475 144.812 231.652 152.624 231.652 162.262C231.652 171.9 239.475 179.713 249.125 179.713Z" fill="white"/>
<path d="M249.125 136.989C242.573 136.989 236.29 139.588 231.657 144.215C227.024 148.842 224.421 155.117 224.421 161.66C224.421 175.286 249.125 220.03 249.125 220.03C249.125 220.03 273.829 175.286 273.829 161.66C273.829 155.117 271.226 148.842 266.593 144.215C261.96 139.588 255.677 136.989 249.125 136.989V136.989ZM249.125 173.696C246.861 173.696 244.647 173.025 242.765 171.769C240.882 170.512 239.415 168.727 238.548 166.638C237.682 164.548 237.455 162.25 237.897 160.032C238.339 157.814 239.429 155.777 241.03 154.178C242.631 152.579 244.671 151.49 246.892 151.049C249.112 150.607 251.414 150.834 253.506 151.699C255.598 152.565 257.386 154.03 258.644 155.91C259.902 157.79 260.573 160.001 260.573 162.262C260.573 163.764 260.277 165.25 259.702 166.638C259.126 168.025 258.283 169.285 257.22 170.347C256.157 171.408 254.895 172.251 253.506 172.825C252.117 173.4 250.628 173.696 249.125 173.696V173.696Z" fill="#F26A1D"/>
<path d="M468.331 219.947C477.981 219.947 485.804 212.134 485.804 202.497C485.804 192.859 477.981 185.046 468.331 185.046C458.681 185.046 450.858 192.859 450.858 202.497C450.858 212.134 458.681 219.947 468.331 219.947Z" fill="white"/>
<path d="M468.331 177.223C461.779 177.223 455.496 179.823 450.863 184.449C446.23 189.076 443.627 195.352 443.627 201.895C443.627 215.521 468.331 260.265 468.331 260.265C468.331 260.265 493.035 215.521 493.035 201.895C493.035 195.352 490.432 189.076 485.799 184.449C481.166 179.823 474.883 177.223 468.331 177.223V177.223ZM468.331 213.93C466.067 213.93 463.853 213.259 461.971 212.003C460.088 210.747 458.621 208.961 457.754 206.872C456.888 204.783 456.661 202.484 457.103 200.266C457.544 198.048 458.635 196.011 460.236 194.412C461.837 192.813 463.877 191.724 466.097 191.283C468.318 190.842 470.62 191.068 472.712 191.934C474.804 192.799 476.592 194.264 477.85 196.145C479.108 198.025 479.779 200.235 479.779 202.497C479.779 203.998 479.483 205.485 478.908 206.872C478.332 208.259 477.489 209.519 476.426 210.581C475.363 211.643 474.101 212.485 472.712 213.06C471.323 213.634 469.834 213.93 468.331 213.93Z" fill="#CCCCCC"/>
<path d="M172.107 307.516C181.757 307.516 189.58 299.703 189.58 290.065C189.58 280.427 181.757 272.614 172.107 272.614C162.457 272.614 154.633 280.427 154.633 290.065C154.633 299.703 162.457 307.516 172.107 307.516Z" fill="white"/>
<path d="M172.107 264.792C165.555 264.792 159.271 267.391 154.639 272.018C150.006 276.645 147.403 282.92 147.403 289.464C147.403 303.089 172.107 347.833 172.107 347.833C172.107 347.833 196.81 303.089 196.81 289.464C196.81 282.92 194.208 276.645 189.575 272.018C184.942 267.391 178.659 264.792 172.107 264.792ZM172.107 301.499C169.843 301.499 167.629 300.828 165.747 299.572C163.864 298.316 162.397 296.53 161.53 294.441C160.664 292.352 160.437 290.053 160.879 287.835C161.32 285.617 162.411 283.58 164.012 281.981C165.613 280.382 167.653 279.293 169.873 278.852C172.094 278.411 174.396 278.637 176.488 279.502C178.58 280.368 180.368 281.833 181.626 283.713C182.883 285.594 183.555 287.804 183.555 290.065C183.555 291.567 183.259 293.054 182.683 294.441C182.108 295.828 181.265 297.088 180.202 298.15C179.139 299.212 177.877 300.054 176.488 300.628C175.099 301.203 173.61 301.499 172.107 301.499V301.499Z" fill="#0D97FF"/>
<path d="M574.307 430.187C577.699 427.351 573.115 416.304 564.069 405.514C555.023 394.723 544.94 388.275 541.548 391.111C538.156 393.947 542.74 404.994 551.786 415.785C560.832 426.575 570.916 433.023 574.307 430.187Z" fill="#2F2E41"/>
<path d="M503.651 452.764C531.834 452.764 554.681 429.947 554.681 401.8C554.681 373.653 531.834 350.836 503.651 350.836C475.468 350.836 452.621 373.653 452.621 401.8C452.621 429.947 475.468 452.764 503.651 452.764Z" fill="#2F2E41"/>
<path d="M525.25 441.797H509.747V469.537H525.25V441.797Z" fill="#2F2E41"/>
<path d="M494.244 441.797H478.742V469.537H494.244V441.797Z" fill="#2F2E41"/>
<path d="M512.331 474.698C519.466 474.698 525.25 472.532 525.25 469.859C525.25 467.187 519.466 465.021 512.331 465.021C505.196 465.021 499.412 467.187 499.412 469.859C499.412 472.532 505.196 474.698 512.331 474.698Z" fill="#2F2E41"/>
<path d="M481.325 474.053C488.46 474.053 494.244 471.887 494.244 469.214C494.244 466.542 488.46 464.376 481.325 464.376C474.19 464.376 468.406 466.542 468.406 469.214C468.406 471.887 474.19 474.053 481.325 474.053Z" fill="#2F2E41"/>
<path d="M487.628 337.737C492.184 319.41 512.298 308.625 532.553 313.648C552.808 318.671 565.534 337.6 560.977 355.926C556.42 374.253 541.303 374.312 521.048 369.289C500.793 364.266 483.071 356.063 487.628 337.737Z" fill="#0D97FF"/>
<path d="M469.227 389.072C471.123 385.08 462.338 376.955 449.606 370.924C436.874 364.893 425.016 363.24 423.12 367.232C421.224 371.224 430.009 379.349 442.741 385.38C455.473 391.411 467.332 393.064 469.227 389.072Z" fill="#2F2E41"/>
<path d="M496.022 408.038C505.418 408.038 513.035 400.43 513.035 391.046C513.035 381.662 505.418 374.055 496.022 374.055C486.626 374.055 479.008 381.662 479.008 391.046C479.008 400.43 486.626 408.038 496.022 408.038Z" fill="white"/>
<path d="M489.029 390.62C492.161 390.62 494.701 388.084 494.701 384.956C494.701 381.828 492.161 379.292 489.029 379.292C485.897 379.292 483.358 381.828 483.358 384.956C483.358 388.084 485.897 390.62 489.029 390.62Z" fill="#F26A1D"/>
<path d="M506.695 426.447C506.961 427.91 506.937 429.412 506.623 430.866C506.308 432.32 505.71 433.698 504.863 434.921C504.015 436.145 502.935 437.189 501.683 437.995C500.431 438.801 499.033 439.354 497.567 439.62C496.102 439.886 494.598 439.862 493.142 439.548C491.686 439.234 490.306 438.637 489.082 437.79C487.857 436.944 486.811 435.865 486.004 434.615C485.196 433.364 484.644 431.968 484.377 430.504V430.504L484.373 430.482C483.257 424.326 488.023 422.148 494.187 421.034C500.351 419.919 505.579 420.291 506.695 426.447Z" fill="white"/>
<path d="M398.556 293.531C393.307 289.108 386.885 286.303 380.07 285.459C373.254 284.615 366.34 285.768 360.169 288.777C353.997 291.785 348.835 296.521 345.309 302.406C341.783 308.292 340.046 315.074 340.31 321.928C340.573 328.781 342.826 335.411 346.793 341.009C350.76 346.607 356.271 350.933 362.655 353.461C369.04 355.988 376.022 356.608 382.752 355.245C389.482 353.881 395.671 350.594 400.565 345.782L444.019 382.401C444.68 382.958 445.536 383.23 446.398 383.158C447.261 383.085 448.059 382.674 448.617 382.014C449.176 381.354 449.449 380.5 449.378 379.638C449.306 378.777 448.895 377.98 448.234 377.421L448.229 377.417L404.775 340.798C409.823 333.562 411.984 324.705 410.833 315.961C409.683 307.218 405.304 299.218 398.556 293.531V293.531ZM395.755 337.272C392.369 341.279 387.87 344.193 382.827 345.646C377.783 347.099 372.421 347.026 367.419 345.436C362.417 343.846 357.999 340.81 354.725 336.712C351.45 332.615 349.466 327.639 349.023 322.415C348.58 317.192 349.698 311.954 352.235 307.364C354.773 302.775 358.616 299.04 363.279 296.632C367.942 294.224 373.215 293.251 378.432 293.836C383.648 294.421 388.574 296.538 392.586 299.919V299.919C397.966 304.453 401.322 310.935 401.916 317.94C402.511 324.945 400.294 331.899 395.755 337.272V337.272Z" fill="#F26A1D"/>
<path opacity="0.3" d="M358.353 340.436C353.262 336.145 349.972 330.099 349.138 323.497C348.303 316.896 349.985 310.222 353.85 304.802C353.342 305.313 352.851 305.847 352.378 306.406C350.13 309.066 348.429 312.143 347.372 315.46C346.315 318.777 345.922 322.269 346.216 325.738C346.51 329.206 347.486 332.583 349.087 335.675C350.687 338.767 352.883 341.514 355.546 343.759C358.21 346.004 361.291 347.702 364.612 348.758C367.933 349.814 371.43 350.206 374.903 349.912C378.376 349.619 381.757 348.644 384.853 347.046C387.95 345.447 390.7 343.255 392.948 340.594C393.42 340.035 393.865 339.462 394.283 338.876C389.583 343.592 383.279 346.37 376.623 346.659C369.967 346.948 363.446 344.727 358.353 340.436V340.436Z" fill="black"/>
<path d="M175.345 366.171C180.376 353.025 181.105 341.089 176.973 339.512C172.841 337.935 165.412 347.313 160.381 360.459C155.35 373.604 154.621 385.54 158.753 387.117C162.886 388.695 170.314 379.317 175.345 366.171Z" fill="#2F2E41"/>
<path d="M120.696 452.764C148.879 452.764 171.726 429.947 171.726 401.8C171.726 373.653 148.879 350.836 120.696 350.836C92.5125 350.836 69.6654 373.653 69.6654 401.8C69.6654 429.947 92.5125 452.764 120.696 452.764Z" fill="#2F2E41"/>
<path d="M112.944 441.797H97.4415V469.537H112.944V441.797Z" fill="#2F2E41"/>
<path d="M143.95 441.797H128.447V469.537H143.95V441.797Z" fill="#2F2E41"/>
<path d="M110.361 474.698C117.496 474.698 123.28 472.532 123.28 469.859C123.28 467.187 117.496 465.021 110.361 465.021C103.226 465.021 97.4415 467.187 97.4415 469.859C97.4415 472.532 103.226 474.698 110.361 474.698Z" fill="#2F2E41"/>
<path d="M141.366 474.053C148.501 474.053 154.285 471.887 154.285 469.214C154.285 466.542 148.501 464.376 141.366 464.376C134.231 464.376 128.447 466.542 128.447 469.214C128.447 471.887 134.231 474.053 141.366 474.053Z" fill="#2F2E41"/>
<path d="M121.988 406.316C131.62 406.316 139.428 398.517 139.428 388.898C139.428 379.278 131.62 371.479 121.988 371.479C112.355 371.479 104.547 379.278 104.547 388.898C104.547 398.517 112.355 406.316 121.988 406.316Z" fill="white"/>
<path d="M121.988 394.703C125.199 394.703 127.801 392.104 127.801 388.897C127.801 385.691 125.199 383.091 121.988 383.091C118.777 383.091 116.174 385.691 116.174 388.897C116.174 392.104 118.777 394.703 121.988 394.703Z" fill="#F26A1D"/>
<path d="M71.1947 354.405C67.0742 335.975 80.2457 317.353 100.614 312.811C120.982 308.269 140.834 319.527 144.955 337.956C149.075 356.385 135.576 363.182 115.208 367.724C94.8399 372.267 75.3151 372.834 71.1947 354.405Z" fill="#0D97FF"/>
<path d="M86.2723 389.072C88.168 385.08 79.3834 376.955 66.6512 370.924C53.919 364.893 42.0607 363.24 40.165 367.232C38.2692 371.224 47.0539 379.349 59.7861 385.38C72.5183 391.411 84.3766 393.064 86.2723 389.072Z" fill="#2F2E41"/>
<path d="M95.6299 420.186C95.6299 425.174 108.49 435.024 122.76 435.024C137.03 435.024 150.41 420.981 150.41 415.993C150.41 411.005 137.03 416.96 122.76 416.96C108.49 416.96 95.6299 415.198 95.6299 420.186Z" fill="white"/>
<path d="M286.249 545.066C314.432 545.066 337.279 522.249 337.279 494.102C337.279 465.955 314.432 443.138 286.249 443.138C258.065 443.138 235.218 465.955 235.218 494.102C235.218 522.249 258.065 545.066 286.249 545.066Z" fill="#2F2E41"/>
<path d="M278.497 534.099H262.994V561.839H278.497V534.099Z" fill="#2F2E41"/>
<path d="M309.503 534.099H294V561.839H309.503V534.099Z" fill="#2F2E41"/>
<path d="M275.913 567C283.048 567 288.832 564.834 288.832 562.162C288.832 559.489 283.048 557.323 275.913 557.323C268.778 557.323 262.994 559.489 262.994 562.162C262.994 564.834 268.778 567 275.913 567Z" fill="#2F2E41"/>
<path d="M306.919 566.355C314.054 566.355 319.838 564.189 319.838 561.517C319.838 558.844 314.054 556.678 306.919 556.678C299.784 556.678 294 558.844 294 561.517C294 564.189 299.784 566.355 306.919 566.355Z" fill="#2F2E41"/>
<path d="M236.747 446.707C232.627 428.277 245.798 409.655 266.167 405.113C286.535 400.571 306.387 411.829 310.508 430.258C314.628 448.688 301.129 455.485 280.761 460.027C260.393 464.569 240.868 465.136 236.747 446.707Z" fill="#F26A1D"/>
<path d="M286.453 485.271C286.453 485.271 290.155 469.004 283.122 469.744C276.089 470.483 266.464 470.853 263.873 470.853C261.282 470.853 246.475 469.004 244.254 478.616C242.032 488.228 239.071 500.059 245.364 507.453C245.364 507.453 247.585 539.986 256.099 542.204C264.613 544.422 287.194 547.01 295.338 536.289C297.722 533.1 299.387 529.432 300.217 525.54C301.048 521.647 301.025 517.621 300.15 513.737H296.448L286.453 485.271Z" fill="#0D97FF"/>
<path opacity="0.1" d="M249.066 510.041C249.066 510.041 255.359 512.998 268.315 511.15V516.695L249.066 515.216V510.041Z" fill="black"/>
<path d="M296.095 528.577L291.905 526.365L310.543 491.142C311.243 489.82 311.593 488.341 311.561 486.845C311.529 485.35 311.116 483.888 310.36 482.596C309.605 481.305 308.532 480.228 307.243 479.466C305.954 478.704 304.492 478.283 302.995 478.243L283.435 477.717L283.563 472.985L303.122 473.511C305.425 473.573 307.674 474.22 309.657 475.392C311.639 476.564 313.29 478.222 314.452 480.208C315.615 482.195 316.25 484.444 316.3 486.745C316.349 489.045 315.81 491.32 314.733 493.354L296.095 528.577Z" fill="#0D97FF"/>
<path d="M251.048 528.577L232.41 493.354C231.334 491.32 230.795 489.045 230.844 486.745C230.893 484.444 231.529 482.195 232.692 480.208C233.854 478.222 235.504 476.564 237.487 475.392C239.469 474.22 241.718 473.573 244.021 473.511L263.581 472.985L263.709 477.717L244.149 478.243C242.652 478.283 241.19 478.704 239.901 479.466C238.612 480.228 237.539 481.305 236.784 482.596C236.028 483.888 235.615 485.35 235.583 486.846C235.551 488.341 235.901 489.82 236.601 491.142L255.239 526.365L251.048 528.577Z" fill="#0D97FF"/>
<path d="M351.682 507.179C353.977 502.846 344.634 493.414 330.814 486.113C316.993 478.811 303.928 476.405 301.633 480.738C299.338 485.071 308.682 494.503 322.502 501.804C336.323 509.106 349.387 511.512 351.682 507.179Z" fill="#2F2E41"/>
</svg>
