<svg width="18" height="14" viewBox="0 0 18 14" fill="none" xmlns="http://www.w3.org/2000/svg">
<path d="M8.49987 4.00006H6.99984V1.50002C6.99984 1.29302 6.87284 1.10802 6.68084 1.03301C6.48884 0.959013 6.26983 1.01101 6.12983 1.16402L1.12975 6.6641C0.956749 6.8541 0.956749 7.14511 1.12975 7.33611L6.12983 12.8362C6.22683 12.9422 6.36183 13.0002 6.49984 13.0002C6.56084 13.0002 6.62184 12.9892 6.68084 12.9672C6.87284 12.8922 6.99984 12.7072 6.99984 12.5002V10.0002H8.39087C11.2449 10.0002 14.009 11.0222 16.175 12.8802C16.322 13.0072 16.533 13.0362 16.709 12.9542C16.887 12.8732 17 12.6952 17 12.5002C17 7.81312 13.1869 4.00006 8.49987 4.00006ZM8.39087 9.00014H6.49984C6.22383 9.00014 5.99983 9.22414 5.99983 9.50015V11.2072L2.17577 7.00011L5.99983 2.79304V4.50007C5.99983 4.77607 6.22383 5.00008 6.49984 5.00008H8.49987C10.5029 5.00008 12.3869 5.78009 13.8029 7.19611C14.96 8.35313 15.693 9.82215 15.922 11.4122C13.7319 9.85015 11.0989 9.00014 8.39087 9.00014Z" fill="#FFAA29" stroke="#FFAA29" stroke-width="0.7"/>
</svg>
