<svg width="562" height="419" viewBox="0 0 562 419" fill="none" xmlns="http://www.w3.org/2000/svg">
<g clip-path="url(#clip0)">
<path d="M562 368.218H0V368.499H562V368.218Z" fill="#3992D4"/>
<path d="M505.688 386.311H481.319V386.592H505.688V386.311Z" fill="#3992D4"/>
<path d="M387.409 380.475H349.069V380.756H387.409V380.475Z" fill="#AEDBFD"/>
<path d="M495.819 375.875H445.767V376.157H495.819V375.875Z" fill="#3992D4"/>
<path d="M194.474 381.543H181.953V381.824H194.474V381.543Z" fill="#3992D4"/>
<path d="M171.938 381.543H128.788V381.824H171.938V381.543Z" fill="#3992D4"/>
<path d="M105.667 376.797H74.5322V377.078H105.667V376.797Z" fill="#AEDBFD"/>
<path d="M266.399 318.065H49.3663C45.8257 318.065 42.9482 315.186 42.9482 311.644V6.4209C42.9482 2.87872 45.8257 0 49.3663 0H266.411C269.951 0 272.829 2.87872 272.829 6.4209V311.644C272.817 315.186 269.94 318.065 266.399 318.065ZM49.3663 0.281125C45.983 0.281125 43.2292 3.03615 43.2292 6.4209V311.644C43.2292 315.029 45.983 317.784 49.3663 317.784H266.411C269.794 317.784 272.548 315.029 272.548 311.644V6.4209C272.548 3.03615 269.794 0.281125 266.411 0.281125H49.3663Z" fill="#3992D5"/>
<path d="M509.521 318.065H292.476C288.936 318.065 286.058 315.186 286.058 311.644V6.4209C286.058 2.87872 288.936 0 292.476 0H509.521C513.061 0 515.939 2.87872 515.939 6.4209V311.644C515.939 315.186 513.061 318.065 509.521 318.065ZM292.476 0.281125C289.093 0.281125 286.339 3.03615 286.339 6.4209V311.644C286.339 315.029 289.093 317.784 292.476 317.784H509.521C512.904 317.784 515.658 315.029 515.658 311.644V6.4209C515.658 3.03615 512.904 0.281125 509.521 0.281125H292.476Z" fill="#3992D4"/>
<path d="M129.237 134.569C142.22 134.569 152.74 124.043 152.74 111.055C152.74 98.0673 142.22 87.542 129.237 87.542H126.349V134.569H129.237V134.569Z" fill="#E0E0E0"/>
<path d="M126.349 134.569C139.329 134.569 149.851 124.041 149.851 111.055C149.851 98.0693 139.329 87.542 126.349 87.542C113.368 87.542 102.846 98.0693 102.846 111.055C102.846 124.041 113.368 134.569 126.349 134.569Z" fill="#AEDBFD"/>
<path d="M125.27 114.013C107.927 114.013 93.8091 99.8894 93.8091 82.5384V63.7367C93.8091 62.1062 95.1354 60.7793 96.7652 60.7793C98.395 60.7793 99.7213 62.1062 99.7213 63.7367V82.5384C99.7213 96.6396 111.186 108.098 125.27 108.098C126.9 108.098 128.226 109.425 128.226 111.056C128.226 112.697 126.911 114.013 125.27 114.013Z" fill="#E0E0E0"/>
<path d="M70.6208 80.2892H122.909C126.495 80.2892 129.103 76.8932 128.192 73.4297L123.651 56.2924C123.022 53.8972 120.852 52.2329 118.368 52.2329H75.1618C72.689 52.2329 70.5196 53.8972 69.879 56.2924L65.3492 73.4297C64.4276 76.8932 67.0352 80.2892 70.6208 80.2892Z" fill="#AEDBFD"/>
<path d="M461.155 134.569C474.137 134.569 484.658 124.043 484.658 111.055C484.658 98.0673 474.137 87.542 461.155 87.542H458.277V134.569H461.155V134.569Z" fill="#73C3FF"/>
<path d="M458.266 134.569C471.246 134.569 481.769 124.041 481.769 111.055C481.769 98.0693 471.246 87.542 458.266 87.542C445.286 87.542 434.763 98.0693 434.763 111.055C434.763 124.041 445.286 134.569 458.266 134.569Z" fill="#AEDBFD"/>
<path d="M457.187 114.013C439.844 114.013 425.726 99.8894 425.726 82.5384V63.7367C425.726 62.1062 427.052 60.7793 428.682 60.7793C430.312 60.7793 431.638 62.1062 431.638 63.7367V82.5384C431.638 96.6396 443.103 108.098 457.187 108.098C458.817 108.098 460.143 109.425 460.143 111.056C460.143 112.697 458.828 114.013 457.187 114.013Z" fill="#73C3FF"/>
<path d="M402.538 80.2892H454.827C458.412 80.2892 461.02 76.8932 460.109 73.4297L455.568 56.2924C454.939 53.8972 452.77 52.2329 450.286 52.2329H407.068C404.595 52.2329 402.426 53.8972 401.785 56.2924L397.244 73.4297C396.345 76.8932 398.953 80.2892 402.538 80.2892Z" fill="#AEDBFD"/>
<path d="M150.592 293.383H167.688V227.117H150.592V293.383Z" fill="#AEDBFD"/>
<path d="M104.251 293.382H160.979L169.544 215.825H112.816L104.251 293.382Z" fill="#F0F0F0"/>
<path d="M98.1025 293.382H156.708L165.273 215.825H106.679L98.1025 293.382Z" fill="#AEDBFD"/>
<path d="M152.471 287.276L159.687 221.931H110.905L103.689 287.276H152.471Z" fill="white"/>
<path d="M142.399 271.432L142.691 268.767C144.501 252.371 134.273 237.764 120.987 237.764L120.695 240.429C118.874 256.824 129.102 271.432 142.399 271.432Z" fill="#AEDBFD"/>
<path d="M66.4133 368.213H116.813L116.813 293.378H66.4133V368.213Z" fill="#AEDBFD"/>
<path d="M71.475 368.217H66.4058V353.79H76.7915L71.475 368.217Z" fill="#F0F0F0"/>
<path d="M207.666 368.213H258.066V293.378H207.666V368.213Z" fill="#AEDBFD"/>
<path d="M66.4102 359.361H212.092V293.386H66.4102V359.361Z" fill="#73C3FF"/>
<path d="M207.018 368.217H212.087V353.79H201.702L207.018 368.217Z" fill="#F0F0F0"/>
<path d="M70.3441 324.133H208.158V297.505H70.3441V324.133Z" fill="#AEDBFD"/>
<path d="M130.058 314.871H148.435C156.416 314.871 164.048 311.588 169.544 305.785H108.949C114.446 311.576 122.078 314.871 130.058 314.871Z" fill="#F0F0F0"/>
<path d="M70.3441 355.06H208.158V328.432H70.3441V355.06Z" fill="#AEDBFD"/>
<path d="M130.058 345.795H148.435C156.416 345.795 164.048 342.511 169.544 336.709H108.949C114.446 342.511 122.078 345.795 130.058 345.795Z" fill="#F0F0F0"/>
<path d="M202.859 290.334H204.163C204.152 287.647 204.174 280.844 204.298 265.247C204.534 236.977 204.984 235.245 204.984 235.245L201.881 248.301C199.914 262.75 202.455 277.279 202.859 290.334Z" fill="#AEDBFD"/>
<path d="M200.285 246.355C195.823 241.036 186.292 239.485 176.535 238.158C172.702 237.64 186.606 246.4 193.395 252.619C198.678 257.454 202.05 258.792 203.5 263.605C204.253 257.6 204.129 250.932 200.285 246.355Z" fill="#AEDBFD"/>
<path d="M206.209 255.857C210.671 250.538 220.202 248.986 229.959 247.66C233.792 247.142 219.888 255.902 213.099 262.121C207.816 266.956 204.444 268.294 202.994 273.107C202.241 267.113 202.365 260.445 206.209 255.857Z" fill="#AEDBFD"/>
<path d="M204.298 233.997C207.648 227.644 216.066 221.65 225.508 219.378C229.217 218.49 216.921 231.118 212.245 239.271C208.614 245.602 203.792 253.035 203.05 258.376C201.915 247.783 200.948 240.35 204.298 233.997Z" fill="#AEDBFD"/>
<path d="M203.894 293.382C199.903 293.382 196.61 291.38 196.385 288.827L195.722 284.453H212.065L211.402 288.827C211.177 291.38 207.884 293.382 203.894 293.382Z" fill="#F0F0F0"/>
<path d="M213.133 286.14H194.665L194.137 281.271H213.661L213.133 286.14Z" fill="#F0F0F0"/>
<path d="M190.558 193.155L370.634 193.155V28.8316L190.558 28.8316L190.558 193.155Z" fill="#AEDBFD"/>
<path d="M186.521 193.155L368.878 193.155V28.8316L186.521 28.8316L186.521 193.155Z" fill="#AEDBFD"/>
<path d="M361.604 185.799V36.1953L193.79 36.1953L193.79 185.799L361.604 185.799Z" fill="#FAFAFA"/>
<path d="M341.01 185.79L274.964 36.1978H252.529L318.575 185.79H341.01Z" fill="white"/>
<path d="M312.213 185.79L246.167 36.1978H230.723L296.769 185.79H312.213Z" fill="white"/>
<path d="M256.101 185.791V36.188H247.424L247.424 185.791H256.101Z" fill="#AEDBFD"/>
<path d="M313.784 185.792V36.1885H305.106V185.792H313.784Z" fill="#AEDBFD"/>
<path d="M254.529 190.463L254.529 30.7168L243.559 30.7168L243.559 190.463H254.529Z" fill="#AEDBFD"/>
<path d="M312.212 190.464L312.212 30.7178L301.242 30.7178L301.242 190.464H312.212Z" fill="#AEDBFD"/>
<path d="M194.558 185.795L194.558 36.1919H193.783L193.783 185.795H194.558Z" fill="#AEDBFD"/>
<path d="M183.459 19.3638H378.552C379.069 19.3638 379.485 19.7911 379.485 20.2971C379.485 20.8144 379.057 21.2304 378.552 21.2304H183.459C182.942 21.2304 182.526 20.8031 182.526 20.2971C182.515 19.7911 182.942 19.3638 183.459 19.3638Z" fill="#AEDBFD"/>
<path d="M370.639 25.5595C371.336 25.5595 371.909 24.986 371.909 24.2889V21.5676C371.909 20.8704 371.336 20.2969 370.639 20.2969C369.942 20.2969 369.369 20.8704 369.369 21.5676V24.2889C369.369 24.986 369.942 25.5595 370.639 25.5595Z" fill="#AEDBFD"/>
<path d="M197.599 25.5595C198.296 25.5595 198.869 24.986 198.869 24.2889V21.5676C198.869 20.8704 198.296 20.2969 197.599 20.2969C196.902 20.2969 196.329 20.8704 196.329 21.5676V24.2889C196.34 24.986 196.902 25.5595 197.599 25.5595Z" fill="#AEDBFD"/>
<path opacity="0.6" d="M183.756 148.992L365.99 148.992V20.3044L183.756 20.3044L183.756 148.992Z" fill="#AEDBFD"/>
<path d="M382.486 257.196H351.07C347.732 257.196 345.023 254.486 345.023 251.146V236.595C345.023 233.255 347.732 230.545 351.07 230.545H382.486C385.824 230.545 388.533 233.255 388.533 236.595V251.146C388.533 254.486 385.824 257.196 382.486 257.196Z" fill="#FAFAFA"/>
<path d="M386.499 231.332H347.046C345.922 231.332 345.012 230.421 345.012 229.297V227.655C345.012 226.53 345.922 225.62 347.046 225.62H386.499C387.623 225.62 388.533 226.53 388.533 227.655V229.297C388.533 230.421 387.623 231.332 386.499 231.332Z" fill="#AEDBFD"/>
<path d="M345.652 286.748C345.652 286.748 346.226 305.482 368.054 305.482C389.882 305.482 390.455 286.748 390.455 286.748H345.652V286.748Z" fill="#AEDBFD"/>
<path d="M395.423 286.748C395.423 286.748 395.996 305.482 417.824 305.482C439.652 305.482 440.225 286.748 440.225 286.748H395.423V286.748Z" fill="#AEDBFD"/>
<path d="M429.424 257.196H386.251C381.665 257.196 377.934 253.473 377.934 248.874V226.789C377.934 222.19 381.654 218.468 386.251 218.468H429.424C434.01 218.468 437.742 222.19 437.742 226.789V248.874C437.73 253.473 434.01 257.196 429.424 257.196Z" fill="#AEDBFD"/>
<path d="M434.943 219.547H380.721C379.181 219.547 377.934 218.299 377.934 216.758V214.498C377.934 212.958 379.181 211.709 380.721 211.709H434.943C436.483 211.709 437.73 212.958 437.73 214.498V216.758C437.73 218.299 436.483 219.547 434.943 219.547Z" fill="#AEDBFD"/>
<path d="M329.209 368.214H334.874V275.286H329.209V368.214Z" fill="#AEDBFD"/>
<path d="M492.783 257.195H462.109V275.277H492.783V257.195Z" fill="#AEDBFD"/>
<path d="M309.599 275.279H462.103V257.197H309.599V275.279Z" fill="#AEDBFD"/>
<path d="M492.783 305.493H462.109V323.575H492.783V305.493Z" fill="#AEDBFD"/>
<path d="M309.599 323.568H462.103V305.486H309.599V323.568Z" fill="#AEDBFD"/>
<path d="M481.715 368.214H487.38V275.286H481.715V368.214Z" fill="#AEDBFD"/>
<path d="M456.441 368.214H462.106V275.286H456.441V368.214Z" fill="#AEDBFD"/>
<path d="M309.596 368.214H315.261V275.286H309.596V368.214Z" fill="#AEDBFD"/>
<path d="M281 419C401.36 419 498.932 413.301 498.932 406.271C498.932 399.241 401.36 393.542 281 393.542C160.639 393.542 63.0674 399.241 63.0674 406.271C63.0674 413.301 160.639 419 281 419Z" fill="#AEDBFD"/>
<path d="M292.701 349.203H149.312C144.569 349.203 140.534 345.357 140.286 340.623L127.462 91.4896C127.214 86.7442 130.856 82.9097 135.599 82.9097H278.988C283.72 82.9097 287.766 86.7555 288.014 91.4896L300.85 340.623C301.086 345.368 297.444 349.203 292.701 349.203Z" fill="#0D97FF"/>
<path opacity="0.8" d="M292.701 349.203H149.312C144.569 349.203 140.534 345.357 140.286 340.623L127.462 91.4896C127.214 86.7442 130.856 82.9097 135.599 82.9097H278.988C283.72 82.9097 287.766 86.7555 288.014 91.4896L300.85 340.623C301.086 345.368 297.444 349.203 292.701 349.203Z" fill="white"/>
<path d="M264.837 74.7793H248.977V75.9038H264.837V74.7793Z" fill="#0D97FF"/>
<path d="M243.481 74.7793H237.67V75.9038H243.481V74.7793Z" fill="#0D97FF"/>
<path d="M298.871 333.403H161.732C157.202 333.403 153.336 329.726 153.1 325.194L140.826 86.9237C140.59 82.392 144.074 78.7148 148.604 78.7148H285.743C290.273 78.7148 294.139 82.392 294.375 86.9237L306.65 325.194C306.886 329.726 303.401 333.403 298.871 333.403Z" fill="#0D97FF"/>
<path d="M298.872 327.927H161.732C160.136 327.927 158.664 326.521 158.574 324.924L146.3 86.6428C146.255 85.777 146.603 85.2147 146.907 84.8886C147.21 84.5737 147.75 84.1914 148.604 84.1914H285.743C287.339 84.1914 288.812 85.597 288.902 87.2051L301.176 325.475C301.221 326.341 300.872 326.904 300.569 327.23C300.265 327.544 299.737 327.927 298.872 327.927ZM148.615 84.4838C147.851 84.4838 147.379 84.8099 147.12 85.091C146.851 85.3721 146.547 85.8669 146.592 86.6316L158.866 324.902C158.945 326.364 160.282 327.646 161.744 327.646H298.872C299.636 327.646 300.108 327.32 300.367 327.038C300.636 326.757 300.94 326.263 300.895 325.498L288.621 87.2276C288.542 85.7657 287.204 84.4838 285.743 84.4838H148.615Z" fill="white"/>
<path opacity="0.3" d="M250.911 171.031C266.507 155.018 265.491 128.721 248.641 112.294C231.791 95.8673 205.488 95.5314 189.891 111.544C174.295 127.556 175.311 153.854 192.161 170.281C209.011 186.707 235.314 187.043 250.911 171.031Z" fill="white"/>
<path d="M253.99 141.305C254.294 147.107 253.102 152.561 250.753 157.306C245.628 167.775 234.894 174.905 222.125 174.905C209.356 174.905 197.892 167.787 191.687 157.306C188.855 152.55 187.101 147.107 186.809 141.305C185.854 122.739 200.117 107.705 218.663 107.705C237.209 107.705 253.035 122.739 253.99 141.305Z" fill="white"/>
<circle cx="211.367" cy="123.632" r="4.34669" fill="url(#paint0_linear)"/>
<path d="M222.709 143.866C222.709 143.866 224.31 145.663 223.958 142.717C223.606 139.771 214.9 127.419 206.771 131.126C205.568 131.674 204.818 131.949 203.873 132.873C195.933 140.638 202.424 156.507 207.021 158.705C211.617 160.903 212.024 159.014 211.617 157.156C210.774 156.244 208.719 139.869 212.017 138.62C215.314 137.371 222.709 143.866 222.709 143.866Z" fill="url(#paint1_linear)"/>
<circle cx="228.936" cy="123.632" r="4.34669" fill="#F26A1D"/>
<path d="M215.097 146.205C215.097 146.205 213.496 144.408 213.848 147.354C214.2 150.3 222.906 162.652 231.035 158.945C232.237 158.397 232.988 158.122 233.933 157.198C241.873 149.433 235.381 133.565 230.785 131.366C226.188 129.168 225.781 131.057 226.188 132.915C227.031 133.827 229.086 150.202 225.789 151.451C222.491 152.7 215.097 146.205 215.097 146.205Z" fill="#F26A1D"/>
<path d="M233.762 136.78L235.375 138.46C217.875 151.14 209.758 154.417 198.434 154.576C193.728 153.96 191.368 153.278 191.599 149.764C191.829 146.251 197.974 140.5 199.894 140.118C200.339 140.289 196.437 141.344 194.21 146.938C191.983 152.532 196.685 152.317 203.042 152.208C209.4 152.099 222.469 145.817 233.762 136.78Z" fill="url(#paint2_linear)"/>
<path d="M241.709 141.031L242.89 140.151L242.306 133.25L245.556 130.831C246.046 130.466 246.146 129.777 245.779 129.29C245.411 128.802 244.719 128.703 244.229 129.068L240.979 131.487L234.486 128.986L233.304 129.866L238.32 133.467L235.07 135.887L233.3 135.371L232.413 136.031L234.552 137.648L235.51 140.144L236.396 139.485L236.397 137.649L239.647 135.23L241.709 141.031Z" fill="url(#paint3_linear)"/>
<path d="M279.213 240.722H171.837C169.915 240.722 168.285 239.17 168.184 237.247L167.375 221.459C167.274 219.536 168.746 217.984 170.668 217.984H278.044C279.966 217.984 281.596 219.536 281.697 221.459L282.506 237.247C282.608 239.17 281.135 240.722 279.213 240.722Z" fill="white"/>
<path opacity="0.3" d="M246.336 209.315H201.489C199.567 209.315 197.937 207.763 197.836 205.84L197.667 202.489C197.566 200.566 199.038 199.014 200.96 199.014H245.808C247.73 199.014 249.36 200.566 249.461 202.489L249.63 205.84C249.719 207.763 248.247 209.315 246.336 209.315Z" fill="black"/>
<path d="M263.005 316.378H195.835C192.564 316.378 189.788 313.724 189.619 310.463L189.215 302.716C189.046 299.443 191.552 296.801 194.823 296.801H261.994C265.264 296.801 268.041 299.455 268.209 302.716L268.614 310.463C268.783 313.736 266.276 316.378 263.005 316.378Z" fill="#F26A1D"/>
<path d="M281.18 278.764H173.804C171.882 278.764 170.252 277.212 170.151 275.289L169.342 259.501C169.241 257.578 170.713 256.026 172.635 256.026H280.011C281.933 256.026 283.563 257.578 283.664 259.501L284.473 275.289C284.563 277.212 283.091 278.764 281.18 278.764Z" fill="white"/>
<path d="M185.494 229.353C185.606 231.478 183.977 233.199 181.852 233.199C179.728 233.199 177.918 231.478 177.806 229.353C177.693 227.228 179.323 225.507 181.448 225.507C183.572 225.507 185.382 227.228 185.494 229.353Z" fill="#263238"/>
<path d="M197.307 229.353C197.419 231.478 195.79 233.199 193.665 233.199C191.541 233.199 189.731 231.478 189.619 229.353C189.506 227.228 191.136 225.507 193.261 225.507C195.385 225.507 197.195 227.228 197.307 229.353Z" fill="#263238"/>
<path d="M209.109 229.353C209.222 231.478 207.592 233.199 205.467 233.199C203.343 233.199 201.533 231.478 201.421 229.353C201.309 227.228 202.938 225.507 205.063 225.507C207.187 225.507 208.997 227.228 209.109 229.353Z" fill="#263238"/>
<path d="M220.922 229.353C221.035 231.478 219.405 233.199 217.28 233.199C215.156 233.199 213.346 231.478 213.234 229.353C213.122 227.228 214.751 225.507 216.876 225.507C219 225.507 220.81 227.228 220.922 229.353Z" fill="#263238"/>
<path d="M187.45 267.406C187.562 269.532 185.932 271.252 183.808 271.252C181.683 271.252 179.874 269.532 179.761 267.406C179.649 265.281 181.279 263.561 183.403 263.561C185.527 263.561 187.337 265.281 187.45 267.406Z" fill="#263238"/>
<path d="M199.263 267.406C199.375 269.532 197.746 271.252 195.621 271.252C193.497 271.252 191.687 269.532 191.575 267.406C191.462 265.281 193.092 263.561 195.217 263.561C197.341 263.561 199.151 265.281 199.263 267.406Z" fill="#263238"/>
<path d="M211.076 267.406C211.188 269.532 209.559 271.252 207.434 271.252C205.31 271.252 203.5 269.532 203.388 267.406C203.275 265.281 204.905 263.561 207.03 263.561C209.154 263.561 210.964 265.281 211.076 267.406Z" fill="#263238"/>
<path d="M222.878 267.406C222.991 269.532 221.361 271.252 219.236 271.252C217.112 271.252 215.302 269.532 215.19 267.406C215.078 265.281 216.707 263.561 218.832 263.561C220.967 263.561 222.777 265.281 222.878 267.406Z" fill="#263238"/>
<path d="M234.691 267.406C234.804 269.532 233.174 271.252 231.049 271.252C228.925 271.252 227.115 269.532 227.003 267.406C226.891 265.281 228.52 263.561 230.645 263.561C232.769 263.561 234.579 265.281 234.691 267.406Z" fill="#263238"/>
<path d="M246.505 267.406C246.617 269.532 244.987 271.252 242.863 271.252C240.739 271.252 238.929 269.532 238.817 267.406C238.704 265.281 240.334 263.561 242.458 263.561C244.583 263.561 246.392 265.281 246.505 267.406Z" fill="#263238"/>
<path d="M374.326 136.818C374.607 137.234 374.753 137.47 374.933 137.762L375.438 138.606C375.764 139.157 376.045 139.719 376.338 140.27C376.9 141.383 377.428 142.497 377.911 143.621C378.878 145.87 379.665 148.164 380.35 150.481C381.733 155.102 382.576 159.836 383.014 164.582L383.104 165.47C383.115 165.594 383.127 165.796 383.138 166.01L383.16 166.617C383.172 167.416 383.138 168.203 383.025 168.956C382.812 170.463 382.407 171.857 381.913 173.139C380.901 175.703 379.519 177.885 378.024 179.864C374.978 183.811 371.516 186.971 367.559 189.771L364.468 186.138C367.245 182.922 369.942 179.358 371.932 175.804C372.943 174.028 373.73 172.206 374.213 170.497C374.438 169.642 374.562 168.821 374.584 168.09C374.607 167.719 374.584 167.371 374.551 167.044L374.517 166.808C374.506 166.741 374.506 166.651 374.472 166.505L374.326 165.718C373.595 161.501 372.584 157.351 371.268 153.348C370.628 151.335 369.818 149.401 369.009 147.489C368.605 146.534 368.166 145.6 367.717 144.701L367.02 143.385L366.671 142.755L366.39 142.26L374.326 136.818Z" fill="#803E3C"/>
<path d="M363.839 189.838L367.908 198.44L371.134 191.176C371.134 191.176 368.279 184.879 364.401 185.452L363.839 189.838Z" fill="#7F3E3B"/>
<path d="M370.819 198.868L374.056 193.56L371.134 191.165L367.908 198.441L370.819 198.868Z" fill="#7F3E3B"/>
<path d="M352.52 397.241C353.386 397.241 354.341 397.061 355.004 396.903C355.094 396.881 355.162 396.813 355.173 396.723C355.184 396.634 355.15 396.544 355.072 396.499C354.746 396.285 351.891 394.441 350.789 394.936C350.621 395.014 350.396 395.183 350.351 395.565C350.283 396.06 350.407 396.465 350.722 396.746C351.138 397.117 351.801 397.241 352.52 397.241ZM354.375 396.589C352.734 396.915 351.509 396.858 351.025 396.42C350.823 396.24 350.744 395.97 350.8 395.621C350.823 395.43 350.913 395.374 350.992 395.34C351.565 395.082 353.217 395.88 354.375 396.589Z" fill="#0D97FF"/>
<path d="M354.959 396.915C354.993 396.915 355.038 396.903 355.072 396.881C355.139 396.836 355.184 396.768 355.184 396.69C355.184 396.577 355.173 393.867 354.15 392.956C353.88 392.72 353.554 392.619 353.206 392.653C352.644 392.72 352.498 393.069 352.453 393.271C352.239 394.328 353.948 396.364 354.847 396.87C354.881 396.903 354.926 396.915 354.959 396.915ZM353.352 393.091C353.532 393.091 353.7 393.159 353.847 393.283C354.454 393.822 354.667 395.34 354.723 396.251C353.824 395.532 352.756 394.013 352.891 393.361C352.914 393.26 352.97 393.125 353.262 393.091C353.296 393.103 353.33 393.091 353.352 393.091Z" fill="#0D97FF"/>
<path d="M341.909 392.653C341.966 392.597 341.977 392.518 341.954 392.439C341.932 392.349 341.842 392.282 341.752 392.282C341.28 392.259 337.245 392.091 336.334 393.08C336.312 393.103 336.301 393.125 336.278 393.148C336.132 393.35 336.098 393.598 336.177 393.845C336.323 394.261 336.604 394.542 336.998 394.666C338.301 395.071 340.606 393.609 341.864 392.698C341.887 392.676 341.898 392.664 341.909 392.653ZM336.672 393.373C337.177 392.833 339.392 392.687 341.066 392.709C339.313 393.901 337.874 394.464 337.132 394.239C336.874 394.16 336.705 393.98 336.604 393.699C336.559 393.586 336.57 393.496 336.638 393.418C336.649 393.395 336.66 393.384 336.672 393.373Z" fill="#0D97FF"/>
<path d="M341.909 392.653C341.921 392.642 341.932 392.631 341.943 392.608C341.988 392.541 341.988 392.451 341.943 392.383C341.887 392.293 340.639 390.078 339.144 389.673C338.695 389.549 338.256 389.606 337.863 389.842C337.323 390.157 337.301 390.517 337.368 390.764C337.661 391.81 340.527 392.721 341.752 392.721C341.808 392.732 341.864 392.698 341.909 392.653ZM337.874 390.404C337.919 390.359 337.987 390.303 338.088 390.235C338.38 390.067 338.684 390.022 339.032 390.112C340.01 390.37 340.932 391.63 341.336 392.248C340.01 392.091 337.975 391.27 337.796 390.651C337.784 390.618 337.762 390.528 337.874 390.404Z" fill="#0D97FF"/>
<path d="M354.285 103.881C353.194 109.47 350.733 121.66 354.633 125.393C354.633 125.393 353.105 131.061 342.73 131.061C331.31 131.061 337.279 125.393 337.279 125.393C343.506 123.909 343.348 119.276 342.258 114.935L354.285 103.881Z" fill="#7F3E3B"/>
<path d="M335.267 90.7019C335.334 90.7019 335.401 90.6907 335.469 90.657C335.694 90.5445 335.784 90.2746 335.671 90.061C334.57 87.857 332.524 87.5983 332.434 87.5871C332.187 87.5533 331.973 87.7333 331.94 87.9807C331.917 88.228 332.086 88.4417 332.333 88.4754C332.4 88.4867 333.996 88.7003 334.873 90.4658C334.941 90.6007 335.098 90.7019 335.267 90.7019Z" fill="#263238"/>
<path d="M331.861 95.5825C331.861 95.5825 330.186 98.6749 328.579 100.058C329.456 101.115 331.198 100.89 331.198 100.89L331.861 95.5825Z" fill="#630F0F"/>
<path d="M332.693 94.3681C332.603 95.1215 332.119 95.6838 331.636 95.6275C331.142 95.5713 330.816 94.9078 330.917 94.1544C331.007 93.401 331.49 92.8388 331.973 92.895C332.457 92.9512 332.783 93.6147 332.693 94.3681Z" fill="#263238"/>
<path d="M332.187 92.9624L330.445 92.2202C330.434 92.2202 331.187 93.7495 332.187 92.9624Z" fill="#263238"/>
<path d="M351.834 390.517L342.662 392.664L337.087 371.569L346.259 369.421L351.834 390.517Z" fill="#7F3E3B"/>
<path d="M365.907 396.69H356.488L357.23 374.875H366.649L365.907 396.69Z" fill="#7F3E3B"/>
<path d="M355.746 395.599H366.323C366.705 395.599 367.02 395.869 367.076 396.24L368.279 404.618C368.402 405.484 367.661 406.304 366.773 406.293C363.086 406.226 361.31 406.012 356.657 406.012C353.79 406.012 349.609 406.304 345.664 406.304C341.797 406.304 341.505 402.391 343.146 402.043C350.52 400.457 351.689 398.264 354.173 396.173C354.622 395.802 355.184 395.599 355.746 395.599Z" fill="#263238"/>
<path d="M341.854 391.258L351.464 386.839C351.812 386.682 352.206 386.794 352.419 387.109L357.016 394.216C357.488 394.958 357.162 396.015 356.342 396.364C352.97 397.848 351.261 398.399 347.035 400.344C344.439 401.536 339.178 404.291 335.593 405.933C332.086 407.553 330.175 404.123 331.524 403.111C337.56 398.579 339.291 395.385 340.673 392.439C340.909 391.911 341.337 391.495 341.854 391.258Z" fill="#263238"/>
<path opacity="0.2" d="M337.099 371.569L340.077 382.87L349.137 380.306L346.27 369.432L337.099 371.569Z" fill="black"/>
<path opacity="0.2" d="M366.648 374.886H357.229L356.858 386.131H366.278L366.648 374.886Z" fill="black"/>
<path d="M370.875 127.529C374.786 128.384 378.968 142.463 378.968 142.463L367.908 154.225C367.908 154.225 358.736 141.001 360.602 136.143C362.546 131.083 366.255 126.517 370.875 127.529Z" fill="#263238"/>
<path opacity="0.4" d="M364.671 136.492C362.693 134.681 361.355 135.221 360.445 136.661C359.545 140.844 364.873 149.604 367.02 152.921C368.009 148.963 369.144 140.608 364.671 136.492Z" fill="black"/>
<path d="M321.363 127.8C321.363 127.8 316.878 129.385 325.859 184.654C341.033 184.654 356.713 184.654 364.097 184.654C363.457 169.08 363.434 159.488 370.875 127.53C370.875 127.53 362.861 125.787 354.633 125.393C348.204 125.078 342.921 124.876 337.268 125.393C329.815 126.068 321.363 127.8 321.363 127.8Z" fill="#263238"/>
<path opacity="0.4" d="M321.015 149.019C321.262 151.706 321.588 154.731 322.015 158.149C325.151 155.327 327.702 147.298 326.77 142.62C324.578 144.251 322.555 146.77 321.015 149.019Z" fill="black"/>
<path d="M325.106 140.641C323.026 145.893 320.733 150.897 318.159 155.89C315.585 160.871 312.832 165.763 309.179 170.508L308.459 171.396L308.1 171.835C307.976 171.981 307.875 172.116 307.684 172.319C306.987 173.083 306.234 173.747 305.458 174.298C303.907 175.4 302.311 176.108 300.76 176.648C297.658 177.694 294.645 178.065 291.723 178.245C285.844 178.481 280.292 177.941 274.683 176.727L275.301 171.992C277.886 172.004 280.595 171.947 283.203 171.779C285.833 171.644 288.43 171.363 290.925 170.913C293.409 170.497 295.814 169.867 297.826 168.99C298.815 168.551 299.681 168.012 300.31 167.472C300.625 167.202 300.884 166.932 301.075 166.662C301.12 166.629 301.221 166.471 301.299 166.359L301.558 165.988L302.086 165.245C304.851 161.141 307.29 156.384 309.606 151.628C311.888 146.849 314.091 141.89 316.147 137.043L325.106 140.641Z" fill="#803E3C"/>
<path d="M321.363 127.8C316.687 128.935 310.921 141.788 310.921 141.788L320.632 156.07C320.632 156.07 333.558 139.787 332.03 134.805C330.422 129.633 327.039 126.416 321.363 127.8Z" fill="#263238"/>
<path d="M277.999 172.678L269.895 168.934L269.085 176.996C269.085 176.996 275.852 178.987 279.19 176.951L277.999 172.678Z" fill="#7F3E3B"/>
<path d="M265.05 168.124L264.275 174.253L269.086 176.996L269.895 168.934L265.05 168.124Z" fill="#7F3E3B"/>
<path d="M358.354 94.9191C356.645 104.106 356.106 108.031 350.846 112.214C342.933 118.489 332.019 114.373 330.962 104.86C330.007 96.291 332.963 82.707 342.483 80.1432C351.857 77.613 360.062 85.7319 358.354 94.9191Z" fill="#7F3E3B"/>
<path d="M338.178 96.8533C337.65 101.542 337.447 113.71 347.743 114.092C360.355 114.564 364.131 103.78 363.007 99.4734C369.56 94.132 370.516 84.9449 363.142 77.9167C355.769 70.8886 339.538 74.8131 335.008 81.6613C329.377 90.1626 338.178 96.8533 338.178 96.8533Z" fill="#263238"/>
<path d="M350.8 80.6602C350.193 75.7237 350.665 72.3052 355.285 72.3052C359.905 72.3052 366.233 73.9807 368.548 78.7261C370.864 83.4602 371.055 90.8594 364.592 90.1173C358.129 89.3526 351.531 86.5751 350.8 80.6602Z" fill="#0D97FF"/>
<path d="M357.972 79.4684C356.87 73.576 362.119 56.9784 374.933 55.8989C380.867 55.4041 383.61 61.7912 380.508 62.837C386.117 62.7696 389.725 70.2025 384.487 71.3158C388.634 73.9696 387.6 79.4122 381.699 82.0885C377.338 84.0676 359.489 87.621 357.972 79.4684Z" fill="#263238"/>
<path d="M371.651 85.7993C367.526 85.7993 363.221 85.1921 360.545 83.4041C358.927 82.3134 358.039 80.874 357.904 79.1198C357.893 78.9623 358.005 78.8274 358.163 78.8162C358.331 78.8049 358.455 78.9174 358.466 79.0748C358.59 80.6491 359.388 81.9423 360.86 82.9318C365.941 86.3391 377.698 85.2371 381.384 84.0338C384.554 82.9993 386.701 80.9977 387.128 78.67C387.443 76.9607 386.768 75.3527 385.251 74.1157C385.127 74.0145 385.116 73.8459 385.206 73.7222C385.307 73.5985 385.476 73.5872 385.599 73.6772C387.274 75.0266 388.027 76.882 387.679 78.7712C387.218 81.3013 384.925 83.4716 381.564 84.5624C379.631 85.2033 375.731 85.7993 371.651 85.7993Z" fill="#263238"/>
<path d="M335.312 95.6161C334.188 97.1792 333.862 99.1245 334.109 100.688C334.48 103.049 336.784 103.206 338.448 101.688C339.943 100.328 341.55 97.4603 340.325 95.5036C339.111 93.5808 336.593 93.8281 335.312 95.6161Z" fill="#7F3E3B"/>
<path d="M335.952 184.654C335.952 184.654 341.415 249.302 347.08 285.736C351.654 315.164 355.274 383.95 355.274 383.95H368.11C368.11 383.95 372.673 317.222 370.347 288.108C364.468 214.454 377.585 208.46 364.086 184.643H335.952V184.654Z" fill="#0D97FF"/>
<path opacity="0.4" d="M352.115 209.089C346.934 214.386 342.988 220.717 339.987 227.396C341.482 241.925 343.258 258.05 345.146 272.174C350.991 257.409 355.993 234.694 352.115 209.089Z" fill="black"/>
<path d="M326.972 184.25C326.972 184.25 315.113 254.857 313.248 286.68C317.901 316.108 336.941 378.316 336.941 378.316L348.62 374.088C348.62 374.088 342.157 306.258 335.098 287.692C350.913 234.425 362.535 220.964 359.152 184.666C351.081 184.654 326.972 184.25 326.972 184.25Z" fill="#0D97FF"/>
<path d="M335.379 381.419L351.16 377.123L350.261 370.837L333.367 375.403L335.379 381.419Z" fill="#263238"/>
<path d="M353.521 384.208H369.875L370.729 378.462L353.431 377.877L353.521 384.208Z" fill="#263238"/>
<path d="M364.67 182.405L366.39 185.835C366.525 186.105 366.21 186.374 365.772 186.374H325.668C325.319 186.374 325.038 186.206 325.016 185.992L324.667 182.574C324.645 182.337 324.937 182.135 325.319 182.135H364.041C364.333 182.124 364.58 182.236 364.67 182.405Z" fill="#0D97FF"/>
<path opacity="0.5" d="M364.67 182.405L366.39 185.835C366.525 186.105 366.21 186.374 365.772 186.374H325.668C325.319 186.374 325.038 186.206 325.016 185.992L324.667 182.574C324.645 182.337 324.937 182.135 325.319 182.135H364.041C364.333 182.124 364.58 182.236 364.67 182.405Z" fill="black"/>
<path d="M359.467 186.734H360.501C360.703 186.734 360.86 186.633 360.849 186.498L360.366 182.045C360.355 181.91 360.175 181.809 359.961 181.809H358.927C358.725 181.809 358.567 181.91 358.579 182.045L359.062 186.498C359.085 186.633 359.264 186.734 359.467 186.734Z" fill="#0D97FF"/>
<path d="M345.551 153.967C345.293 153.967 345.079 153.798 345.012 153.551C341.347 140 333.727 128.845 330.085 127.125C329.68 126.934 329.343 126.878 329.141 126.967C328.86 127.091 328.523 126.967 328.399 126.686C328.275 126.405 328.399 126.068 328.68 125.944C329.208 125.708 329.838 125.764 330.568 126.113C334.446 127.946 342.134 138.966 345.978 152.842C348.732 152.808 352.981 152.46 354.015 152.381C355.296 150.852 364.727 139.067 361.197 126.18C361.119 125.877 361.287 125.573 361.591 125.494C361.883 125.416 362.198 125.584 362.276 125.888C366.199 140.237 354.824 153.18 354.701 153.303C354.611 153.404 354.476 153.472 354.33 153.483C354.285 153.483 348.676 153.967 345.551 153.967Z" fill="#0D97FF"/>
<path d="M364.165 161.917C358.039 150.424 355.532 149.626 354.442 145.926C354.442 145.926 355.431 143.138 357.938 140.315C357.185 140.101 355.6 139.787 354.599 139.595C354.712 139.089 354.824 138.595 354.948 138.122C354.116 137.897 352.396 138.134 351.52 138.28L351.486 137.144C351.486 137.144 348.384 136.526 347.125 136.863C347.248 137.38 347.372 137.931 347.496 138.482C346.405 138.696 344.652 139.044 343.831 139.269C346.214 141.957 347.08 144.824 347.26 145.533C343.955 151.2 331.119 187.713 352.003 190.457C372.887 193.212 370.29 173.409 364.165 161.917Z" fill="#0D97FF"/>
<path opacity="0.4" d="M364.165 161.917C358.039 150.424 355.532 149.626 354.442 145.926C354.442 145.926 355.431 143.138 357.938 140.315C357.185 140.101 355.6 139.787 354.599 139.595C354.712 139.089 354.824 138.595 354.948 138.122C354.116 137.897 352.396 138.134 351.52 138.28L351.486 137.144C351.486 137.144 348.384 136.526 347.125 136.863C347.248 137.38 347.372 137.931 347.496 138.482C346.405 138.696 344.652 139.044 343.831 139.269C346.214 141.957 347.08 144.824 347.26 145.533C343.955 151.2 331.119 187.713 352.003 190.457C372.887 193.212 370.29 173.409 364.165 161.917Z" fill="white"/>
<path d="M346.484 144.453C346.327 144.734 346.338 145.791 346.315 146.207C346.293 146.635 347.417 146.916 348.676 147.028C349.946 147.141 355.161 147.354 355.004 146.77C354.835 146.185 355.262 145.387 355.285 144.892C355.307 144.397 353.205 144.374 351.441 144.442C349.676 144.509 346.832 143.824 346.484 144.453Z" fill="#0D97FF"/>
<path d="M334.334 186.734H335.368C335.57 186.734 335.728 186.633 335.716 186.498L335.233 182.045C335.222 181.91 335.042 181.809 334.828 181.809H333.794C333.592 181.809 333.435 181.91 333.446 182.045L333.929 186.498C333.94 186.633 334.12 186.734 334.334 186.734Z" fill="#0D97FF"/>
</g>
<defs>
<linearGradient id="paint0_linear" x1="208.859" y1="120.064" x2="212.533" y2="127.829" gradientUnits="userSpaceOnUse">
<stop stop-color="#0052EF"/>
<stop offset="1" stop-color="#6DA8FF"/>
</linearGradient>
<linearGradient id="paint1_linear" x1="205.187" y1="133.059" x2="219.066" y2="156.994" gradientUnits="userSpaceOnUse">
<stop stop-color="#0052EF"/>
<stop offset="1" stop-color="#6DA8FF"/>
</linearGradient>
<linearGradient id="paint2_linear" x1="203.094" y1="131.152" x2="209.086" y2="157.938" gradientUnits="userSpaceOnUse">
<stop stop-color="#0052EF"/>
<stop offset="1" stop-color="#6DA8FF"/>
</linearGradient>
<linearGradient id="paint3_linear" x1="203.094" y1="131.152" x2="209.086" y2="157.938" gradientUnits="userSpaceOnUse">
<stop stop-color="#0052EF"/>
<stop offset="1" stop-color="#6DA8FF"/>
</linearGradient>
<clipPath id="clip0">
<rect width="562" height="419" fill="white"/>
</clipPath>
</defs>
</svg>
