<svg width="15" height="16" viewBox="0 0 15 16" fill="none" xmlns="http://www.w3.org/2000/svg">
<path d="M13.0918 7.29337V7.42598C13.0918 7.47018 13.0943 7.51439 13.0992 7.55859V7.69121C13.0992 7.73541 13.0968 7.77962 13.0918 7.82382L15 9.00997L13.8286 11.8317L11.6405 11.3307C11.5226 11.4584 11.3998 11.5812 11.2721 11.6991L11.7731 13.8872L8.95138 15.0586L7.76523 13.1504H7.63261C7.58841 13.1504 7.5442 13.1529 7.5 13.1578H7.36739C7.32318 13.1578 7.27898 13.1554 7.23477 13.1504L6.04862 15.0586L3.22692 13.8872L3.7279 11.6991C3.6002 11.5812 3.47741 11.4584 3.35953 11.3307L1.17141 11.8317L0 9.00997L1.90815 7.82382V7.69121C1.90815 7.647 1.9057 7.6028 1.90079 7.55859V7.42598C1.90079 7.38178 1.90324 7.33757 1.90815 7.29337L0 6.10722L1.17141 3.28551L3.35953 3.78649C3.47741 3.65879 3.6002 3.536 3.7279 3.41812L3.22692 1.23001L6.04862 0.0585938L7.23477 1.96675H7.36739C7.41159 1.96675 7.4558 1.96429 7.5 1.95938H7.63261C7.67682 1.95938 7.72102 1.96184 7.76523 1.96675L8.95138 0.0585938L11.7731 1.23001L11.2721 3.41812C11.3998 3.536 11.5226 3.65879 11.6405 3.78649L13.8286 3.28551L15 6.10722L13.0918 7.29337ZM12.2299 8.25113C12.2397 8.13325 12.2495 8.01783 12.2593 7.90486C12.2692 7.79189 12.2741 7.67402 12.2741 7.55123C12.2741 7.43826 12.2692 7.32284 12.2593 7.20496C12.2495 7.08708 12.2397 6.97166 12.2299 6.85869L13.9686 5.77569L13.335 4.24327L11.3384 4.70742C11.1861 4.52077 11.0314 4.34887 10.8743 4.1917C10.7171 4.03453 10.5427 3.87736 10.3512 3.72019L10.8153 1.72362L9.28291 1.09003L8.19253 2.82873C8.07957 2.81891 7.96415 2.80908 7.84627 2.79926C7.72839 2.78944 7.61297 2.78453 7.5 2.78453C7.38212 2.78453 7.2667 2.78944 7.15373 2.79926C7.04077 2.80908 6.92289 2.81891 6.8001 2.82873L5.71709 1.09003L4.18468 1.72362L4.64882 3.72019C4.46218 3.87244 4.29028 4.02716 4.1331 4.18433C3.97593 4.3415 3.81876 4.51586 3.66159 4.70742L1.66503 4.24327L1.03143 5.77569L2.77014 6.86606C2.76031 6.98394 2.75049 7.09936 2.74067 7.21233C2.73084 7.32529 2.72593 7.44317 2.72593 7.56596C2.72593 7.67893 2.73084 7.79435 2.74067 7.91223C2.75049 8.03011 2.76031 8.14553 2.77014 8.2585L1.03143 9.3415L1.66503 10.8739L3.66159 10.4098C3.81385 10.5964 3.96857 10.7683 4.12574 10.9255C4.28291 11.0827 4.45727 11.2398 4.64882 11.397L4.18468 13.3936L5.71709 14.0272L6.80747 12.2885C6.92043 12.2983 7.03585 12.3081 7.15373 12.3179C7.27161 12.3277 7.38703 12.3327 7.5 12.3327C7.61788 12.3327 7.7333 12.3277 7.84627 12.3179C7.95923 12.3081 8.07711 12.2983 8.1999 12.2885L9.28291 14.0272L10.8153 13.3936L10.3512 11.397C10.5378 11.2447 10.7097 11.09 10.8669 10.9329C11.0241 10.7757 11.1812 10.6013 11.3384 10.4098L13.335 10.8739L13.9686 9.3415L12.2299 8.25113ZM7.5 4.78846C7.8831 4.78846 8.24165 4.85967 8.57564 5.00211C8.90963 5.14455 9.20432 5.34347 9.45972 5.59887C9.71513 5.85427 9.91159 6.14651 10.0491 6.47559C10.1866 6.80466 10.2603 7.16567 10.2701 7.55859C10.2701 7.9417 10.1989 8.30024 10.0565 8.63423C9.91405 8.96822 9.71513 9.26292 9.45972 9.51832C9.20432 9.77372 8.91208 9.97019 8.58301 10.1077C8.25393 10.2452 7.89293 10.3189 7.5 10.3287C7.1169 10.3287 6.75835 10.2575 6.42436 10.1151C6.09037 9.97264 5.79568 9.77372 5.54028 9.51832C5.28487 9.26292 5.08841 8.97068 4.95088 8.6416C4.81336 8.31252 4.73969 7.95152 4.72986 7.55859C4.72986 7.17549 4.80108 6.81694 4.94352 6.48295C5.08595 6.14897 5.28487 5.85427 5.54028 5.59887C5.79568 5.34347 6.08792 5.147 6.41699 5.00948C6.74607 4.87195 7.10707 4.79828 7.5 4.78846ZM7.5 9.50358C7.77014 9.50358 8.02308 9.45447 8.25884 9.35624C8.4946 9.258 8.70088 9.11802 8.8777 8.93629C9.05452 8.75457 9.19204 8.54828 9.29027 8.31743C9.38851 8.08659 9.44008 7.83364 9.44499 7.55859C9.44499 7.28846 9.39587 7.03551 9.29764 6.79975C9.19941 6.564 9.05943 6.35771 8.8777 6.18089C8.69597 6.00408 8.48969 5.86655 8.25884 5.76832C8.028 5.67009 7.77505 5.61852 7.5 5.6136C7.22986 5.6136 6.97692 5.66272 6.74116 5.76095C6.5054 5.85918 6.29912 5.99916 6.1223 6.18089C5.94548 6.36262 5.80796 6.56891 5.70972 6.79975C5.61149 7.0306 5.55992 7.28354 5.55501 7.55859C5.55501 7.82873 5.60413 8.08168 5.70236 8.31743C5.80059 8.55319 5.94057 8.75948 6.1223 8.93629C6.30403 9.11311 6.51031 9.25064 6.74116 9.34887C6.972 9.4471 7.22495 9.49867 7.5 9.50358Z" fill="#FFAA29"/>
</svg>
