<svg width="17" height="17" viewBox="0 0 17 17" fill="none" xmlns="http://www.w3.org/2000/svg">
<g clip-path="url(#clip0)">
<path d="M8.5 17C6.22957 17 4.09504 16.1158 2.48957 14.5104C0.884166 12.905 0 10.7704 0 8.5C0 6.22957 0.884166 4.09504 2.48957 2.48957C4.09504 0.884166 6.22957 0 8.5 0C10.7704 0 12.905 0.884166 14.5104 2.48957C16.1158 4.09504 17 6.22957 17 8.5C17 10.7704 16.1158 12.905 14.5104 14.5104C12.905 16.1158 10.7704 17 8.5 17ZM8.5 1.32812C4.54541 1.32812 1.32812 4.54541 1.32812 8.5C1.32812 12.4546 4.54541 15.6719 8.5 15.6719C12.4546 15.6719 15.6719 12.4546 15.6719 8.5C15.6719 4.54541 12.4546 1.32812 8.5 1.32812ZM11.6124 9.96718C11.3029 9.77025 10.8925 9.86146 10.6956 10.1709C10.6874 10.1838 9.861 11.4571 8.4668 11.4571C7.0726 11.4571 6.24617 10.1838 6.23797 10.1709C6.04108 9.86149 5.63065 9.77028 5.32123 9.96718C5.01181 10.1641 4.9206 10.5745 5.1175 10.8839C5.1669 10.9615 6.35172 12.7852 8.4668 12.7852C10.5819 12.7852 11.7667 10.9616 11.8161 10.8839C12.013 10.5745 11.9218 10.1641 11.6124 9.96718ZM5.57812 5.47852C6.03656 5.47852 6.4082 5.85016 6.4082 6.30859C6.4082 6.76703 6.03656 7.13867 5.57812 7.13867C5.11969 7.13867 4.74805 6.76703 4.74805 6.30859C4.74805 5.85016 5.11969 5.47852 5.57812 5.47852ZM10.5586 6.30859C10.5586 6.76703 10.9302 7.13867 11.3887 7.13867C11.8471 7.13867 12.2188 6.76703 12.2188 6.30859C12.2188 5.85016 11.8471 5.47852 11.3887 5.47852C10.9302 5.47852 10.5586 5.85016 10.5586 6.30859Z" fill="#C1C3CB"/>
</g>
<defs>
<clipPath id="clip0">
<rect width="17" height="17" fill="white"/>
</clipPath>
</defs>
</svg>
