<svg width="16" height="15" viewBox="0 0 16 15" fill="none" xmlns="http://www.w3.org/2000/svg">
<path d="M8.19125 0.218262L10.564 5.04555L15.8822 5.78191L12.0367 9.54556L12.9367 14.7819L8.19125 12.3274L3.52761 14.7819L4.42761 9.54556L0.582153 5.78191L5.90035 5.04555L8.19125 0.218262Z" fill="#8E8E8E"/>
<path d="M8.19125 0.218262L10.564 5.04555L10.8095 7.33646L11.0549 9.87283L11.5458 14.0456L8.19125 12.3274L3.52761 14.7819L4.42761 9.54556L0.582153 5.78191L5.90035 5.04555L8.19125 0.218262Z" fill="#FFBB02"/>
<path opacity="0.15" d="M10.564 4.96338C8.19126 7.17248 7.4549 9.13612 4.26398 10.1179L3.4458 14.8634L8.19126 12.4089L11.464 14.127L10.9731 9.70885L10.564 4.96338Z" fill="#202020"/>
</svg>
