<svg width="17" height="16" viewBox="0 0 17 16" fill="none" xmlns="http://www.w3.org/2000/svg">
<path d="M16.0943 6.72703C16.0433 6.57004 15.9076 6.45567 15.7443 6.43193L11.1562 5.76524L9.10431 1.60789C9.03126 1.45989 8.88054 1.36621 8.71549 1.36621C8.55046 1.36621 8.39972 1.45992 8.32667 1.60789L6.27466 5.76526L1.68667 6.43193C1.52335 6.45567 1.38766 6.57007 1.33667 6.72703C1.28565 6.88398 1.3282 7.05629 1.44637 7.17147L4.76621 10.4076L3.98262 14.977C3.95472 15.1396 4.02161 15.304 4.15513 15.401C4.28862 15.498 4.46559 15.5108 4.61177 15.434L8.71546 13.2767L12.819 15.4341C12.8825 15.4674 12.9517 15.4839 13.0208 15.4839C13.1107 15.4839 13.2002 15.4559 13.2757 15.401C13.4092 15.304 13.4761 15.1397 13.4482 14.977L12.6644 10.4076L15.9845 7.1715C16.1027 7.05629 16.1453 6.88398 16.0943 6.72703ZM11.8958 9.94568C11.7936 10.0453 11.747 10.1888 11.7711 10.3295L12.445 14.2576L8.91728 12.403C8.79096 12.3366 8.64004 12.3366 8.51372 12.403L4.98584 14.2577L5.65948 10.3295C5.68359 10.1888 5.63696 10.0453 5.5348 9.94571L2.68085 7.16376L6.62498 6.59059C6.76622 6.57007 6.88826 6.48139 6.95145 6.35343L8.71546 2.77942L10.4794 6.3534C10.5426 6.48136 10.6646 6.57007 10.8059 6.59059L14.7501 7.16373L11.8958 9.94568Z" fill="#FFAA29" stroke="#FFAA29"/>
</svg>
