<svg width="33" height="35" viewBox="0 0 33 35" fill="none" xmlns="http://www.w3.org/2000/svg">
<path d="M32.1152 9.22852C32.1152 7.53231 30.4987 6.15234 28.5117 6.15234H27.1039C26.6081 4.95893 25.273 4.10156 23.707 4.10156H22.2425L21.7237 2.3301C21.3219 0.958193 19.8843 0 18.2278 0H14.7722C13.1156 0 11.678 0.958193 11.2762 2.3301L10.7574 4.10156H9.29297C7.72704 4.10156 6.3919 4.95893 5.89605 6.15234H4.48828C2.5013 6.15234 0.884766 7.53231 0.884766 9.22852V31.9238C0.884766 33.62 2.5013 35 4.48828 35H28.512C29.4737 35 30.3777 34.6824 31.0574 34.1058C31.7397 33.5269 32.1155 32.7552 32.1154 31.9328C32.1152 25.3906 32.1152 9.22852 32.1152 9.22852ZM8.0918 7.17773C8.0918 6.61233 8.63064 6.15234 9.29297 6.15234H11.6953C12.2465 6.15234 12.727 5.83208 12.8606 5.37564L13.6069 2.82748C13.7407 2.37016 14.2199 2.05078 14.7722 2.05078H18.2278C18.78 2.05078 19.2592 2.37016 19.3931 2.82748L20.1393 5.37564C20.273 5.83208 20.7535 6.15234 21.3047 6.15234H23.707C24.3694 6.15234 24.9082 6.61233 24.9082 7.17773V8.20312H8.0918V7.17773ZM29.364 32.6512C29.1374 32.8433 28.8349 32.9492 28.512 32.9492H4.48828C3.82596 32.9492 3.28711 32.4892 3.28711 31.9238V9.22852C3.28711 8.66312 3.82596 8.20312 4.48828 8.20312H5.68945V9.22852C5.68945 9.7948 6.22726 10.2539 6.89062 10.2539H26.1094C26.7727 10.2539 27.3105 9.7948 27.3105 9.22852V8.20312H28.5117C29.174 8.20312 29.7129 8.66312 29.7129 9.22852C29.7129 9.22852 29.7129 25.3907 29.7131 31.9329C29.7131 32.2051 29.5892 32.4601 29.364 32.6512Z" fill="#FFAA29"/>
<path d="M14.9469 12.6734C14.4781 12.2729 13.7175 12.2729 13.2484 12.6734L9.29301 16.0499L7.73998 14.7242C7.27096 14.3238 6.51037 14.3238 6.04128 14.7242C5.57218 15.1247 5.57218 15.7739 6.04128 16.1743L8.44362 18.2251C8.67817 18.4253 8.98559 18.5255 9.29293 18.5255C9.60027 18.5255 9.90777 18.4254 10.1422 18.2251L14.9469 14.1235C15.416 13.7231 15.416 13.0739 14.9469 12.6734Z" fill="#FFAA29"/>
<path d="M14.9469 18.8258C14.4781 18.4253 13.7175 18.4253 13.2484 18.8258L9.29301 22.2022L7.73998 20.8766C7.27096 20.4761 6.51037 20.4761 6.04128 20.8766C5.57218 21.277 5.57218 21.9262 6.04128 22.3267L8.44362 24.3774C8.67817 24.5777 8.98559 24.6778 9.29293 24.6778C9.60027 24.6778 9.90777 24.5777 10.1422 24.3774L14.9469 20.2759C15.416 19.8754 15.416 19.2262 14.9469 18.8258Z" fill="#FFAA29"/>
<path d="M14.9469 24.9781C14.4781 24.5776 13.7175 24.5776 13.2484 24.9781L9.29301 28.3546L7.73998 27.0289C7.27096 26.6285 6.51037 26.6285 6.04128 27.0289C5.57218 27.4293 5.57218 28.0786 6.04128 28.479L8.44362 30.5298C8.67817 30.73 8.98559 30.8302 9.29293 30.8302C9.60027 30.8302 9.90777 30.7301 10.1422 30.5298L14.9469 26.4282C15.416 26.0278 15.416 25.3786 14.9469 24.9781Z" fill="#FFAA29"/>
<path d="M26.1094 14.4238H18.9023C18.239 14.4238 17.7012 14.8829 17.7012 15.4492C17.7012 16.0155 18.239 16.4746 18.9023 16.4746H26.1094C26.7727 16.4746 27.3105 16.0155 27.3105 15.4492C27.3105 14.8829 26.7727 14.4238 26.1094 14.4238Z" fill="#FFAA29"/>
<path d="M26.1094 20.5762H18.9023C18.239 20.5762 17.7012 21.0353 17.7012 21.6016C17.7012 22.1679 18.239 22.627 18.9023 22.627H26.1094C26.7727 22.627 27.3105 22.1679 27.3105 21.6016C27.3105 21.0353 26.7727 20.5762 26.1094 20.5762Z" fill="#FFAA29"/>
<path d="M26.1094 26.7285H18.9023C18.239 26.7285 17.7012 27.1876 17.7012 27.7539C17.7012 28.3202 18.239 28.7793 18.9023 28.7793H26.1094C26.7727 28.7793 27.3105 28.3202 27.3105 27.7539C27.3105 27.1876 26.7727 26.7285 26.1094 26.7285Z" fill="#FFAA29"/>
<path d="M16.5 6.15234C17.1634 6.15234 17.7012 5.69326 17.7012 5.12695C17.7012 4.56065 17.1634 4.10156 16.5 4.10156C15.8366 4.10156 15.2988 4.56065 15.2988 5.12695C15.2988 5.69326 15.8366 6.15234 16.5 6.15234Z" fill="#FFAA29"/>
</svg>
