<svg width="25" height="22" viewBox="0 0 25 22" fill="none" xmlns="http://www.w3.org/2000/svg">
<path d="M22.8027 21.7773H2.19727C0.985693 21.7773 0 20.7917 0 19.5801V4.54102C0 3.32944 0.985693 2.34375 2.19727 2.34375H22.8027C24.0143 2.34375 25 3.32949 25 4.54102V19.5801C25 20.7917 24.0143 21.7773 22.8027 21.7773ZM2.19727 3.80859C1.79341 3.80859 1.46484 4.13716 1.46484 4.54102V19.5801C1.46484 19.9839 1.79341 20.3125 2.19727 20.3125H22.8027C23.2066 20.3125 23.5352 19.9839 23.5352 19.5801V4.54102C23.5352 4.13716 23.2066 3.80859 22.8027 3.80859H2.19727Z" fill="#A1A3A9"/>
<path d="M21.0938 8.10547H14.8438C14.4393 8.10547 14.1113 7.77754 14.1113 7.37305C14.1113 6.96855 14.4393 6.64062 14.8438 6.64062H21.0938C21.4982 6.64062 21.8262 6.96855 21.8262 7.37305C21.8262 7.77754 21.4982 8.10547 21.0938 8.10547Z" fill="#A1A3A9"/>
<path d="M8.69141 18.6523H6.93359C5.72202 18.6523 4.73633 17.6667 4.73633 16.4551V7.66602C4.73633 6.45444 5.72202 5.46875 6.93359 5.46875H8.69141C9.90298 5.46875 10.8887 6.45449 10.8887 7.66602V16.4551C10.8887 17.6667 9.90298 18.6523 8.69141 18.6523ZM6.93359 6.93359C6.52974 6.93359 6.20117 7.26216 6.20117 7.66602V16.4551C6.20117 16.8589 6.52974 17.1875 6.93359 17.1875H8.69141C9.09526 17.1875 9.42383 16.8589 9.42383 16.4551V7.66602C9.42383 7.26216 9.09526 6.93359 8.69141 6.93359H6.93359Z" fill="#A1A3A9"/>
<path d="M7.8125 6.93359C7.40801 6.93359 7.08008 6.60566 7.08008 6.20117V0.732422C7.08008 0.32793 7.40801 0 7.8125 0C8.21699 0 8.54492 0.32793 8.54492 0.732422V6.20117C8.54492 6.60566 8.21699 6.93359 7.8125 6.93359Z" fill="#A1A3A9"/>
<path d="M14.8437 11.2305C15.2482 11.2305 15.5761 10.9025 15.5761 10.498C15.5761 10.0935 15.2482 9.76562 14.8437 9.76562C14.4392 9.76562 14.1112 10.0935 14.1112 10.498C14.1112 10.9025 14.4392 11.2305 14.8437 11.2305Z" fill="#A1A3A9"/>
<path d="M17.9687 11.2305C18.3732 11.2305 18.7011 10.9025 18.7011 10.498C18.7011 10.0935 18.3732 9.76562 17.9687 9.76562C17.5642 9.76562 17.2363 10.0935 17.2363 10.498C17.2363 10.9025 17.5642 11.2305 17.9687 11.2305Z" fill="#A1A3A9"/>
<path d="M21.0938 11.2305C21.4983 11.2305 21.8262 10.9025 21.8262 10.498C21.8262 10.0935 21.4983 9.76562 21.0938 9.76562C20.6893 9.76562 20.3614 10.0935 20.3614 10.498C20.3614 10.9025 20.6893 11.2305 21.0938 11.2305Z" fill="#A1A3A9"/>
<path d="M14.8437 14.3555C15.2482 14.3555 15.5761 14.0276 15.5761 13.623C15.5761 13.2185 15.2482 12.8906 14.8437 12.8906C14.4392 12.8906 14.1112 13.2185 14.1112 13.623C14.1112 14.0276 14.4392 14.3555 14.8437 14.3555Z" fill="#A1A3A9"/>
<path d="M17.9687 14.3555C18.3732 14.3555 18.7011 14.0276 18.7011 13.623C18.7011 13.2185 18.3732 12.8906 17.9687 12.8906C17.5642 12.8906 17.2363 13.2185 17.2363 13.623C17.2363 14.0276 17.5642 14.3555 17.9687 14.3555Z" fill="#A1A3A9"/>
<path d="M21.0938 14.3555C21.4983 14.3555 21.8262 14.0276 21.8262 13.623C21.8262 13.2185 21.4983 12.8906 21.0938 12.8906C20.6893 12.8906 20.3614 13.2185 20.3614 13.623C20.3614 14.0276 20.6893 14.3555 21.0938 14.3555Z" fill="#A1A3A9"/>
<path d="M14.8437 17.48C15.2482 17.48 15.5761 17.1521 15.5761 16.7476C15.5761 16.3431 15.2482 16.0151 14.8437 16.0151C14.4392 16.0151 14.1112 16.3431 14.1112 16.7476C14.1112 17.1521 14.4392 17.48 14.8437 17.48Z" fill="#A1A3A9"/>
<path d="M17.9687 17.48C18.3732 17.48 18.7011 17.1521 18.7011 16.7476C18.7011 16.3431 18.3732 16.0151 17.9687 16.0151C17.5642 16.0151 17.2363 16.3431 17.2363 16.7476C17.2363 17.1521 17.5642 17.48 17.9687 17.48Z" fill="#A1A3A9"/>
<path d="M21.0938 17.48C21.4983 17.48 21.8262 17.1521 21.8262 16.7476C21.8262 16.3431 21.4983 16.0151 21.0938 16.0151C20.6893 16.0151 20.3614 16.3431 20.3614 16.7476C20.3614 17.1521 20.6893 17.48 21.0938 17.48Z" fill="#A1A3A9"/>
</svg>
