<svg width="20" height="20" viewBox="0 0 20 20" fill="none" xmlns="http://www.w3.org/2000/svg">
<path d="M18.7508 10.9986L18.9292 10.7857C19.3084 10.3333 19.5 9.8018 19.5 9.16678C19.5 8.62086 19.3135 8.15833 18.9271 7.75476C18.5407 7.35214 18.1063 7.16645 17.6008 7.16645H14.1384H13.4831L13.6562 6.53438C13.6925 6.40191 13.7307 6.28129 13.7715 6.17502C13.8157 6.05898 13.8737 5.94108 13.9391 5.82391L13.9391 5.82385C13.9969 5.72028 14.032 5.65386 14.0497 5.61705L14.0548 5.60646L14.0549 5.60652C14.2021 5.317 14.3105 5.08647 14.3828 4.91233L14.8446 5.10409M18.7508 10.9986L14.5957 4.20582C14.5189 4.52476 14.4473 4.75645 14.3826 4.91291L14.8446 5.10409M18.7508 10.9986L18.8373 11.2626M18.7508 10.9986L18.8373 11.2626M14.8446 5.10409C14.9237 4.91292 15.0025 4.6526 15.0819 4.32273L14.1384 6.3157V6.16645H14.3228C14.3391 6.13437 14.3568 6.10137 14.3757 6.06747C14.4339 5.96326 14.4757 5.88509 14.5006 5.8331C14.6505 5.53812 14.7653 5.29491 14.8446 5.10409ZM18.8373 11.2626C18.9528 11.6148 18.9998 11.8887 18.999 12.0949L18.999 12.1054L18.9994 12.1158C19.0203 12.665 18.8737 13.1494 18.5567 13.5875L18.4133 13.7856L18.4816 14.0204C18.5955 14.4115 18.5986 14.8261 18.4787 15.2746L18.4786 15.2746L18.4769 15.2814C18.3718 15.6982 18.1881 16.0221 17.9353 16.272L17.7705 16.4349M18.8373 11.2626L17.7705 16.4349M14.6944 2.84054L14.6944 2.84036C14.6914 2.74013 14.6738 2.56851 14.637 2.31073C14.6023 2.07114 14.5586 1.88947 14.5113 1.75774C14.4647 1.62886 14.3839 1.46691 14.2593 1.27C14.1551 1.10543 14.0346 0.980757 13.8986 0.887373L14.6944 2.84054ZM14.6944 2.84054C14.6982 2.96425 14.7006 3.12841 14.7006 3.33318C14.7006 3.6228 14.666 3.91353 14.5958 4.20569L14.6944 2.84054ZM11.8689 1.10265L11.8688 1.10282C11.7596 1.34648 11.691 1.54148 11.6548 1.69225C11.6127 1.86769 11.5627 2.12024 11.5053 2.45436L11.5039 2.4626L11.5022 2.4708C11.427 2.83515 11.3698 3.10381 11.3303 3.2719C11.2836 3.47163 11.1986 3.71107 11.0864 3.98084L11.0864 3.98106C10.961 4.28227 10.8017 4.5479 10.598 4.7602L10.5979 4.76026C10.3463 5.02236 9.94196 5.52072 9.37606 6.27459C8.96009 6.8402 8.53094 7.37581 8.08834 7.88124L8.08834 7.88124C7.86276 8.13885 7.65392 8.35031 7.46407 8.50385C7.29374 8.6416 7.0643 8.79579 6.8055 8.81828L6.80369 8.81844C6.72606 8.8249 6.66031 8.85335 6.59023 8.92839L6.59013 8.9285C6.52544 8.99774 6.49976 9.06503 6.49976 9.15351V17.4998C6.49976 17.5943 6.52725 17.6611 6.59323 17.7281L6.59353 17.7284C6.66597 17.8019 6.73432 17.8298 6.81797 17.8335C7.03292 17.8406 7.32303 17.9074 7.65146 18.0027C7.99509 18.1024 8.42663 18.2473 8.94312 18.4355C9.58235 18.66 10.0786 18.8297 10.4344 18.9445L10.4344 18.9445C10.7717 19.0534 11.258 19.1751 11.9006 19.3084L11.8689 1.10265ZM11.8689 1.10265C11.966 0.885699 12.0778 0.719275 12.1981 0.593872C12.2684 0.520756 12.328 0.5 12.4 0.5C12.7447 0.5 13.0387 0.541002 13.2882 0.615713C13.5581 0.696522 13.7569 0.79009 13.8986 0.887313L11.8689 1.10265ZM17.7705 16.4349L17.7882 16.6659M17.7705 16.4349L17.7882 16.6659M17.7882 16.6659C17.8559 17.5462 17.6686 18.1948 17.2855 18.67L17.7882 16.6659ZM14.1384 6.66645L14.6207 6.79853C14.6339 6.75021 14.6468 6.70625 14.6593 6.66645H17.6008C18.2507 6.66645 18.8132 6.91382 19.2881 7.40882C19.7622 7.90387 20 8.48972 20 9.16678L14.1384 6.66645ZM13.5992 19.5C13.0897 19.5 12.5243 19.4374 11.9009 19.3085L17.2851 18.6705C16.872 19.1808 16.2141 19.4835 15.2077 19.5H14.7618H13.8117H13.5992Z" fill="white" stroke="#27AE60"/>
<path d="M0.598256 8.92717L0.598161 8.92727C0.52797 9.00036 0.5 9.07211 0.5 9.16685V17.5005C0.5 17.5947 0.52784 17.6666 0.598156 17.74C0.668241 17.8127 0.728026 17.8336 0.800193 17.8336H4.40003C4.47211 17.8336 4.53181 17.8128 4.6019 17.74C4.67213 17.6666 4.69996 17.5948 4.69996 17.5005V9.16685C4.69996 9.07214 4.67201 9.00038 4.60175 8.92717M0.598256 8.92717L4.60175 8.92717M0.598256 8.92717C0.668084 8.85441 0.727676 8.8335 0.800149 8.8335H4.40003C4.47232 8.8335 4.53184 8.85432 4.60175 8.92717M0.598256 8.92717L4.96249 8.58095L4.60175 8.92717M2.40001 17.1668C2.75647 17.1668 3.07051 17.0286 3.31852 16.777C3.57339 16.5187 3.70003 16.1934 3.70003 15.8335C3.70003 15.4769 3.56961 15.1579 3.32302 14.9012C3.07641 14.6444 2.76114 14.5001 2.40001 14.5001C2.03588 14.5001 1.71429 14.6406 1.46612 14.9061C1.22518 15.1637 1.10008 15.4812 1.10008 15.8335C1.10008 16.1895 1.22194 16.5132 1.47059 16.7722C1.72019 17.0323 2.04064 17.1668 2.40001 17.1668Z" fill="white" stroke="#27AE60"/>
</svg>
