<svg width="20" height="20" viewBox="0 0 20 20" fill="none" xmlns="http://www.w3.org/2000/svg">
<path d="M1.24923 9.0014L1.07077 9.21433C0.691593 9.66673 0.500018 10.1982 0.500018 10.8332C0.500018 11.3791 0.686501 11.8417 1.07287 12.2452C1.45932 12.6479 1.89372 12.8335 2.39924 12.8335L5.86157 12.8335L6.51693 12.8335L6.34381 13.4656C6.30753 13.5981 6.26927 13.7187 6.22853 13.825C6.18434 13.941 6.1263 14.0589 6.06095 14.1761L6.06091 14.1761C6.00313 14.2797 5.96796 14.3461 5.95032 14.3829L5.94525 14.3935L5.94513 14.3935C5.79795 14.683 5.6895 14.9135 5.61718 15.0877L5.15542 14.8959M1.24923 9.0014L5.40426 15.7942C5.48106 15.4752 5.55268 15.2435 5.61742 15.0871L5.15542 14.8959M1.24923 9.0014L1.16268 8.73739M1.24923 9.0014L1.16268 8.73739M5.15542 14.8959C5.07631 15.0871 4.99754 15.3474 4.91812 15.6773L5.86157 13.6843L5.86157 13.8335L5.67721 13.8335C5.66085 13.8656 5.64319 13.8986 5.62428 13.9325C5.56613 14.0367 5.52432 14.1149 5.49941 14.1669C5.34946 14.4619 5.23466 14.7051 5.15542 14.8959ZM1.16268 8.73739C1.04723 8.38522 1.00023 8.11131 1.00101 7.90512L1.00105 7.89464L1.00065 7.88417C0.979693 7.33504 1.12628 6.85058 1.44334 6.41253L1.58671 6.21443L1.51838 5.97964C1.40452 5.58846 1.40145 5.17391 1.52134 4.72539L1.52139 4.72541L1.52312 4.71855C1.62823 4.30175 1.81188 3.9779 2.0647 3.72803L2.22952 3.56513M1.16268 8.73739L2.22952 3.56513M5.30555 17.1595L5.30556 17.1596C5.30856 17.2599 5.32619 17.4315 5.36296 17.6893C5.39772 17.9289 5.44143 18.1105 5.48873 18.2423C5.53527 18.3711 5.61605 18.5331 5.74069 18.73C5.8449 18.8946 5.96542 19.0192 6.10135 19.1126L5.30555 17.1595ZM5.30555 17.1595C5.3018 17.0358 5.29943 16.8716 5.29943 16.6668C5.29943 16.3772 5.33398 16.0865 5.40423 15.7943L5.30555 17.1595ZM8.13114 18.8973L8.13122 18.8972C8.24041 18.6535 8.309 18.4585 8.34521 18.3077C8.38733 18.1323 8.43734 17.8798 8.49469 17.5456L8.49611 17.5374L8.4978 17.5292C8.57297 17.1649 8.63024 16.8962 8.66974 16.7281C8.71639 16.5284 8.80142 16.2889 8.91356 16.0192L8.91365 16.0189C9.03902 15.7177 9.19827 15.4521 9.40202 15.2398L9.40207 15.2397C9.65369 14.9776 10.058 14.4793 10.6239 13.7254C11.0399 13.1598 11.4691 12.6242 11.9117 12.1188L11.9117 12.1188C12.1372 11.8612 12.3461 11.6497 12.5359 11.4962C12.7063 11.3584 12.9357 11.2042 13.1945 11.1817L13.1963 11.1816C13.2739 11.1751 13.3397 11.1467 13.4098 11.0716L13.4099 11.0715C13.4746 11.0023 13.5002 10.935 13.5002 10.8465L13.5002 2.50019C13.5002 2.40573 13.4727 2.33885 13.4068 2.27195L13.4065 2.27165C13.334 2.19807 13.2657 2.17019 13.182 2.16647C12.9671 2.15945 12.677 2.09256 12.3485 1.9973C12.0049 1.89762 11.5734 1.75271 11.0569 1.56451C10.4177 1.34001 9.92139 1.17032 9.5656 1.05547L9.56557 1.05546C9.22834 0.946571 8.74205 0.82488 8.09939 0.691574L8.13114 18.8973ZM8.13114 18.8973C8.03401 19.1143 7.92222 19.2807 7.80187 19.4061C7.73162 19.4792 7.67204 19.5 7.59996 19.5C7.25532 19.5 6.96131 19.459 6.71181 19.3843C6.44194 19.3035 6.24308 19.2099 6.10144 19.1127L8.13114 18.8973ZM2.22952 3.56513L2.21176 3.33408M2.22952 3.56513L2.21176 3.33408M2.21176 3.33408C2.1441 2.45384 2.33142 1.80523 2.71447 1.33L2.21176 3.33408ZM5.86157 13.3335L5.37933 13.2015C5.3661 13.2498 5.35321 13.2937 5.34074 13.3335L2.39924 13.3335C1.74926 13.3335 1.18685 13.0862 0.711861 12.5912C0.237839 12.0961 1.79083e-05 11.5103 1.79675e-05 10.8332L5.86157 13.3335ZM6.40083 0.499999C6.91033 0.499999 7.47572 0.562566 8.09914 0.69152L2.71492 1.32946C3.12799 0.819171 3.78588 0.516469 4.79231 0.499999L5.23821 0.499999L6.18827 0.499999L6.40083 0.499999Z" fill="white" stroke="#F44336"/>
<path d="M19.4017 11.0728L19.4018 11.0727C19.472 10.9996 19.5 10.9279 19.5 10.8331L19.5 2.49951C19.5 2.4053 19.4722 2.33339 19.4018 2.25998C19.3318 2.18725 19.272 2.16639 19.1998 2.16639L15.6 2.16639C15.5279 2.16639 15.4682 2.18721 15.3981 2.26C15.3279 2.33335 15.3 2.40522 15.3 2.49951L15.3 10.8331C15.3 10.9279 15.328 10.9996 15.3983 11.0728M19.4017 11.0728L15.3983 11.0728M19.4017 11.0728C19.3319 11.1456 19.2723 11.1665 19.1999 11.1665L15.6 11.1665C15.5277 11.1665 15.4682 11.1457 15.3983 11.0728M19.4017 11.0728L15.0375 11.419L15.3983 11.0728M17.6 2.83319C17.2435 2.83319 16.9295 2.97143 16.6815 3.223C16.4266 3.48132 16.3 3.80662 16.3 4.16645C16.3 4.52308 16.4304 4.84211 16.677 5.09876C16.9236 5.35563 17.2389 5.4999 17.6 5.4999C17.9641 5.4999 18.2857 5.35943 18.5339 5.09389C18.7748 4.83628 18.8999 4.51878 18.8999 4.16645C18.8999 3.81053 18.7781 3.48678 18.5294 3.22777C18.2798 2.96768 17.9594 2.83319 17.6 2.83319Z" fill="white" stroke="#F44336"/>
</svg>
