<svg width="14" height="14" viewBox="0 0 14 14" fill="none" xmlns="http://www.w3.org/2000/svg">
<path d="M13.5186 7.7436C13.8394 7.37614 13.9999 6.94159 13.9999 6.43987C13.9999 5.98489 13.8334 5.59119 13.5016 5.25852C13.1691 4.92588 12.7754 4.75965 12.3204 4.75965H9.89678C9.92007 4.678 9.94342 4.60801 9.96671 4.54969C9.98979 4.49136 10.0222 4.42713 10.0629 4.35713C10.1036 4.2871 10.1329 4.23457 10.1503 4.19963C10.2553 4.00141 10.3356 3.83797 10.3911 3.70974C10.4465 3.58127 10.5016 3.40634 10.5572 3.18467C10.6127 2.96312 10.6403 2.74136 10.6403 2.51969C10.6403 2.37975 10.6386 2.2659 10.6358 2.17846C10.6331 2.09096 10.6182 1.95967 10.5922 1.78465C10.5658 1.60971 10.5307 1.46386 10.4871 1.34725C10.4433 1.23061 10.3732 1.09926 10.2771 0.95353C10.1808 0.807527 10.0642 0.689567 9.92703 0.599097C9.78985 0.508688 9.61492 0.432867 9.40201 0.371665C9.18889 0.310402 8.94841 0.279785 8.67991 0.279785C8.52827 0.279785 8.39713 0.335226 8.28618 0.446076C8.16954 0.562719 8.07021 0.708537 7.98863 0.883471C7.90693 1.0585 7.85002 1.21017 7.8179 1.33855C7.78581 1.46687 7.74931 1.64484 7.70864 1.87227C7.65596 2.11738 7.61676 2.29373 7.59034 2.40163C7.56414 2.50954 7.51296 2.65098 7.4372 2.82594C7.36129 3.00103 7.27097 3.14093 7.16594 3.24599C6.97348 3.43845 6.67893 3.78847 6.28217 4.29593C5.99627 4.66921 5.70172 5.02211 5.3984 5.35463C5.09503 5.68721 4.87339 5.85926 4.73343 5.87094C4.5877 5.88259 4.46226 5.94238 4.35723 6.05035C4.25221 6.15826 4.19971 6.28517 4.19971 6.43095V12.0397C4.19971 12.1913 4.25509 12.3211 4.36594 12.429C4.47673 12.537 4.60799 12.5939 4.75966 12.5997C4.9638 12.6056 5.42464 12.7338 6.14218 12.9848C6.59128 13.1363 6.94268 13.2516 7.19644 13.3303C7.45013 13.4089 7.80475 13.4936 8.2594 13.5841C8.71448 13.6745 9.1344 13.7198 9.5193 13.7198H9.66809H10.3331H10.6481C11.4241 13.7082 11.9984 13.4806 12.3719 13.0374C12.7101 12.6348 12.8529 12.1069 12.8006 11.4535C13.0281 11.2377 13.1857 10.9637 13.2731 10.6311C13.3721 10.2755 13.3721 9.93419 13.2731 9.60758C13.5414 9.25174 13.6668 8.85216 13.6492 8.40882C13.6499 8.22197 13.6063 8.00036 13.5186 7.7436Z" fill="white"/>
<path d="M3.08002 5.87988H0.560104C0.40834 5.87988 0.277079 5.93532 0.16626 6.04617C0.0554404 6.15696 0 6.28822 0 6.4399V12.0401C0 12.1916 0.0554404 12.3229 0.16629 12.4338C0.277202 12.5445 0.408463 12.6 0.560135 12.6H3.08002C3.23166 12.6 3.36286 12.5445 3.47374 12.4338C3.58456 12.3229 3.63997 12.1916 3.63997 12.0401V6.4399C3.63997 6.28822 3.58453 6.15699 3.47374 6.04617C3.36289 5.93529 3.23169 5.87988 3.08002 5.87988ZM2.07373 11.318C1.96291 11.4259 1.83168 11.4799 1.68001 11.4799C1.52248 11.4799 1.38975 11.4259 1.2819 11.318C1.17399 11.2101 1.12006 11.0775 1.12006 10.9199C1.12006 10.7683 1.17396 10.637 1.2819 10.5262C1.38978 10.4154 1.52248 10.3598 1.68001 10.3598C1.83168 10.3598 1.96291 10.4154 2.07373 10.5262C2.18458 10.637 2.24002 10.7683 2.24002 10.9199C2.24002 11.0775 2.1847 11.2101 2.07373 11.318Z" fill="white"/>
</svg>
