<svg width="14" height="14" viewBox="0 0 14 14" fill="none" xmlns="http://www.w3.org/2000/svg">
<path d="M6.99652 0C3.12901 0 0 3.13252 0 7C0 10.8675 3.12901 14 6.99652 14C10.864 14 14 10.8675 14 7C14 3.13252 10.864 0 6.99652 0ZM7 12.6C3.90601 12.6 1.39998 10.094 1.39998 7C1.39998 3.90597 3.90601 1.40001 7 1.40001C10.094 1.40001 12.6 3.90601 12.6 7C12.6 10.094 10.094 12.6 7 12.6Z" fill="#A6AAB5"/>
<path d="M7.34993 7.17501V3.5H6.29993V7.70001L9.97142 9.90501L10.4999 9.04401L7.34993 7.17501Z" fill="#A6AAB5"/>
</svg>
