<svg width="12" height="15" viewBox="0 0 12 15" fill="none" xmlns="http://www.w3.org/2000/svg">
<path d="M10.2256 4.18628H1.01911C0.740506 4.18628 0.514648 4.41211 0.514648 4.69069V12.5708C0.514648 13.9102 1.60438 14.9999 2.94369 14.9999H8.30089C9.64026 14.9999 10.73 13.9102 10.73 12.5708V4.69069C10.73 4.41214 10.5043 4.18628 10.2256 4.18628ZM4.40972 11.9617C4.40972 12.304 4.13227 12.5815 3.78997 12.5815C3.44778 12.5815 3.17021 12.304 3.17021 11.9617V7.22442C3.17021 6.88214 3.44774 6.60471 3.78997 6.60471C4.13224 6.60471 4.40972 6.88216 4.40972 7.22442V11.9617ZM8.07445 11.9617C8.07445 12.304 7.797 12.5815 7.45469 12.5815C7.11251 12.5815 6.83494 12.304 6.83494 11.9617V7.22442C6.83494 6.88214 7.11246 6.60471 7.45469 6.60471C7.79697 6.60471 8.07445 6.88216 8.07445 7.22442V11.9617Z" fill="#FFAA29"/>
<path d="M9.72184 0.784853H7.52444V0.594289C7.52444 0.266593 7.25789 0 6.93022 0H4.3177C3.99 0 3.72341 0.266593 3.72341 0.594289V0.784853H1.526C0.684583 0.784853 0 1.46939 0 2.31083V3.28936C0 3.46436 0.141863 3.60625 0.316936 3.60625H10.931C11.106 3.60625 11.2478 3.46436 11.2478 3.28936V2.31083C11.2478 1.46941 10.5633 0.784853 9.72184 0.784853Z" fill="#FFAA29"/>
</svg>
