<svg width="14" height="12" viewBox="0 0 14 12" fill="none" xmlns="http://www.w3.org/2000/svg">
<path d="M6.01767 1.30338L1.15343 9.42385C1.05314 9.59752 1.00008 9.79443 0.999516 9.99499C0.998955 10.1955 1.05092 10.3927 1.15023 10.567C1.24955 10.7412 1.39275 10.8864 1.5656 10.9881C1.73846 11.0898 1.93493 11.1445 2.13547 11.1467H11.8639C12.0645 11.1445 12.261 11.0898 12.4338 10.9881C12.6067 10.8864 12.7499 10.7412 12.8492 10.567C12.9485 10.3927 13.0005 10.1955 12.9999 9.99499C12.9993 9.79443 12.9463 9.59752 12.846 9.42385L7.98174 1.30338C7.87936 1.1346 7.73521 0.995057 7.5632 0.898212C7.39118 0.801366 7.19711 0.750488 6.99971 0.750488C6.8023 0.750488 6.60823 0.801366 6.43622 0.898212C6.2642 0.995057 6.12005 1.1346 6.01767 1.30338V1.30338Z" stroke="#FDA458" stroke-width="1.5" stroke-linecap="round" stroke-linejoin="round"/>
<path d="M6.99988 4.25537V6.55253" stroke="#FDA458" stroke-width="1.5" stroke-linecap="round" stroke-linejoin="round"/>
<path d="M6.99988 8.84961H7.00658" stroke="#FDA458" stroke-width="1.5" stroke-linecap="round" stroke-linejoin="round"/>
</svg>
