<svg width="16" height="17" viewBox="0 0 16 17" fill="none" xmlns="http://www.w3.org/2000/svg">
<path opacity="0.8" d="M14.7646 2.93187L13.1189 1.41188C12.8333 1.14816 12.4461 1 12.0423 1L6.58271 1C5.74181 1 5.06015 1.62959 5.06015 2.40625V3.8125H2.52256C1.68166 3.8125 1 4.44209 1 5.21875V14.5938C1 15.3704 1.68166 16 2.52256 16H9.62782C10.4687 16 11.1504 15.3704 11.1504 14.5938V13.1875H13.688C14.5289 13.1875 15.2105 12.5579 15.2105 11.7812V3.92623C15.2105 3.55327 15.0501 3.19559 14.7646 2.93187ZM12.1654 1.95188C12.2547 1.97222 12.3362 2.01472 12.4011 2.07479L14.0468 3.59479C14.1118 3.6548 14.1579 3.73008 14.1799 3.8125H12.1654V1.95188ZM10.1353 14.5938C10.1353 14.8522 9.90765 15.0625 9.62782 15.0625H2.52256C2.24272 15.0625 2.01504 14.8522 2.01504 14.5938V5.21875C2.01504 4.96029 2.24272 4.75 2.52256 4.75H5.06015V11.7812C5.06015 12.5579 5.74181 13.1875 6.58271 13.1875H10.1353V14.5938ZM14.1955 11.7812C14.1955 12.0397 13.9678 12.25 13.688 12.25H6.58271C6.30287 12.25 6.07519 12.0397 6.07519 11.7812V2.40625C6.07519 2.14779 6.30287 1.9375 6.58271 1.9375H11.1504V4.04688C11.1504 4.43359 11.493 4.75 11.9117 4.75H14.1955V11.7812Z" fill="#A6AAB5" stroke="#A6AAB5" stroke-width="0.4"/>
</svg>
